<svg width="403" height="829" viewBox="0 0 403 829" fill="none" xmlns="http://www.w3.org/2000/svg">
<mask id="mask0_2_19179" style="mask-type:luminance" maskUnits="userSpaceOnUse" x="0" y="0" width="403" height="829">
<path d="M402.905 0H0V829H402.905V0Z" fill="white"/>
</mask>
<g mask="url(#mask0_2_19179)">
<path d="M402.905 0H0V829H402.905V0Z" fill="white"/>
<path d="M402.331 1.33326H0.716933V829.364H402.331V1.33326Z" fill="white"/>
<mask id="mask1_2_19179" style="mask-type:luminance" maskUnits="userSpaceOnUse" x="0" y="1" width="403" height="930">
<path d="M402.879 1.33326H0.168977V930.81H402.879V1.33326Z" fill="white"/>
</mask>
<g mask="url(#mask1_2_19179)">
<path d="M404.61 103.852C438.221 103.852 465.468 76.6044 465.468 42.9932C465.468 9.38197 438.221 -17.8653 404.61 -17.8653C370.998 -17.8653 343.751 9.38197 343.751 42.9932C343.751 76.6044 370.998 103.852 404.61 103.852Z" stroke="#DAE5EF" stroke-width="40" stroke-miterlimit="10"/>
<path d="M6.47916 37.8422C32.025 37.8422 52.7339 17.1332 52.7339 -8.41258C52.7339 -33.9584 32.025 -54.6673 6.47916 -54.6673C-19.0666 -54.6673 -39.7756 -33.9584 -39.7756 -8.41258C-39.7756 17.1332 -19.0666 37.8422 6.47916 37.8422Z" stroke="#F4DBEB" stroke-width="14" stroke-miterlimit="10"/>
</g>
<path d="M25.1609 92.1134C27.0329 92.1134 28.5505 90.5958 28.5505 88.7238C28.5505 86.8517 27.0329 85.3342 25.1609 85.3342C23.2888 85.3342 21.7712 86.8517 21.7712 88.7238C21.7712 90.5958 23.2888 92.1134 25.1609 92.1134Z" fill="#D5539E"/>
<path d="M31.6018 67.5408C31.6018 62.4598 24.2404 64.4202 24.2404 61.2796C24.2404 59.9393 25.2606 59.2992 26.5809 59.3392C28.0211 59.3792 28.8413 60.2394 28.9213 61.1796H31.4418C31.2417 58.7991 29.3614 57.3989 26.7009 57.3989C23.8603 57.3989 21.92 58.9191 21.92 61.3596C21.92 66.4806 29.3014 64.3002 29.3014 67.6608C29.3014 68.841 28.4012 69.7012 26.8009 69.7012C25.2206 69.7012 24.4204 68.781 24.3204 67.6408H21.88C21.88 70.1013 24.0204 71.6215 26.8009 71.6215C29.9015 71.6215 31.6018 69.6212 31.6018 67.5408ZM44.2745 60.4594H41.9941V66.6006C41.9941 68.621 40.8939 69.6612 39.2136 69.6612C37.5532 69.6612 36.453 68.621 36.453 66.6006V60.4594H34.1926V66.9407C34.1926 70.0212 36.153 71.6416 38.7335 71.6416C40.0337 71.6416 41.2739 71.1015 41.9941 70.1613V71.4815H44.2745V60.4594ZM49.5638 62.0997V56.6787H47.2834V71.4815H49.5638V69.8812C50.2839 70.8414 51.5842 71.6616 53.4045 71.6616C56.3051 71.6616 58.5855 69.3211 58.5855 65.9205C58.5855 62.5198 56.3251 60.2794 53.4045 60.2794C51.6642 60.2794 50.2839 61.0996 49.5638 62.0997ZM56.2651 65.9205C56.2651 68.3009 54.6248 69.6812 52.9044 69.6812C51.2041 69.6812 49.5638 68.3409 49.5638 65.9605C49.5638 63.6 51.2041 62.2598 52.9044 62.2598C54.6248 62.2598 56.2651 63.54 56.2651 65.9205ZM69.0622 68.4009C68.9422 64.4202 62.721 65.6604 62.721 63.44C62.721 62.6999 63.3611 62.1998 64.5813 62.1998C65.8216 62.1998 66.5617 62.8599 66.6417 63.8201H68.9222C68.8021 61.6197 67.1618 60.2794 64.6613 60.2794C62.0609 60.2794 60.4205 61.6997 60.4205 63.46C60.4205 67.5008 66.8218 66.2605 66.8218 68.4209C66.8218 69.1811 66.1216 69.7412 64.8014 69.7412C63.5411 69.7412 62.681 69.0011 62.601 68.1009H60.2405C60.3405 70.1013 62.2009 71.6616 64.8414 71.6616C67.4419 71.6616 69.0622 70.2613 69.0622 68.4009ZM70.7661 65.9605C70.7661 69.4211 73.0065 71.6616 76.1671 71.6616C78.8676 71.6616 80.628 70.1613 81.2481 68.0009H78.7876C78.3675 69.1411 77.5274 69.7412 76.1671 69.7412C74.3268 69.7412 73.1065 68.3809 73.1065 65.9605C73.1065 63.56 74.3268 62.1998 76.1671 62.1998C77.5274 62.1998 78.4075 62.8799 78.7876 63.9401H81.2481C80.628 61.6197 78.8676 60.2794 76.1671 60.2794C73.0065 60.2794 70.7661 62.5198 70.7661 65.9605ZM85.8011 65.6804C85.8011 63.34 86.8413 62.6398 88.5216 62.6398H89.1018V60.2794C87.5415 60.2794 86.4413 60.9595 85.8011 62.0597V60.4594H83.5207V71.4815H85.8011V65.6804ZM91.1979 71.4815H93.4784V60.4594H91.1979V71.4815ZM92.3582 58.9992C93.1583 58.9992 93.7984 58.359 93.7984 57.5389C93.7984 56.7187 93.1583 56.0786 92.3582 56.0786C91.538 56.0786 90.8979 56.7187 90.8979 57.5389C90.8979 58.359 91.538 58.9992 92.3582 58.9992ZM98.7528 62.0797V60.4594H96.4724V76.7225H98.7528V69.8812C99.4729 70.7414 100.773 71.6616 102.594 71.6616C105.494 71.6616 107.775 69.3211 107.775 65.9205C107.775 62.5198 105.494 60.2794 102.594 60.2794C100.793 60.2794 99.4529 61.1596 98.7528 62.0797ZM105.454 65.9205C105.454 68.3009 103.814 69.6812 102.093 69.6812C100.393 69.6812 98.7528 68.3409 98.7528 65.9605C98.7528 63.6 100.393 62.2598 102.093 62.2598C103.814 62.2598 105.454 63.54 105.454 65.9205ZM110.39 68.4209C110.39 70.6614 111.61 71.4815 113.57 71.4815H115.371V69.5812H113.97C113.01 69.5812 112.69 69.2411 112.69 68.4209V62.3198H115.371V60.4594H112.69V57.7189H110.39V60.4594H109.089V62.3198H110.39V68.4209ZM117.472 71.4815H119.753V60.4594H117.472V71.4815ZM118.633 58.9992C119.433 58.9992 120.073 58.359 120.073 57.5389C120.073 56.7187 119.433 56.0786 118.633 56.0786C117.813 56.0786 117.172 56.7187 117.172 57.5389C117.172 58.359 117.813 58.9992 118.633 58.9992ZM133.249 65.9605C133.249 62.4998 130.768 60.2794 127.628 60.2794C124.487 60.2794 122.007 62.4998 122.007 65.9605C122.007 69.4211 124.387 71.6616 127.528 71.6616C130.688 71.6616 133.249 69.4211 133.249 65.9605ZM124.327 65.9605C124.327 63.46 125.867 62.2598 127.588 62.2598C129.288 62.2598 130.908 63.46 130.908 65.9605C130.908 68.461 129.228 69.6812 127.528 69.6812C125.807 69.6812 124.327 68.461 124.327 65.9605ZM143.325 71.4815H145.585V64.9803C145.585 61.8997 143.645 60.2794 141.064 60.2794C139.744 60.2794 138.524 60.8195 137.784 61.7197V60.4594H135.503V71.4815H137.784V65.3204C137.784 63.3 138.884 62.2598 140.564 62.2598C142.224 62.2598 143.325 63.3 143.325 65.3204V71.4815Z" fill="#1E619B"/>
<path d="M314.567 745.379H88.3376C77.2312 745.379 68.2278 754.382 68.2278 765.488C68.2278 776.594 77.2312 785.598 88.3376 785.598H314.567C325.674 785.598 334.677 776.594 334.677 765.488C334.677 754.382 325.674 745.379 314.567 745.379Z" fill="#1D9AAC"/>
<path d="M176.968 771.718H178.703L175.104 761.658H173.196L169.597 771.718H171.317L172.039 769.666H176.245L176.968 771.718ZM175.783 768.322H172.502L174.15 763.653L175.783 768.322ZM179.718 767.7C179.718 770.157 181.38 771.848 183.476 771.848C184.777 771.848 185.731 771.241 186.237 770.518V771.718H187.899V761.022H186.237V764.867C185.63 764.115 184.531 763.624 183.491 763.624C181.38 763.624 179.718 765.243 179.718 767.7ZM186.237 767.729C186.237 769.449 185.066 770.417 183.823 770.417C182.594 770.417 181.409 769.42 181.409 767.7C181.409 765.98 182.594 765.055 183.823 765.055C185.066 765.055 186.237 766.023 186.237 767.729ZM189.514 767.7C189.514 770.157 191.176 771.848 193.272 771.848C194.573 771.848 195.527 771.241 196.033 770.518V771.718H197.695V761.022H196.033V764.867C195.426 764.115 194.327 763.624 193.286 763.624C191.176 763.624 189.514 765.243 189.514 767.7ZM196.033 767.729C196.033 769.449 194.862 770.417 193.619 770.417C192.39 770.417 191.205 769.42 191.205 767.7C191.205 765.98 192.39 765.055 193.619 765.055C194.862 765.055 196.033 766.023 196.033 767.729ZM210.219 761.658V769.145L205.261 761.658H203.614V771.718H205.261V764.217L210.219 771.718H211.867V761.658H210.219ZM217.384 765.012C218.612 765.012 219.581 765.792 219.61 767.021H215.201C215.375 765.763 216.271 765.012 217.384 765.012ZM221.113 769.348H219.335C219.031 769.969 218.468 770.461 217.456 770.461C216.242 770.461 215.302 769.666 215.187 768.35H221.272C221.315 768.076 221.33 767.816 221.33 767.541C221.33 765.2 219.725 763.624 217.456 763.624C215.1 763.624 213.481 765.228 213.481 767.729C213.481 770.229 215.172 771.848 217.456 771.848C219.407 771.848 220.665 770.735 221.113 769.348ZM224.498 771.718H226.232L227.836 765.835L229.441 771.718H231.175L233.647 763.754H232.028L230.38 770.128L228.761 763.754H227.041L225.35 770.157L223.688 763.754H222.012L224.498 771.718Z" fill="#EFF3F8"/>
<path d="M38.4402 176.443H40.7326V183.921H41.8248V176.443H44.1053V175.555H38.4402V176.443ZM45.4497 183.921H46.5419V177.344H45.4497V183.921ZM46.0138 176.275C46.4099 176.275 46.7339 175.951 46.7339 175.531C46.7339 175.111 46.4099 174.787 46.0138 174.787C45.5937 174.787 45.2697 175.111 45.2697 175.531C45.2697 175.951 45.5937 176.275 46.0138 176.275ZM48.6434 182.12C48.6434 183.441 49.3036 183.921 50.4678 183.921H51.452V182.997H50.6478C49.9757 182.997 49.7356 182.769 49.7356 182.12V178.244H51.452V177.344H49.7356V175.687H48.6434V177.344H47.7913V178.244H48.6434V182.12ZM52.7753 183.921H53.8675V175.039H52.7753V183.921ZM58.5255 178.16C59.6537 178.16 60.6139 178.868 60.6019 180.152H56.4491C56.5691 178.868 57.4573 178.16 58.5255 178.16ZM61.5981 181.892H60.4219C60.1818 182.601 59.5577 183.105 58.5735 183.105C57.4573 183.105 56.5211 182.373 56.4371 181.04H61.6941C61.7181 180.812 61.7301 180.62 61.7301 180.38C61.7301 178.58 60.4819 177.236 58.5735 177.236C56.6532 177.236 55.3209 178.544 55.3209 180.62C55.3209 182.709 56.7012 184.029 58.5735 184.029C60.2058 184.029 61.262 183.093 61.5981 181.892Z" fill="#666666"/>
<path d="M38.7245 145.01H40.5848V151.032H41.725V145.01H43.5754V144.08H38.7245V145.01ZM44.7301 151.032H45.8704V145.521H44.7301V151.032ZM45.3103 144.79C45.7103 144.79 46.0304 144.47 46.0304 144.06C46.0304 143.65 45.7103 143.33 45.3103 143.33C44.9002 143.33 44.5801 143.65 44.5801 144.06C44.5801 144.47 44.9002 144.79 45.3103 144.79ZM47.5474 149.501C47.5474 150.622 48.1575 151.032 49.1377 151.032H50.0379V150.081H49.3377C48.8577 150.081 48.6976 149.911 48.6976 149.501V146.451H50.0379V145.521H48.6976V144.15H47.5474V145.521H46.8973V146.451H47.5474V149.501ZM51.0888 151.032H52.229V143.63H51.0888V151.032ZM56.0464 146.391C56.8966 146.391 57.5667 146.931 57.5867 147.781H54.5361C54.6562 146.911 55.2763 146.391 56.0464 146.391ZM58.6269 149.391H57.3967C57.1866 149.821 56.7966 150.161 56.0964 150.161C55.2563 150.161 54.6062 149.611 54.5261 148.701H58.7369C58.7669 148.511 58.777 148.331 58.777 148.141C58.777 146.521 57.6667 145.431 56.0964 145.431C54.4661 145.431 53.3459 146.541 53.3459 148.271C53.3459 150.001 54.5161 151.122 56.0964 151.122C57.4467 151.122 58.3169 150.351 58.6269 149.391Z" fill="#1D9AAC"/>
<path d="M363.69 160.128H40.2576C30.1433 160.128 21.9441 168.328 21.9441 178.442V178.443C21.9441 188.557 30.1433 196.756 40.2576 196.756H363.69C373.804 196.756 382.003 188.557 382.003 178.443V178.442C382.003 168.328 373.804 160.128 363.69 160.128Z" stroke="#969696" stroke-width="0.516" stroke-miterlimit="10"/>
<path d="M44.2175 248.536C44.2175 245.439 39.7046 246.784 39.7046 244.623C39.7046 243.723 40.4128 243.255 41.3129 243.279C42.3331 243.291 42.8612 243.927 42.9333 244.491H44.1335C44.0015 243.219 42.9573 242.343 41.361 242.343C39.7046 242.343 38.5884 243.279 38.5884 244.659C38.5884 247.768 43.1133 246.328 43.1133 248.584C43.1133 249.376 42.4892 249.976 41.433 249.976C40.2687 249.976 39.7767 249.28 39.7046 248.584H38.5404C38.5644 249.964 39.7526 250.901 41.433 250.901C43.2453 250.901 44.2175 249.724 44.2175 248.536ZM48.6213 245.055C49.7495 245.055 50.7097 245.764 50.6977 247.048H46.5449C46.6649 245.764 47.5531 245.055 48.6213 245.055ZM51.6939 248.788H50.5177C50.2776 249.496 49.6535 250 48.6693 250C47.5531 250 46.6169 249.268 46.5329 247.936H51.7899C51.8139 247.708 51.8259 247.516 51.8259 247.276C51.8259 245.475 50.5777 244.131 48.6693 244.131C46.7489 244.131 45.4167 245.439 45.4167 247.516C45.4167 249.604 46.797 250.925 48.6693 250.925C50.3016 250.925 51.3578 249.988 51.6939 248.788ZM53.2676 250.816H54.3598V241.935H53.2676V250.816ZM59.0178 245.055C60.146 245.055 61.1062 245.764 61.0942 247.048H56.9414C57.0614 245.764 57.9496 245.055 59.0178 245.055ZM62.0904 248.788H60.9142C60.6741 249.496 60.05 250 59.0658 250C57.9496 250 57.0134 249.268 56.9294 247.936H62.1864C62.2104 247.708 62.2224 247.516 62.2224 247.276C62.2224 245.475 60.9742 244.131 59.0658 244.131C57.1454 244.131 55.8132 245.439 55.8132 247.516C55.8132 249.604 57.1935 250.925 59.0658 250.925C60.6981 250.925 61.7543 249.988 62.0904 248.788ZM63.256 247.516C63.256 249.604 64.5883 250.925 66.4606 250.925C68.0929 250.925 69.1611 250.012 69.4972 248.704H68.321C68.0809 249.532 67.4328 250 66.4606 250C65.2604 250 64.3722 249.148 64.3722 247.516C64.3722 245.908 65.2604 245.055 66.4606 245.055C67.4328 245.055 68.0929 245.559 68.321 246.352H69.4972C69.1611 244.971 68.0929 244.131 66.4606 244.131C64.5883 244.131 63.256 245.451 63.256 247.516ZM71.1946 249.016C71.1946 250.336 71.8547 250.816 73.0189 250.816H74.0031V249.892H73.199C72.5268 249.892 72.2868 249.664 72.2868 249.016V245.139H74.0031V244.239H72.2868V242.583H71.1946V244.239H70.3424V245.139H71.1946V249.016ZM81.1308 242.451H78.5263V250.816H81.1308C83.8793 250.816 85.5716 249.244 85.5716 246.652C85.5716 244.059 83.8793 242.451 81.1308 242.451ZM79.6185 249.916V243.339H81.1308C83.3152 243.339 84.4554 244.611 84.4554 246.652C84.4554 248.692 83.3152 249.916 81.1308 249.916H79.6185ZM92.8454 244.239H91.7532V247.852C91.7532 249.268 90.997 249.964 89.8688 249.964C88.7646 249.964 88.0324 249.28 88.0324 247.948V244.239H86.9522V248.092C86.9522 249.976 88.1405 250.913 89.6528 250.913C90.5289 250.913 91.3331 250.528 91.7532 249.844V250.816H92.8454V244.239ZM95.7817 247.24C95.7817 245.716 96.5738 245.247 97.618 245.247H97.9061V244.119C96.8619 244.119 96.1538 244.575 95.7817 245.307V244.239H94.6895V250.816H95.7817V247.24ZM98.7588 247.504C98.7588 249.544 100.115 250.925 101.867 250.925C103.08 250.925 103.932 250.3 104.328 249.592V250.816H105.432V244.239H104.328V245.439C103.944 244.755 103.104 244.131 101.879 244.131C100.115 244.131 98.7588 245.451 98.7588 247.504ZM104.328 247.516C104.328 249.064 103.296 249.964 102.095 249.964C100.895 249.964 99.875 249.052 99.875 247.504C99.875 245.956 100.895 245.079 102.095 245.079C103.296 245.079 104.328 245.992 104.328 247.516ZM107.518 249.016C107.518 250.336 108.178 250.816 109.342 250.816H110.326V249.892H109.522C108.85 249.892 108.61 249.664 108.61 249.016V245.139H110.326V244.239H108.61V242.583H107.518V244.239H106.666V245.139H107.518V249.016ZM111.65 250.816H112.742V244.239H111.65V250.816ZM112.214 243.171C112.61 243.171 112.934 242.847 112.934 242.427C112.934 242.007 112.61 241.683 112.214 241.683C111.794 241.683 111.47 242.007 111.47 242.427C111.47 242.847 111.794 243.171 112.214 243.171ZM120.845 247.516C120.845 245.439 119.392 244.131 117.52 244.131C115.66 244.131 114.195 245.439 114.195 247.516C114.195 249.604 115.612 250.925 117.472 250.925C119.344 250.925 120.845 249.604 120.845 247.516ZM115.312 247.516C115.312 245.86 116.356 245.079 117.508 245.079C118.636 245.079 119.728 245.86 119.728 247.516C119.728 249.184 118.612 249.964 117.472 249.964C116.332 249.964 115.312 249.184 115.312 247.516ZM127.094 250.816H128.174V246.94C128.174 245.055 127.01 244.119 125.485 244.119C124.597 244.119 123.805 244.491 123.373 245.175V244.239H122.281V250.816H123.373V247.18C123.373 245.764 124.141 245.067 125.257 245.067C126.361 245.067 127.094 245.752 127.094 247.096V250.816Z" fill="#666666"/>
<path d="M41.0491 210.952H38.8761V217.605H41.0491C43.1838 217.605 44.5815 216.351 44.5815 214.303C44.5815 212.244 43.1838 210.952 41.0491 210.952ZM39.9674 216.715V211.842H41.0491C42.619 211.842 43.4614 212.781 43.4614 214.303C43.4614 215.815 42.619 216.715 41.0491 216.715H39.9674ZM50.4399 212.331H49.3486V215.269C49.3486 216.236 48.8221 216.734 48.018 216.734C47.2234 216.734 46.6969 216.236 46.6969 215.269V212.331H45.6152V215.432C45.6152 216.906 46.5533 217.682 47.7882 217.682C48.4104 217.682 49.004 217.423 49.3486 216.973V217.605H50.4399V212.331ZM52.9711 214.829C52.9711 213.709 53.4688 213.374 54.273 213.374H54.5506V212.244C53.8039 212.244 53.2774 212.57 52.9711 213.096V212.331H51.8798V217.605H52.9711V214.829ZM55.1899 214.944C55.1899 216.571 56.2908 217.691 57.6597 217.691C58.5404 217.691 59.1722 217.27 59.5073 216.82V217.605H60.6081V212.331H59.5073V213.096C59.1818 212.666 58.5691 212.244 57.6789 212.244C56.2908 212.244 55.1899 213.317 55.1899 214.944ZM59.5073 214.963C59.5073 216.102 58.7319 216.744 57.9086 216.744C57.0949 216.744 56.31 216.083 56.31 214.944C56.31 213.805 57.0949 213.192 57.9086 213.192C58.7319 213.192 59.5073 213.834 59.5073 214.963ZM62.2138 216.141C62.2138 217.213 62.7978 217.605 63.7359 217.605H64.5975V216.696H63.9274C63.4679 216.696 63.3147 216.533 63.3147 216.141V213.221H64.5975V212.331H63.3147V211.019H62.2138V212.331H61.5916V213.221H62.2138V216.141ZM65.6033 217.605H66.6946V212.331H65.6033V217.605ZM66.1585 211.632C66.5414 211.632 66.8477 211.325 66.8477 210.933C66.8477 210.54 66.5414 210.234 66.1585 210.234C65.766 210.234 65.4597 210.54 65.4597 210.933C65.4597 211.325 65.766 211.632 66.1585 211.632ZM73.1531 214.963C73.1531 213.307 71.9661 212.244 70.4631 212.244C68.9602 212.244 67.7732 213.307 67.7732 214.963C67.7732 216.619 68.9123 217.691 70.4153 217.691C71.9278 217.691 73.1531 216.619 73.1531 214.963ZM68.8836 214.963C68.8836 213.767 69.6207 213.192 70.444 213.192C71.2577 213.192 72.0331 213.767 72.0331 214.963C72.0331 216.16 71.229 216.744 70.4153 216.744C69.592 216.744 68.8836 216.16 68.8836 214.963ZM77.9749 217.605H79.0566V214.494C79.0566 213.02 78.128 212.244 76.8931 212.244C76.2613 212.244 75.6774 212.503 75.3232 212.934V212.331H74.2319V217.605H75.3232V214.657C75.3232 213.69 75.8497 213.192 76.6538 213.192C77.4484 213.192 77.9749 213.69 77.9749 214.657V217.605Z" fill="#1D9AAC"/>
<path d="M363.452 227.023H40.0197C29.9055 227.023 21.7063 235.222 21.7063 245.336V245.337C21.7063 255.452 29.9055 263.651 40.0197 263.651H363.452C373.566 263.651 381.765 255.452 381.765 245.337V245.336C381.765 235.222 373.566 227.023 363.452 227.023Z" stroke="#969696" stroke-width="0.516" stroke-miterlimit="10"/>
<path d="M44.8546 456.761H46.0069L42.9943 448.444H41.7341L38.7095 456.761H39.8617L40.5338 454.901H44.1825L44.8546 456.761ZM43.8705 454.013H40.8459L42.3582 449.788L43.8705 454.013ZM47.3251 456.761H48.4173V447.88H47.3251V456.761ZM50.2787 456.761H51.3709V447.88H50.2787V456.761ZM59.4736 453.461C59.4736 451.384 58.0213 450.076 56.149 450.076C54.2886 450.076 52.8243 451.384 52.8243 453.461C52.8243 455.549 54.2406 456.87 56.101 456.87C57.9733 456.87 59.4736 455.549 59.4736 453.461ZM53.9406 453.461C53.9406 451.805 54.9848 451.024 56.137 451.024C57.2652 451.024 58.3574 451.805 58.3574 453.461C58.3574 455.129 57.2412 455.909 56.101 455.909C54.9607 455.909 53.9406 455.129 53.9406 453.461ZM62.1939 456.761H63.3221L64.9064 451.54L66.4907 456.761H67.6189L69.6713 450.184H68.5911L67.1028 455.717L65.5065 450.184H64.3903L62.758 455.705L61.2457 450.184H60.1295L62.1939 456.761ZM79.3921 454.481C79.3921 451.384 74.8793 452.729 74.8793 450.568C74.8793 449.668 75.5874 449.2 76.4876 449.224C77.5078 449.236 78.0359 449.872 78.1079 450.436H79.3081C79.1761 449.164 78.1319 448.288 76.5356 448.288C74.8793 448.288 73.7631 449.224 73.7631 450.604C73.7631 453.713 78.2879 452.273 78.2879 454.529C78.2879 455.321 77.6638 455.921 76.6076 455.921C75.4434 455.921 74.9513 455.225 74.8793 454.529H73.715C73.7391 455.909 74.9273 456.845 76.6076 456.845C78.4199 456.845 79.3921 455.669 79.3921 454.481ZM80.9994 456.761H82.0916V453.125C82.0916 451.709 82.8597 451.012 83.976 451.012C85.0802 451.012 85.8123 451.697 85.8123 453.041V456.761H86.8925V452.885C86.8925 451 85.7283 450.064 84.264 450.064C83.3398 450.064 82.5237 450.436 82.0916 451.132V447.88H80.9994V456.761ZM94.9178 453.461C94.9178 451.384 93.4655 450.076 91.5932 450.076C89.7328 450.076 88.2686 451.384 88.2686 453.461C88.2686 455.549 89.6848 456.87 91.5452 456.87C93.4175 456.87 94.9178 455.549 94.9178 453.461ZM89.3848 453.461C89.3848 451.805 90.429 451.024 91.5812 451.024C92.7094 451.024 93.8016 451.805 93.8016 453.461C93.8016 455.129 92.6854 455.909 91.5452 455.909C90.405 455.909 89.3848 455.129 89.3848 453.461ZM97.4461 451.396V450.184H96.3539V459.882H97.4461V455.549C97.8542 456.221 98.7063 456.87 99.9065 456.87C101.671 456.87 103.027 455.489 103.027 453.449C103.027 451.396 101.671 450.076 99.9065 450.076C98.7063 450.076 97.8421 450.7 97.4461 451.396ZM101.911 453.449C101.911 454.997 100.891 455.909 99.6785 455.909C98.4903 455.909 97.4461 455.009 97.4461 453.461C97.4461 451.937 98.4903 451.024 99.6785 451.024C100.891 451.024 101.911 451.901 101.911 453.449ZM107.905 454.961C107.905 456.281 108.565 456.761 109.729 456.761H110.713V455.837H109.909C109.237 455.837 108.997 455.609 108.997 454.961V451.084H110.713V450.184H108.997V448.528H107.905V450.184H107.052V451.084H107.905V454.961ZM118.278 453.461C118.278 451.384 116.825 450.076 114.953 450.076C113.093 450.076 111.628 451.384 111.628 453.461C111.628 455.549 113.045 456.87 114.905 456.87C116.777 456.87 118.278 455.549 118.278 453.461ZM112.745 453.461C112.745 451.805 113.789 451.024 114.941 451.024C116.069 451.024 117.161 451.805 117.161 453.461C117.161 455.129 116.045 455.909 114.905 455.909C113.765 455.909 112.745 455.129 112.745 453.461ZM128.531 456.761H129.683L126.67 448.444H125.41L122.385 456.761H123.538L124.21 454.901H127.859L128.531 456.761ZM127.546 454.013H124.522L126.034 449.788L127.546 454.013ZM130.593 453.449C130.593 455.489 131.949 456.87 133.714 456.87C134.914 456.87 135.766 456.257 136.162 455.525V456.761H137.266V447.88H136.162V451.36C135.706 450.604 134.758 450.076 133.726 450.076C131.949 450.076 130.593 451.396 130.593 453.449ZM136.162 453.461C136.162 455.009 135.13 455.909 133.93 455.909C132.729 455.909 131.709 454.997 131.709 453.449C131.709 451.901 132.729 451.024 133.93 451.024C135.13 451.024 136.162 451.937 136.162 453.461ZM138.704 453.449C138.704 455.489 140.06 456.87 141.824 456.87C143.025 456.87 143.877 456.257 144.273 455.525V456.761H145.377V447.88H144.273V451.36C143.817 450.604 142.869 450.076 141.836 450.076C140.06 450.076 138.704 451.396 138.704 453.449ZM144.273 453.461C144.273 455.009 143.241 455.909 142.041 455.909C140.84 455.909 139.82 454.997 139.82 453.449C139.82 451.901 140.84 451.024 142.041 451.024C143.241 451.024 144.273 451.937 144.273 453.461Z" fill="#666666"/>
<path d="M44.0572 423.872H45.2575L42.767 416.911H41.4467L38.9563 423.872H40.1465L40.6466 422.452H43.5571L44.0572 423.872ZM43.2371 421.522H40.9666L42.1069 418.291L43.2371 421.522ZM46.3403 423.872H47.4805V416.471H46.3403V423.872ZM48.9775 423.872H50.1178V416.471H48.9775V423.872ZM56.8657 421.112C56.8657 419.381 55.6255 418.271 54.0552 418.271C52.4849 418.271 51.2447 419.381 51.2447 421.112C51.2447 422.842 52.4349 423.962 54.0052 423.962C55.5855 423.962 56.8657 422.842 56.8657 421.112ZM52.4049 421.112C52.4049 419.861 53.175 419.261 54.0352 419.261C54.8854 419.261 55.6955 419.861 55.6955 421.112C55.6955 422.362 54.8554 422.972 54.0052 422.972C53.145 422.972 52.4049 422.362 52.4049 421.112ZM59.0631 423.872H60.2633L61.3736 419.801L62.4838 423.872H63.684L65.3943 418.361H64.2741L63.1339 422.772L62.0137 418.361H60.8235L59.6532 422.792L58.503 418.361H57.3428L59.0631 423.872ZM73.5355 421.902C73.5355 419.361 69.8548 420.342 69.8548 418.771C69.8548 418.101 70.3649 417.781 71.025 417.801C71.7451 417.821 72.1552 418.251 72.1952 418.721H73.4555C73.3554 417.531 72.4153 416.831 71.085 416.831C69.6647 416.831 68.6946 417.591 68.6946 418.811C68.6946 421.372 72.3853 420.282 72.3853 421.962C72.3853 422.552 71.9352 422.982 71.135 422.982C70.3449 422.982 69.9448 422.522 69.8948 421.952H68.6745C68.6745 423.182 69.7448 423.942 71.135 423.942C72.6853 423.942 73.5355 422.942 73.5355 421.902ZM74.8809 423.872H76.0211V420.792C76.0211 419.781 76.5712 419.261 77.4114 419.261C78.2415 419.261 78.7916 419.781 78.7916 420.792V423.872H79.9218V420.622C79.9218 419.081 78.9617 418.271 77.7314 418.271C77.0213 418.271 76.4012 418.541 76.0211 419.001V416.471H74.8809V423.872ZM86.6272 421.112C86.6272 419.381 85.387 418.271 83.8167 418.271C82.2464 418.271 81.0062 419.381 81.0062 421.112C81.0062 422.842 82.1964 423.962 83.7667 423.962C85.347 423.962 86.6272 422.842 86.6272 421.112ZM82.1664 421.112C82.1664 419.861 82.9365 419.261 83.7967 419.261C84.6469 419.261 85.457 419.861 85.457 421.112C85.457 422.362 84.6169 422.972 83.7667 422.972C82.9065 422.972 82.1664 422.362 82.1664 421.112ZM88.8946 419.171V418.361H87.7544V426.493H88.8946V423.072C89.2547 423.502 89.9048 423.962 90.815 423.962C92.2653 423.962 93.4055 422.792 93.4055 421.092C93.4055 419.391 92.2653 418.271 90.815 418.271C89.9148 418.271 89.2447 418.711 88.8946 419.171ZM92.2453 421.092C92.2453 422.282 91.4251 422.972 90.5649 422.972C89.7148 422.972 88.8946 422.302 88.8946 421.112C88.8946 419.932 89.7148 419.261 90.5649 419.261C91.4251 419.261 92.2453 419.902 92.2453 421.092ZM97.3112 422.342C97.3112 423.462 97.9213 423.872 98.9015 423.872H99.8017V422.922H99.1016C98.6215 422.922 98.4614 422.752 98.4614 422.342V419.291H99.8017V418.361H98.4614V416.991H97.3112V418.361H96.6611V419.291H97.3112V422.342ZM106.104 421.112C106.104 419.381 104.863 418.271 103.293 418.271C101.723 418.271 100.483 419.381 100.483 421.112C100.483 422.842 101.673 423.962 103.243 423.962C104.823 423.962 106.104 422.842 106.104 421.112ZM101.643 421.112C101.643 419.861 102.413 419.261 103.273 419.261C104.123 419.261 104.933 419.861 104.933 421.112C104.933 422.362 104.093 422.972 103.243 422.972C102.383 422.972 101.643 422.362 101.643 421.112ZM114.52 423.872H115.72L113.23 416.911H111.909L109.419 423.872H110.609L111.109 422.452H114.02L114.52 423.872ZM113.7 421.522H111.429L112.569 418.291L113.7 421.522ZM116.423 421.092C116.423 422.792 117.573 423.962 119.023 423.962C119.923 423.962 120.584 423.542 120.934 423.042V423.872H122.084V416.471H120.934V419.131C120.514 418.611 119.753 418.271 119.033 418.271C117.573 418.271 116.423 419.391 116.423 421.092ZM120.934 421.112C120.934 422.302 120.124 422.972 119.263 422.972C118.413 422.972 117.593 422.282 117.593 421.092C117.593 419.902 118.413 419.261 119.263 419.261C120.124 419.261 120.934 419.932 120.934 421.112ZM123.201 421.092C123.201 422.792 124.352 423.962 125.802 423.962C126.702 423.962 127.362 423.542 127.712 423.042V423.872H128.863V416.471H127.712V419.131C127.292 418.611 126.532 418.271 125.812 418.271C124.352 418.271 123.201 419.391 123.201 421.092ZM127.712 421.112C127.712 422.302 126.902 422.972 126.042 422.972C125.192 422.972 124.372 422.282 124.372 421.092C124.372 419.902 125.192 419.261 126.042 419.261C126.902 419.261 127.712 419.932 127.712 421.112Z" fill="#1D9AAC"/>
<path d="M362.719 432.969H39.2867C29.1724 432.969 20.9732 441.168 20.9732 451.282V451.283C20.9732 461.398 29.1724 469.597 39.2867 469.597H362.719C372.833 469.597 381.032 461.398 381.032 451.283V451.282C381.032 441.168 372.833 432.969 362.719 432.969Z" stroke="#969696" stroke-width="0.516" stroke-miterlimit="10"/>
<path d="M44.5733 526.834H45.7256L42.713 518.516H41.4528L38.4282 526.834H39.5804L40.2525 524.973H43.9012L44.5733 526.834ZM43.5892 524.085H40.5646L42.0769 519.86L43.5892 524.085ZM47.0437 526.834H48.136V517.952H47.0437V526.834ZM49.9974 526.834H51.0896V517.952H49.9974V526.834ZM59.1923 523.533C59.1923 521.457 57.74 520.149 55.8677 520.149C54.0073 520.149 52.543 521.457 52.543 523.533C52.543 525.622 53.9593 526.942 55.8197 526.942C57.692 526.942 59.1923 525.622 59.1923 523.533ZM53.6593 523.533C53.6593 521.877 54.7034 521.097 55.8557 521.097C56.9839 521.097 58.0761 521.877 58.0761 523.533C58.0761 525.201 56.9599 525.982 55.8197 525.982C54.6794 525.982 53.6593 525.201 53.6593 523.533ZM61.9126 526.834H63.0408L64.6251 521.613L66.2094 526.834H67.3376L69.39 520.257H68.3098L66.8215 525.79L65.2252 520.257H64.109L62.4767 525.778L60.9644 520.257H59.8482L61.9126 526.834ZM74.766 522.441V519.368H76.3743C77.6225 519.368 78.1506 519.944 78.1506 520.917C78.1506 521.853 77.6225 522.441 76.3743 522.441H74.766ZM79.2669 520.917C79.2669 519.548 78.3427 518.468 76.3743 518.468H73.6738V526.834H74.766V523.341H76.3743C78.4507 523.341 79.2669 522.189 79.2669 520.917ZM81.7165 523.257C81.7165 521.733 82.5087 521.265 83.5529 521.265H83.8409V520.137C82.7967 520.137 82.0886 520.593 81.7165 521.325V520.257H80.6243V526.834H81.7165V523.257ZM91.3429 523.533C91.3429 521.457 89.8906 520.149 88.0183 520.149C86.1579 520.149 84.6937 521.457 84.6937 523.533C84.6937 525.622 86.1099 526.942 87.9703 526.942C89.8426 526.942 91.3429 525.622 91.3429 523.533ZM85.8099 523.533C85.8099 521.877 86.8541 521.097 88.0063 521.097C89.1345 521.097 90.2267 521.877 90.2267 523.533C90.2267 525.201 89.1105 525.982 87.9703 525.982C86.8301 525.982 85.8099 525.201 85.8099 523.533ZM92.3709 523.521C92.3709 525.562 93.7272 526.942 95.4915 526.942C96.6917 526.942 97.5439 526.33 97.9399 525.598V526.834H99.0442V517.952H97.9399V521.433C97.4839 520.677 96.5357 520.149 95.5035 520.149C93.7272 520.149 92.3709 521.469 92.3709 523.521ZM97.9399 523.533C97.9399 525.081 96.9078 525.982 95.7075 525.982C94.5073 525.982 93.4871 525.069 93.4871 523.521C93.4871 521.973 94.5073 521.097 95.7075 521.097C96.9078 521.097 97.9399 522.009 97.9399 523.533ZM106.723 520.257H105.631V523.869C105.631 525.285 104.875 525.982 103.746 525.982C102.642 525.982 101.91 525.297 101.91 523.965V520.257H100.83V524.109C100.83 525.994 102.018 526.93 103.53 526.93C104.407 526.93 105.211 526.546 105.631 525.862V526.834H106.723V520.257ZM108.159 523.533C108.159 525.622 109.491 526.942 111.364 526.942C112.996 526.942 114.064 526.03 114.4 524.721H113.224C112.984 525.55 112.336 526.018 111.364 526.018C110.163 526.018 109.275 525.165 109.275 523.533C109.275 521.925 110.163 521.073 111.364 521.073C112.336 521.073 112.996 521.577 113.224 522.369H114.4C114.064 520.989 112.996 520.149 111.364 520.149C109.491 520.149 108.159 521.469 108.159 523.533ZM116.098 525.033C116.098 526.354 116.758 526.834 117.922 526.834H118.906V525.91H118.102C117.43 525.91 117.19 525.682 117.19 525.033V521.157H118.906V520.257H117.19V518.6H116.098V520.257H115.245V521.157H116.098V525.033ZM123.669 525.033C123.669 526.354 124.329 526.834 125.494 526.834H126.478V525.91H125.674C125.002 525.91 124.762 525.682 124.762 525.033V521.157H126.478V520.257H124.762V518.6H123.669V520.257H122.817V521.157H123.669V525.033ZM134.042 523.533C134.042 521.457 132.59 520.149 130.718 520.149C128.857 520.149 127.393 521.457 127.393 523.533C127.393 525.622 128.809 526.942 130.67 526.942C132.542 526.942 134.042 525.622 134.042 523.533ZM128.509 523.533C128.509 521.877 129.554 521.097 130.706 521.097C131.834 521.097 132.926 521.877 132.926 523.533C132.926 525.201 131.81 525.982 130.67 525.982C129.53 525.982 128.509 525.201 128.509 523.533ZM144.295 526.834H145.448L142.435 518.516H141.175L138.15 526.834H139.302L139.975 524.973H143.623L144.295 526.834ZM143.311 524.085H140.287L141.799 519.86L143.311 524.085ZM146.358 523.521C146.358 525.562 147.714 526.942 149.478 526.942C150.678 526.942 151.531 526.33 151.927 525.598V526.834H153.031V517.952H151.927V521.433C151.471 520.677 150.522 520.149 149.49 520.149C147.714 520.149 146.358 521.469 146.358 523.521ZM151.927 523.533C151.927 525.081 150.895 525.982 149.694 525.982C148.494 525.982 147.474 525.069 147.474 523.521C147.474 521.973 148.494 521.097 149.694 521.097C150.895 521.097 151.927 522.009 151.927 523.533ZM154.469 523.521C154.469 525.562 155.825 526.942 157.589 526.942C158.789 526.942 159.642 526.33 160.038 525.598V526.834H161.142V517.952H160.038V521.433C159.582 520.677 158.633 520.149 157.601 520.149C155.825 520.149 154.469 521.469 154.469 523.521ZM160.038 523.533C160.038 525.081 159.005 525.982 157.805 525.982C156.605 525.982 155.585 525.069 155.585 523.521C155.585 521.973 156.605 521.097 157.805 521.097C159.005 521.097 160.038 522.009 160.038 523.533Z" fill="#666666"/>
<path d="M43.7764 493.945H44.9766L42.4862 486.983H41.1659L38.6754 493.945H39.8657L40.3658 492.524H43.2763L43.7764 493.945ZM42.9563 491.594H40.6858L41.826 488.363L42.9563 491.594ZM46.0595 493.945H47.1997V486.543H46.0595V493.945ZM48.6967 493.945H49.8369V486.543H48.6967V493.945ZM56.5849 491.184C56.5849 489.454 55.3447 488.343 53.7744 488.343C52.2041 488.343 50.9639 489.454 50.9639 491.184C50.9639 492.914 52.1541 494.035 53.7244 494.035C55.3047 494.035 56.5849 492.914 56.5849 491.184ZM52.1241 491.184C52.1241 489.934 52.8942 489.334 53.7544 489.334C54.6046 489.334 55.4147 489.934 55.4147 491.184C55.4147 492.434 54.5746 493.044 53.7244 493.044C52.8642 493.044 52.1241 492.434 52.1241 491.184ZM58.7823 493.945H59.9825L61.0927 489.874L62.203 493.945H63.4032L65.1135 488.434H63.9933L62.8531 492.844L61.7329 488.434H60.5426L59.3724 492.864L58.2222 488.434H57.062L58.7823 493.945ZM69.704 490.194V487.923H70.9642C71.8544 487.923 72.2545 488.343 72.2545 489.064C72.2545 489.764 71.8544 490.194 70.9642 490.194H69.704ZM73.4247 489.064C73.4247 487.933 72.6145 486.993 70.9642 486.993H68.5638V493.945H69.704V491.124H70.9642C72.7746 491.124 73.4247 490.054 73.4247 489.064ZM75.6524 491.044C75.6524 489.874 76.1725 489.524 77.0126 489.524H77.3027V488.343C76.5225 488.343 75.9724 488.684 75.6524 489.234V488.434H74.5122V493.945H75.6524V491.044ZM83.6018 491.184C83.6018 489.454 82.3615 488.343 80.7912 488.343C79.2209 488.343 77.9807 489.454 77.9807 491.184C77.9807 492.914 79.1709 494.035 80.7412 494.035C82.3215 494.035 83.6018 492.914 83.6018 491.184ZM79.1409 491.184C79.1409 489.934 79.9111 489.334 80.7712 489.334C81.6214 489.334 82.4315 489.934 82.4315 491.184C82.4315 492.434 81.5914 493.044 80.7412 493.044C79.8811 493.044 79.1409 492.434 79.1409 491.184ZM84.3489 491.164C84.3489 492.864 85.4991 494.035 86.9494 494.035C87.8495 494.035 88.5097 493.614 88.8597 493.114V493.945H90.0099V486.543H88.8597V489.204C88.4396 488.684 87.6795 488.343 86.9594 488.343C85.4991 488.343 84.3489 489.464 84.3489 491.164ZM88.8597 491.184C88.8597 492.374 88.0496 493.044 87.1894 493.044C86.3392 493.044 85.5191 492.354 85.5191 491.164C85.5191 489.974 86.3392 489.334 87.1894 489.334C88.0496 489.334 88.8597 490.004 88.8597 491.184ZM96.4985 488.434H95.3583V491.504C95.3583 492.514 94.8082 493.034 93.968 493.034C93.1379 493.034 92.5878 492.514 92.5878 491.504V488.434H91.4576V491.674C91.4576 493.214 92.4377 494.025 93.728 494.025C94.3781 494.025 94.9982 493.755 95.3583 493.284V493.945H96.4985V488.434ZM97.6229 491.184C97.6229 492.914 98.7431 494.035 100.323 494.035C101.674 494.035 102.554 493.284 102.864 492.204H101.634C101.424 492.774 101.004 493.074 100.323 493.074C99.4032 493.074 98.7931 492.394 98.7931 491.184C98.7931 489.984 99.4032 489.304 100.323 489.304C101.004 489.304 101.444 489.644 101.634 490.174H102.864C102.554 489.014 101.674 488.343 100.323 488.343C98.7431 488.343 97.6229 489.464 97.6229 491.184ZM104.18 492.414C104.18 493.534 104.79 493.945 105.77 493.945H106.671V492.994H105.971C105.49 492.994 105.33 492.824 105.33 492.414V489.364H106.671V488.434H105.33V487.063H104.18V488.434H103.53V489.364H104.18V492.414ZM110.5 492.414C110.5 493.534 111.11 493.945 112.09 493.945H112.99V492.994H112.29C111.81 492.994 111.65 492.824 111.65 492.414V489.364H112.99V488.434H111.65V487.063H110.5V488.434H109.85V489.364H110.5V492.414ZM119.292 491.184C119.292 489.454 118.052 488.343 116.482 488.343C114.911 488.343 113.671 489.454 113.671 491.184C113.671 492.914 114.861 494.035 116.432 494.035C118.012 494.035 119.292 492.914 119.292 491.184ZM114.831 491.184C114.831 489.934 115.601 489.334 116.462 489.334C117.312 489.334 118.122 489.934 118.122 491.184C118.122 492.434 117.282 493.044 116.432 493.044C115.571 493.044 114.831 492.434 114.831 491.184ZM127.708 493.945H128.909L126.418 486.983H125.098L122.607 493.945H123.798L124.298 492.524H127.208L127.708 493.945ZM126.888 491.594H124.618L125.758 488.363L126.888 491.594ZM129.611 491.164C129.611 492.864 130.762 494.035 132.212 494.035C133.112 494.035 133.772 493.614 134.122 493.114V493.945H135.272V486.543H134.122V489.204C133.702 488.684 132.942 488.343 132.222 488.343C130.762 488.343 129.611 489.464 129.611 491.164ZM134.122 491.184C134.122 492.374 133.312 493.044 132.452 493.044C131.602 493.044 130.782 492.354 130.782 491.164C130.782 489.974 131.602 489.334 132.452 489.334C133.312 489.334 134.122 490.004 134.122 491.184ZM136.39 491.164C136.39 492.864 137.54 494.035 138.99 494.035C139.891 494.035 140.551 493.614 140.901 493.114V493.945H142.051V486.543H140.901V489.204C140.481 488.684 139.721 488.343 139 488.343C137.54 488.343 136.39 489.464 136.39 491.164ZM140.901 491.184C140.901 492.374 140.091 493.044 139.231 493.044C138.38 493.044 137.56 492.354 137.56 491.164C137.56 489.974 138.38 489.334 139.231 489.334C140.091 489.334 140.901 490.004 140.901 491.184Z" fill="#1D9AAC"/>
<path d="M363.691 503.04H40.2585C30.1443 503.04 21.9451 511.239 21.9451 521.354V521.355C21.9451 531.469 30.1443 539.668 40.2585 539.668H363.691C373.805 539.668 382.004 531.469 382.004 521.355V521.354C382.004 511.239 373.805 503.04 363.691 503.04Z" stroke="#969696" stroke-width="0.516" stroke-miterlimit="10"/>
<path d="M44.5733 596.023H45.7256L42.713 587.705H41.4528L38.4282 596.023H39.5804L40.2525 594.162H43.9012L44.5733 596.023ZM43.5892 593.274H40.5646L42.0769 589.05L43.5892 593.274ZM47.0437 596.023H48.136V587.141H47.0437V596.023ZM49.9974 596.023H51.0896V587.141H49.9974V596.023ZM59.1923 592.722C59.1923 590.646 57.74 589.338 55.8677 589.338C54.0073 589.338 52.543 590.646 52.543 592.722C52.543 594.811 53.9593 596.131 55.8197 596.131C57.692 596.131 59.1923 594.811 59.1923 592.722ZM53.6593 592.722C53.6593 591.066 54.7034 590.286 55.8557 590.286C56.9839 590.286 58.0761 591.066 58.0761 592.722C58.0761 594.391 56.9599 595.171 55.8197 595.171C54.6794 595.171 53.6593 594.391 53.6593 592.722ZM61.9126 596.023H63.0408L64.6251 590.802L66.2094 596.023H67.3376L69.39 589.446H68.3098L66.8215 594.979L65.2252 589.446H64.109L62.4767 594.967L60.9644 589.446H59.8482L61.9126 596.023ZM79.1108 593.742C79.1108 590.646 74.598 591.99 74.598 589.83C74.598 588.929 75.3061 588.461 76.2063 588.485C77.2265 588.497 77.7546 589.134 77.8266 589.698H79.0268C78.8948 588.425 77.8506 587.549 76.2543 587.549C74.598 587.549 73.4818 588.485 73.4818 589.866C73.4818 592.974 78.0066 591.534 78.0066 593.79C78.0066 594.583 77.3825 595.183 76.3263 595.183C75.1621 595.183 74.67 594.487 74.598 593.79H73.4337C73.4578 595.171 74.646 596.107 76.3263 596.107C78.1386 596.107 79.1108 594.931 79.1108 593.742ZM80.9581 594.222C80.9581 595.543 81.6183 596.023 82.7825 596.023H83.7667V595.099H82.9625C82.2904 595.099 82.0503 594.871 82.0503 594.222V590.346H83.7667V589.446H82.0503V587.789H80.9581V589.446H80.106V590.346H80.9581V594.222ZM84.6819 592.71C84.6819 594.751 86.0382 596.131 87.7905 596.131C89.0028 596.131 89.8549 595.507 90.251 594.799V596.023H91.3552V589.446H90.251V590.646C89.8669 589.962 89.0268 589.338 87.8025 589.338C86.0382 589.338 84.6819 590.658 84.6819 592.71ZM90.251 592.722C90.251 594.271 89.2188 595.171 88.0186 595.171C86.8183 595.171 85.7981 594.259 85.7981 592.71C85.7981 591.162 86.8183 590.286 88.0186 590.286C89.2188 590.286 90.251 591.198 90.251 592.722ZM93.405 596.023H94.4972V590.346H95.8774V589.446H94.4972V588.978C94.4972 588.125 94.8212 587.765 95.8054 587.765V586.853C94.1251 586.853 93.405 587.513 93.405 588.978V589.446H92.5528V590.346H93.405V596.023ZM97.3549 596.023H98.4471V590.346H99.8274V589.446H98.4471V588.978C98.4471 588.125 98.7712 587.765 99.7554 587.765V586.853C98.0751 586.853 97.3549 587.513 97.3549 588.978V589.446H96.5028V590.346H97.3549V596.023ZM104.541 594.222C104.541 595.543 105.201 596.023 106.365 596.023H107.349V595.099H106.545C105.873 595.099 105.633 594.871 105.633 594.222V590.346H107.349V589.446H105.633V587.789H104.541V589.446H103.689V590.346H104.541V594.222ZM114.914 592.722C114.914 590.646 113.462 589.338 111.589 589.338C109.729 589.338 108.265 590.646 108.265 592.722C108.265 594.811 109.681 596.131 111.541 596.131C113.414 596.131 114.914 594.811 114.914 592.722ZM109.381 592.722C109.381 591.066 110.425 590.286 111.577 590.286C112.705 590.286 113.798 591.066 113.798 592.722C113.798 594.391 112.681 595.171 111.541 595.171C110.401 595.171 109.381 594.391 109.381 592.722ZM125.167 596.023H126.319L123.306 587.705H122.046L119.022 596.023H120.174L120.846 594.162H124.495L125.167 596.023ZM124.183 593.274H121.158L122.67 589.05L124.183 593.274ZM127.229 592.71C127.229 594.751 128.585 596.131 130.35 596.131C131.55 596.131 132.402 595.519 132.798 594.787V596.023H133.902V587.141H132.798V590.622C132.342 589.866 131.394 589.338 130.362 589.338C128.585 589.338 127.229 590.658 127.229 592.71ZM132.798 592.722C132.798 594.271 131.766 595.171 130.566 595.171C129.365 595.171 128.345 594.259 128.345 592.71C128.345 591.162 129.365 590.286 130.566 590.286C131.766 590.286 132.798 591.198 132.798 592.722ZM135.34 592.71C135.34 594.751 136.696 596.131 138.461 596.131C139.661 596.131 140.513 595.519 140.909 594.787V596.023H142.013V587.141H140.909V590.622C140.453 589.866 139.505 589.338 138.473 589.338C136.696 589.338 135.34 590.658 135.34 592.71ZM140.909 592.722C140.909 594.271 139.877 595.171 138.677 595.171C137.476 595.171 136.456 594.259 136.456 592.71C136.456 591.162 137.476 590.286 138.677 590.286C139.877 590.286 140.909 591.198 140.909 592.722Z" fill="#666666"/>
<path d="M43.7764 563.134H44.9766L42.4862 556.172H41.1659L38.6754 563.134H39.8657L40.3658 561.713H43.2763L43.7764 563.134ZM42.9563 560.783H40.6858L41.826 557.553L42.9563 560.783ZM46.0595 563.134H47.1997V555.732H46.0595V563.134ZM48.6967 563.134H49.8369V555.732H48.6967V563.134ZM56.5849 560.373C56.5849 558.643 55.3447 557.533 53.7744 557.533C52.2041 557.533 50.9639 558.643 50.9639 560.373C50.9639 562.103 52.1541 563.224 53.7244 563.224C55.3047 563.224 56.5849 562.103 56.5849 560.373ZM52.1241 560.373C52.1241 559.123 52.8942 558.523 53.7544 558.523C54.6046 558.523 55.4147 559.123 55.4147 560.373C55.4147 561.623 54.5746 562.233 53.7244 562.233C52.8642 562.233 52.1241 561.623 52.1241 560.373ZM58.7823 563.134H59.9825L61.0927 559.063L62.203 563.134H63.4032L65.1135 557.623H63.9933L62.8531 562.033L61.7329 557.623H60.5426L59.3724 562.053L58.2222 557.623H57.062L58.7823 563.134ZM73.2547 561.163C73.2547 558.623 69.574 559.603 69.574 558.033C69.574 557.363 70.0841 557.042 70.7442 557.062C71.4643 557.082 71.8744 557.513 71.9144 557.983H73.1746C73.0746 556.792 72.1344 556.092 70.8042 556.092C69.3839 556.092 68.4137 556.852 68.4137 558.073C68.4137 560.633 72.1044 559.543 72.1044 561.223C72.1044 561.813 71.6544 562.243 70.8542 562.243C70.064 562.243 69.664 561.783 69.614 561.213H68.3937C68.3937 562.443 69.4639 563.204 70.8542 563.204C72.4045 563.204 73.2547 562.203 73.2547 561.163ZM74.7801 561.603C74.7801 562.724 75.3902 563.134 76.3704 563.134H77.2706V562.183H76.5704C76.0903 562.183 75.9303 562.013 75.9303 561.603V558.553H77.2706V557.623H75.9303V556.252H74.7801V557.623H74.13V558.553H74.7801V561.603ZM77.9414 560.353C77.9414 562.053 79.0916 563.224 80.5219 563.224C81.4421 563.224 82.1022 562.784 82.4523 562.313V563.134H83.6025V557.623H82.4523V558.423C82.1122 557.973 81.4721 557.533 80.5419 557.533C79.0916 557.533 77.9414 558.653 77.9414 560.353ZM82.4523 560.373C82.4523 561.563 81.6421 562.233 80.7819 562.233C79.9318 562.233 79.1116 561.543 79.1116 560.353C79.1116 559.163 79.9318 558.523 80.7819 558.523C81.6421 558.523 82.4523 559.193 82.4523 560.373ZM85.2401 563.134H86.3903V558.553H87.4105V557.623H86.3903V557.232C86.3903 556.602 86.6304 556.362 87.3305 556.362V555.412C85.8902 555.412 85.2401 555.962 85.2401 557.232V557.623H84.59V558.553H85.2401V563.134ZM88.5611 563.134H89.7113V558.553H90.7315V557.623H89.7113V557.232C89.7113 556.602 89.9513 556.362 90.6515 556.362V555.412C89.2112 555.412 88.5611 555.962 88.5611 557.232V557.623H87.9109V558.553H88.5611V563.134ZM94.5202 561.603C94.5202 562.724 95.1303 563.134 96.1105 563.134H97.0106V562.183H96.3105C95.8304 562.183 95.6704 562.013 95.6704 561.603V558.553H97.0106V557.623H95.6704V556.252H94.5202V557.623H93.87V558.553H94.5202V561.603ZM103.313 560.373C103.313 558.643 102.072 557.533 100.502 557.533C98.9317 557.533 97.6915 558.643 97.6915 560.373C97.6915 562.103 98.8817 563.224 100.452 563.224C102.032 563.224 103.313 562.103 103.313 560.373ZM98.8517 560.373C98.8517 559.123 99.6218 558.523 100.482 558.523C101.332 558.523 102.142 559.123 102.142 560.373C102.142 561.623 101.302 562.233 100.452 562.233C99.5918 562.233 98.8517 561.623 98.8517 560.373ZM111.729 563.134H112.929L110.438 556.172H109.118L106.628 563.134H107.818L108.318 561.713H111.229L111.729 563.134ZM110.909 560.783H108.638L109.778 557.553L110.909 560.783ZM113.632 560.353C113.632 562.053 114.782 563.224 116.232 563.224C117.132 563.224 117.793 562.804 118.143 562.303V563.134H119.293V555.732H118.143V558.393C117.723 557.873 116.962 557.533 116.242 557.533C114.782 557.533 113.632 558.653 113.632 560.353ZM118.143 560.373C118.143 561.563 117.332 562.233 116.472 562.233C115.622 562.233 114.802 561.543 114.802 560.353C114.802 559.163 115.622 558.523 116.472 558.523C117.332 558.523 118.143 559.193 118.143 560.373ZM120.41 560.353C120.41 562.053 121.561 563.224 123.011 563.224C123.911 563.224 124.571 562.804 124.921 562.303V563.134H126.071V555.732H124.921V558.393C124.501 557.873 123.741 557.533 123.021 557.533C121.561 557.533 120.41 558.653 120.41 560.353ZM124.921 560.373C124.921 561.563 124.111 562.233 123.251 562.233C122.401 562.233 121.581 561.543 121.581 560.353C121.581 559.163 122.401 558.523 123.251 558.523C124.111 558.523 124.921 559.193 124.921 560.373Z" fill="#1D9AAC"/>
<path d="M363.691 572.23H40.2585C30.1443 572.23 21.9451 580.43 21.9451 590.544V590.545C21.9451 600.659 30.1443 608.858 40.2585 608.858H363.691C373.805 608.858 382.004 600.659 382.004 590.545V590.544C382.004 580.43 373.805 572.23 363.691 572.23Z" stroke="#969696" stroke-width="0.516" stroke-miterlimit="10"/>
<path d="M39.3754 89.1319L40.1035 91.5543H42.4L39.4734 82.1165H36.6729L33.7883 91.5543H36.0008L36.6729 89.1319H39.3754ZM36.9809 87.5356L37.5411 85.5332C37.6951 84.9871 37.8351 84.2729 37.9751 83.7128H38.0031C38.1432 84.2729 38.3112 84.9731 38.4792 85.5332L39.0673 87.5356H36.9809ZM47.9111 81.6124V85.3231H47.8831C47.575 84.8471 46.9169 84.553 46.0768 84.553C44.4385 84.553 42.9962 85.8833 43.0102 88.1937C43.0102 90.3221 44.3124 91.7084 45.9367 91.7084C46.8189 91.7084 47.6451 91.3163 48.0791 90.5461H48.1071L48.2052 91.5543H50.0955C50.0675 91.0922 50.0395 90.2801 50.0395 89.5099V81.6124H47.9111ZM47.9111 88.5017C47.9111 88.6838 47.8971 88.8378 47.8551 88.9918C47.7291 89.594 47.239 90.014 46.6229 90.014C45.7407 90.014 45.1666 89.2859 45.1666 88.1237C45.1666 87.0455 45.6707 86.1773 46.6369 86.1773C47.295 86.1773 47.7571 86.6534 47.8831 87.2275C47.8971 87.3395 47.9111 87.4936 47.9111 87.6056V88.5017ZM56.2525 81.6124V85.3231H56.2245C55.9165 84.8471 55.2583 84.553 54.4182 84.553C52.7799 84.553 51.3376 85.8833 51.3516 88.1937C51.3516 90.3221 52.6539 91.7084 54.2782 91.7084C55.1603 91.7084 55.9865 91.3163 56.4206 90.5461H56.4486L56.5466 91.5543H58.4369C58.4089 91.0922 58.3809 90.2801 58.3809 89.5099V81.6124H56.2525ZM56.2525 88.5017C56.2525 88.6838 56.2385 88.8378 56.1965 88.9918C56.0705 89.594 55.5804 90.014 54.9643 90.014C54.0821 90.014 53.508 89.2859 53.508 88.1237C53.508 87.0455 54.0121 86.1773 54.9783 86.1773C55.6364 86.1773 56.0985 86.6534 56.2245 87.2275C56.2385 87.3395 56.2525 87.4936 56.2525 87.6056V88.5017ZM64.9461 91.5543V88.7118C64.9461 87.1715 64.9181 85.8412 64.8621 84.595L64.9041 84.581C65.3662 85.6872 65.9823 86.9054 66.5424 87.9136L68.5588 91.5543H70.7992V82.1165H68.8388V84.8751C68.8388 86.2893 68.8808 87.5636 69.0209 88.8098H68.9789C68.5588 87.7456 67.9987 86.5694 67.4386 85.5752L65.4782 82.1165H62.9857V91.5543H64.9461ZM78.5917 88.8098C78.6197 88.6558 78.6617 88.3337 78.6617 87.9696C78.6617 86.2753 77.8215 84.553 75.6091 84.553C73.2287 84.553 72.1505 86.4714 72.1505 88.2077C72.1505 90.3501 73.4807 91.6944 75.8052 91.6944C76.7293 91.6944 77.5835 91.5543 78.2836 91.2743L78.0036 89.832C77.4295 90.014 76.8414 90.1121 76.1132 90.1121C75.119 90.1121 74.2509 89.692 74.1809 88.8098H78.5917ZM74.1668 87.3535C74.2229 86.7794 74.5869 85.9673 75.4831 85.9673C76.4633 85.9673 76.6873 86.8354 76.6873 87.3535H74.1668ZM79.1582 84.707L81.1466 91.5543H83.149L83.8351 89.1459C84.0172 88.5017 84.1572 87.8716 84.2832 87.0175H84.3112C84.4513 87.8576 84.5773 88.4737 84.7453 89.1459L85.3894 91.5543H87.3918L89.4922 84.707H87.4058L86.8177 87.4235C86.6637 88.2077 86.5236 88.9778 86.4256 89.762H86.3976C86.2576 88.9778 86.0756 88.2077 85.8935 87.4375L85.2074 84.707H83.5271L82.7989 87.5216C82.6309 88.1937 82.4349 88.9778 82.2948 89.762H82.2668C82.1548 88.9778 82.0148 88.2217 81.8748 87.5076L81.3287 84.707H79.1582ZM93.02 91.1202C93.5521 91.4143 94.6163 91.6944 95.6945 91.6944C98.285 91.6944 99.5032 90.3501 99.5032 88.7678C99.5032 87.4375 98.7191 86.5694 97.0528 85.9533C95.8345 85.4912 95.3024 85.2251 95.3024 84.623C95.3024 84.1329 95.7505 83.7128 96.6747 83.7128C97.5989 83.7128 98.271 83.9789 98.6491 84.1609L99.1252 82.4386C98.565 82.1866 97.7809 81.9625 96.7167 81.9625C94.4903 81.9625 93.146 83.1947 93.146 84.805C93.146 86.1773 94.1682 87.0455 95.7365 87.5916C96.8707 87.9977 97.3188 88.3337 97.3188 88.9218C97.3188 89.5379 96.8007 89.944 95.8205 89.944C94.9104 89.944 94.0282 89.65 93.4541 89.3559L93.02 91.1202ZM107.331 84.707H105.189V88.7818C105.189 88.9498 105.175 89.1179 105.119 89.2439C104.979 89.58 104.643 89.986 104.055 89.986C103.312 89.986 102.99 89.3839 102.99 88.3897V84.707H100.848V88.7258C100.848 90.8402 101.87 91.7084 103.256 91.7084C104.489 91.7084 105.133 91.0082 105.399 90.5881H105.441L105.539 91.5543H107.387C107.359 90.9802 107.331 90.2521 107.331 89.3559V84.707ZM110.79 91.5543L110.874 90.6021H110.902C111.392 91.4143 112.162 91.7084 112.96 91.7084C114.529 91.7084 116.097 90.4761 116.097 88.0117C116.111 85.9113 114.907 84.553 113.268 84.553C112.316 84.553 111.602 84.9311 111.196 85.5192H111.168V81.6124H109.04V89.5099C109.04 90.2801 109.012 91.1062 108.984 91.5543H110.79ZM111.168 87.6336C111.168 87.4936 111.182 87.3675 111.21 87.2415C111.35 86.6254 111.882 86.1913 112.456 86.1913C113.451 86.1913 113.927 87.0315 113.927 88.0957C113.927 89.3279 113.367 90.028 112.456 90.028C111.84 90.028 111.35 89.594 111.21 89.0198C111.182 88.9078 111.168 88.7818 111.168 88.6418V87.6336ZM117.016 91.2183C117.534 91.4983 118.333 91.6944 119.229 91.6944C121.189 91.6944 122.197 90.7562 122.197 89.4819C122.183 88.4737 121.637 87.8156 120.335 87.3675C119.495 87.0735 119.229 86.9054 119.229 86.5834C119.229 86.2333 119.523 86.0233 120.041 86.0233C120.629 86.0233 121.217 86.2473 121.525 86.4154L121.903 84.9451C121.483 84.735 120.769 84.553 119.971 84.553C118.277 84.553 117.184 85.5192 117.184 86.7934C117.17 87.6056 117.717 88.3757 119.131 88.8518C119.929 89.1179 120.139 89.2859 120.139 89.636C120.139 89.986 119.873 90.2101 119.229 90.2101C118.599 90.2101 117.787 89.93 117.394 89.692L117.016 91.2183ZM128.367 89.818C128.045 89.944 127.653 90.028 127.149 90.028C126.112 90.028 125.272 89.3699 125.272 88.1097C125.258 86.9895 125.986 86.1913 127.107 86.1913C127.667 86.1913 128.045 86.2893 128.297 86.4013L128.633 84.819C128.185 84.651 127.569 84.553 127.009 84.553C124.46 84.553 123.088 86.1913 123.088 88.1937C123.088 90.3501 124.502 91.6944 126.715 91.6944C127.527 91.6944 128.241 91.5543 128.619 91.3863L128.367 89.818ZM129.798 91.5543H131.926V88.0817C131.926 87.9136 131.94 87.7456 131.968 87.6056C132.108 86.9475 132.64 86.5274 133.424 86.5274C133.662 86.5274 133.844 86.5554 133.998 86.5834V84.581C133.844 84.553 133.746 84.553 133.55 84.553C132.892 84.553 132.052 84.9731 131.702 85.9673H131.646L131.576 84.707H129.742C129.77 85.2951 129.798 85.9533 129.798 86.9615V91.5543ZM137.245 91.5543V84.707H135.117V91.5543H137.245ZM136.181 81.7245C135.495 81.7245 135.047 82.1866 135.061 82.8027C135.047 83.3908 135.495 83.8669 136.167 83.8669C136.867 83.8669 137.315 83.3908 137.315 82.8027C137.301 82.1866 136.867 81.7245 136.181 81.7245ZM138.959 94.3268H141.088V90.9242H141.116C141.424 91.3723 142.068 91.7084 142.894 91.7084C144.42 91.7084 146.003 90.5321 146.003 88.0397C146.003 85.8552 144.658 84.553 143.16 84.553C142.166 84.553 141.382 84.9311 140.878 85.6592H140.85L140.752 84.707H138.903C138.931 85.3371 138.959 86.1073 138.959 87.0035V94.3268ZM141.088 87.6756C141.088 87.5496 141.102 87.4095 141.13 87.2975C141.27 86.6674 141.802 86.2193 142.404 86.2193C143.356 86.2193 143.846 87.0455 143.846 88.1377C143.846 89.2999 143.3 90.07 142.376 90.07C141.76 90.07 141.27 89.636 141.13 89.0619C141.102 88.9358 141.088 88.7818 141.088 88.6138V87.6756ZM147.622 83.2227V84.707H146.712V86.2753H147.622V89.0759C147.622 90.042 147.818 90.7002 148.21 91.1062C148.546 91.4563 149.121 91.6944 149.807 91.6944C150.409 91.6944 150.913 91.6243 151.193 91.5123L151.179 89.902C151.025 89.93 150.815 89.958 150.549 89.958C149.905 89.958 149.709 89.58 149.709 88.7538V86.2753H151.235V84.707H149.709V82.7467L147.622 83.2227ZM154.598 91.5543V84.707H152.47V91.5543H154.598ZM153.534 81.7245C152.848 81.7245 152.4 82.1866 152.414 82.8027C152.4 83.3908 152.848 83.8669 153.52 83.8669C154.22 83.8669 154.668 83.3908 154.668 82.8027C154.654 82.1866 154.22 81.7245 153.534 81.7245ZM159.575 84.553C157.377 84.553 155.92 85.9673 155.92 88.1797C155.92 90.3921 157.461 91.7084 159.463 91.7084C161.297 91.7084 163.076 90.5601 163.076 88.0537C163.076 85.9953 161.675 84.553 159.575 84.553ZM159.519 86.0653C160.485 86.0653 160.877 87.1015 160.877 88.1237C160.877 89.3559 160.345 90.1821 159.519 90.1821C158.609 90.1821 158.119 89.2999 158.119 88.1237C158.119 87.1155 158.497 86.0653 159.519 86.0653ZM164.394 91.5543H166.522V87.6056C166.522 87.4095 166.55 87.1995 166.606 87.0735C166.746 86.6814 167.096 86.2753 167.685 86.2753C168.455 86.2753 168.763 86.8774 168.763 87.7596V91.5543H170.891V87.4936C170.891 85.4772 169.841 84.553 168.441 84.553C167.306 84.553 166.606 85.2111 166.326 85.6452H166.284L166.186 84.707H164.338C164.366 85.3091 164.394 86.0373 164.394 86.8914V91.5543Z" fill="#D5539E"/>
<path d="M40.0485 313.676V310.604H41.6568C42.905 310.604 43.4331 311.18 43.4331 312.152C43.4331 313.088 42.905 313.676 41.6568 313.676H40.0485ZM44.5493 312.152C44.5493 310.784 43.6252 309.704 41.6568 309.704H38.9563V318.069H40.0485V314.577H41.6568C43.7332 314.577 44.5493 313.424 44.5493 312.152ZM46.999 314.493C46.999 312.968 47.7912 312.5 48.8354 312.5H49.1234V311.372C48.0792 311.372 47.3711 311.828 46.999 312.56V311.492H45.9068V318.069H46.999V314.493ZM50.3842 318.069H51.4764V311.492H50.3842V318.069ZM50.9483 310.424C51.3444 310.424 51.6685 310.1 51.6685 309.68C51.6685 309.26 51.3444 308.936 50.9483 308.936C50.5283 308.936 50.2042 309.26 50.2042 309.68C50.2042 310.1 50.5283 310.424 50.9483 310.424ZM52.9298 314.769C52.9298 316.857 54.2621 318.177 56.1344 318.177C57.7667 318.177 58.835 317.265 59.171 315.957H57.9948C57.7547 316.785 57.1066 317.253 56.1344 317.253C54.9342 317.253 54.046 316.401 54.046 314.769C54.046 313.16 54.9342 312.308 56.1344 312.308C57.1066 312.308 57.7667 312.812 57.9948 313.604H59.171C58.835 312.224 57.7667 311.384 56.1344 311.384C54.2621 311.384 52.9298 312.704 52.9298 314.769ZM63.4249 312.308C64.5531 312.308 65.5133 313.016 65.5013 314.301H61.3485C61.4685 313.016 62.3567 312.308 63.4249 312.308ZM66.4975 316.041H65.3212C65.0812 316.749 64.4571 317.253 63.4729 317.253C62.3567 317.253 61.4205 316.521 61.3365 315.189H66.5935C66.6175 314.961 66.6295 314.769 66.6295 314.529C66.6295 312.728 65.3813 311.384 63.4729 311.384C61.5525 311.384 60.2203 312.692 60.2203 314.769C60.2203 316.857 61.6005 318.177 63.4729 318.177C65.1052 318.177 66.1614 317.241 66.4975 316.041ZM73.5514 319.113H74.1995V318.141C75.8319 318.033 76.672 316.893 76.672 315.777C76.672 314.108 75.3878 313.76 74.1995 313.46V310.532C74.9317 310.688 75.3278 311.228 75.3998 311.744H76.564C76.444 310.532 75.5678 309.728 74.1995 309.608V308.611H73.5514V309.608C72.0511 309.704 71.067 310.628 71.067 311.924C71.067 313.58 72.3512 313.928 73.5514 314.241V317.241C72.6993 317.109 72.3032 316.521 72.2432 315.897H71.079C71.103 317.169 72.1112 318.009 73.5514 318.141V319.113ZM75.5798 315.837C75.5798 316.557 75.0877 317.157 74.1995 317.253V314.421C74.9677 314.649 75.5798 314.985 75.5798 315.837ZM72.1832 311.864C72.1832 311.012 72.7473 310.58 73.5514 310.508V313.28C72.7833 313.04 72.1832 312.716 72.1832 311.864Z" fill="#666666"/>
<path d="M40.2257 281.429V279.159H41.486C42.3761 279.159 42.7762 279.579 42.7762 280.299C42.7762 280.999 42.3761 281.429 41.486 281.429H40.2257ZM43.9464 280.299C43.9464 279.169 43.1363 278.229 41.486 278.229H39.0855V285.18H40.2257V282.359H41.486C43.2963 282.359 43.9464 281.289 43.9464 280.299ZM46.1741 282.279C46.1741 281.109 46.6942 280.759 47.5344 280.759H47.8244V279.579C47.0443 279.579 46.4942 279.919 46.1741 280.469V279.669H45.0339V285.18H46.1741V282.279ZM48.8725 285.18H50.0128V279.669H48.8725V285.18ZM49.4526 278.939C49.8527 278.939 50.1728 278.619 50.1728 278.209C50.1728 277.799 49.8527 277.479 49.4526 277.479C49.0426 277.479 48.7225 277.799 48.7225 278.209C48.7225 278.619 49.0426 278.939 49.4526 278.939ZM51.1297 282.419C51.1297 284.15 52.2499 285.27 53.8302 285.27C55.1804 285.27 56.0606 284.52 56.3707 283.44H55.1404C54.9304 284.01 54.5103 284.31 53.8302 284.31C52.91 284.31 52.2999 283.63 52.2999 282.419C52.2999 281.219 52.91 280.539 53.8302 280.539C54.5103 280.539 54.9504 280.879 55.1404 281.409H56.3707C56.0606 280.249 55.1804 279.579 53.8302 279.579C52.2499 279.579 51.1297 280.699 51.1297 282.419ZM59.8274 280.539C60.6776 280.539 61.3477 281.079 61.3677 281.929H58.3171C58.4372 281.059 59.0573 280.539 59.8274 280.539ZM62.4079 283.54H61.1777C60.9676 283.97 60.5776 284.31 59.8774 284.31C59.0373 284.31 58.3872 283.76 58.3071 282.85H62.5179C62.5479 282.66 62.5579 282.479 62.5579 282.289C62.5579 280.669 61.4477 279.579 59.8774 279.579C58.2471 279.579 57.1269 280.689 57.1269 282.419C57.1269 284.15 58.2971 285.27 59.8774 285.27C61.2277 285.27 62.0979 284.5 62.4079 283.54ZM68.2285 286.05H68.8787V285.23C70.2289 285.11 70.9691 284.17 70.9691 283.2C70.9691 281.789 69.8789 281.519 68.8787 281.279V279.119C69.3588 279.239 69.6388 279.609 69.6788 280.009H70.8991C70.809 278.879 70.0289 278.249 68.8787 278.149V277.339H68.2285V278.159C66.9883 278.269 66.1281 279.039 66.1281 280.159C66.1281 281.569 67.2284 281.849 68.2285 282.099V284.3C67.6684 284.2 67.3884 283.83 67.3484 283.33H66.1281C66.1281 284.46 67.0083 285.13 68.2285 285.24V286.05ZM69.8188 283.26C69.8188 283.78 69.4788 284.2 68.8787 284.3V282.269C69.4188 282.439 69.8188 282.69 69.8188 283.26ZM67.2884 280.099C67.2884 279.489 67.6784 279.159 68.2285 279.089V281.109C67.6884 280.939 67.2884 280.679 67.2884 280.099Z" fill="#1D9AAC"/>
<path d="M363.691 294.277H40.2585C30.1443 294.277 21.9451 302.476 21.9451 312.59V312.591C21.9451 322.705 30.1443 330.905 40.2585 330.905H363.691C373.805 330.905 382.004 322.705 382.004 312.591V312.59C382.004 302.476 373.805 294.277 363.691 294.277Z" stroke="#969696" stroke-width="0.516" stroke-miterlimit="10"/>
<path d="M46.9498 381.305C46.9498 378.797 45.1134 377.032 42.749 377.032C40.3966 377.032 38.5482 378.797 38.5482 381.305C38.5482 383.814 40.3966 385.578 42.749 385.578C45.1134 385.578 46.9498 383.814 46.9498 381.305ZM39.6644 381.305C39.6644 379.253 40.9847 377.981 42.749 377.981C44.5133 377.981 45.8336 379.253 45.8336 381.305C45.8336 383.346 44.5133 384.63 42.749 384.63C40.9847 384.63 39.6644 383.346 39.6644 381.305ZM48.5957 385.494H49.6879V379.817H51.0682V378.917H49.6879V378.449C49.6879 377.596 50.012 377.236 50.9962 377.236V376.324C49.3158 376.324 48.5957 376.984 48.5957 378.449V378.917H47.7435V379.817H48.5957V385.494ZM52.5457 385.494H53.6379V379.817H55.0181V378.917H53.6379V378.449C53.6379 377.596 53.9619 377.236 54.9461 377.236V376.324C53.2658 376.324 52.5457 376.984 52.5457 378.449V378.917H51.6935V379.817H52.5457V385.494ZM59.0881 379.733C60.2163 379.733 61.1765 380.441 61.1645 381.725H57.0117C57.1318 380.441 58.0199 379.733 59.0881 379.733ZM62.1607 383.466H60.9845C60.7444 384.174 60.1203 384.678 59.1361 384.678C58.0199 384.678 57.0837 383.946 56.9997 382.613H62.2567C62.2807 382.385 62.2927 382.193 62.2927 381.953C62.2927 380.153 61.0445 378.809 59.1361 378.809C57.2158 378.809 55.8835 380.117 55.8835 382.193C55.8835 384.282 57.2638 385.602 59.1361 385.602C60.7684 385.602 61.8246 384.666 62.1607 383.466ZM64.8266 381.917C64.8266 380.393 65.6188 379.925 66.663 379.925H66.951V378.797C65.9068 378.797 65.1987 379.253 64.8266 379.985V378.917H63.7344V385.494H64.8266V381.917ZM72.5039 381.101V378.029H74.1122C75.3604 378.029 75.8885 378.605 75.8885 379.577C75.8885 380.513 75.3604 381.101 74.1122 381.101H72.5039ZM77.0047 379.577C77.0047 378.209 76.0805 377.128 74.1122 377.128H71.4116V385.494H72.5039V382.001H74.1122C76.1885 382.001 77.0047 380.849 77.0047 379.577ZM79.4544 381.917C79.4544 380.393 80.2465 379.925 81.2907 379.925H81.5788V378.797C80.5346 378.797 79.8265 379.253 79.4544 379.985V378.917H78.3622V385.494H79.4544V381.917ZM82.8396 385.494H83.9318V378.917H82.8396V385.494ZM83.4037 377.849C83.7998 377.849 84.1238 377.524 84.1238 377.104C84.1238 376.684 83.7998 376.36 83.4037 376.36C82.9836 376.36 82.6596 376.684 82.6596 377.104C82.6596 377.524 82.9836 377.849 83.4037 377.849ZM85.3852 382.193C85.3852 384.282 86.7174 385.602 88.5898 385.602C90.2221 385.602 91.2903 384.69 91.6264 383.382H90.4502C90.2101 384.21 89.562 384.678 88.5898 384.678C87.3896 384.678 86.5014 383.826 86.5014 382.193C86.5014 380.585 87.3896 379.733 88.5898 379.733C89.562 379.733 90.2221 380.237 90.4502 381.029H91.6264C91.2903 379.649 90.2221 378.809 88.5898 378.809C86.7174 378.809 85.3852 380.129 85.3852 382.193ZM95.8802 379.733C97.0085 379.733 97.9686 380.441 97.9566 381.725H93.8039C93.9239 380.441 94.812 379.733 95.8802 379.733ZM98.9528 383.466H97.7766C97.5366 384.174 96.9124 384.678 95.9283 384.678C94.812 384.678 93.8759 383.946 93.7919 382.613H99.0488C99.0729 382.385 99.0849 382.193 99.0849 381.953C99.0849 380.153 97.8366 378.809 95.9283 378.809C94.0079 378.809 92.6756 380.117 92.6756 382.193C92.6756 384.282 94.0559 385.602 95.9283 385.602C97.5606 385.602 98.6168 384.666 98.9528 383.466ZM106.007 386.538H106.655V385.566C108.287 385.458 109.127 384.318 109.127 383.202C109.127 381.533 107.843 381.185 106.655 380.885V377.957C107.387 378.113 107.783 378.653 107.855 379.169H109.019C108.899 377.957 108.023 377.152 106.655 377.032V376.036H106.007V377.032C104.507 377.128 103.522 378.053 103.522 379.349C103.522 381.005 104.807 381.353 106.007 381.665V384.666C105.155 384.534 104.759 383.946 104.699 383.322H103.534C103.558 384.594 104.567 385.434 106.007 385.566V386.538ZM108.035 383.262C108.035 383.982 107.543 384.582 106.655 384.678V381.845C107.423 382.073 108.035 382.409 108.035 383.262ZM104.639 379.289C104.639 378.437 105.203 378.005 106.007 377.933V380.705C105.239 380.465 104.639 380.141 104.639 379.289Z" fill="#666666"/>
<path d="M45.8068 349.113C45.8068 347.033 44.2365 345.562 42.2561 345.562C40.2958 345.562 38.7055 347.033 38.7055 349.113C38.7055 351.203 40.2958 352.674 42.2561 352.674C44.2365 352.674 45.8068 351.203 45.8068 349.113ZM39.8757 349.113C39.8757 347.543 40.8759 346.563 42.2561 346.563C43.6364 346.563 44.6366 347.543 44.6366 349.113C44.6366 350.683 43.6364 351.684 42.2561 351.684C40.8759 351.684 39.8757 350.683 39.8757 349.113ZM47.0688 352.604H48.2191V348.023H49.2392V347.093H48.2191V346.703C48.2191 346.073 48.4591 345.832 49.1592 345.832V344.882C47.719 344.882 47.0688 345.432 47.0688 346.703V347.093H46.4187V348.023H47.0688V352.604ZM50.3898 352.604H51.54V348.023H52.5602V347.093H51.54V346.703C51.54 346.073 51.78 345.832 52.4802 345.832V344.882C51.0399 344.882 50.3898 345.432 50.3898 346.703V347.093H49.7397V348.023H50.3898V352.604ZM55.8911 347.963C56.7413 347.963 57.4114 348.503 57.4314 349.353H54.3808C54.5009 348.483 55.121 347.963 55.8911 347.963ZM58.4716 350.963H57.2414C57.0313 351.394 56.6413 351.734 55.9411 351.734C55.101 351.734 54.4509 351.183 54.3708 350.273H58.5816C58.6116 350.083 58.6216 349.903 58.6216 349.713C58.6216 348.093 57.5114 347.003 55.9411 347.003C54.3108 347.003 53.1906 348.113 53.1906 349.843C53.1906 351.574 54.3608 352.694 55.9411 352.694C57.2914 352.694 58.1616 351.924 58.4716 350.963ZM60.884 349.703C60.884 348.533 61.404 348.183 62.2442 348.183H62.5343V347.003C61.7541 347.003 61.204 347.343 60.884 347.893V347.093H59.7437V352.604H60.884V349.703ZM67.3207 348.853V346.583H68.581C69.4711 346.583 69.8712 347.003 69.8712 347.723C69.8712 348.423 69.4711 348.853 68.581 348.853H67.3207ZM71.0414 347.723C71.0414 346.593 70.2313 345.652 68.581 345.652H66.1805V352.604H67.3207V349.783H68.581C70.3913 349.783 71.0414 348.713 71.0414 347.723ZM73.2691 349.703C73.2691 348.533 73.7892 348.183 74.6294 348.183H74.9194V347.003C74.1393 347.003 73.5892 347.343 73.2691 347.893V347.093H72.1289V352.604H73.2691V349.703ZM75.9675 352.604H77.1077V347.093H75.9675V352.604ZM76.5476 346.363C76.9477 346.363 77.2678 346.043 77.2678 345.632C77.2678 345.222 76.9477 344.902 76.5476 344.902C76.1375 344.902 75.8175 345.222 75.8175 345.632C75.8175 346.043 76.1375 346.363 76.5476 346.363ZM78.2247 349.843C78.2247 351.574 79.3449 352.694 80.9252 352.694C82.2754 352.694 83.1556 351.944 83.4656 350.863H82.2354C82.0254 351.434 81.6053 351.734 80.9252 351.734C80.005 351.734 79.3949 351.053 79.3949 349.843C79.3949 348.643 80.005 347.963 80.9252 347.963C81.6053 347.963 82.0454 348.303 82.2354 348.833H83.4656C83.1556 347.673 82.2754 347.003 80.9252 347.003C79.3449 347.003 78.2247 348.123 78.2247 349.843ZM86.9224 347.963C87.7726 347.963 88.4427 348.503 88.4627 349.353H85.4121C85.5321 348.483 86.1523 347.963 86.9224 347.963ZM89.5029 350.963H88.2727C88.0626 351.394 87.6725 351.734 86.9724 351.734C86.1322 351.734 85.4821 351.183 85.4021 350.273H89.6129C89.6429 350.083 89.6529 349.903 89.6529 349.713C89.6529 348.093 88.5427 347.003 86.9724 347.003C85.3421 347.003 84.2219 348.113 84.2219 349.843C84.2219 351.574 85.3921 352.694 86.9724 352.694C88.3227 352.694 89.1928 351.924 89.5029 350.963ZM95.3235 353.474H95.9736V352.654C97.3239 352.534 98.064 351.594 98.064 350.623C98.064 349.213 96.9738 348.943 95.9736 348.703V346.543C96.4537 346.663 96.7338 347.033 96.7738 347.433H97.994C97.904 346.303 97.1239 345.672 95.9736 345.572V344.762H95.3235V345.582C94.0833 345.692 93.2231 346.463 93.2231 347.583C93.2231 348.993 94.3233 349.273 95.3235 349.523V351.724C94.7634 351.624 94.4834 351.254 94.4434 350.753H93.2231C93.2231 351.884 94.1033 352.554 95.3235 352.664V353.474ZM96.9138 350.683C96.9138 351.203 96.5738 351.624 95.9736 351.724V349.693C96.5137 349.863 96.9138 350.113 96.9138 350.683ZM94.3833 347.523C94.3833 346.913 94.7734 346.583 95.3235 346.513V348.533C94.7834 348.363 94.3833 348.103 94.3833 347.523Z" fill="#1D9AAC"/>
<path d="M363.691 361.7H40.2585C30.1443 361.7 21.9451 369.9 21.9451 380.014V380.015C21.9451 390.129 30.1443 398.328 40.2585 398.328H363.691C373.805 398.328 382.004 390.129 382.004 380.015V380.014C382.004 369.9 373.805 361.7 363.691 361.7Z" stroke="#969696" stroke-width="0.516" stroke-miterlimit="10"/>
<path d="M41.356 630.174H39.0855V637.126H41.356C43.5864 637.126 45.0467 635.815 45.0467 633.675C45.0467 631.525 43.5864 630.174 41.356 630.174ZM40.2257 636.195V631.105H41.356C42.9963 631.105 43.8764 632.085 43.8764 633.675C43.8764 635.255 42.9963 636.195 41.356 636.195H40.2257ZM48.4972 632.485C49.3473 632.485 50.0174 633.025 50.0374 633.875H46.9869C47.1069 633.005 47.727 632.485 48.4972 632.485ZM51.0776 635.485H49.8474C49.6374 635.915 49.2473 636.255 48.5472 636.255C47.707 636.255 47.0569 635.705 46.9769 634.795H51.1877C51.2177 634.605 51.2277 634.425 51.2277 634.235C51.2277 632.615 50.1175 631.525 48.5472 631.525C46.9169 631.525 45.7966 632.635 45.7966 634.365C45.7966 636.095 46.9669 637.216 48.5472 637.216C49.8974 637.216 50.7676 636.446 51.0776 635.485ZM56.4605 635.585C56.4005 633.595 53.2899 634.215 53.2899 633.105C53.2899 632.735 53.61 632.485 54.2201 632.485C54.8402 632.485 55.2103 632.815 55.2503 633.295H56.3905C56.3305 632.195 55.5104 631.525 54.2601 631.525C52.9599 631.525 52.1397 632.235 52.1397 633.115C52.1397 635.135 55.3403 634.515 55.3403 635.595C55.3403 635.975 54.9903 636.255 54.3301 636.255C53.7 636.255 53.2699 635.885 53.2299 635.435H52.0497C52.0997 636.436 53.0299 637.216 54.3501 637.216C55.6504 637.216 56.4605 636.516 56.4605 635.585ZM57.3125 634.365C57.3125 636.095 58.4327 637.216 60.013 637.216C61.3633 637.216 62.2434 636.466 62.5535 635.385H61.3233C61.1132 635.955 60.6931 636.255 60.013 636.255C59.0928 636.255 58.4827 635.575 58.4827 634.365C58.4827 633.165 59.0928 632.485 60.013 632.485C60.6931 632.485 61.1332 632.825 61.3233 633.355H62.5535C62.2434 632.195 61.3633 631.525 60.013 631.525C58.4327 631.525 57.3125 632.645 57.3125 634.365ZM64.83 634.225C64.83 633.055 65.3501 632.705 66.1903 632.705H66.4803V631.525C65.7002 631.525 65.1501 631.865 64.83 632.415V631.615H63.6898V637.126H64.83V634.225ZM67.5284 637.126H68.6686V631.615H67.5284V637.126ZM68.1085 630.884C68.5086 630.884 68.8287 630.564 68.8287 630.154C68.8287 629.744 68.5086 629.424 68.1085 629.424C67.6984 629.424 67.3784 629.744 67.3784 630.154C67.3784 630.564 67.6984 630.884 68.1085 630.884ZM71.3058 632.425V631.615H70.1656V639.746H71.3058V636.326C71.6659 636.756 72.316 637.216 73.2262 637.216C74.6765 637.216 75.8167 636.045 75.8167 634.345C75.8167 632.645 74.6765 631.525 73.2262 631.525C72.326 631.525 71.6559 631.965 71.3058 632.425ZM74.6565 634.345C74.6565 635.535 73.8363 636.225 72.9762 636.225C72.126 636.225 71.3058 635.555 71.3058 634.365C71.3058 633.185 72.126 632.515 72.9762 632.515C73.8363 632.515 74.6565 633.155 74.6565 634.345ZM77.1243 635.595C77.1243 636.716 77.7344 637.126 78.7146 637.126H79.6148V636.175H78.9146C78.4345 636.175 78.2745 636.005 78.2745 635.595V632.545H79.6148V631.615H78.2745V630.244H77.1243V631.615H76.4742V632.545H77.1243V635.595ZM80.6657 637.126H81.8059V631.615H80.6657V637.126ZM81.2458 630.884C81.6459 630.884 81.9659 630.564 81.9659 630.154C81.9659 629.744 81.6459 629.424 81.2458 629.424C80.8357 629.424 80.5156 629.744 80.5156 630.154C80.5156 630.564 80.8357 630.884 81.2458 630.884ZM88.5539 634.365C88.5539 632.635 87.3136 631.525 85.7433 631.525C84.173 631.525 82.9328 632.635 82.9328 634.365C82.9328 636.095 84.123 637.216 85.6933 637.216C87.2736 637.216 88.5539 636.095 88.5539 634.365ZM84.093 634.365C84.093 633.115 84.8632 632.515 85.7233 632.515C86.5735 632.515 87.3837 633.115 87.3837 634.365C87.3837 635.615 86.5435 636.225 85.6933 636.225C84.8332 636.225 84.093 635.615 84.093 634.365ZM93.5918 637.126H94.722V633.875C94.722 632.335 93.7518 631.525 92.4616 631.525C91.8014 631.525 91.1913 631.795 90.8213 632.245V631.615H89.681V637.126H90.8213V634.045C90.8213 633.035 91.3714 632.515 92.2115 632.515C93.0417 632.515 93.5918 633.035 93.5918 634.045V637.126Z" fill="#1D9AAC"/>
<path d="M22.1571 122.863C22.6612 123.199 23.6554 123.465 24.5656 123.465C26.792 123.465 27.8702 122.205 27.8702 120.749C27.8702 119.363 27.0581 118.592 25.4618 117.976C24.1595 117.472 23.5854 117.038 23.5854 116.156C23.5854 115.512 24.0755 114.742 25.3637 114.742C26.2179 114.742 26.848 115.022 27.1561 115.19L27.4921 114.196C27.0721 113.958 26.3719 113.734 25.4058 113.734C23.5714 113.734 22.3532 114.826 22.3532 116.296C22.3532 117.626 23.3054 118.424 24.8456 118.971C26.1199 119.461 26.624 119.965 26.624 120.847C26.624 121.799 25.8958 122.457 24.6496 122.457C23.8095 122.457 23.0113 122.177 22.4652 121.841L22.1571 122.863ZM35.1679 116.548H33.9357V120.707C33.9357 120.931 33.8937 121.155 33.8236 121.337C33.5996 121.883 33.0255 122.457 32.1993 122.457C31.0791 122.457 30.687 121.589 30.687 120.301V116.548H29.4548V120.511C29.4548 122.891 30.7291 123.479 31.7933 123.479C32.9975 123.479 33.7116 122.765 34.0337 122.219H34.0617L34.1317 123.325H35.2239C35.1819 122.793 35.1679 122.177 35.1679 121.477V116.548ZM38.2174 123.325L38.2734 122.205H38.3154C38.8195 123.101 39.6037 123.479 40.5839 123.479C42.0961 123.479 43.6224 122.275 43.6224 119.853C43.6364 117.794 42.4462 116.394 40.7659 116.394C39.6737 116.394 38.8895 116.884 38.4555 117.64H38.4275V113.383H37.2092V121.575C37.2092 122.177 37.1812 122.863 37.1532 123.325H38.2174ZM38.4275 119.391C38.4275 119.195 38.4695 119.027 38.4975 118.887C38.7495 117.948 39.5337 117.374 40.3738 117.374C41.6901 117.374 42.3902 118.536 42.3902 119.895C42.3902 121.449 41.6201 122.499 40.3318 122.499C39.4356 122.499 38.7215 121.911 38.4835 121.057C38.4555 120.917 38.4275 120.763 38.4275 120.609V119.391ZM44.7053 123.003C45.1814 123.283 45.8676 123.465 46.6097 123.465C48.22 123.465 49.1442 122.625 49.1442 121.435C49.1442 120.427 48.5421 119.839 47.3658 119.391C46.4837 119.055 46.0776 118.802 46.0776 118.242C46.0776 117.738 46.4837 117.318 47.2118 117.318C47.8419 117.318 48.332 117.542 48.5981 117.71L48.9061 116.814C48.5281 116.59 47.926 116.394 47.2398 116.394C45.7835 116.394 44.9014 117.29 44.9014 118.382C44.9014 119.195 45.4755 119.867 46.6937 120.301C47.6039 120.637 47.954 120.959 47.954 121.547C47.954 122.107 47.5339 122.555 46.6377 122.555C46.0216 122.555 45.3775 122.303 45.0134 122.065L44.7053 123.003ZM55.3541 122.149C55.0041 122.303 54.542 122.485 53.8419 122.485C52.4976 122.485 51.4894 121.519 51.4894 119.951C51.4894 118.536 52.3296 117.388 53.8839 117.388C54.556 117.388 55.0181 117.542 55.3121 117.71L55.5922 116.758C55.2561 116.59 54.612 116.408 53.8839 116.408C51.6714 116.408 50.2432 117.92 50.2432 120.007C50.2432 122.079 51.5734 123.465 53.6178 123.465C54.528 123.465 55.2421 123.241 55.5642 123.073L55.3541 122.149ZM57.0098 123.325H58.2281V119.713C58.2281 119.503 58.2561 119.307 58.2841 119.139C58.4521 118.214 59.0682 117.556 59.9364 117.556C60.1044 117.556 60.2305 117.57 60.3565 117.598V116.436C60.2445 116.408 60.1464 116.394 60.0064 116.394C59.1803 116.394 58.4381 116.968 58.1301 117.878H58.074L58.032 116.548H56.9538C56.9958 117.178 57.0098 117.864 57.0098 118.662V123.325ZM62.8777 123.325V116.548H61.6455V123.325H62.8777ZM62.2616 113.874C61.8135 113.874 61.4915 114.21 61.4915 114.644C61.4915 115.064 61.7995 115.4 62.2336 115.4C62.7237 115.4 63.0318 115.064 63.0177 114.644C63.0177 114.21 62.7237 113.874 62.2616 113.874ZM64.9274 126.098H66.1456V122.415H66.1736C66.5797 123.087 67.3638 123.479 68.26 123.479C69.8563 123.479 71.3406 122.275 71.3406 119.839C71.3406 117.78 70.1083 116.394 68.47 116.394C67.3638 116.394 66.5657 116.884 66.0616 117.71H66.0336L65.9776 116.548H64.8714C64.8994 117.192 64.9274 117.892 64.9274 118.76V126.098ZM66.1456 119.405C66.1456 119.237 66.1876 119.055 66.2296 118.901C66.4677 117.976 67.2518 117.374 68.092 117.374C69.3942 117.374 70.1083 118.536 70.1083 119.895C70.1083 121.449 69.3522 122.513 68.05 122.513C67.1678 122.513 66.4256 121.925 66.2016 121.071C66.1736 120.917 66.1456 120.749 66.1456 120.567V119.405ZM73.1796 114.924V116.548H72.1294V117.486H73.1796V121.183C73.1796 121.981 73.3057 122.583 73.6557 122.947C73.9498 123.283 74.4119 123.465 74.986 123.465C75.4621 123.465 75.8401 123.395 76.0782 123.297L76.0222 122.373C75.8681 122.415 75.6301 122.457 75.308 122.457C74.6219 122.457 74.3839 121.981 74.3839 121.141V117.486H76.1482V116.548H74.3839V114.602L73.1796 114.924ZM78.7675 123.325V116.548H77.5352V123.325H78.7675ZM78.1513 113.874C77.7032 113.874 77.3812 114.21 77.3812 114.644C77.3812 115.064 77.6892 115.4 78.1233 115.4C78.6134 115.4 78.9215 115.064 78.9075 114.644C78.9075 114.21 78.6134 113.874 78.1513 113.874ZM83.6876 116.394C81.8113 116.394 80.327 117.724 80.327 119.993C80.327 122.135 81.7413 123.479 83.5756 123.479C85.2139 123.479 86.9503 122.387 86.9503 119.881C86.9503 117.808 85.634 116.394 83.6876 116.394ZM83.6596 117.318C85.1159 117.318 85.69 118.774 85.69 119.923C85.69 121.449 84.8078 122.555 83.6316 122.555C82.4274 122.555 81.5732 121.435 81.5732 119.951C81.5732 118.662 82.2034 117.318 83.6596 117.318ZM88.5021 123.325H89.7344V119.251C89.7344 119.041 89.7624 118.831 89.8184 118.676C90.0284 117.99 90.6585 117.416 91.4707 117.416C92.6329 117.416 93.039 118.326 93.039 119.419V123.325H94.2712V119.279C94.2712 116.954 92.815 116.394 91.8768 116.394C90.7566 116.394 89.9724 117.024 89.6364 117.668H89.6083L89.5383 116.548H88.4461C88.4881 117.108 88.5021 117.682 88.5021 118.382V123.325ZM99.2786 113.888V123.325H100.497V113.888H99.2786ZM102.724 123.325H103.956V119.251C103.956 119.041 103.984 118.831 104.04 118.676C104.25 117.99 104.88 117.416 105.692 117.416C106.854 117.416 107.26 118.326 107.26 119.419V123.325H108.493V119.279C108.493 116.954 107.036 116.394 106.098 116.394C104.978 116.394 104.194 117.024 103.858 117.668H103.83L103.76 116.548H102.668C102.71 117.108 102.724 117.682 102.724 118.382V123.325ZM111.835 123.325V117.486H113.473V116.548H111.835V116.184C111.835 115.148 112.101 114.224 113.151 114.224C113.501 114.224 113.753 114.294 113.935 114.378L114.103 113.425C113.865 113.327 113.487 113.229 113.053 113.229C112.479 113.229 111.863 113.411 111.401 113.86C110.827 114.406 110.617 115.274 110.617 116.226V116.548H109.665V117.486H110.617V123.325H111.835ZM117.272 116.394C115.396 116.394 113.911 117.724 113.911 119.993C113.911 122.135 115.326 123.479 117.16 123.479C118.798 123.479 120.535 122.387 120.535 119.881C120.535 117.808 119.218 116.394 117.272 116.394ZM117.244 117.318C118.7 117.318 119.274 118.774 119.274 119.923C119.274 121.449 118.392 122.555 117.216 122.555C116.012 122.555 115.158 121.435 115.158 119.951C115.158 118.662 115.788 117.318 117.244 117.318ZM122.087 123.325H123.305V119.713C123.305 119.503 123.333 119.307 123.361 119.139C123.529 118.214 124.145 117.556 125.013 117.556C125.181 117.556 125.307 117.57 125.433 117.598V116.436C125.321 116.408 125.223 116.394 125.083 116.394C124.257 116.394 123.515 116.968 123.207 117.878H123.151L123.109 116.548H122.031C122.073 117.178 122.087 117.864 122.087 118.662V123.325ZM126.722 123.325H127.926V119.237C127.926 119.027 127.954 118.817 128.025 118.634C128.221 118.018 128.781 117.402 129.551 117.402C130.489 117.402 130.965 118.186 130.965 119.265V123.325H132.169V119.139C132.169 118.915 132.211 118.69 132.267 118.522C132.477 117.92 133.023 117.402 133.724 117.402C134.718 117.402 135.194 118.186 135.194 119.489V123.325H136.398V119.335C136.398 116.982 135.068 116.394 134.172 116.394C133.528 116.394 133.079 116.562 132.673 116.87C132.393 117.08 132.127 117.374 131.917 117.752H131.889C131.595 116.954 130.895 116.394 129.971 116.394C128.851 116.394 128.221 116.996 127.842 117.64H127.8L127.744 116.548H126.666C126.708 117.108 126.722 117.682 126.722 118.382V123.325ZM143.273 123.325C143.189 122.863 143.161 122.289 143.161 121.701V119.167C143.161 117.808 142.657 116.394 140.585 116.394C139.731 116.394 138.918 116.632 138.358 116.996L138.638 117.808C139.114 117.5 139.773 117.304 140.403 117.304C141.789 117.304 141.943 118.312 141.943 118.873V119.013C139.324 118.999 137.868 119.895 137.868 121.533C137.868 122.513 138.568 123.479 139.941 123.479C140.907 123.479 141.635 123.003 142.013 122.471H142.055L142.153 123.325H143.273ZM141.971 121.043C141.971 121.169 141.943 121.309 141.901 121.435C141.705 122.009 141.145 122.569 140.263 122.569C139.632 122.569 139.1 122.191 139.1 121.393C139.1 120.077 140.627 119.839 141.971 119.867V121.043ZM145.381 114.924V116.548H144.331V117.486H145.381V121.183C145.381 121.981 145.507 122.583 145.857 122.947C146.151 123.283 146.613 123.465 147.187 123.465C147.663 123.465 148.041 123.395 148.279 123.297L148.223 122.373C148.069 122.415 147.831 122.457 147.509 122.457C146.823 122.457 146.585 121.981 146.585 121.141V117.486H148.349V116.548H146.585V114.602L145.381 114.924ZM150.969 123.325V116.548H149.736V123.325H150.969ZM150.353 113.874C149.904 113.874 149.582 114.21 149.582 114.644C149.582 115.064 149.89 115.4 150.325 115.4C150.815 115.4 151.123 115.064 151.109 114.644C151.109 114.21 150.815 113.874 150.353 113.874ZM155.889 116.394C154.012 116.394 152.528 117.724 152.528 119.993C152.528 122.135 153.942 123.479 155.777 123.479C157.415 123.479 159.151 122.387 159.151 119.881C159.151 117.808 157.835 116.394 155.889 116.394ZM155.861 117.318C157.317 117.318 157.891 118.774 157.891 119.923C157.891 121.449 157.009 122.555 155.833 122.555C154.629 122.555 153.774 121.435 153.774 119.951C153.774 118.662 154.405 117.318 155.861 117.318ZM160.703 123.325H161.936V119.251C161.936 119.041 161.964 118.831 162.02 118.676C162.23 117.99 162.86 117.416 163.672 117.416C164.834 117.416 165.24 118.326 165.24 119.419V123.325H166.472V119.279C166.472 116.954 165.016 116.394 164.078 116.394C162.958 116.394 162.174 117.024 161.838 117.668H161.81L161.74 116.548H160.647C160.689 117.108 160.703 117.682 160.703 118.382V123.325Z" fill="black"/>
<path d="M374.108 646.706H30.0338C25.6197 646.706 22.0413 650.285 22.0413 654.699V696.965C22.0413 701.379 25.6197 704.957 30.0338 704.957H374.108C378.522 704.957 382.1 701.379 382.1 696.965V654.699C382.1 650.285 378.522 646.706 374.108 646.706Z" stroke="#969696" stroke-width="0.516" stroke-miterlimit="10"/>
<path d="M38.2444 652.858V660.947H39.2886V652.858H38.2444ZM41.1973 660.947H42.2535V657.455C42.2535 657.274 42.2775 657.094 42.3255 656.962C42.5055 656.374 43.0456 655.882 43.7418 655.882C44.7379 655.882 45.086 656.662 45.086 657.599V660.947H46.1422V657.479C46.1422 655.486 44.894 655.006 44.0898 655.006C43.1296 655.006 42.4575 655.546 42.1695 656.098H42.1455L42.0854 655.138H41.1493C41.1853 655.618 41.1973 656.11 41.1973 656.71V660.947ZM48.048 653.746V655.138H47.1478V655.942H48.048V659.111C48.048 659.795 48.156 660.311 48.456 660.623C48.7081 660.911 49.1042 661.067 49.5962 661.067C50.0043 661.067 50.3284 661.007 50.5324 660.923L50.4844 660.131C50.3524 660.167 50.1483 660.203 49.8723 660.203C49.2842 660.203 49.0801 659.795 49.0801 659.075V655.942H50.5924V655.138H49.0801V653.47L48.048 653.746ZM51.7813 660.947H52.8255V657.851C52.8255 657.671 52.8495 657.503 52.8735 657.359C53.0175 656.566 53.5456 656.002 54.2898 656.002C54.4338 656.002 54.5418 656.014 54.6499 656.038V655.042C54.5538 655.018 54.4698 655.006 54.3498 655.006C53.6417 655.006 53.0055 655.498 52.7415 656.278H52.6935L52.6575 655.138H51.7333C51.7693 655.678 51.7813 656.266 51.7813 656.95V660.947ZM58.0511 655.006C56.4428 655.006 55.1705 656.146 55.1705 658.091C55.1705 659.927 56.3828 661.079 57.9551 661.079C59.3593 661.079 60.8476 660.143 60.8476 657.995C60.8476 656.218 59.7194 655.006 58.0511 655.006ZM58.0271 655.798C59.2753 655.798 59.7674 657.046 59.7674 658.031C59.7674 659.339 59.0113 660.287 58.0031 660.287C56.9709 660.287 56.2388 659.327 56.2388 658.055C56.2388 656.95 56.7789 655.798 58.0271 655.798ZM66.1386 652.426V655.894H66.1146C65.8505 655.426 65.2504 655.006 64.3622 655.006C62.946 655.006 61.7457 656.194 61.7577 658.127C61.7577 659.891 62.8379 661.079 64.2422 661.079C65.1904 661.079 65.8985 660.587 66.2226 659.939H66.2466L66.2946 660.947H67.2428C67.2068 660.551 67.1948 659.963 67.1948 659.447V652.426H66.1386ZM66.1386 658.511C66.1386 658.679 66.1266 658.823 66.0906 658.967C65.8985 659.759 65.2504 660.227 64.5423 660.227C63.402 660.227 62.8259 659.255 62.8259 658.079C62.8259 656.794 63.4741 655.834 64.5663 655.834C65.3584 655.834 65.9345 656.386 66.0906 657.058C66.1266 657.19 66.1386 657.371 66.1386 657.503V658.511ZM73.8135 655.138H72.7573V658.703C72.7573 658.895 72.7212 659.087 72.6612 659.243C72.4692 659.711 71.9771 660.203 71.269 660.203C70.3088 660.203 69.9727 659.459 69.9727 658.355V655.138H68.9165V658.535C68.9165 660.575 70.0087 661.079 70.9209 661.079C71.9531 661.079 72.5652 660.467 72.8413 659.999H72.8653L72.9253 660.947H73.8615C73.8255 660.491 73.8135 659.963 73.8135 659.363V655.138ZM79.5239 659.939C79.2239 660.071 78.8278 660.227 78.2277 660.227C77.0754 660.227 76.2113 659.399 76.2113 658.055C76.2113 656.842 76.9314 655.858 78.2637 655.858C78.8398 655.858 79.2359 655.99 79.4879 656.134L79.7279 655.318C79.4399 655.174 78.8878 655.018 78.2637 655.018C76.3673 655.018 75.1431 656.314 75.1431 658.103C75.1431 659.879 76.2833 661.067 78.0356 661.067C78.8158 661.067 79.4279 660.875 79.7039 660.731L79.5239 659.939ZM85.5416 658.235C85.5536 658.127 85.5777 657.959 85.5777 657.743C85.5777 656.674 85.0736 655.006 83.1772 655.006C81.4849 655.006 80.4527 656.386 80.4527 658.139C80.4527 659.891 81.5209 661.067 83.3092 661.067C84.2334 661.067 84.8695 660.875 85.2416 660.707L85.0616 659.951C84.6655 660.119 84.2094 660.251 83.4532 660.251C82.397 660.251 81.4849 659.663 81.4609 658.235H85.5416ZM81.4729 657.479C81.5569 656.746 82.025 655.762 83.0932 655.762C84.2814 655.762 84.5695 656.806 84.5575 657.479H81.4729ZM93.6419 658.403L94.506 660.947H95.6222L92.8617 652.858H91.6015L88.853 660.947H89.9332L90.7733 658.403H93.6419ZM90.9894 657.587L91.7815 655.246C91.9375 654.754 92.0696 654.262 92.1896 653.782H92.2136C92.3336 654.25 92.4536 654.73 92.6337 655.258L93.4258 657.587H90.9894ZM97.6071 660.947L97.6551 659.987H97.6911C98.1232 660.755 98.7953 661.079 99.6355 661.079C100.932 661.079 102.24 660.047 102.24 657.971C102.252 656.206 101.232 655.006 99.7915 655.006C98.8554 655.006 98.1832 655.426 97.8112 656.074H97.7872V652.426H96.743V659.447C96.743 659.963 96.7189 660.551 96.6949 660.947H97.6071ZM97.7872 657.575C97.7872 657.407 97.8232 657.262 97.8472 657.142C98.0632 656.338 98.7353 655.846 99.4555 655.846C100.584 655.846 101.184 656.842 101.184 658.007C101.184 659.339 100.524 660.239 99.4195 660.239C98.6513 660.239 98.0392 659.735 97.8352 659.003C97.8112 658.883 97.7872 658.751 97.7872 658.619V657.575ZM106.037 655.006C104.428 655.006 103.156 656.146 103.156 658.091C103.156 659.927 104.368 661.079 105.941 661.079C107.345 661.079 108.833 660.143 108.833 657.995C108.833 656.218 107.705 655.006 106.037 655.006ZM106.013 655.798C107.261 655.798 107.753 657.046 107.753 658.031C107.753 659.339 106.997 660.287 105.989 660.287C104.957 660.287 104.224 659.327 104.224 658.055C104.224 656.95 104.765 655.798 106.013 655.798ZM115.024 655.138H113.968V658.703C113.968 658.895 113.932 659.087 113.872 659.243C113.68 659.711 113.188 660.203 112.48 660.203C111.52 660.203 111.184 659.459 111.184 658.355V655.138H110.127V658.535C110.127 660.575 111.22 661.079 112.132 661.079C113.164 661.079 113.776 660.467 114.052 659.999H114.076L114.136 660.947H115.072C115.036 660.491 115.024 659.963 115.024 659.363V655.138ZM117.014 653.746V655.138H116.114V655.942H117.014V659.111C117.014 659.795 117.122 660.311 117.422 660.623C117.674 660.911 118.07 661.067 118.562 661.067C118.971 661.067 119.295 661.007 119.499 660.923L119.451 660.131C119.319 660.167 119.115 660.203 118.838 660.203C118.25 660.203 118.046 659.795 118.046 659.075V655.942H119.559V655.138H118.046V653.47L117.014 653.746ZM125.633 660.947V657.503L128.345 652.858H127.157L125.993 655.09C125.681 655.702 125.405 656.23 125.177 656.758H125.153C124.9 656.194 124.66 655.702 124.348 655.09L123.208 652.858H122.02L124.576 657.515V660.947H125.633ZM130.78 655.006C129.171 655.006 127.899 656.146 127.899 658.091C127.899 659.927 129.111 661.079 130.684 661.079C132.088 661.079 133.576 660.143 133.576 657.995C133.576 656.218 132.448 655.006 130.78 655.006ZM130.756 655.798C132.004 655.798 132.496 657.046 132.496 658.031C132.496 659.339 131.74 660.287 130.732 660.287C129.7 660.287 128.967 659.327 128.967 658.055C128.967 656.95 129.507 655.798 130.756 655.798ZM139.767 655.138H138.711V658.703C138.711 658.895 138.675 659.087 138.615 659.243C138.423 659.711 137.931 660.203 137.223 660.203C136.263 660.203 135.927 659.459 135.927 658.355V655.138H134.87V658.535C134.87 660.575 135.963 661.079 136.875 661.079C137.907 661.079 138.519 660.467 138.795 659.999H138.819L138.879 660.947H139.815C139.779 660.491 139.767 659.963 139.767 659.363V655.138ZM141.517 660.947H142.561V657.851C142.561 657.671 142.585 657.503 142.609 657.359C142.753 656.566 143.281 656.002 144.026 656.002C144.17 656.002 144.278 656.014 144.386 656.038V655.042C144.29 655.018 144.206 655.006 144.086 655.006C143.377 655.006 142.741 655.498 142.477 656.278H142.429L142.393 655.138H141.469C141.505 655.678 141.517 656.266 141.517 656.95V660.947ZM147.615 660.551C148.047 660.839 148.899 661.067 149.679 661.067C151.588 661.067 152.512 659.987 152.512 658.739C152.512 657.551 151.816 656.89 150.447 656.362C149.331 655.93 148.839 655.558 148.839 654.802C148.839 654.25 149.259 653.59 150.363 653.59C151.096 653.59 151.636 653.83 151.9 653.974L152.188 653.122C151.828 652.918 151.228 652.726 150.399 652.726C148.827 652.726 147.783 653.662 147.783 654.922C147.783 656.062 148.599 656.746 149.919 657.214C151.012 657.635 151.444 658.067 151.444 658.823C151.444 659.639 150.82 660.203 149.751 660.203C149.031 660.203 148.347 659.963 147.879 659.675L147.615 660.551ZM154.111 653.746V655.138H153.211V655.942H154.111V659.111C154.111 659.795 154.219 660.311 154.519 660.623C154.771 660.911 155.167 661.067 155.659 661.067C156.067 661.067 156.391 661.007 156.595 660.923L156.547 660.131C156.415 660.167 156.211 660.203 155.935 660.203C155.347 660.203 155.143 659.795 155.143 659.075V655.942H156.655V655.138H155.143V653.47L154.111 653.746ZM160.235 655.006C158.626 655.006 157.354 656.146 157.354 658.091C157.354 659.927 158.566 661.079 160.138 661.079C161.543 661.079 163.031 660.143 163.031 657.995C163.031 656.218 161.903 655.006 160.235 655.006ZM160.211 655.798C161.459 655.798 161.951 657.046 161.951 658.031C161.951 659.339 161.195 660.287 160.186 660.287C159.154 660.287 158.422 659.327 158.422 658.055C158.422 656.95 158.962 655.798 160.211 655.798ZM164.361 660.947H165.405V657.851C165.405 657.671 165.429 657.503 165.453 657.359C165.597 656.566 166.126 656.002 166.87 656.002C167.014 656.002 167.122 656.014 167.23 656.038V655.042C167.134 655.018 167.05 655.006 166.93 655.006C166.222 655.006 165.585 655.498 165.321 656.278H165.273L165.237 655.138H164.313C164.349 655.678 164.361 656.266 164.361 656.95V660.947ZM172.839 658.235C172.851 658.127 172.875 657.959 172.875 657.743C172.875 656.674 172.371 655.006 170.475 655.006C168.783 655.006 167.75 656.386 167.75 658.139C167.75 659.891 168.819 661.067 170.607 661.067C171.531 661.067 172.167 660.875 172.539 660.707L172.359 659.951C171.963 660.119 171.507 660.251 170.751 660.251C169.695 660.251 168.783 659.663 168.759 658.235H172.839ZM168.771 657.479C168.855 656.746 169.323 655.762 170.391 655.762C171.579 655.762 171.867 656.806 171.855 657.479H168.771ZM176.763 660.923C177.291 660.983 177.915 661.019 178.659 661.019C180.232 661.019 181.48 660.611 182.236 659.855C182.992 659.111 183.4 658.031 183.4 656.71C183.4 655.402 182.98 654.466 182.26 653.806C181.552 653.146 180.484 652.798 178.983 652.798C178.155 652.798 177.399 652.87 176.763 652.966V660.923ZM177.807 653.734C178.083 653.674 178.491 653.626 179.031 653.626C181.24 653.626 182.32 654.838 182.308 656.746C182.308 658.931 181.096 660.179 178.863 660.179C178.455 660.179 178.071 660.167 177.807 660.119V653.734ZM189.436 658.235C189.448 658.127 189.472 657.959 189.472 657.743C189.472 656.674 188.968 655.006 187.072 655.006C185.38 655.006 184.347 656.386 184.347 658.139C184.347 659.891 185.416 661.067 187.204 661.067C188.128 661.067 188.764 660.875 189.136 660.707L188.956 659.951C188.56 660.119 188.104 660.251 187.348 660.251C186.292 660.251 185.38 659.663 185.356 658.235H189.436ZM185.368 657.479C185.452 656.746 185.92 655.762 186.988 655.762C188.176 655.762 188.464 656.806 188.452 657.479H185.368ZM190.372 660.671C190.78 660.911 191.368 661.067 192.005 661.067C193.385 661.067 194.177 660.347 194.177 659.327C194.177 658.463 193.661 657.959 192.653 657.575C191.897 657.286 191.548 657.07 191.548 656.59C191.548 656.158 191.897 655.798 192.521 655.798C193.061 655.798 193.481 655.99 193.709 656.134L193.973 655.366C193.649 655.174 193.133 655.006 192.545 655.006C191.296 655.006 190.54 655.774 190.54 656.71C190.54 657.407 191.032 657.983 192.077 658.355C192.857 658.643 193.157 658.919 193.157 659.423C193.157 659.903 192.797 660.287 192.029 660.287C191.5 660.287 190.948 660.071 190.636 659.867L190.372 660.671ZM199.5 659.939C199.2 660.071 198.804 660.227 198.204 660.227C197.051 660.227 196.187 659.399 196.187 658.055C196.187 656.842 196.907 655.858 198.24 655.858C198.816 655.858 199.212 655.99 199.464 656.134L199.704 655.318C199.416 655.174 198.864 655.018 198.24 655.018C196.343 655.018 195.119 656.314 195.119 658.103C195.119 659.879 196.259 661.067 198.011 661.067C198.792 661.067 199.404 660.875 199.68 660.731L199.5 659.939ZM200.919 660.947H201.963V657.851C201.963 657.671 201.987 657.503 202.011 657.359C202.155 656.566 202.683 656.002 203.427 656.002C203.571 656.002 203.679 656.014 203.787 656.038V655.042C203.691 655.018 203.607 655.006 203.487 655.006C202.779 655.006 202.143 655.498 201.879 656.278H201.831L201.795 655.138H200.871C200.907 655.678 200.919 656.266 200.919 656.95V660.947ZM205.949 660.947V655.138H204.892V660.947H205.949ZM205.42 652.846C205.036 652.846 204.76 653.134 204.76 653.506C204.76 653.866 205.024 654.154 205.396 654.154C205.817 654.154 206.081 653.866 206.069 653.506C206.069 653.134 205.817 652.846 205.42 652.846ZM207.705 663.324H208.75V660.167H208.774C209.122 660.743 209.794 661.079 210.562 661.079C211.93 661.079 213.202 660.047 213.202 657.959C213.202 656.194 212.146 655.006 210.742 655.006C209.794 655.006 209.11 655.426 208.678 656.134H208.654L208.606 655.138H207.657C207.681 655.69 207.705 656.29 207.705 657.034V663.324ZM208.75 657.587C208.75 657.443 208.786 657.286 208.822 657.154C209.026 656.362 209.698 655.846 210.418 655.846C211.534 655.846 212.146 656.842 212.146 658.007C212.146 659.339 211.498 660.251 210.382 660.251C209.626 660.251 208.99 659.747 208.798 659.015C208.774 658.883 208.75 658.739 208.75 658.583V657.587ZM214.779 653.746V655.138H213.879V655.942H214.779V659.111C214.779 659.795 214.887 660.311 215.187 660.623C215.439 660.911 215.835 661.067 216.327 661.067C216.735 661.067 217.059 661.007 217.263 660.923L217.215 660.131C217.083 660.167 216.879 660.203 216.603 660.203C216.015 660.203 215.811 659.795 215.811 659.075V655.942H217.323V655.138H215.811V653.47L214.779 653.746ZM219.568 660.947V655.138H218.512V660.947H219.568ZM219.04 652.846C218.656 652.846 218.38 653.134 218.38 653.506C218.38 653.866 218.644 654.154 219.016 654.154C219.436 654.154 219.7 653.866 219.688 653.506C219.688 653.134 219.436 652.846 219.04 652.846ZM223.786 655.006C222.177 655.006 220.905 656.146 220.905 658.091C220.905 659.927 222.117 661.079 223.69 661.079C225.094 661.079 226.582 660.143 226.582 657.995C226.582 656.218 225.454 655.006 223.786 655.006ZM223.762 655.798C225.01 655.798 225.502 657.046 225.502 658.031C225.502 659.339 224.746 660.287 223.738 660.287C222.705 660.287 221.973 659.327 221.973 658.055C221.973 656.95 222.513 655.798 223.762 655.798ZM227.912 660.947H228.969V657.455C228.969 657.274 228.993 657.094 229.041 656.962C229.221 656.374 229.761 655.882 230.457 655.882C231.453 655.882 231.801 656.662 231.801 657.599V660.947H232.857V657.479C232.857 655.486 231.609 655.006 230.805 655.006C229.845 655.006 229.173 655.546 228.885 656.098H228.861L228.8 655.138H227.864C227.9 655.618 227.912 656.11 227.912 656.71V660.947Z" fill="#A3A3A3"/>
</g>
</svg>
