<svg width="375" height="812" viewBox="0 0 375 812" fill="none" xmlns="http://www.w3.org/2000/svg">
<mask id="mask0_2_36" style="mask-type:luminance" maskUnits="userSpaceOnUse" x="0" y="0" width="375" height="812">
<path d="M375 0H0V812H375V0Z" fill="white"/>
</mask>
<g mask="url(#mask0_2_36)">
<path d="M375 0H-1.52588e-05V812H375V0Z" fill="white"/>
<path d="M381.984 -12.295H-13.416V821.93H381.984V-12.295Z" fill="white"/>
<path d="M358.826 418.712C358.826 647.024 173.743 832.106 -54.5678 832.106V-14.152C173.743 -14.152 358.826 170.931 358.826 399.242V418.712Z" fill="#EFF3F8"/>
<path opacity="0.28" d="M163.02 663.183C132.361 632.528 95.3021 617.2 51.8448 617.2C8.56679 617.2 -28.4019 632.529 -59.062 663.186C-89.722 693.843 -105.05 730.902 -105.045 774.361C-105.045 817.64 -89.7173 854.607 -59.062 885.261C-28.4066 915.915 8.56212 931.244 51.8448 931.247C95.3035 931.247 132.362 915.918 163.02 885.261C193.678 854.604 209.008 817.637 209.009 774.361C209.009 730.9 193.679 693.84 163.02 663.183Z" fill="#1D9AAC"/>
<path opacity="0.52" d="M103.499 -62.522C75.0144 -91.004 40.5841 -105.246 0.208069 -105.247C-40.0019 -105.247 -74.3493 -91.0053 -102.834 -62.522C-131.319 -34.0387 -145.558 0.391663 -145.553 40.769C-145.553 80.979 -131.312 115.325 -102.831 143.808C-74.3497 172.291 -40.0023 186.532 0.210999 186.533C40.5877 186.533 75.018 172.291 103.502 143.808C131.986 115.325 146.229 80.9783 146.23 40.769C146.23 0.389664 131.986 -34.0407 103.499 -62.522Z" fill="#D5539E"/>
<path opacity="0.49" d="M461.694 30.414C442.09 10.814 418.394 1.01398 390.607 1.01398C362.934 1.01398 339.296 10.814 319.691 30.414C300.086 50.014 290.286 73.7096 290.291 101.501C290.291 129.175 300.091 152.813 319.691 172.415C339.291 192.017 362.93 201.819 390.607 201.82C418.395 201.82 442.091 192.018 461.694 172.415C481.297 152.812 491.099 129.173 491.099 101.5C491.099 73.7126 481.297 50.0173 461.694 30.414ZM426.412 137.3C421.751 142.048 416.174 145.8 410.019 148.327C403.864 150.854 397.26 152.104 390.607 152C383.979 152.114 377.398 150.869 371.27 148.34C365.141 145.812 359.597 142.055 354.977 137.3C350.184 132.665 346.39 127.098 343.832 120.94C341.274 114.783 340.004 108.167 340.102 101.5C340.005 94.8331 341.274 88.217 343.833 82.0598C346.391 75.9025 350.184 70.3348 354.977 65.7C359.571 60.9003 365.108 57.1016 371.239 54.5419C377.37 51.9822 383.964 50.7168 390.607 50.825C397.275 50.7275 403.891 51.997 410.049 54.5554C416.207 57.1137 421.776 60.9066 426.412 65.7C431.205 70.3354 434.996 75.9033 437.555 82.0604C440.113 88.2174 441.384 94.8333 441.287 101.5C441.384 108.167 440.114 114.783 437.555 120.94C434.997 127.097 431.205 132.665 426.412 137.3Z" fill="#1E619B"/>
<path d="M187.568 375.123C186.668 376.173 181.674 382.695 187.109 392.453C189.865 396.618 193.569 399.305 197.591 399.622H155.155C152.523 399.07 150.087 397.823 148.1 396.01L146.719 394.756C145.247 393.418 144.053 391.802 143.206 390.003C142.358 388.203 141.873 386.254 141.778 384.267C141.684 382.279 141.982 380.293 142.655 378.421C143.328 376.549 144.364 374.828 145.702 373.356L150.731 367.826L180.267 335.342C182.473 335.313 184.667 335.242 186.812 335.188C189.247 335.112 191.668 335.57 193.908 336.528C196.147 337.486 198.15 338.922 199.777 340.735C204.813 346.497 205.271 355.653 200.045 361.399L194.204 367.826L187.704 374.976L187.668 375.012C187.643 375.037 187.61 375.073 187.568 375.123Z" fill="#1D9AAC"/>
<path d="M233.239 399.622H197.59C193.568 399.305 189.864 396.622 187.109 392.453C181.674 382.695 186.67 376.173 187.567 375.122C187.609 375.073 187.642 375.037 187.667 375.011L187.703 374.975L194.203 367.825H201.445C209.877 367.827 217.963 371.177 223.926 377.14C229.888 383.103 233.238 391.19 233.239 399.622Z" fill="#D5539E"/>
<path d="M233.239 319.065V319.143C233.242 322.673 232.073 326.105 229.915 328.898L229.887 328.924C229.336 329.638 228.726 330.304 228.062 330.914L200.182 361.248L200.045 361.398C205.271 355.652 204.813 346.498 199.777 340.734C198.15 338.921 196.147 337.485 193.907 336.527C191.668 335.569 189.246 335.111 186.812 335.187C184.668 335.24 182.473 335.312 180.267 335.341C176.512 335.447 172.754 335.265 169.027 334.798C164.837 334.203 160.814 332.755 157.207 330.544C150.056 326.091 144.957 318.991 143.022 310.792C142.871 310.157 141.788 303.092 142.128 303.092H217.267C219.364 303.092 221.441 303.505 223.379 304.308C225.317 305.111 227.078 306.287 228.561 307.77C230.044 309.254 231.221 311.015 232.023 312.952C232.826 314.89 233.239 316.967 233.239 319.065Z" fill="#1E619B"/>
<path d="M86.021 458.739H64.9068L86.9288 441.869C88.4246 440.728 89.4457 439.074 89.795 437.226C90.1129 435.582 89.9422 433.882 89.3038 432.334C88.6653 430.787 87.5874 429.46 86.2032 428.519C84.8282 427.568 83.1946 427.062 81.523 427.068H54.3501C52.968 427.079 51.6454 427.633 50.668 428.61C49.6906 429.587 49.1367 430.91 49.126 432.292C49.1228 432.979 49.2557 433.66 49.5171 434.295C49.7785 434.93 50.1632 435.507 50.649 435.993C51.1347 436.479 51.712 436.863 52.3472 437.125C52.9824 437.386 53.6632 437.519 54.3501 437.516H75.4278L53.4429 454.422C51.9216 455.54 50.8942 457.205 50.5772 459.066C50.2644 460.725 50.4407 462.439 51.085 463.999C51.7147 465.532 52.7854 466.843 54.1612 467.767C55.537 468.69 57.156 469.185 58.813 469.187H86.021C87.4065 469.187 88.7352 468.637 89.7149 467.657C90.6946 466.677 91.2452 465.348 91.2452 463.963C91.2452 462.578 90.6946 461.249 89.7149 460.269C88.7352 459.289 87.4065 458.739 86.021 458.739Z" fill="#1E619B"/>
<path d="M116.658 427.068C111.098 427.106 105.779 429.342 101.86 433.287C97.9422 437.233 95.7431 442.567 95.7431 448.128C95.7431 453.688 97.9422 459.023 101.86 462.968C105.779 466.913 111.098 469.149 116.658 469.187C119.081 469.186 121.486 468.769 123.768 467.954C126.066 467.134 128.202 465.919 130.081 464.362C131.145 463.542 131.857 462.349 132.076 461.024C132.188 460.373 132.152 459.706 131.97 459.071C131.788 458.437 131.465 457.852 131.024 457.36C130.576 456.819 130.017 456.381 129.385 456.074C128.753 455.768 128.062 455.6 127.36 455.583C125.931 455.464 124.512 455.906 123.405 456.816C121.501 458.346 119.143 459.2 116.701 459.246C114.259 459.292 111.871 458.527 109.91 457.07C108.413 455.803 107.369 454.083 106.935 452.17H132.511C135.994 452.17 137.736 450.828 137.736 448.143C137.739 445.374 137.195 442.632 136.137 440.074C135.079 437.515 133.526 435.19 131.568 433.232C129.611 431.275 127.286 429.722 124.728 428.664C122.169 427.606 119.426 427.062 116.658 427.065V427.068ZM106.758 444.082C108.572 439.342 111.872 436.972 116.658 436.972C120.986 436.972 124.081 439.342 125.945 444.082H106.758Z" fill="#1E619B"/>
<path d="M163.148 427.068C157.588 427.106 152.268 429.342 148.35 433.287C144.432 437.233 142.233 442.567 142.233 448.128C142.233 453.688 144.432 459.023 148.35 462.968C152.268 466.913 157.588 469.149 163.148 469.187C165.571 469.186 167.977 468.769 170.259 467.954C172.557 467.135 174.693 465.919 176.572 464.362C177.638 463.543 178.352 462.35 178.572 461.024C178.684 460.373 178.647 459.706 178.465 459.072C178.283 458.437 177.96 457.852 177.52 457.36C177.072 456.819 176.512 456.381 175.88 456.075C175.248 455.768 174.558 455.6 173.856 455.583C172.427 455.464 171.009 455.906 169.901 456.816C167.996 458.347 165.637 459.202 163.194 459.248C160.751 459.294 158.362 458.528 156.401 457.07C154.904 455.802 153.86 454.083 153.426 452.17H178.999C182.482 452.17 184.223 450.828 184.224 448.143C184.227 445.374 183.683 442.632 182.625 440.073C181.567 437.515 180.014 435.19 178.056 433.232C176.098 431.274 173.773 429.722 171.215 428.664C168.656 427.605 165.914 427.062 163.145 427.065L163.148 427.068ZM153.248 444.082C155.061 439.342 158.361 436.972 163.148 436.972C167.477 436.972 170.573 439.342 172.435 444.082H153.248Z" fill="#1E619B"/>
<path d="M229.157 419.123C228.427 418.393 227.498 417.896 226.486 417.696C225.474 417.495 224.425 417.6 223.473 417.996C222.521 418.393 221.708 419.063 221.137 419.922C220.566 420.782 220.264 421.791 220.268 422.823V429.934C217.049 428.035 213.375 427.045 209.638 427.068C205.474 427.072 201.405 428.31 197.945 430.625C194.484 432.941 191.788 436.23 190.196 440.078C188.605 443.925 188.189 448.158 189.002 452.242C189.816 456.325 191.821 460.076 194.765 463.02C197.71 465.964 201.461 467.969 205.544 468.783C209.628 469.596 213.86 469.18 217.708 467.588C221.555 465.996 224.845 463.3 227.16 459.839C229.475 456.379 230.713 452.31 230.717 448.146V422.823C230.728 422.132 230.595 421.446 230.326 420.809C230.057 420.172 229.659 419.598 229.157 419.123ZM217.148 455.655C216.17 456.651 215 457.438 213.709 457.968C212.418 458.498 211.033 458.761 209.638 458.739C207.188 458.73 204.817 457.872 202.929 456.311C201.041 454.751 199.752 452.584 199.283 450.179C198.813 447.775 199.191 445.282 200.352 443.126C201.514 440.969 203.388 439.282 205.654 438.351C207.92 437.42 210.438 437.304 212.781 438.022C215.123 438.74 217.143 440.247 218.499 442.288C219.854 444.329 220.461 446.776 220.214 449.213C219.968 451.65 218.884 453.927 217.148 455.655Z" fill="#1E619B"/>
<path d="M273.071 417.6C272.384 417.597 271.703 417.73 271.068 417.991C270.433 418.253 269.856 418.638 269.37 419.123C268.885 419.609 268.5 420.186 268.239 420.821C267.977 421.457 267.845 422.137 267.848 422.824V429.935C264.629 428.037 260.955 427.046 257.218 427.069C253.054 427.073 248.985 428.31 245.524 430.626C242.064 432.941 239.367 436.231 237.775 440.078C236.183 443.925 235.768 448.158 236.581 452.242C237.395 456.326 239.4 460.076 242.344 463.021C245.288 465.965 249.039 467.97 253.123 468.783C257.206 469.597 261.439 469.181 265.287 467.589C269.134 465.998 272.424 463.301 274.739 459.841C277.055 456.38 278.292 452.311 278.296 448.147V422.823C278.285 421.441 277.731 420.118 276.753 419.141C275.776 418.163 274.453 417.609 273.071 417.599V417.6ZM264.728 455.656C263.75 456.652 262.58 457.439 261.289 457.969C259.998 458.499 258.613 458.762 257.218 458.74C254.768 458.731 252.397 457.873 250.509 456.312C248.621 454.752 247.332 452.585 246.863 450.18C246.393 447.776 246.771 445.283 247.932 443.127C249.094 440.97 250.968 439.283 253.234 438.352C255.5 437.421 258.018 437.305 260.36 438.023C262.702 438.741 264.724 440.248 266.079 442.289C267.434 444.33 268.041 446.777 267.794 449.214C267.548 451.651 266.464 453.928 264.728 455.656Z" fill="#D5539E"/>
<path d="M319.706 433.235C316.261 429.789 311.728 427.645 306.879 427.166C302.031 426.688 297.166 427.905 293.114 430.611C289.062 433.317 286.073 437.344 284.657 442.006C283.241 446.668 283.485 451.676 285.348 456.179C287.21 460.681 290.575 464.398 294.871 466.698C299.167 468.997 304.127 469.736 308.906 468.789C313.686 467.841 317.989 465.266 321.083 461.502C324.176 457.738 325.87 453.018 325.874 448.146C325.919 445.371 325.395 442.616 324.334 440.052C323.273 437.487 321.698 435.167 319.706 433.235ZM312.306 455.655C311.329 456.651 310.159 457.438 308.868 457.968C307.577 458.498 306.191 458.761 304.796 458.739C302.346 458.73 299.976 457.872 298.088 456.311C296.2 454.751 294.912 452.584 294.442 450.18C293.972 447.776 294.35 445.283 295.512 443.127C296.673 440.97 298.547 439.283 300.812 438.353C303.078 437.422 305.597 437.306 307.938 438.024C310.28 438.742 312.301 440.249 313.657 442.289C315.012 444.33 315.618 446.777 315.372 449.214C315.125 451.651 314.042 453.927 312.306 455.655Z" fill="#D5539E"/>
<path d="M153.835 790.201H150.623V790.775H153.05L150.594 794.743V795.266H153.85V794.692H151.379L153.835 790.724V790.201ZM156.444 791.778C157.127 791.778 157.709 792.207 157.701 792.984H155.187C155.26 792.207 155.797 791.778 156.444 791.778ZM158.304 794.038H157.592C157.447 794.467 157.069 794.772 156.473 794.772C155.797 794.772 155.231 794.329 155.18 793.522H158.363C158.377 793.384 158.384 793.268 158.384 793.122C158.384 792.032 157.629 791.218 156.473 791.218C155.31 791.218 154.504 792.01 154.504 793.268C154.504 794.532 155.34 795.331 156.473 795.331C157.461 795.331 158.101 794.765 158.304 794.038ZM160.95 791.778C161.634 791.778 162.215 792.207 162.208 792.984H159.693C159.766 792.207 160.304 791.778 160.95 791.778ZM162.811 794.038H162.099C161.953 794.467 161.575 794.772 160.98 794.772C160.304 794.772 159.737 794.329 159.686 793.522H162.869C162.884 793.384 162.891 793.268 162.891 793.122C162.891 792.032 162.135 791.218 160.98 791.218C159.817 791.218 159.01 792.01 159.01 793.268C159.01 794.532 159.846 795.331 160.98 795.331C161.968 795.331 162.607 794.765 162.811 794.038ZM163.517 793.26C163.517 794.496 164.338 795.331 165.406 795.331C166.133 795.331 166.649 794.961 166.888 794.517V795.266H167.557V789.888H166.888V791.996C166.612 791.538 166.038 791.218 165.413 791.218C164.338 791.218 163.517 792.018 163.517 793.26ZM166.888 793.268C166.888 794.205 166.264 794.75 165.537 794.75C164.81 794.75 164.192 794.198 164.192 793.26C164.192 792.323 164.81 791.792 165.537 791.792C166.264 791.792 166.888 792.345 166.888 793.268ZM168.427 793.26C168.427 794.496 169.249 795.331 170.317 795.331C171.044 795.331 171.56 794.961 171.799 794.517V795.266H172.468V789.888H171.799V791.996C171.523 791.538 170.949 791.218 170.324 791.218C169.249 791.218 168.427 792.018 168.427 793.26ZM171.799 793.268C171.799 794.205 171.174 794.75 170.448 794.75C169.721 794.75 169.103 794.198 169.103 793.26C169.103 792.323 169.721 791.792 170.448 791.792C171.174 791.792 171.799 792.345 171.799 793.268ZM177.364 793.268C177.364 792.01 176.485 791.218 175.351 791.218C174.225 791.218 173.338 792.01 173.338 793.268C173.338 794.532 174.196 795.331 175.322 795.331C176.456 795.331 177.364 794.532 177.364 793.268ZM174.014 793.268C174.014 792.265 174.646 791.792 175.344 791.792C176.027 791.792 176.688 792.265 176.688 793.268C176.688 794.278 176.013 794.75 175.322 794.75C174.632 794.75 174.014 794.278 174.014 793.268ZM182.013 793.268C182.013 792.01 181.133 791.218 180 791.218C178.873 791.218 177.987 792.01 177.987 793.268C177.987 794.532 178.844 795.331 179.971 795.331C181.104 795.331 182.013 794.532 182.013 793.268ZM178.663 793.268C178.663 792.265 179.295 791.792 179.992 791.792C180.676 791.792 181.337 792.265 181.337 793.268C181.337 794.278 180.661 794.75 179.971 794.75C179.28 794.75 178.663 794.278 178.663 793.268ZM187.697 793.842C187.697 794.394 187.305 794.721 186.651 794.721H185.481V792.933H186.629C187.276 792.933 187.697 793.282 187.697 793.842ZM187.566 791.567C187.566 792.083 187.21 792.388 186.593 792.388H185.481V790.746H186.578C187.225 790.746 187.566 791.066 187.566 791.567ZM188.359 793.907C188.359 793.282 187.908 792.752 187.356 792.657C187.843 792.497 188.242 792.127 188.242 791.487C188.242 790.782 187.705 790.201 186.636 790.201H184.82V795.266H186.709C187.755 795.266 188.359 794.67 188.359 793.907ZM192.808 791.284H192.147V793.471C192.147 794.329 191.689 794.75 191.006 794.75C190.337 794.75 189.894 794.336 189.894 793.529V791.284H189.24V793.616C189.24 794.757 189.959 795.324 190.875 795.324C191.405 795.324 191.892 795.092 192.147 794.677V795.266H192.808V791.284ZM196.788 794.183C196.759 792.759 194.448 793.275 194.448 792.33C194.448 792.01 194.738 791.778 195.225 791.778C195.756 791.778 196.061 792.069 196.09 792.468H196.751C196.708 791.691 196.126 791.218 195.247 791.218C194.361 791.218 193.786 791.72 193.786 792.33C193.786 793.813 196.141 793.297 196.141 794.183C196.141 794.51 195.85 794.772 195.327 794.772C194.768 794.772 194.426 794.481 194.39 794.096H193.707C193.75 794.823 194.404 795.331 195.334 795.331C196.214 795.331 196.788 794.837 196.788 794.183ZM197.721 795.266H198.383V791.284H197.721V795.266ZM198.063 790.637C198.303 790.637 198.499 790.441 198.499 790.186C198.499 789.932 198.303 789.736 198.063 789.736C197.808 789.736 197.612 789.932 197.612 790.186C197.612 790.441 197.808 790.637 198.063 790.637ZM202.424 795.266H203.078V792.919C203.078 791.778 202.373 791.211 201.45 791.211C200.912 791.211 200.433 791.436 200.171 791.851V791.284H199.51V795.266H200.171V793.064C200.171 792.207 200.636 791.785 201.312 791.785C201.98 791.785 202.424 792.199 202.424 793.013V795.266ZM205.851 791.778C206.534 791.778 207.116 792.207 207.108 792.984H204.594C204.667 792.207 205.204 791.778 205.851 791.778ZM207.712 794.038H206.999C206.854 794.467 206.476 794.772 205.88 794.772C205.204 794.772 204.638 794.329 204.587 793.522H207.77C207.784 793.384 207.791 793.268 207.791 793.122C207.791 792.032 207.036 791.218 205.88 791.218C204.718 791.218 203.911 792.01 203.911 793.268C203.911 794.532 204.747 795.331 205.88 795.331C206.869 795.331 207.508 794.765 207.712 794.038ZM211.528 794.183C211.498 792.759 209.188 793.275 209.188 792.33C209.188 792.01 209.478 791.778 209.965 791.778C210.496 791.778 210.801 792.069 210.83 792.468H211.491C211.448 791.691 210.866 791.218 209.987 791.218C209.1 791.218 208.526 791.72 208.526 792.33C208.526 793.813 210.881 793.297 210.881 794.183C210.881 794.51 210.59 794.772 210.067 794.772C209.507 794.772 209.166 794.481 209.129 794.096H208.446C208.49 794.823 209.144 795.331 210.074 795.331C210.953 795.331 211.528 794.837 211.528 794.183ZM215.324 794.183C215.295 792.759 212.984 793.275 212.984 792.33C212.984 792.01 213.275 791.778 213.762 791.778C214.292 791.778 214.598 792.069 214.627 792.468H215.288C215.244 791.691 214.663 791.218 213.784 791.218C212.897 791.218 212.323 791.72 212.323 792.33C212.323 793.813 214.678 793.297 214.678 794.183C214.678 794.51 214.387 794.772 213.864 794.772C213.304 794.772 212.963 794.481 212.926 794.096H212.243C212.287 794.823 212.941 795.331 213.871 795.331C214.75 795.331 215.324 794.837 215.324 794.183ZM217.968 795.214H221.098V794.719H218.859C219.699 794.036 220.961 793.04 220.961 791.869C220.961 790.997 220.389 790.476 219.503 790.476C218.657 790.476 218.026 790.997 217.987 791.999H218.56C218.586 791.407 218.898 790.984 219.51 790.984C220.148 790.984 220.376 791.374 220.376 791.895C220.376 792.858 219.204 793.795 217.968 794.791V795.214ZM221.783 792.865C221.783 794.231 222.121 795.266 223.423 795.266C224.718 795.266 225.056 794.231 225.056 792.865C225.056 791.517 224.718 790.489 223.423 790.489C222.121 790.489 221.783 791.517 221.783 792.865ZM224.47 792.865C224.47 793.88 224.347 794.726 223.423 794.726C222.492 794.726 222.368 793.88 222.368 792.865C222.368 791.888 222.492 791.029 223.423 791.029C224.347 791.029 224.47 791.888 224.47 792.865ZM225.797 795.214H228.928V794.719H226.689C227.529 794.036 228.791 793.04 228.791 791.869C228.791 790.997 228.218 790.476 227.333 790.476C226.487 790.476 225.856 790.997 225.817 791.999H226.39C226.416 791.407 226.728 790.984 227.34 790.984C227.978 790.984 228.205 791.374 228.205 791.895C228.205 792.858 227.034 793.795 225.797 794.791V795.214ZM229.541 795.214H232.671V794.719H230.432C231.272 794.036 232.535 793.04 232.535 791.869C232.535 790.997 231.962 790.476 231.077 790.476C230.231 790.476 229.599 790.997 229.56 791.999H230.133C230.159 791.407 230.472 790.984 231.083 790.984C231.721 790.984 231.949 791.374 231.949 791.895C231.949 792.858 230.777 793.795 229.541 794.791V795.214Z" fill="#666666"/>
<path d="M144.696 794.491C146.158 794.491 147.343 793.306 147.343 791.844C147.343 790.382 146.158 789.197 144.696 789.197C143.234 789.197 142.049 790.382 142.049 791.844C142.049 793.306 143.234 794.491 144.696 794.491Z" stroke="#666666" stroke-width="0.376" stroke-miterlimit="10"/>
<path d="M143.45 791C143.574 790.777 143.756 790.592 143.977 790.465C144.202 790.335 144.458 790.269 144.718 790.272C145.013 790.265 145.303 790.345 145.553 790.502C145.793 790.659 145.976 790.889 146.074 791.158H145.616C145.542 790.99 145.42 790.848 145.265 790.75C145.1 790.652 144.91 790.603 144.718 790.608C144.525 790.605 144.335 790.654 144.168 790.75C144.005 790.846 143.873 790.987 143.786 791.155C143.695 791.347 143.647 791.556 143.647 791.769C143.647 791.981 143.695 792.19 143.786 792.382C143.873 792.549 144.005 792.687 144.168 792.782C144.335 792.878 144.525 792.927 144.718 792.924C144.91 792.93 145.1 792.881 145.265 792.783C145.421 792.687 145.543 792.546 145.616 792.378H146.074C145.976 792.646 145.793 792.874 145.553 793.027C145.303 793.183 145.013 793.263 144.718 793.256C144.458 793.259 144.203 793.193 143.977 793.065C143.756 792.94 143.574 792.756 143.45 792.534C143.323 792.297 143.257 792.033 143.257 791.765C143.257 791.496 143.323 791.232 143.45 790.995V791Z" fill="#666666"/>
</g>
</svg>
