<svg width="403" height="929" viewBox="0 0 403 929" fill="none" xmlns="http://www.w3.org/2000/svg">
<mask id="mask0_2_19011" style="mask-type:luminance" maskUnits="userSpaceOnUse" x="0" y="0" width="403" height="929">
<path d="M402.894 0H0V929H402.894V0Z" fill="white"/>
</mask>
<g mask="url(#mask0_2_19011)">
<path d="M402.894 0H0V929H402.894V0Z" fill="white"/>
<path d="M402.248 -0.301043H0.645123V925.65H402.248V-0.301043Z" fill="white"/>
<mask id="mask1_2_19011" style="mask-type:luminance" maskUnits="userSpaceOnUse" x="0" y="0" width="403" height="930">
<path d="M402.797 0.372985H0.0981603V929.823H402.797V0.372985Z" fill="white"/>
</mask>
<g mask="url(#mask1_2_19011)">
<path d="M404.527 102.887C438.137 102.887 465.384 75.6409 465.384 42.0306C465.384 8.42036 438.137 -18.8261 404.527 -18.8261C370.917 -18.8261 343.67 8.42036 343.67 42.0306C343.67 75.6409 370.917 102.887 404.527 102.887Z" stroke="#DAE5EF" stroke-width="40" stroke-miterlimit="10"/>
<path d="M6.40718 36.8799C31.9522 36.8799 52.6606 16.1715 52.6606 -9.37355C52.6606 -34.9186 31.9522 -55.627 6.40718 -55.627C-19.1379 -55.627 -39.8462 -34.9186 -39.8462 -9.37355C-39.8462 16.1715 -19.1379 36.8799 6.40718 36.8799Z" stroke="#F4DBEB" stroke-width="14" stroke-miterlimit="10"/>
</g>
<path d="M31.1521 75.4841H33.5525L28.5717 61.5619H25.9313L20.9505 75.4841H23.3308L24.331 72.6437H30.1519L31.1521 75.4841ZM29.5118 70.7834H24.9711L27.2515 64.3223L29.5118 70.7834ZM34.958 69.9232C34.958 73.3238 37.2584 75.6642 40.1588 75.6642C41.9591 75.6642 43.2793 74.824 43.9795 73.8239V75.4841H46.2798V60.6818H43.9795V66.0026C43.1393 64.9624 41.6191 64.2823 40.1788 64.2823C37.2584 64.2823 34.958 66.5227 34.958 69.9232ZM43.9795 69.9632C43.9795 72.3436 42.3592 73.6838 40.6389 73.6838C38.9386 73.6838 37.2984 72.3036 37.2984 69.9232C37.2984 67.5429 38.9386 66.2626 40.6389 66.2626C42.3592 66.2626 43.9795 67.6029 43.9795 69.9632ZM48.5149 69.9232C48.5149 73.3238 50.8152 75.6642 53.7157 75.6642C55.516 75.6642 56.8362 74.824 57.5363 73.8239V75.4841H59.8367V60.6818H57.5363V66.0026C56.6962 64.9624 55.1759 64.2823 53.7357 64.2823C50.8152 64.2823 48.5149 66.5227 48.5149 69.9232ZM57.5363 69.9632C57.5363 72.3436 55.9161 73.6838 54.1958 73.6838C52.4955 73.6838 50.8552 72.3036 50.8552 69.9232C50.8552 67.5429 52.4955 66.2626 54.1958 66.2626C55.9161 66.2626 57.5363 67.6029 57.5363 69.9632ZM70.3084 67.9829V63.4422H72.8288C74.6091 63.4422 75.4092 64.2823 75.4092 65.7226C75.4092 67.1228 74.6091 67.9829 72.8288 67.9829H70.3084ZM77.7496 65.7226C77.7496 63.4622 76.1293 61.5819 72.8288 61.5819H68.028V75.4841H70.3084V69.8432H72.8288C76.4494 69.8432 77.7496 67.7029 77.7496 65.7226ZM82.2048 69.6832C82.2048 67.3428 83.245 66.6427 84.9252 66.6427H85.5053V64.2823C83.9451 64.2823 82.8449 64.9624 82.2048 66.0626V64.4624H79.9244V75.4841H82.2048V69.6832ZM98.1031 69.9632C98.1031 66.5027 95.6227 64.2823 92.4822 64.2823C89.3417 64.2823 86.8613 66.5027 86.8613 69.9632C86.8613 73.4238 89.2417 75.6642 92.3822 75.6642C95.5427 75.6642 98.1031 73.4238 98.1031 69.9632ZM89.1817 69.9632C89.1817 67.4628 90.722 66.2626 92.4422 66.2626C94.1425 66.2626 95.7628 67.4628 95.7628 69.9632C95.7628 72.4636 94.0825 73.6838 92.3822 73.6838C90.6619 73.6838 89.1817 72.4636 89.1817 69.9632ZM99.5973 69.9232C99.5973 73.3238 101.898 75.6642 104.798 75.6642C106.598 75.6642 107.919 74.824 108.619 73.8239V75.4841H110.919V60.6818H108.619V66.0026C107.779 64.9624 106.258 64.2823 104.818 64.2823C101.898 64.2823 99.5973 66.5227 99.5973 69.9232ZM108.619 69.9632C108.619 72.3436 106.998 73.6838 105.278 73.6838C103.578 73.6838 101.938 72.3036 101.938 69.9232C101.938 67.5429 103.578 66.2626 105.278 66.2626C106.998 66.2626 108.619 67.6029 108.619 69.9632ZM123.896 64.4624H121.616V70.6033C121.616 72.6237 120.515 73.6638 118.835 73.6638C117.175 73.6638 116.075 72.6237 116.075 70.6033V64.4624H113.814V70.9434C113.814 74.0239 115.775 75.6442 118.355 75.6442C119.655 75.6442 120.895 75.1041 121.616 74.1639V75.4841H123.896V64.4624ZM126.145 69.9632C126.145 73.4238 128.385 75.6642 131.545 75.6642C134.246 75.6642 136.006 74.1639 136.626 72.0036H134.166C133.746 73.1438 132.906 73.7438 131.545 73.7438C129.705 73.7438 128.485 72.3836 128.485 69.9632C128.485 67.5629 129.705 66.2026 131.545 66.2026C132.906 66.2026 133.786 66.8827 134.166 67.9429H136.626C136.006 65.6225 134.246 64.2823 131.545 64.2823C128.385 64.2823 126.145 66.5227 126.145 69.9632ZM139.259 72.4236C139.259 74.664 140.479 75.4841 142.439 75.4841H144.24V73.5838H142.839C141.879 73.5838 141.559 73.2438 141.559 72.4236V66.3227H144.24V64.4624H141.559V61.7219H139.259V64.4624H137.959V66.3227H139.259V72.4236Z" fill="#1E619B"/>
<path d="M314.559 849.377H88.3353C77.2292 849.377 68.226 858.38 68.226 869.486C68.226 880.592 77.2292 889.595 88.3353 889.595H314.559C325.665 889.595 334.668 880.592 334.668 869.486C334.668 858.38 325.665 849.377 314.559 849.377Z" fill="#1D9AAC"/>
<path d="M175.683 872.045C175.683 874.604 177.476 875.818 179.586 875.818C181.682 875.818 183.532 874.604 183.532 872.045V865.671H181.884V872.074C181.884 873.635 181.002 874.372 179.6 874.372C178.213 874.372 177.331 873.635 177.331 872.074V865.671H175.683V872.045ZM187.325 868.923V867.753H185.677V879.503H187.325V874.56C187.845 875.182 188.784 875.847 190.1 875.847C192.195 875.847 193.843 874.156 193.843 871.698C193.843 869.241 192.195 867.623 190.1 867.623C188.799 867.623 187.83 868.259 187.325 868.923ZM192.166 871.698C192.166 873.418 190.981 874.416 189.738 874.416C188.51 874.416 187.325 873.447 187.325 871.727C187.325 870.022 188.51 869.054 189.738 869.054C190.981 869.054 192.166 869.979 192.166 871.698ZM194.923 871.698C194.923 874.156 196.585 875.847 198.681 875.847C199.982 875.847 200.936 875.24 201.442 874.517V875.717H203.104V865.021H201.442V868.866C200.835 868.114 199.736 867.623 198.696 867.623C196.585 867.623 194.923 869.241 194.923 871.698ZM201.442 871.727C201.442 873.447 200.271 874.416 199.028 874.416C197.799 874.416 196.614 873.418 196.614 871.698C196.614 869.979 197.799 869.054 199.028 869.054C200.271 869.054 201.442 870.022 201.442 871.727ZM204.719 871.698C204.719 874.156 206.381 875.847 208.448 875.847C209.777 875.847 210.731 875.211 211.237 874.531V875.717H212.899V867.753H211.237V868.909C210.746 868.259 209.821 867.623 208.477 867.623C206.381 867.623 204.719 869.241 204.719 871.698ZM211.237 871.727C211.237 873.447 210.066 874.416 208.823 874.416C207.595 874.416 206.41 873.418 206.41 871.698C206.41 869.979 207.595 869.054 208.823 869.054C210.066 869.054 211.237 870.022 211.237 871.727ZM215.324 873.505C215.324 875.124 216.205 875.717 217.622 875.717H218.923V874.343H217.911C217.217 874.343 216.986 874.098 216.986 873.505V869.097H218.923V867.753H216.986V865.773H215.324V867.753H214.384V869.097H215.324V873.505ZM223.794 869.01C225.023 869.01 225.991 869.791 226.02 871.019H221.612C221.785 869.762 222.681 869.01 223.794 869.01ZM227.523 873.346H225.746C225.442 873.968 224.878 874.459 223.867 874.459C222.652 874.459 221.713 873.664 221.597 872.349H227.682C227.726 872.074 227.74 871.814 227.74 871.54C227.74 869.198 226.136 867.623 223.867 867.623C221.511 867.623 219.892 869.227 219.892 871.727C219.892 874.228 221.583 875.847 223.867 875.847C225.818 875.847 227.075 874.734 227.523 873.346Z" fill="#EFF3F8"/>
<path d="M35.7106 143.253V140.693H37.0508C38.091 140.693 38.5311 141.173 38.5311 141.983C38.5311 142.763 38.091 143.253 37.0508 143.253H35.7106ZM39.4612 141.983C39.4612 140.843 38.6911 139.942 37.0508 139.942H34.8005V146.914H35.7106V144.003H37.0508C38.7811 144.003 39.4612 143.043 39.4612 141.983ZM41.5026 143.933C41.5026 142.663 42.1627 142.273 43.0328 142.273H43.2729V141.333C42.4027 141.333 41.8126 141.713 41.5026 142.323V141.433H40.5924V146.914H41.5026V143.933ZM49.5243 144.163C49.5243 142.433 48.3141 141.343 46.7539 141.343C45.2036 141.343 43.9834 142.433 43.9834 144.163C43.9834 145.903 45.1636 147.004 46.7139 147.004C48.2741 147.004 49.5243 145.903 49.5243 144.163ZM44.9136 144.163C44.9136 142.783 45.7837 142.133 46.7439 142.133C47.684 142.133 48.5942 142.783 48.5942 144.163C48.5942 145.553 47.664 146.203 46.7139 146.203C45.7637 146.203 44.9136 145.553 44.9136 144.163ZM50.381 144.153C50.381 145.853 51.5111 147.004 52.9814 147.004C53.9815 147.004 54.6916 146.494 55.0217 145.883V146.914H55.9418V139.512H55.0217V142.413C54.6416 141.783 53.8515 141.343 52.9914 141.343C51.5111 141.343 50.381 142.443 50.381 144.153ZM55.0217 144.163C55.0217 145.453 54.1616 146.203 53.1614 146.203C52.1612 146.203 51.3111 145.443 51.3111 144.153C51.3111 142.863 52.1612 142.133 53.1614 142.133C54.1616 142.133 55.0217 142.893 55.0217 144.163ZM62.3407 141.433H61.4305V144.443C61.4305 145.623 60.8004 146.203 59.8603 146.203C58.9401 146.203 58.33 145.633 58.33 144.523V141.433H57.4299V144.643C57.4299 146.213 58.4201 146.994 59.6803 146.994C60.4104 146.994 61.0805 146.674 61.4305 146.103V146.914H62.3407V141.433ZM63.5374 144.163C63.5374 145.903 64.6475 147.004 66.2078 147.004C67.568 147.004 68.4582 146.243 68.7382 145.153H67.758C67.558 145.843 67.0179 146.233 66.2078 146.233C65.2076 146.233 64.4675 145.523 64.4675 144.163C64.4675 142.823 65.2076 142.113 66.2078 142.113C67.0179 142.113 67.568 142.533 67.758 143.193H68.7382C68.4582 142.043 67.568 141.343 66.2078 141.343C64.6475 141.343 63.5374 142.443 63.5374 144.163ZM70.1526 145.413C70.1526 146.514 70.7027 146.914 71.6729 146.914H72.493V146.143H71.8229C71.2628 146.143 71.0628 145.953 71.0628 145.413V142.183H72.493V141.433H71.0628V140.052H70.1526V141.433H69.4425V142.183H70.1526V145.413ZM80.8329 139.932V145.473L77.1724 139.932H76.2622V146.914H77.1724V141.363L80.8329 146.914H81.7431V139.932H80.8329ZM82.9545 144.153C82.9545 145.853 84.0847 147.004 85.545 147.004C86.5551 147.004 87.2652 146.484 87.5953 145.893V146.914H88.5154V141.433H87.5953V142.433C87.2752 141.863 86.5751 141.343 85.555 141.343C84.0847 141.343 82.9545 142.443 82.9545 144.153ZM87.5953 144.163C87.5953 145.453 86.7351 146.203 85.735 146.203C84.7348 146.203 83.8847 145.443 83.8847 144.153C83.8847 142.863 84.7348 142.133 85.735 142.133C86.7351 142.133 87.5953 142.893 87.5953 144.163ZM97.9648 146.914H98.8649V143.683C98.8649 142.113 97.8947 141.333 96.6445 141.333C95.8044 141.333 95.0243 141.763 94.7042 142.553C94.3442 141.733 93.5941 141.333 92.6939 141.333C91.9738 141.333 91.3237 141.643 90.9636 142.223V141.433H90.0535V146.914H90.9636V143.893C90.9636 142.713 91.5937 142.123 92.5139 142.123C93.414 142.123 94.0141 142.693 94.0141 143.813V146.914H94.9143V143.893C94.9143 142.713 95.5444 142.123 96.4645 142.123C97.3647 142.123 97.9648 142.693 97.9648 143.813V146.914ZM102.688 142.113C103.628 142.113 104.429 142.703 104.419 143.773H100.958C101.058 142.703 101.798 142.113 102.688 142.113ZM105.249 145.223H104.269C104.068 145.813 103.548 146.233 102.728 146.233C101.798 146.233 101.018 145.623 100.948 144.513H105.329C105.349 144.323 105.359 144.163 105.359 143.963C105.359 142.463 104.319 141.343 102.728 141.343C101.128 141.343 100.018 142.433 100.018 144.163C100.018 145.903 101.168 147.004 102.728 147.004C104.088 147.004 104.969 146.223 105.249 145.223Z" fill="#666666"/>
<path d="M37.2239 98.2728V96.0024H38.4841C39.3742 96.0024 39.7743 96.4225 39.7743 97.1426C39.7743 97.8427 39.3742 98.2728 38.4841 98.2728H37.2239ZM40.9445 97.1426C40.9445 96.0124 40.1343 95.0723 38.4841 95.0723H36.0837V102.023H37.2239V99.2029H38.4841C40.2943 99.2029 40.9445 98.1328 40.9445 97.1426ZM43.1721 99.1229C43.1721 97.9527 43.6922 97.6027 44.5323 97.6027H44.8223V96.4225C44.0422 96.4225 43.4921 96.7625 43.1721 97.3126V96.5125H42.0319V102.023H43.1721V99.1229ZM51.1212 99.2629C51.1212 97.5327 49.881 96.4225 48.3108 96.4225C46.7405 96.4225 45.5003 97.5327 45.5003 99.2629C45.5003 100.993 46.6905 102.113 48.2608 102.113C49.841 102.113 51.1212 100.993 51.1212 99.2629ZM46.6605 99.2629C46.6605 98.0127 47.4306 97.4126 48.2908 97.4126C49.1409 97.4126 49.9511 98.0127 49.9511 99.2629C49.9511 100.513 49.1109 101.123 48.2608 101.123C47.4006 101.123 46.6605 100.513 46.6605 99.2629ZM51.8683 99.2429C51.8683 100.943 53.0185 102.113 54.4687 102.113C55.3689 102.113 56.029 101.693 56.379 101.193V102.023H57.5292V94.6222H56.379V97.2826C55.959 96.7625 55.1988 96.4225 54.4787 96.4225C53.0185 96.4225 51.8683 97.5427 51.8683 99.2429ZM56.379 99.2629C56.379 100.453 55.5689 101.123 54.7088 101.123C53.8586 101.123 53.0385 100.433 53.0385 99.2429C53.0385 98.0528 53.8586 97.4126 54.7088 97.4126C55.5689 97.4126 56.379 98.0828 56.379 99.2629ZM64.0176 96.5125H62.8774V99.583C62.8774 100.593 62.3273 101.113 61.4872 101.113C60.6571 101.113 60.107 100.593 60.107 99.583V96.5125H58.9768V99.753C58.9768 101.293 59.957 102.103 61.2472 102.103C61.8973 102.103 62.5174 101.833 62.8774 101.363V102.023H64.0176V96.5125ZM65.1419 99.2629C65.1419 100.993 66.2621 102.113 67.8424 102.113C69.1926 102.113 70.0727 101.363 70.3828 100.283H69.1526C68.9425 100.853 68.5225 101.153 67.8424 101.153C66.9222 101.153 66.3121 100.473 66.3121 99.2629C66.3121 98.0628 66.9222 97.3826 67.8424 97.3826C68.5225 97.3826 68.9625 97.7227 69.1526 98.2528H70.3828C70.0727 97.0926 69.1926 96.4225 67.8424 96.4225C66.2621 96.4225 65.1419 97.5427 65.1419 99.2629ZM71.6991 100.493C71.6991 101.613 72.3092 102.023 73.2893 102.023H74.1895V101.073H73.4894C73.0093 101.073 72.8493 100.903 72.8493 100.493V97.4427H74.1895V96.5125H72.8493V95.1423H71.6991V96.5125H71.049V97.4427H71.6991V100.493ZM82.4091 95.0623V100.243L78.9786 95.0623H77.8384V102.023H78.9786V96.8326L82.4091 102.023H83.5493V95.0623H82.4091ZM84.6665 99.2429C84.6665 100.943 85.8167 102.113 87.247 102.113C88.1671 102.113 88.8272 101.673 89.1773 101.203V102.023H90.3275V96.5125H89.1773V97.3126C88.8372 96.8626 88.1971 96.4225 87.267 96.4225C85.8167 96.4225 84.6665 97.5427 84.6665 99.2429ZM89.1773 99.2629C89.1773 100.453 88.3671 101.123 87.507 101.123C86.6569 101.123 85.8367 100.433 85.8367 99.2429C85.8367 98.0528 86.6569 97.4126 87.507 97.4126C88.3671 97.4126 89.1773 98.0828 89.1773 99.2629ZM99.6363 102.023H100.766V98.7729C100.766 97.2326 99.7863 96.4225 98.4961 96.4225C97.696 96.4225 96.9159 96.8426 96.5758 97.5127C96.1957 96.7925 95.4656 96.4225 94.5955 96.4225C93.9354 96.4225 93.3353 96.6925 92.9652 97.1426V96.5125H91.825V102.023H92.9652V98.9429C92.9652 97.9327 93.5153 97.4126 94.3554 97.4126C95.1856 97.4126 95.7357 97.9327 95.7357 98.9429V102.023H96.8658V98.9429C96.8658 97.9327 97.4159 97.4126 98.2561 97.4126C99.0862 97.4126 99.6363 97.9327 99.6363 98.9429V102.023ZM104.538 97.3826C105.388 97.3826 106.058 97.9227 106.078 98.7729H103.027C103.147 97.9027 103.768 97.3826 104.538 97.3826ZM107.118 100.383H105.888C105.678 100.813 105.288 101.153 104.588 101.153C103.748 101.153 103.097 100.603 103.017 99.693H107.228C107.258 99.503 107.268 99.323 107.268 99.1329C107.268 97.5127 106.158 96.4225 104.588 96.4225C102.957 96.4225 101.837 97.5327 101.837 99.2629C101.837 100.993 103.007 102.113 104.588 102.113C105.938 102.113 106.808 101.343 107.118 100.383Z" fill="#1D9AAC"/>
<path d="M38.7661 110.746H36.0137V116.379H38.7661V116.235H36.1737V113.634H38.5261V113.49H36.1737V110.89H38.7661V110.746ZM43.283 116.379H43.435V113.858C43.435 112.522 42.6428 111.962 41.6987 111.962C40.8906 111.962 40.2105 112.362 40.0024 113.202V112.058H39.8424V116.379H40.0024V114.082C40.0024 112.73 40.7145 112.106 41.6987 112.106C42.6508 112.106 43.283 112.69 43.283 113.842V116.379ZM44.9413 115.243C44.9413 116.083 45.2533 116.379 45.9894 116.379H46.4615V116.219H46.0054C45.3493 116.219 45.1013 116.019 45.1013 115.243V112.218H46.4615V112.058H45.1013V110.954H44.9413V112.058H44.2372V112.218H44.9413V115.243ZM49.3411 112.146C50.3013 112.146 51.2614 112.754 51.1814 114.146H47.4208C47.4208 112.77 48.357 112.146 49.3411 112.146ZM51.3254 114.914H51.1654C51.0294 115.771 50.3013 116.291 49.3411 116.291C48.373 116.291 47.4448 115.675 47.4208 114.29H51.3174C51.3254 114.146 51.3254 114.066 51.3254 113.858C51.3254 112.954 50.6613 112.002 49.3411 112.002C48.1409 112.002 47.2608 112.826 47.2608 114.218C47.2608 115.611 48.1409 116.435 49.3411 116.435C50.4613 116.435 51.1814 115.803 51.3254 114.914ZM52.6451 113.81C52.6451 112.53 53.5012 112.138 54.2773 112.138H54.3494V111.962C53.3812 111.962 52.8131 112.354 52.6451 113.106V112.058H52.4851V116.379H52.6451V113.81ZM58.8295 114.018V116.379H58.9895V114.018L60.7338 110.746H60.5418L58.9015 113.842L57.2613 110.746H57.0692L58.8295 114.018ZM65.6672 114.218C65.6672 112.826 64.7631 112.002 63.5629 112.002C62.3627 112.002 61.4506 112.826 61.4506 114.218C61.4506 115.611 62.3627 116.435 63.5629 116.435C64.7631 116.435 65.6672 115.611 65.6672 114.218ZM61.6106 114.218C61.6106 112.786 62.5707 112.146 63.5629 112.146C64.5551 112.146 65.5072 112.786 65.5072 114.218C65.5072 115.651 64.5551 116.291 63.5629 116.291C62.5707 116.291 61.6106 115.651 61.6106 114.218ZM70.3837 112.058H70.2236V114.338C70.2236 115.691 69.5115 116.315 68.5274 116.315C67.5752 116.315 66.9431 115.731 66.9431 114.578V112.058H66.7911V114.562C66.7911 115.899 67.5832 116.459 68.5274 116.459C69.3355 116.459 70.0236 116.051 70.2236 115.202V116.379H70.3837V112.058ZM71.906 113.81C71.906 112.53 72.7621 112.138 73.5382 112.138H73.6103V111.962C72.6421 111.962 72.074 112.354 71.906 113.106V112.058H71.746V116.379H71.906V113.81ZM76.7702 116.379H76.9302V113.634H79.2826V113.49H76.9302V110.89H79.5226V110.746H76.7702V116.379ZM80.5208 116.379H80.6808V112.058H80.5208V116.379ZM80.6008 110.954C80.7128 110.954 80.8088 110.874 80.8088 110.738C80.8088 110.602 80.7128 110.522 80.6008 110.522C80.4888 110.522 80.3928 110.602 80.3928 110.738C80.3928 110.874 80.4888 110.954 80.6008 110.954ZM82.2045 113.81C82.2045 112.53 83.0606 112.138 83.8368 112.138H83.9088V111.962C82.9406 111.962 82.3725 112.354 82.2045 113.106V112.058H82.0445V116.379H82.2045V113.81ZM87.4765 115.299C87.4765 113.802 84.78 114.594 84.78 113.082C84.78 112.586 85.2841 112.146 85.9722 112.146C86.8364 112.146 87.2684 112.634 87.3004 113.242H87.4605C87.4125 112.458 86.8364 112.002 85.9722 112.002C85.1881 112.002 84.62 112.506 84.62 113.082C84.62 114.746 87.3245 113.97 87.3245 115.299C87.3245 115.827 86.8764 116.291 86.1483 116.291C85.2041 116.291 84.708 115.899 84.644 115.275H84.484C84.58 116.083 85.2281 116.435 86.1403 116.435C86.8924 116.435 87.4765 115.955 87.4765 115.299ZM88.7999 115.243C88.7999 116.083 89.1119 116.379 89.848 116.379H90.3201V116.219H89.864C89.2079 116.219 88.9599 116.019 88.9599 115.243V112.218H90.3201V112.058H88.9599V110.954H88.7999V112.058H88.0958V112.218H88.7999V115.243ZM93.8001 113.674V110.906H95.0643C96.2725 110.906 96.7046 111.426 96.7046 112.298C96.7046 113.13 96.2725 113.674 95.0643 113.674H93.8001ZM96.8646 112.298C96.8646 111.362 96.3445 110.746 95.0643 110.746H93.6401V116.379H93.8001V113.842H95.0643C96.2325 113.842 96.8646 113.338 96.8646 112.298ZM98.0274 113.81C98.0274 112.53 98.8835 112.138 99.6596 112.138H99.7316V111.962C98.7635 111.962 98.1954 112.354 98.0274 113.106V112.058H97.8673V116.379H98.0274V113.81ZM104.588 114.218C104.588 112.826 103.683 112.002 102.483 112.002C101.283 112.002 100.371 112.826 100.371 114.218C100.371 115.611 101.283 116.435 102.483 116.435C103.683 116.435 104.588 115.611 104.588 114.218ZM100.531 114.218C100.531 112.786 101.491 112.146 102.483 112.146C103.475 112.146 104.428 112.786 104.428 114.218C104.428 115.651 103.475 116.291 102.483 116.291C101.491 116.291 100.531 115.651 100.531 114.218ZM105.551 114.218C105.551 115.595 106.416 116.435 107.656 116.435C108.688 116.435 109.384 115.827 109.608 115.05V116.379H109.76V110.458H109.608V113.378C109.384 112.61 108.688 112.002 107.656 112.002C106.416 112.002 105.551 112.842 105.551 114.218ZM109.608 114.218C109.608 115.467 108.784 116.291 107.656 116.291C106.472 116.291 105.711 115.507 105.711 114.218C105.711 112.93 106.472 112.146 107.656 112.146C108.784 112.146 109.608 112.97 109.608 114.218ZM114.672 112.058H114.512V114.338C114.512 115.691 113.8 116.315 112.816 116.315C111.864 116.315 111.231 115.731 111.231 114.578V112.058H111.079V114.562C111.079 115.899 111.872 116.459 112.816 116.459C113.624 116.459 114.312 116.051 114.512 115.202V116.379H114.672V112.058ZM115.834 114.218C115.834 115.611 116.714 116.435 117.915 116.435C119.035 116.435 119.755 115.803 119.899 114.914H119.739C119.603 115.771 118.875 116.291 117.915 116.291C116.922 116.291 115.994 115.651 115.994 114.218C115.994 112.786 116.922 112.146 117.915 112.146C118.875 112.146 119.603 112.666 119.739 113.522H119.899C119.755 112.634 119.035 112.002 117.915 112.002C116.714 112.002 115.834 112.826 115.834 114.218ZM121.243 115.243C121.243 116.083 121.555 116.379 122.291 116.379H122.763V116.219H122.307C121.651 116.219 121.403 116.019 121.403 115.243V112.218H122.763V112.058H121.403V110.954H121.243V112.058H120.538V112.218H121.243V115.243ZM129.739 110.754V116.083L126.243 110.754H126.083V116.379H126.243V111.042L129.739 116.379H129.899V110.754H129.739ZM131.063 114.218C131.063 115.595 131.927 116.435 133.168 116.435C134.2 116.435 134.896 115.827 135.12 115.058V116.379H135.272V112.058H135.12V113.378C134.896 112.61 134.2 112.002 133.168 112.002C131.927 112.002 131.063 112.842 131.063 114.218ZM135.12 114.218C135.12 115.467 134.296 116.291 133.168 116.291C131.983 116.291 131.223 115.507 131.223 114.218C131.223 112.93 131.983 112.146 133.168 112.146C134.296 112.146 135.12 112.97 135.12 114.218ZM143.184 116.379H143.336V113.858C143.336 112.522 142.584 111.962 141.688 111.962C140.896 111.962 140.216 112.378 140.016 113.33C139.848 112.37 139.184 111.962 138.416 111.962C137.664 111.962 137.015 112.338 136.791 113.202V112.058H136.631V116.379H136.791V114.122C136.791 112.762 137.48 112.106 138.416 112.106C139.32 112.106 139.912 112.69 139.912 113.842V116.379H140.064V114.122C140.064 112.762 140.76 112.106 141.688 112.106C142.592 112.106 143.184 112.69 143.184 113.842V116.379ZM146.536 112.146C147.497 112.146 148.457 112.754 148.377 114.146H144.616C144.616 112.77 145.552 112.146 146.536 112.146ZM148.521 114.914H148.361C148.225 115.771 147.497 116.291 146.536 116.291C145.568 116.291 144.64 115.675 144.616 114.29H148.513C148.521 114.146 148.521 114.066 148.521 113.858C148.521 112.954 147.857 112.002 146.536 112.002C145.336 112.002 144.456 112.826 144.456 114.218C144.456 115.611 145.336 116.435 146.536 116.435C147.657 116.435 148.377 115.803 148.521 114.914ZM149.672 116.179C149.672 116.051 149.584 115.963 149.464 115.963C149.344 115.963 149.256 116.051 149.256 116.179C149.256 116.307 149.344 116.395 149.464 116.395C149.584 116.395 149.672 116.307 149.672 116.179Z" fill="#808080"/>
<path d="M362.902 125.122H39.9905C29.8765 125.122 21.6776 133.321 21.6776 143.435V143.436C21.6776 153.55 29.8765 161.749 39.9905 161.749H362.902C373.016 161.749 381.215 153.55 381.215 143.436V143.435C381.215 133.321 373.016 125.122 362.902 125.122Z" stroke="#969696" stroke-width="0.516" stroke-miterlimit="10"/>
<path d="M34.4726 248.46H35.3827V241.489H34.4726V248.46ZM41.5046 241.479V247.02L37.844 241.479H36.9339V248.46H37.844V242.909L41.5046 248.46H42.4148V241.479H41.5046ZM47.6969 243.539C47.6969 244.319 47.2468 244.879 46.2166 244.879H44.8764V242.239H46.2166C47.2568 242.239 47.6969 242.749 47.6969 243.539ZM43.9663 241.489V248.46H44.8764V245.609H45.9766L47.6369 248.46H48.727L46.9767 245.539C48.1469 245.279 48.637 244.429 48.637 243.539C48.637 242.399 47.8569 241.489 46.2166 241.489H43.9663Z" fill="#666666"/>
<path d="M36.8949 179.815V177.544H38.1551C39.0453 177.544 39.4454 177.965 39.4454 178.685C39.4454 179.385 39.0453 179.815 38.1551 179.815H36.8949ZM40.6155 178.685C40.6155 177.554 39.8054 176.614 38.1551 176.614H35.7548V183.565H36.8949V180.745H38.1551C39.9654 180.745 40.6155 179.675 40.6155 178.685ZM42.8432 180.665C42.8432 179.495 43.3632 179.145 44.2034 179.145H44.4934V177.965C43.7133 177.965 43.1632 178.305 42.8432 178.855V178.055H41.703V183.565H42.8432V180.665ZM50.7923 180.805C50.7923 179.075 49.5521 177.965 47.9819 177.965C46.4116 177.965 45.1714 179.075 45.1714 180.805C45.1714 182.535 46.3616 183.655 47.9319 183.655C49.5121 183.655 50.7923 182.535 50.7923 180.805ZM46.3316 180.805C46.3316 179.555 47.1017 178.955 47.9619 178.955C48.812 178.955 49.6221 179.555 49.6221 180.805C49.6221 182.055 48.782 182.665 47.9319 182.665C47.0717 182.665 46.3316 182.055 46.3316 180.805ZM51.5394 180.785C51.5394 182.485 52.6896 183.655 54.1398 183.655C55.04 183.655 55.7001 183.235 56.0501 182.735V183.565H57.2003V176.164H56.0501V178.825C55.6301 178.305 54.8699 177.965 54.1498 177.965C52.6896 177.965 51.5394 179.085 51.5394 180.785ZM56.0501 180.805C56.0501 181.995 55.24 182.665 54.3799 182.665C53.5297 182.665 52.7096 181.975 52.7096 180.785C52.7096 179.595 53.5297 178.955 54.3799 178.955C55.24 178.955 56.0501 179.625 56.0501 180.805ZM63.6887 178.055H62.5485V181.125C62.5485 182.135 61.9984 182.655 61.1583 182.655C60.3282 182.655 59.7781 182.135 59.7781 181.125V178.055H58.6479V181.295C58.6479 182.835 59.628 183.645 60.9183 183.645C61.5684 183.645 62.1885 183.375 62.5485 182.905V183.565H63.6887V178.055ZM64.813 180.805C64.813 182.535 65.9332 183.655 67.5134 183.655C68.8637 183.655 69.7438 182.905 70.0539 181.825H68.8237C68.6136 182.395 68.1936 182.695 67.5134 182.695C66.5933 182.695 65.9832 182.015 65.9832 180.805C65.9832 179.605 66.5933 178.925 67.5134 178.925C68.1936 178.925 68.6336 179.265 68.8237 179.795H70.0539C69.7438 178.635 68.8637 177.965 67.5134 177.965C65.9332 177.965 64.813 179.085 64.813 180.805ZM71.3702 182.035C71.3702 183.155 71.9803 183.565 72.9604 183.565H73.8606V182.615H73.1604C72.6804 182.615 72.5203 182.445 72.5203 182.035V178.985H73.8606V178.055H72.5203V176.684H71.3702V178.055H70.7201V178.985H71.3702V182.035ZM78.6497 179.815V177.544H79.9099C80.8 177.544 81.2001 177.965 81.2001 178.685C81.2001 179.385 80.8 179.815 79.9099 179.815H78.6497ZM82.3703 178.685C82.3703 177.554 81.5602 176.614 79.9099 176.614H77.5095V183.565H78.6497V180.745H79.9099C81.7202 180.745 82.3703 179.675 82.3703 178.685ZM84.5979 180.665C84.5979 179.495 85.118 179.145 85.9581 179.145H86.2482V177.965C85.468 177.965 84.918 178.305 84.5979 178.855V178.055H83.4577V183.565H84.5979V180.665ZM87.2962 183.565H88.4364V178.055H87.2962V183.565ZM87.8763 177.324C88.2764 177.324 88.5964 177.004 88.5964 176.594C88.5964 176.184 88.2764 175.864 87.8763 175.864C87.4663 175.864 87.1462 176.184 87.1462 176.594C87.1462 177.004 87.4663 177.324 87.8763 177.324ZM89.5533 180.805C89.5533 182.535 90.6735 183.655 92.2537 183.655C93.604 183.655 94.4841 182.905 94.7942 181.825H93.564C93.3539 182.395 92.9339 182.695 92.2537 182.695C91.3336 182.695 90.7235 182.015 90.7235 180.805C90.7235 179.605 91.3336 178.925 92.2537 178.925C92.9339 178.925 93.3739 179.265 93.564 179.795H94.7942C94.4841 178.635 93.604 177.965 92.2537 177.965C90.6735 177.965 89.5533 179.085 89.5533 180.805ZM98.2508 178.925C99.1009 178.925 99.771 179.465 99.791 180.315H96.7406C96.8606 179.445 97.4807 178.925 98.2508 178.925ZM100.831 181.925H99.601C99.391 182.355 99.0009 182.695 98.3008 182.695C97.4607 182.695 96.8106 182.145 96.7306 181.235H100.941C100.971 181.045 100.981 180.865 100.981 180.675C100.981 179.055 99.8711 177.965 98.3008 177.965C96.6705 177.965 95.5504 179.075 95.5504 180.805C95.5504 182.535 96.7206 183.655 98.3008 183.655C99.651 183.655 100.521 182.885 100.831 181.925Z" fill="#1D9AAC"/>
<path d="M35.7036 214.433C35.7036 216.524 37.2939 217.984 39.2542 217.984C40.7044 217.984 41.9546 217.264 42.4847 215.904H41.1145C40.7444 216.644 40.0843 216.994 39.2542 216.994C37.874 216.994 36.8738 216.004 36.8738 214.433C36.8738 212.863 37.874 211.883 39.2542 211.883C40.0843 211.883 40.7444 212.233 41.1145 212.973H42.4847C41.9546 211.613 40.7044 210.883 39.2542 210.883C37.2939 210.883 35.7036 212.353 35.7036 214.433ZM48.8101 212.413H47.6699V215.484C47.6699 216.494 47.1198 217.014 46.2797 217.014C45.4495 217.014 44.8995 216.494 44.8995 215.484V212.413H43.7693V215.654C43.7693 217.194 44.7494 218.004 46.0396 218.004C46.6897 218.004 47.3098 217.734 47.6699 217.264V217.924H48.8101V212.413ZM51.4547 215.024C51.4547 213.853 51.9747 213.503 52.8149 213.503H53.1049V212.323C52.3248 212.323 51.7747 212.663 51.4547 213.213V212.413H50.3145V217.924H51.4547V215.024ZM55.2932 215.024C55.2932 213.853 55.8132 213.503 56.6534 213.503H56.9434V212.323C56.1633 212.323 55.6132 212.663 55.2932 213.213V212.413H54.153V217.924H55.2932V215.024ZM60.3119 213.283C61.162 213.283 61.8321 213.823 61.8521 214.673H58.8016C58.9216 213.803 59.5417 213.283 60.3119 213.283ZM62.8923 216.284H61.6621C61.452 216.714 61.062 217.054 60.3619 217.054C59.5217 217.054 58.8716 216.504 58.7916 215.594H63.0023C63.0323 215.404 63.0423 215.224 63.0423 215.034C63.0423 213.413 61.9321 212.323 60.3619 212.323C58.7316 212.323 57.6114 213.433 57.6114 215.164C57.6114 216.894 58.7816 218.014 60.3619 218.014C61.7121 218.014 62.5822 217.244 62.8923 216.284ZM68.075 217.924H69.2052V214.673C69.2052 213.133 68.235 212.323 66.9448 212.323C66.2847 212.323 65.6746 212.593 65.3045 213.043V212.413H64.1643V217.924H65.3045V214.843C65.3045 213.833 65.8546 213.313 66.6948 213.313C67.5249 213.313 68.075 213.833 68.075 214.843V217.924ZM70.2795 215.164C70.2795 216.894 71.3996 218.014 72.9799 218.014C74.3301 218.014 75.2103 217.264 75.5203 216.184H74.2901C74.0801 216.754 73.66 217.054 72.9799 217.054C72.0598 217.054 71.4497 216.374 71.4497 215.164C71.4497 213.963 72.0598 213.283 72.9799 213.283C73.66 213.283 74.1001 213.623 74.2901 214.153H75.5203C75.2103 212.993 74.3301 212.323 72.9799 212.323C71.3996 212.323 70.2795 213.443 70.2795 215.164ZM78.8269 216.614L77.2767 212.413H76.0065L78.1768 217.834L77.0567 220.514H78.2368L81.6174 212.413H80.4372L78.8269 216.614Z" fill="#1D9AAC"/>
<path d="M38.4372 192.288H35.6847V197.921H38.4372V197.777H35.8448V195.176H38.1972V195.032H35.8448V192.432H38.4372V192.288ZM42.954 197.921H43.1061V195.4C43.1061 194.064 42.3139 193.504 41.3698 193.504C40.5617 193.504 39.8815 193.904 39.6735 194.744V193.6H39.5135V197.921H39.6735V195.624C39.6735 194.272 40.3856 193.648 41.3698 193.648C42.3219 193.648 42.954 194.232 42.954 195.384V197.921ZM44.6124 196.785C44.6124 197.625 44.9244 197.921 45.6605 197.921H46.1326V197.761H45.6765C45.0204 197.761 44.7724 197.561 44.7724 196.785V193.76H46.1326V193.6H44.7724V192.496H44.6124V193.6H43.9083V193.76H44.6124V196.785ZM49.0122 193.688C49.9724 193.688 50.9325 194.296 50.8525 195.688H47.0919C47.0919 194.312 48.028 193.688 49.0122 193.688ZM50.9965 196.457H50.8365C50.7005 197.313 49.9724 197.833 49.0122 197.833C48.044 197.833 47.1159 197.217 47.0919 195.832H50.9885C50.9965 195.688 50.9965 195.608 50.9965 195.4C50.9965 194.496 50.3324 193.544 49.0122 193.544C47.812 193.544 46.9319 194.368 46.9319 195.76C46.9319 197.153 47.812 197.977 49.0122 197.977C50.1324 197.977 50.8525 197.345 50.9965 196.457ZM52.3162 195.352C52.3162 194.072 53.1723 193.68 53.9484 193.68H54.0204V193.504C53.0523 193.504 52.4842 193.896 52.3162 194.648V193.6H52.1561V197.921H52.3162V195.352ZM58.5006 195.56V197.921H58.6606V195.56L60.4049 192.288H60.2129L58.5726 195.384L56.9323 192.288H56.7403L58.5006 195.56ZM65.3383 195.76C65.3383 194.368 64.4342 193.544 63.234 193.544C62.0338 193.544 61.1216 194.368 61.1216 195.76C61.1216 197.153 62.0338 197.977 63.234 197.977C64.4342 197.977 65.3383 197.153 65.3383 195.76ZM61.2817 195.76C61.2817 194.328 62.2418 193.688 63.234 193.688C64.2261 193.688 65.1783 194.328 65.1783 195.76C65.1783 197.193 64.2261 197.833 63.234 197.833C62.2418 197.833 61.2817 197.193 61.2817 195.76ZM70.0548 193.6H69.8947V195.88C69.8947 197.233 69.1826 197.857 68.1985 197.857C67.2463 197.857 66.6142 197.273 66.6142 196.12V193.6H66.4622V196.104C66.4622 197.441 67.2543 198.001 68.1985 198.001C69.0066 198.001 69.6947 197.593 69.8947 196.745V197.921H70.0548V193.6ZM71.5771 195.352C71.5771 194.072 72.4332 193.68 73.2093 193.68H73.2813V193.504C72.3132 193.504 71.7451 193.896 71.5771 194.648V193.6H71.417V197.921H71.5771V195.352ZM76.6013 195.216V192.448H77.8655C79.0737 192.448 79.5058 192.968 79.5058 193.84C79.5058 194.672 79.0737 195.216 77.8655 195.216H76.6013ZM79.6658 193.84C79.6658 192.904 79.1457 192.288 77.8655 192.288H76.4413V197.921H76.6013V195.384H77.8655C79.0337 195.384 79.6658 194.88 79.6658 193.84ZM80.8286 195.352C80.8286 194.072 81.6847 193.68 82.4608 193.68H82.5328V193.504C81.5647 193.504 80.9966 193.896 80.8286 194.648V193.6H80.6685V197.921H80.8286V195.352ZM87.3887 195.76C87.3887 194.368 86.4846 193.544 85.2844 193.544C84.0842 193.544 83.1721 194.368 83.1721 195.76C83.1721 197.153 84.0842 197.977 85.2844 197.977C86.4846 197.977 87.3887 197.153 87.3887 195.76ZM83.3321 195.76C83.3321 194.328 84.2922 193.688 85.2844 193.688C86.2766 193.688 87.2287 194.328 87.2287 195.76C87.2287 197.193 86.2766 197.833 85.2844 197.833C84.2922 197.833 83.3321 197.193 83.3321 195.76ZM88.3526 195.76C88.3526 197.137 89.2167 197.977 90.4569 197.977C91.4891 197.977 92.1852 197.369 92.4092 196.593V197.921H92.5612V192H92.4092V194.92C92.1852 194.152 91.4891 193.544 90.4569 193.544C89.2167 193.544 88.3526 194.384 88.3526 195.76ZM92.4092 195.76C92.4092 197.009 91.5851 197.833 90.4569 197.833C89.2727 197.833 88.5126 197.049 88.5126 195.76C88.5126 194.472 89.2727 193.688 90.4569 193.688C91.5851 193.688 92.4092 194.512 92.4092 195.76ZM97.4732 193.6H97.3132V195.88C97.3132 197.233 96.6011 197.857 95.6169 197.857C94.6648 197.857 94.0327 197.273 94.0327 196.12V193.6H93.8806V196.104C93.8806 197.441 94.6728 198.001 95.6169 198.001C96.4251 198.001 97.1132 197.593 97.3132 196.745V197.921H97.4732V193.6ZM98.6355 195.76C98.6355 197.153 99.5156 197.977 100.716 197.977C101.836 197.977 102.556 197.345 102.7 196.457H102.54C102.404 197.313 101.676 197.833 100.716 197.833C99.7236 197.833 98.7955 197.193 98.7955 195.76C98.7955 194.328 99.7236 193.688 100.716 193.688C101.676 193.688 102.404 194.208 102.54 195.064H102.7C102.556 194.176 101.836 193.544 100.716 193.544C99.5156 193.544 98.6355 194.368 98.6355 195.76ZM104.044 196.785C104.044 197.625 104.356 197.921 105.092 197.921H105.564V197.761H105.108C104.452 197.761 104.204 197.561 104.204 196.785V193.76H105.564V193.6H104.204V192.496H104.044V193.6H103.34V193.76H104.044V196.785ZM109.044 195.216V192.448H110.308C111.516 192.448 111.948 192.968 111.948 193.84C111.948 194.672 111.516 195.216 110.308 195.216H109.044ZM112.109 193.84C112.109 192.904 111.588 192.288 110.308 192.288H108.884V197.921H109.044V195.384H110.308C111.476 195.384 112.109 194.88 112.109 193.84ZM113.271 195.352C113.271 194.072 114.127 193.68 114.904 193.68H114.976V193.504C114.007 193.504 113.439 193.896 113.271 194.648V193.6H113.111V197.921H113.271V195.352ZM115.815 197.921H115.975V193.6H115.815V197.921ZM115.895 192.496C116.007 192.496 116.103 192.416 116.103 192.28C116.103 192.144 116.007 192.064 115.895 192.064C115.783 192.064 115.687 192.144 115.687 192.28C115.687 192.416 115.783 192.496 115.895 192.496ZM117.138 195.76C117.138 197.153 118.019 197.977 119.219 197.977C120.339 197.977 121.059 197.345 121.203 196.457H121.043C120.907 197.313 120.179 197.833 119.219 197.833C118.227 197.833 117.298 197.193 117.298 195.76C117.298 194.328 118.227 193.688 119.219 193.688C120.179 193.688 120.907 194.208 121.043 195.064H121.203C121.059 194.176 120.339 193.544 119.219 193.544C118.019 193.544 117.138 194.368 117.138 195.76ZM124.243 193.688C125.203 193.688 126.163 194.296 126.083 195.688H122.323C122.323 194.312 123.259 193.688 124.243 193.688ZM126.227 196.457H126.067C125.931 197.313 125.203 197.833 124.243 197.833C123.275 197.833 122.347 197.217 122.323 195.832H126.219C126.227 195.688 126.227 195.608 126.227 195.4C126.227 194.496 125.563 193.544 124.243 193.544C123.043 193.544 122.163 194.368 122.163 195.76C122.163 197.153 123.043 197.977 124.243 197.977C125.363 197.977 126.083 197.345 126.227 196.457ZM132.516 193.336C132.516 192.632 131.908 192.248 131.3 192.248C130.564 192.248 130.052 192.688 130.052 193.352C130.052 193.8 130.292 194.184 130.716 194.616L130.7 194.624C129.876 194.944 129.372 195.504 129.372 196.329C129.372 197.321 130.132 198.001 131.172 198.001C131.964 198.001 132.532 197.705 133.084 197.049L133.932 197.921H134.124L133.172 196.937C133.396 196.649 133.62 196.297 133.86 195.88L134.34 195.04H134.172L133.772 195.736C133.524 196.168 133.292 196.529 133.06 196.825L130.828 194.504C130.444 194.112 130.212 193.76 130.212 193.344C130.212 192.768 130.652 192.392 131.3 192.392C131.828 192.392 132.356 192.728 132.356 193.336H132.516ZM131.172 197.849C130.228 197.849 129.532 197.217 129.532 196.329C129.532 195.6 129.94 195.072 130.74 194.768L130.828 194.736L132.972 196.937C132.452 197.561 131.916 197.849 131.172 197.849ZM142.581 195.112C142.581 193.424 141.461 192.24 139.893 192.24C138.324 192.24 137.204 193.424 137.204 195.112C137.204 196.801 138.324 197.985 139.893 197.985C141.461 197.985 142.581 196.801 142.581 195.112ZM137.372 195.112C137.372 193.416 138.492 192.384 139.893 192.384C141.293 192.384 142.413 193.416 142.413 195.112C142.413 196.809 141.293 197.841 139.893 197.841C138.492 197.841 137.372 196.809 137.372 195.112ZM143.925 197.921H144.085V193.768H145.325V193.6H144.085V193.296C144.085 192.52 144.373 192.16 145.325 192.16V192C144.277 192 143.925 192.456 143.925 193.296V193.6H143.221V193.768H143.925V197.921ZM146.472 197.921H146.632V193.768H147.873V193.6H146.632V193.296C146.632 192.52 146.921 192.16 147.873 192.16V192C146.825 192 146.472 192.456 146.472 193.296V193.6H145.768V193.768H146.472V197.921ZM150.716 193.688C151.676 193.688 152.636 194.296 152.556 195.688H148.796C148.796 194.312 149.732 193.688 150.716 193.688ZM152.7 196.457H152.54C152.404 197.313 151.676 197.833 150.716 197.833C149.748 197.833 148.82 197.217 148.796 195.832H152.692C152.7 195.688 152.7 195.608 152.7 195.4C152.7 194.496 152.036 193.544 150.716 193.544C149.516 193.544 148.636 194.368 148.636 195.76C148.636 197.153 149.516 197.977 150.716 197.977C151.836 197.977 152.556 197.345 152.7 196.457ZM154.02 195.352C154.02 194.072 154.876 193.68 155.652 193.68H155.724V193.504C154.756 193.504 154.188 193.896 154.02 194.648V193.6H153.86V197.921H154.02V195.352ZM159.044 195.216V192.448H160.308C161.517 192.448 161.949 192.968 161.949 193.84C161.949 194.672 161.517 195.216 160.308 195.216H159.044ZM162.109 193.84C162.109 192.904 161.589 192.288 160.308 192.288H158.884V197.921H159.044V195.384H160.308C161.477 195.384 162.109 194.88 162.109 193.84ZM163.271 195.352C163.271 194.072 164.128 193.68 164.904 193.68H164.976V193.504C164.008 193.504 163.439 193.896 163.271 194.648V193.6H163.111V197.921H163.271V195.352ZM165.815 197.921H165.975V193.6H165.815V197.921ZM165.895 192.496C166.007 192.496 166.103 192.416 166.103 192.28C166.103 192.144 166.007 192.064 165.895 192.064C165.783 192.064 165.687 192.144 165.687 192.28C165.687 192.416 165.783 192.496 165.895 192.496ZM167.139 195.76C167.139 197.153 168.019 197.977 169.219 197.977C170.339 197.977 171.059 197.345 171.203 196.457H171.043C170.907 197.313 170.179 197.833 169.219 197.833C168.227 197.833 167.299 197.193 167.299 195.76C167.299 194.328 168.227 193.688 169.219 193.688C170.179 193.688 170.907 194.208 171.043 195.064H171.203C171.059 194.176 170.339 193.544 169.219 193.544C168.019 193.544 167.139 194.368 167.139 195.76ZM174.243 193.688C175.203 193.688 176.164 194.296 176.084 195.688H172.323C172.323 194.312 173.259 193.688 174.243 193.688ZM176.228 196.457H176.068C175.931 197.313 175.203 197.833 174.243 197.833C173.275 197.833 172.347 197.217 172.323 195.832H176.22C176.228 195.688 176.228 195.608 176.228 195.4C176.228 194.496 175.563 193.544 174.243 193.544C173.043 193.544 172.163 194.368 172.163 195.76C172.163 197.153 173.043 197.977 174.243 197.977C175.363 197.977 176.084 197.345 176.228 196.457ZM180.548 197.921H180.668L182.236 193.896L183.813 197.921H183.933L185.293 193.6H185.125L183.861 197.633L182.3 193.6H182.18L180.62 197.633L179.356 193.6H179.188L180.548 197.921ZM186.131 197.921H186.291V193.6H186.131V197.921ZM186.211 192.496C186.323 192.496 186.419 192.416 186.419 192.28C186.419 192.144 186.323 192.064 186.211 192.064C186.099 192.064 186.003 192.144 186.003 192.28C186.003 192.416 186.099 192.496 186.211 192.496ZM187.838 196.785C187.838 197.625 188.151 197.921 188.887 197.921H189.359V197.761H188.903C188.247 197.761 187.998 197.561 187.998 196.785V193.76H189.359V193.6H187.998V192.496H187.838V193.6H187.134V193.76H187.838V196.785ZM190.358 197.921H190.518V195.624C190.518 194.272 191.23 193.648 192.214 193.648C193.166 193.648 193.799 194.232 193.799 195.384V197.921H193.951V195.4C193.951 194.064 193.158 193.504 192.214 193.504C191.406 193.504 190.726 193.904 190.518 194.744V192H190.358V197.921ZM197.394 195.112C197.394 196.793 198.49 197.977 200.018 197.977C201.37 197.977 202.202 197.297 202.586 196.264H202.426C202.098 197.161 201.298 197.833 200.018 197.833C198.658 197.833 197.562 196.801 197.562 195.112C197.562 193.408 198.658 192.376 200.018 192.376C201.298 192.376 202.098 193.048 202.426 193.952H202.586C202.202 192.912 201.37 192.232 200.018 192.232C198.49 192.232 197.394 193.416 197.394 195.112ZM207.296 193.6H207.136V195.88C207.136 197.233 206.423 197.857 205.439 197.857C204.487 197.857 203.855 197.273 203.855 196.12V193.6H203.703V196.104C203.703 197.441 204.495 198.001 205.439 198.001C206.247 198.001 206.935 197.593 207.136 196.745V197.921H207.296V193.6ZM208.818 195.352C208.818 194.072 209.674 193.68 210.45 193.68H210.522V193.504C209.554 193.504 208.986 193.896 208.818 194.648V193.6H208.658V197.921H208.818V195.352ZM211.521 195.352C211.521 194.072 212.378 193.68 213.154 193.68H213.226V193.504C212.258 193.504 211.689 193.896 211.521 194.648V193.6H211.361V197.921H211.521V195.352ZM215.945 193.688C216.905 193.688 217.866 194.296 217.786 195.688H214.025C214.025 194.312 214.961 193.688 215.945 193.688ZM217.93 196.457H217.77C217.634 197.313 216.905 197.833 215.945 197.833C214.977 197.833 214.049 197.217 214.025 195.832H217.922C217.93 195.688 217.93 195.608 217.93 195.4C217.93 194.496 217.265 193.544 215.945 193.544C214.745 193.544 213.865 194.368 213.865 195.76C213.865 197.153 214.745 197.977 215.945 197.977C217.065 197.977 217.786 197.345 217.93 196.457ZM222.53 197.921H222.682V195.4C222.682 194.064 221.89 193.504 220.945 193.504C220.137 193.504 219.457 193.904 219.249 194.744V193.6H219.089V197.921H219.249V195.624C219.249 194.272 219.961 193.648 220.945 193.648C221.898 193.648 222.53 194.232 222.53 195.384V197.921ZM223.804 195.76C223.804 197.153 224.684 197.977 225.884 197.977C227.005 197.977 227.725 197.345 227.869 196.457H227.709C227.573 197.313 226.844 197.833 225.884 197.833C224.892 197.833 223.964 197.193 223.964 195.76C223.964 194.328 224.892 193.688 225.884 193.688C226.844 193.688 227.573 194.208 227.709 195.064H227.869C227.725 194.176 227.005 193.544 225.884 193.544C224.684 193.544 223.804 194.368 223.804 195.76ZM230.444 197.753L228.668 193.6H228.508L230.364 197.945L229.58 199.953H229.748L232.213 193.6H232.053L230.444 197.753ZM233.044 197.721C233.044 197.593 232.956 197.505 232.836 197.505C232.716 197.505 232.628 197.593 232.628 197.721C232.628 197.849 232.716 197.937 232.836 197.937C232.956 197.937 233.044 197.849 233.044 197.721Z" fill="#808080"/>
<path d="M362.574 226.667H39.6623C29.5484 226.667 21.3494 234.866 21.3494 244.98V244.981C21.3494 255.095 29.5484 263.294 39.6623 263.294H362.574C372.688 263.294 380.887 255.095 380.887 244.981V244.98C380.887 234.866 372.688 226.667 362.574 226.667Z" stroke="#969696" stroke-width="0.516" stroke-miterlimit="10"/>
<path d="M35.7106 312.295V309.735H37.0508C38.091 309.735 38.5311 310.215 38.5311 311.025C38.5311 311.805 38.091 312.295 37.0508 312.295H35.7106ZM39.4612 311.025C39.4612 309.885 38.6911 308.985 37.0508 308.985H34.8005V315.956H35.7106V313.045H37.0508C38.7811 313.045 39.4612 312.085 39.4612 311.025ZM41.5026 312.975C41.5026 311.705 42.1627 311.315 43.0328 311.315H43.2729V310.375C42.4027 310.375 41.8126 310.755 41.5026 311.365V310.475H40.5924V315.956H41.5026V312.975ZM44.3235 315.956H45.2336V310.475H44.3235V315.956ZM44.7936 309.585C45.1236 309.585 45.3937 309.315 45.3937 308.965C45.3937 308.615 45.1236 308.344 44.7936 308.344C44.4435 308.344 44.1735 308.615 44.1735 308.965C44.1735 309.315 44.4435 309.585 44.7936 309.585ZM46.4448 313.205C46.4448 314.946 47.555 316.046 49.1152 316.046C50.4754 316.046 51.3656 315.286 51.6456 314.195H50.6655C50.4654 314.886 49.9253 315.276 49.1152 315.276C48.115 315.276 47.3749 314.565 47.3749 313.205C47.3749 311.865 48.115 311.155 49.1152 311.155C49.9253 311.155 50.4754 311.575 50.6655 312.235H51.6456C51.3656 311.085 50.4754 310.385 49.1152 310.385C47.555 310.385 46.4448 311.485 46.4448 313.205ZM55.1904 311.155C56.1305 311.155 56.9307 311.745 56.9207 312.815H53.4601C53.5601 311.745 54.3003 311.155 55.1904 311.155ZM57.7508 314.265H56.7707C56.5706 314.856 56.0505 315.276 55.2304 315.276C54.3003 315.276 53.5201 314.665 53.4501 313.555H57.8308C57.8508 313.365 57.8608 313.205 57.8608 313.005C57.8608 311.505 56.8207 310.385 55.2304 310.385C53.6301 310.385 52.52 311.475 52.52 313.205C52.52 314.946 53.6702 316.046 55.2304 316.046C56.5906 316.046 57.4708 315.266 57.7508 314.265Z" fill="#666666"/>
<path d="M36.5519 281.67V279.4H37.8121C38.7022 279.4 39.1023 279.82 39.1023 280.54C39.1023 281.24 38.7022 281.67 37.8121 281.67H36.5519ZM40.2725 280.54C40.2725 279.41 39.4623 278.47 37.8121 278.47H35.4117V285.421H36.5519V282.6H37.8121C39.6224 282.6 40.2725 281.53 40.2725 280.54ZM42.5001 282.52C42.5001 281.35 43.0202 281 43.8603 281H44.1504V279.82C43.3702 279.82 42.8201 280.16 42.5001 280.71V279.91H41.3599V285.421H42.5001V282.52ZM45.1984 285.421H46.3386V279.91H45.1984V285.421ZM45.7785 279.18C46.1786 279.18 46.4986 278.86 46.4986 278.45C46.4986 278.04 46.1786 277.72 45.7785 277.72C45.3684 277.72 45.0484 278.04 45.0484 278.45C45.0484 278.86 45.3684 279.18 45.7785 279.18ZM47.4555 282.66C47.4555 284.391 48.5757 285.511 50.1559 285.511C51.5061 285.511 52.3863 284.761 52.6963 283.681H51.4661C51.2561 284.251 50.836 284.551 50.1559 284.551C49.2358 284.551 48.6257 283.871 48.6257 282.66C48.6257 281.46 49.2358 280.78 50.1559 280.78C50.836 280.78 51.2761 281.12 51.4661 281.65H52.6963C52.3863 280.49 51.5061 279.82 50.1559 279.82C48.5757 279.82 47.4555 280.94 47.4555 282.66ZM56.153 280.78C57.0031 280.78 57.6732 281.32 57.6932 282.17H54.6427C54.7628 281.3 55.3829 280.78 56.153 280.78ZM58.7334 283.781H57.5032C57.2932 284.211 56.9031 284.551 56.203 284.551C55.3629 284.551 54.7128 284.001 54.6327 283.09H58.8434C58.8734 282.9 58.8834 282.72 58.8834 282.53C58.8834 280.91 57.7732 279.82 56.203 279.82C54.5727 279.82 53.4526 280.93 53.4526 282.66C53.4526 284.391 54.6227 285.511 56.203 285.511C57.5532 285.511 58.4233 284.741 58.7334 283.781Z" fill="#1D9AAC"/>
<path d="M362.902 294.164H39.9905C29.8765 294.164 21.6776 302.363 21.6776 312.477V312.478C21.6776 322.592 29.8765 330.791 39.9905 330.791H362.902C373.016 330.791 381.215 322.592 381.215 312.478V312.477C381.215 302.363 373.016 294.164 362.902 294.164Z" stroke="#969696" stroke-width="0.516" stroke-miterlimit="10"/>
<path d="M41.4616 380.381C41.4616 378.291 39.9313 376.82 37.961 376.82C36.0007 376.82 34.4604 378.291 34.4604 380.381C34.4604 382.471 36.0007 383.942 37.961 383.942C39.9313 383.942 41.4616 382.471 41.4616 380.381ZM35.3906 380.381C35.3906 378.671 36.4908 377.611 37.961 377.611C39.4312 377.611 40.5314 378.671 40.5314 380.381C40.5314 382.081 39.4312 383.151 37.961 383.151C36.4908 383.151 35.3906 382.081 35.3906 380.381ZM42.8331 383.872H43.7432V379.141H44.8934V378.391H43.7432V378.001C43.7432 377.291 44.0133 376.99 44.8334 376.99V376.23C43.4332 376.23 42.8331 376.78 42.8331 378.001V378.391H42.123V379.141H42.8331V383.872ZM46.1246 383.872H47.0348V379.141H48.185V378.391H47.0348V378.001C47.0348 377.291 47.3048 376.99 48.125 376.99V376.23C46.7247 376.23 46.1246 376.78 46.1246 378.001V378.391H45.4145V379.141H46.1246V383.872ZM51.5765 379.071C52.5167 379.071 53.3168 379.661 53.3068 380.731H49.8463C49.9463 379.661 50.6864 379.071 51.5765 379.071ZM54.1369 382.181H53.1568C52.9568 382.771 52.4367 383.191 51.6165 383.191C50.6864 383.191 49.9063 382.581 49.8363 381.471H54.217C54.237 381.281 54.247 381.121 54.247 380.921C54.247 379.421 53.2068 378.301 51.6165 378.301C50.0163 378.301 48.9061 379.391 48.9061 381.121C48.9061 382.861 50.0563 383.962 51.6165 383.962C52.9768 383.962 53.8569 383.181 54.1369 382.181ZM56.3585 380.891C56.3585 379.621 57.0186 379.231 57.8887 379.231H58.1288V378.291C57.2586 378.291 56.6685 378.671 56.3585 379.281V378.391H55.4483V383.872H56.3585V380.891ZM62.756 380.211V377.651H64.0962C65.1364 377.651 65.5764 378.131 65.5764 378.941C65.5764 379.721 65.1364 380.211 64.0962 380.211H62.756ZM66.5066 378.941C66.5066 377.801 65.7365 376.9 64.0962 376.9H61.8458V383.872H62.756V380.961H64.0962C65.8265 380.961 66.5066 380.001 66.5066 378.941ZM68.5479 380.891C68.5479 379.621 69.208 379.231 70.0782 379.231H70.3182V378.291C69.4481 378.291 68.858 378.671 68.5479 379.281V378.391H67.6378V383.872H68.5479V380.891ZM71.3689 383.872H72.279V378.391H71.3689V383.872ZM71.8389 377.501C72.169 377.501 72.439 377.231 72.439 376.88C72.439 376.53 72.169 376.26 71.8389 376.26C71.4889 376.26 71.2188 376.53 71.2188 376.88C71.2188 377.231 71.4889 377.501 71.8389 377.501ZM73.4901 381.121C73.4901 382.861 74.6003 383.962 76.1606 383.962C77.5208 383.962 78.4109 383.201 78.691 382.111H77.7108C77.5108 382.801 76.9707 383.191 76.1606 383.191C75.1604 383.191 74.4203 382.481 74.4203 381.121C74.4203 379.781 75.1604 379.071 76.1606 379.071C76.9707 379.071 77.5208 379.491 77.7108 380.151H78.691C78.4109 379.001 77.5208 378.301 76.1606 378.301C74.6003 378.301 73.4901 379.401 73.4901 381.121ZM82.2358 379.071C83.1759 379.071 83.976 379.661 83.966 380.731H80.5055C80.6055 379.661 81.3456 379.071 82.2358 379.071ZM84.7962 382.181H83.816C83.616 382.771 83.0959 383.191 82.2758 383.191C81.3456 383.191 80.5655 382.581 80.4955 381.471H84.8762C84.8962 381.281 84.9062 381.121 84.9062 380.921C84.9062 379.421 83.866 378.301 82.2758 378.301C80.6755 378.301 79.5653 379.391 79.5653 381.121C79.5653 382.861 80.7155 383.962 82.2758 383.962C83.636 383.962 84.5161 383.181 84.7962 382.181Z" fill="#666666"/>
<path d="M42.1328 349.845C42.1328 347.765 40.5625 346.295 38.5822 346.295C36.6219 346.295 35.0316 347.765 35.0316 349.845C35.0316 351.935 36.6219 353.406 38.5822 353.406C40.5625 353.406 42.1328 351.935 42.1328 349.845ZM36.2018 349.845C36.2018 348.275 37.202 347.295 38.5822 347.295C39.9624 347.295 40.9626 348.275 40.9626 349.845C40.9626 351.415 39.9624 352.416 38.5822 352.416C37.202 352.416 36.2018 351.415 36.2018 349.845ZM43.3948 353.336H44.5449V348.755H45.5651V347.825H44.5449V347.435C44.5449 346.805 44.785 346.565 45.4851 346.565V345.614C44.0449 345.614 43.3948 346.165 43.3948 347.435V347.825H42.7447V348.755H43.3948V353.336ZM46.7156 353.336H47.8658V348.755H48.886V347.825H47.8658V347.435C47.8658 346.805 48.1058 346.565 48.8059 346.565V345.614C47.3657 345.614 46.7156 346.165 46.7156 347.435V347.825H46.0655V348.755H46.7156V353.336ZM52.2168 348.695C53.0669 348.695 53.737 349.235 53.7571 350.085H50.7066C50.8266 349.215 51.4467 348.695 52.2168 348.695ZM54.7972 351.695H53.567C53.357 352.125 52.9669 352.466 52.2668 352.466C51.4267 352.466 50.7766 351.915 50.6966 351.005H54.9072C54.9372 350.815 54.9472 350.635 54.9472 350.445C54.9472 348.825 53.8371 347.735 52.2668 347.735C50.6366 347.735 49.5164 348.845 49.5164 350.575C49.5164 352.306 50.6866 353.426 52.2668 353.426C53.617 353.426 54.4872 352.656 54.7972 351.695ZM57.2095 350.435C57.2095 349.265 57.7296 348.915 58.5697 348.915H58.8597V347.735C58.0796 347.735 57.5295 348.075 57.2095 348.625V347.825H56.0693V353.336H57.2095V350.435ZM63.6461 349.585V347.315H64.9063C65.7964 347.315 66.1965 347.735 66.1965 348.455C66.1965 349.155 65.7964 349.585 64.9063 349.585H63.6461ZM67.3667 348.455C67.3667 347.325 66.5565 346.385 64.9063 346.385H62.5059V353.336H63.6461V350.515H64.9063C66.7166 350.515 67.3667 349.445 67.3667 348.455ZM69.5943 350.435C69.5943 349.265 70.1144 348.915 70.9545 348.915H71.2445V347.735C70.4644 347.735 69.9143 348.075 69.5943 348.625V347.825H68.4541V353.336H69.5943V350.435ZM72.2926 353.336H73.4328V347.825H72.2926V353.336ZM72.8727 347.095C73.2728 347.095 73.5928 346.775 73.5928 346.365C73.5928 345.954 73.2728 345.634 72.8727 345.634C72.4626 345.634 72.1426 345.954 72.1426 346.365C72.1426 346.775 72.4626 347.095 72.8727 347.095ZM74.5497 350.575C74.5497 352.306 75.6699 353.426 77.2501 353.426C78.6003 353.426 79.4805 352.676 79.7905 351.595H78.5603C78.3503 352.165 77.9302 352.466 77.2501 352.466C76.33 352.466 75.7199 351.785 75.7199 350.575C75.7199 349.375 76.33 348.695 77.2501 348.695C77.9302 348.695 78.3703 349.035 78.5603 349.565H79.7905C79.4805 348.405 78.6003 347.735 77.2501 347.735C75.6699 347.735 74.5497 348.855 74.5497 350.575ZM83.2472 348.695C84.0973 348.695 84.7674 349.235 84.7874 350.085H81.7369C81.857 349.215 82.4771 348.695 83.2472 348.695ZM85.8276 351.695H84.5974C84.3874 352.125 83.9973 352.466 83.2972 352.466C82.457 352.466 81.8069 351.915 81.7269 351.005H85.9376C85.9676 350.815 85.9776 350.635 85.9776 350.445C85.9776 348.825 84.8674 347.735 83.2972 347.735C81.6669 347.735 80.5467 348.845 80.5467 350.575C80.5467 352.306 81.7169 353.426 83.2972 353.426C84.6474 353.426 85.5175 352.656 85.8276 351.695Z" fill="#1D9AAC"/>
<path d="M362.902 362.079H39.9905C29.8765 362.079 21.6776 370.278 21.6776 380.392V380.393C21.6776 390.507 29.8765 398.706 39.9905 398.706H362.902C373.016 398.706 381.215 390.507 381.215 380.393V380.392C381.215 370.278 373.016 362.079 362.902 362.079Z" stroke="#969696" stroke-width="0.516" stroke-miterlimit="10"/>
<path d="M34.3704 445.578H36.2807V451.809H37.1909V445.578H39.0912V444.838H34.3704V445.578ZM39.8715 449.049C39.8715 450.749 41.0016 451.9 42.4619 451.9C43.472 451.9 44.1821 451.379 44.5122 450.789V451.809H45.4323V446.329H44.5122V447.329C44.1921 446.759 43.492 446.239 42.4719 446.239C41.0016 446.239 39.8715 447.339 39.8715 449.049ZM44.5122 449.059C44.5122 450.349 43.6521 451.099 42.6519 451.099C41.6517 451.099 40.8016 450.339 40.8016 449.049C40.8016 447.759 41.6517 447.029 42.6519 447.029C43.6521 447.029 44.5122 447.789 44.5122 449.059ZM46.6304 449.049C46.6304 450.749 47.7605 451.9 49.2308 451.9C50.2309 451.9 50.941 451.369 51.2711 450.779V451.93C51.2711 453.1 50.541 453.72 49.5708 453.72C48.6707 453.72 48.0206 453.27 47.8205 452.61H46.9204C47.1004 453.78 48.1306 454.51 49.5708 454.51C51.1811 454.51 52.1912 453.44 52.1912 451.93V446.329H51.2711V447.329C50.951 446.739 50.2309 446.239 49.2308 446.239C47.7605 446.239 46.6304 447.339 46.6304 449.049ZM51.2711 449.059C51.2711 450.349 50.411 451.099 49.4108 451.099C48.4106 451.099 47.5605 450.339 47.5605 449.049C47.5605 447.759 48.4106 447.029 49.4108 447.029C50.411 447.029 51.2711 447.789 51.2711 449.059ZM57.6699 450.319C57.6299 448.359 54.4494 449.069 54.4494 447.769C54.4494 447.329 54.8495 447.009 55.5196 447.009C56.2497 447.009 56.6698 447.409 56.7098 447.959H57.6199C57.5599 446.889 56.7598 446.239 55.5496 446.239C54.3294 446.239 53.5393 446.929 53.5393 447.769C53.5393 449.809 56.7798 449.099 56.7798 450.319C56.7798 450.769 56.3797 451.129 55.6596 451.129C54.8895 451.129 54.4194 450.729 54.3694 450.199H53.4293C53.4893 451.199 54.3894 451.9 55.6696 451.9C56.8798 451.9 57.6699 451.219 57.6699 450.319Z" fill="#666666"/>
<path d="M36.5519 417.524V415.254H37.8121C38.7022 415.254 39.1023 415.674 39.1023 416.394C39.1023 417.094 38.7022 417.524 37.8121 417.524H36.5519ZM40.2725 416.394C40.2725 415.264 39.4623 414.323 37.8121 414.323H35.4117V421.275H36.5519V418.454H37.8121C39.6224 418.454 40.2725 417.384 40.2725 416.394ZM42.5001 418.374C42.5001 417.204 43.0202 416.854 43.8603 416.854H44.1504V415.674C43.3702 415.674 42.8201 416.014 42.5001 416.564V415.764H41.3599V421.275H42.5001V418.374ZM50.4493 418.514C50.4493 416.784 49.2091 415.674 47.6388 415.674C46.0686 415.674 44.8284 416.784 44.8284 418.514C44.8284 420.244 46.0185 421.365 47.5888 421.365C49.1691 421.365 50.4493 420.244 50.4493 418.514ZM45.9885 418.514C45.9885 417.264 46.7587 416.664 47.6188 416.664C48.4689 416.664 49.2791 417.264 49.2791 418.514C49.2791 419.764 48.4389 420.374 47.5888 420.374C46.7287 420.374 45.9885 419.764 45.9885 418.514ZM51.1963 418.494C51.1963 420.194 52.3465 421.365 53.7967 421.365C54.6969 421.365 55.357 420.945 55.7071 420.444V421.275H56.8572V413.873H55.7071V416.534C55.287 416.014 54.5269 415.674 53.8067 415.674C52.3465 415.674 51.1963 416.794 51.1963 418.494ZM55.7071 418.514C55.7071 419.704 54.8969 420.374 54.0368 420.374C53.1866 420.374 52.3665 419.684 52.3665 418.494C52.3665 417.304 53.1866 416.664 54.0368 416.664C54.8969 416.664 55.7071 417.334 55.7071 418.514ZM63.3456 415.764H62.2054V418.834C62.2054 419.844 61.6554 420.364 60.8152 420.364C59.9851 420.364 59.435 419.844 59.435 418.834V415.764H58.3048V419.004C58.3048 420.544 59.285 421.355 60.5752 421.355C61.2253 421.355 61.8454 421.085 62.2054 420.614V421.275H63.3456V415.764ZM64.4699 418.514C64.4699 420.244 65.5901 421.365 67.1704 421.365C68.5206 421.365 69.4007 420.614 69.7108 419.534H68.4806C68.2706 420.104 67.8505 420.404 67.1704 420.404C66.2502 420.404 65.6401 419.724 65.6401 418.514C65.6401 417.314 66.2502 416.634 67.1704 416.634C67.8505 416.634 68.2906 416.974 68.4806 417.504H69.7108C69.4007 416.344 68.5206 415.674 67.1704 415.674C65.5901 415.674 64.4699 416.794 64.4699 418.514ZM71.0271 419.744C71.0271 420.865 71.6372 421.275 72.6173 421.275H73.5175V420.324H72.8174C72.3373 420.324 72.1773 420.154 72.1773 419.744V416.694H73.5175V415.764H72.1773V414.393H71.0271V415.764H70.377V416.694H71.0271V419.744ZM76.8064 415.254H78.6667V421.275H79.8069V415.254H81.6572V414.323H76.8064V415.254ZM82.4318 418.494C82.4318 420.194 83.582 421.365 85.0122 421.365C85.9324 421.365 86.5925 420.925 86.9425 420.454V421.275H88.0927V415.764H86.9425V416.564C86.6025 416.114 85.9624 415.674 85.0322 415.674C83.582 415.674 82.4318 416.794 82.4318 418.494ZM86.9425 418.514C86.9425 419.704 86.1324 420.374 85.2723 420.374C84.4221 420.374 83.602 419.684 83.602 418.494C83.602 417.304 84.4221 416.664 85.2723 416.664C86.1324 416.664 86.9425 417.334 86.9425 418.514ZM89.2102 418.494C89.2102 420.194 90.3604 421.365 91.8107 421.365C92.7108 421.365 93.3709 420.915 93.721 420.444V421.365C93.721 422.465 93.0609 423.005 92.1807 423.005C91.3906 423.005 90.7805 422.615 90.6105 422.045H89.4803C89.6203 423.265 90.7105 423.995 92.1807 423.995C93.901 423.995 94.8711 422.865 94.8711 421.365V415.764H93.721V416.564C93.3809 416.094 92.7108 415.674 91.8107 415.674C90.3604 415.674 89.2102 416.794 89.2102 418.494ZM93.721 418.514C93.721 419.704 92.9108 420.374 92.0507 420.374C91.2006 420.374 90.3804 419.684 90.3804 418.494C90.3804 417.304 91.2006 416.664 92.0507 416.664C92.9108 416.664 93.721 417.334 93.721 418.514ZM100.479 419.734C100.419 417.744 97.3089 418.364 97.3089 417.254C97.3089 416.884 97.6289 416.634 98.239 416.634C98.8591 416.634 99.2292 416.964 99.2692 417.444H100.409C100.349 416.344 99.5292 415.674 98.279 415.674C96.9788 415.674 96.1587 416.384 96.1587 417.264C96.1587 419.284 99.3592 418.664 99.3592 419.744C99.3592 420.124 99.0092 420.404 98.3491 420.404C97.7189 420.404 97.2889 420.034 97.2489 419.584H96.0687C96.1187 420.584 97.0488 421.365 98.3691 421.365C99.6693 421.365 100.479 420.664 100.479 419.734Z" fill="#1D9AAC"/>
<path d="M362.902 430.018H39.9905C29.8765 430.018 21.6776 438.217 21.6776 448.331V448.332C21.6776 458.446 29.8765 466.645 39.9905 466.645H362.902C373.016 466.645 381.215 458.446 381.215 448.332V448.331C381.215 438.217 373.016 430.018 362.902 430.018Z" stroke="#969696" stroke-width="0.516" stroke-miterlimit="10"/>
<path d="M36.1728 515.899V518.529H37.083V515.899L39.3533 511.558H38.3432L36.6229 515.089L34.9026 511.558H33.8925L36.1728 515.899ZM45.5142 515.779C45.5142 514.048 44.304 512.958 42.7437 512.958C41.1935 512.958 39.9733 514.048 39.9733 515.779C39.9733 517.519 41.1535 518.619 42.7037 518.619C44.264 518.619 45.5142 517.519 45.5142 515.779ZM40.9034 515.779C40.9034 514.399 41.7736 513.748 42.7337 513.748C43.6739 513.748 44.584 514.399 44.584 515.779C44.584 517.169 43.6539 517.819 42.7037 517.819C41.7536 517.819 40.9034 517.169 40.9034 515.779ZM51.5716 513.048H50.6615V516.059C50.6615 517.239 50.0314 517.819 49.0912 517.819C48.1711 517.819 47.561 517.249 47.561 516.139V513.048H46.6608V516.259C46.6608 517.829 47.651 518.609 48.9112 518.609C49.6413 518.609 50.3114 518.289 50.6615 517.719V518.529H51.5716V513.048ZM52.6783 512.298H54.5886V518.529H55.4987V512.298H57.399V511.558H52.6783V512.298ZM63.3802 513.048H62.47V516.059C62.47 517.239 61.8399 517.819 60.8998 517.819C59.9796 517.819 59.3695 517.249 59.3695 516.139V513.048H58.4694V516.259C58.4694 517.829 59.4595 518.609 60.7197 518.609C61.4498 518.609 62.12 518.289 62.47 517.719V518.529H63.3802V513.048ZM65.827 514.068V511.128H64.9169V518.529H65.827V517.519C66.1671 518.119 66.8772 518.619 67.8774 518.619C69.3476 518.619 70.4778 517.469 70.4778 515.769C70.4778 514.058 69.3576 512.958 67.8774 512.958C66.9072 512.958 66.1771 513.458 65.827 514.068ZM69.5476 515.769C69.5476 517.059 68.6975 517.819 67.6873 517.819C66.6972 517.819 65.827 517.069 65.827 515.779C65.827 514.509 66.6972 513.748 67.6873 513.748C68.6975 513.748 69.5476 514.479 69.5476 515.769ZM74.0062 513.728C74.9463 513.728 75.7464 514.319 75.7364 515.389H72.2759C72.3759 514.319 73.116 513.728 74.0062 513.728ZM76.5666 516.839H75.5864C75.3864 517.429 74.8663 517.849 74.0462 517.849C73.116 517.849 72.3359 517.239 72.2659 516.129H76.6466C76.6666 515.939 76.6766 515.779 76.6766 515.579C76.6766 514.078 75.6364 512.958 74.0462 512.958C72.4459 512.958 71.3357 514.048 71.3357 515.779C71.3357 517.519 72.4859 518.619 74.0462 518.619C75.4064 518.619 76.2865 517.839 76.5666 516.839ZM80.5244 515.959C80.5244 517.769 81.7046 518.599 83.1448 518.599C84.585 518.599 85.7752 517.769 85.7752 515.959V511.558H84.8651V515.969C84.8651 517.249 84.185 517.799 83.1548 517.799C82.1247 517.799 81.4345 517.249 81.4345 515.969V511.558H80.5244V515.959ZM88.2037 515.549C88.2037 514.279 88.8638 513.888 89.7339 513.888H89.974V512.948C89.1038 512.948 88.5137 513.328 88.2037 513.938V513.048H87.2935V518.529H88.2037V515.549ZM91.0246 518.529H91.9347V511.128H91.0246V518.529Z" fill="#666666"/>
<path d="M36.2237 484.244V481.973H37.4839C38.374 481.973 38.7741 482.393 38.7741 483.113C38.7741 483.814 38.374 484.244 37.4839 484.244H36.2237ZM39.9443 483.113C39.9443 481.983 39.1342 481.043 37.4839 481.043H35.0835V487.994H36.2237V485.174H37.4839C39.2942 485.174 39.9443 484.104 39.9443 483.113ZM42.1719 485.094C42.1719 483.924 42.692 483.574 43.5321 483.574H43.8222V482.393C43.0421 482.393 42.492 482.733 42.1719 483.284V482.483H41.0317V487.994H42.1719V485.094ZM50.1211 485.234C50.1211 483.504 48.8809 482.393 47.3106 482.393C45.7404 482.393 44.5002 483.504 44.5002 485.234C44.5002 486.964 45.6904 488.084 47.2606 488.084C48.8409 488.084 50.1211 486.964 50.1211 485.234ZM45.6604 485.234C45.6604 483.984 46.4305 483.384 47.2906 483.384C48.1408 483.384 48.9509 483.984 48.9509 485.234C48.9509 486.484 48.1108 487.094 47.2606 487.094C46.4005 487.094 45.6604 486.484 45.6604 485.234ZM50.8682 485.214C50.8682 486.914 52.0183 488.084 53.4686 488.084C54.3687 488.084 55.0288 487.664 55.3789 487.164V487.994H56.5291V480.593H55.3789V483.254C54.9588 482.733 54.1987 482.393 53.4786 482.393C52.0183 482.393 50.8682 483.514 50.8682 485.214ZM55.3789 485.234C55.3789 486.424 54.5687 487.094 53.7086 487.094C52.8585 487.094 52.0383 486.404 52.0383 485.214C52.0383 484.024 52.8585 483.384 53.7086 483.384C54.5687 483.384 55.3789 484.054 55.3789 485.234ZM63.0174 482.483H61.8773V485.554C61.8773 486.564 61.3272 487.084 60.487 487.084C59.6569 487.084 59.1068 486.564 59.1068 485.554V482.483H57.9766V485.724C57.9766 487.264 58.9568 488.074 60.247 488.074C60.8971 488.074 61.5172 487.804 61.8773 487.334V487.994H63.0174V482.483ZM64.1418 485.234C64.1418 486.964 65.2619 488.084 66.8422 488.084C68.1924 488.084 69.0726 487.334 69.3826 486.254H68.1524C67.9424 486.824 67.5223 487.124 66.8422 487.124C65.9221 487.124 65.312 486.444 65.312 485.234C65.312 484.034 65.9221 483.354 66.8422 483.354C67.5223 483.354 67.9624 483.694 68.1524 484.224H69.3826C69.0726 483.063 68.1924 482.393 66.8422 482.393C65.2619 482.393 64.1418 483.514 64.1418 485.234ZM70.6989 486.464C70.6989 487.584 71.309 487.994 72.2892 487.994H73.1893V487.044H72.4892C72.0091 487.044 71.8491 486.874 71.8491 486.464V483.414H73.1893V482.483H71.8491V481.113H70.6989V482.483H70.0488V483.414H70.6989V486.464ZM78.5485 485.474V487.994H79.6887V485.474L81.9891 481.043H80.7289L79.1186 484.454L77.5084 481.043H76.2382L78.5485 485.474ZM88.1448 485.234C88.1448 483.504 86.9046 482.393 85.3343 482.393C83.7641 482.393 82.5239 483.504 82.5239 485.234C82.5239 486.964 83.714 488.084 85.2843 488.084C86.8646 488.084 88.1448 486.964 88.1448 485.234ZM83.684 485.234C83.684 483.984 84.4542 483.384 85.3143 483.384C86.1644 483.384 86.9746 483.984 86.9746 485.234C86.9746 486.484 86.1344 487.094 85.2843 487.094C84.4242 487.094 83.684 486.484 83.684 485.234ZM94.2627 482.483H93.1225V485.554C93.1225 486.564 92.5724 487.084 91.7323 487.084C90.9022 487.084 90.3521 486.564 90.3521 485.554V482.483H89.2219V485.724C89.2219 487.264 90.202 488.074 91.4922 488.074C92.1424 488.074 92.7625 487.804 93.1225 487.334V487.994H94.2627V482.483ZM95.407 481.973H97.2673V487.994H98.4075V481.973H100.258V481.043H95.407V481.973ZM106.403 482.483H105.263V485.554C105.263 486.564 104.713 487.084 103.873 487.084C103.043 487.084 102.493 486.564 102.493 485.554V482.483H101.363V485.724C101.363 487.264 102.343 488.074 103.633 488.074C104.283 488.074 104.903 487.804 105.263 487.334V487.994H106.403V482.483ZM109.048 483.304V480.593H107.908V487.994H109.048V487.194C109.408 487.674 110.058 488.084 110.968 488.084C112.418 488.084 113.559 486.914 113.559 485.214C113.559 483.514 112.428 482.393 110.968 482.393C110.098 482.393 109.408 482.803 109.048 483.304ZM112.398 485.214C112.398 486.404 111.578 487.094 110.718 487.094C109.868 487.094 109.048 486.424 109.048 485.234C109.048 484.054 109.868 483.384 110.718 483.384C111.578 483.384 112.398 484.024 112.398 485.214ZM117.006 483.354C117.857 483.354 118.527 483.894 118.547 484.744H115.496C115.616 483.874 116.236 483.354 117.006 483.354ZM119.587 486.354H118.357C118.147 486.784 117.757 487.124 117.057 487.124C116.216 487.124 115.566 486.574 115.486 485.664H119.697C119.727 485.474 119.737 485.294 119.737 485.104C119.737 483.484 118.627 482.393 117.057 482.393C115.426 482.393 114.306 483.504 114.306 485.234C114.306 486.964 115.476 488.084 117.057 488.084C118.407 488.084 119.277 487.314 119.587 486.354ZM123.447 485.454C123.447 487.224 124.687 488.064 126.147 488.064C127.598 488.064 128.878 487.224 128.878 485.454V481.043H127.738V485.474C127.738 486.554 127.128 487.064 126.157 487.064C125.197 487.064 124.587 486.554 124.587 485.474V481.043H123.447V485.454ZM131.503 485.094C131.503 483.924 132.023 483.574 132.863 483.574H133.153V482.393C132.373 482.393 131.823 482.733 131.503 483.284V482.483H130.362V487.994H131.503V485.094ZM134.201 487.994H135.341V480.593H134.201V487.994Z" fill="#1D9AAC"/>
<path d="M362.574 496.738H39.6623C29.5484 496.738 21.3494 504.937 21.3494 515.051V515.052C21.3494 525.166 29.5484 533.365 39.6623 533.365H362.574C372.688 533.365 380.887 525.166 380.887 515.052V515.051C380.887 504.937 372.688 496.738 362.574 496.738Z" stroke="#969696" stroke-width="0.516" stroke-miterlimit="10"/>
<path d="M38.8842 740.13C38.8842 740.962 38.2842 741.474 37.26 741.474H35.8038V738.786H37.244C38.2681 738.786 38.8842 739.314 38.8842 740.13ZM38.7562 737.377C38.7562 738.137 38.2601 738.626 37.308 738.626H35.8038V736.161H37.26C38.3162 736.161 38.7562 736.673 38.7562 737.377ZM39.0443 740.13C39.0443 739.386 38.5242 738.826 37.8681 738.706C38.4122 738.586 38.9163 738.177 38.9163 737.377C38.9163 736.609 38.4362 736.001 37.26 736.001H35.6437V741.634H37.26C38.4762 741.634 39.0443 740.962 39.0443 740.13ZM40.281 739.066C40.281 737.785 41.1372 737.393 41.9133 737.393H41.9853V737.217C41.0172 737.217 40.4491 737.609 40.281 738.362V737.313H40.121V741.634H40.281V739.066ZM42.8246 741.634H42.9846V737.313H42.8246V741.634ZM42.9046 736.209C43.0166 736.209 43.1126 736.129 43.1126 735.993C43.1126 735.857 43.0166 735.777 42.9046 735.777C42.7926 735.777 42.6965 735.857 42.6965 735.993C42.6965 736.129 42.7926 736.209 42.9046 736.209ZM46.2285 737.401C47.1887 737.401 48.1489 738.009 48.0688 739.402H44.3082C44.3082 738.025 45.2444 737.401 46.2285 737.401ZM48.2129 740.17H48.0528C47.9168 741.026 47.1887 741.546 46.2285 741.546C45.2604 741.546 44.3322 740.93 44.3082 739.546H48.2049C48.2129 739.402 48.2129 739.322 48.2129 739.114C48.2129 738.209 47.5488 737.257 46.2285 737.257C45.0284 737.257 44.1482 738.081 44.1482 739.474C44.1482 740.866 45.0284 741.69 46.2285 741.69C47.3487 741.69 48.0688 741.058 48.2129 740.17ZM49.5565 741.634H49.7165V737.481H50.9567V737.313H49.7165V737.009C49.7165 736.233 50.0046 735.873 50.9567 735.873V735.713C49.9086 735.713 49.5565 736.169 49.5565 737.009V737.313H48.8524V737.481H49.5565V741.634ZM55.7207 736.001H54.2405V741.634H55.7207C57.681 741.634 58.6972 740.594 58.6972 738.818C58.6972 737.041 57.681 736.001 55.7207 736.001ZM54.4005 741.49V736.145H55.7207C57.609 736.145 58.5371 737.169 58.5371 738.818C58.5371 740.466 57.609 741.49 55.7207 741.49H54.4005ZM61.7389 737.401C62.699 737.401 63.6592 738.009 63.5791 739.402H59.8185C59.8185 738.025 60.7547 737.401 61.7389 737.401ZM63.7232 740.17H63.5631C63.4271 741.026 62.699 741.546 61.7389 741.546C60.7707 741.546 59.8425 740.93 59.8185 739.546H63.7152C63.7232 739.402 63.7232 739.322 63.7232 739.114C63.7232 738.209 63.0591 737.257 61.7389 737.257C60.5387 737.257 59.6585 738.081 59.6585 739.474C59.6585 740.866 60.5387 741.69 61.7389 741.69C62.859 741.69 63.5791 741.058 63.7232 740.17ZM65.0668 740.498C65.0668 741.338 65.3789 741.634 66.115 741.634H66.5871V741.474H66.131C65.4749 741.474 65.2268 741.274 65.2268 740.498V737.473H66.5871V737.313H65.2268V736.209H65.0668V737.313H64.3627V737.473H65.0668V740.498ZM67.3863 739.474C67.3863 740.85 68.2505 741.69 69.4907 741.69C70.5228 741.69 71.2189 741.082 71.443 740.314V741.634H71.595V737.313H71.443V738.634C71.2189 737.865 70.5228 737.257 69.4907 737.257C68.2505 737.257 67.3863 738.097 67.3863 739.474ZM71.443 739.474C71.443 740.722 70.6188 741.546 69.4907 741.546C68.3065 741.546 67.5463 740.762 67.5463 739.474C67.5463 738.185 68.3065 737.401 69.4907 737.401C70.6188 737.401 71.443 738.225 71.443 739.474ZM72.9544 741.634H73.1144V737.313H72.9544V741.634ZM73.0344 736.209C73.1464 736.209 73.2424 736.129 73.2424 735.993C73.2424 735.857 73.1464 735.777 73.0344 735.777C72.9224 735.777 72.8264 735.857 72.8264 735.993C72.8264 736.129 72.9224 736.209 73.0344 736.209ZM74.4781 741.634H74.6381V735.713H74.4781V741.634ZM78.7302 740.554C78.7302 739.058 76.0338 739.85 76.0338 738.338C76.0338 737.841 76.5379 737.401 77.226 737.401C78.0901 737.401 78.5222 737.889 78.5542 738.498H78.7142C78.6662 737.713 78.0901 737.257 77.226 737.257C76.4418 737.257 75.8737 737.761 75.8737 738.338C75.8737 740.002 78.5782 739.226 78.5782 740.554C78.5782 741.082 78.1301 741.546 77.402 741.546C76.4578 741.546 75.9618 741.154 75.8977 740.53H75.7377C75.8337 741.338 76.4818 741.69 77.394 741.69C78.1461 741.69 78.7302 741.21 78.7302 740.554ZM81.9902 739.474C81.9902 740.85 82.8544 741.69 84.0946 741.69C85.1267 741.69 85.8228 741.082 86.0469 740.314V741.634H86.1989V737.313H86.0469V738.634C85.8228 737.865 85.1267 737.257 84.0946 737.257C82.8544 737.257 81.9902 738.097 81.9902 739.474ZM86.0469 739.474C86.0469 740.722 85.2227 741.546 84.0946 741.546C82.9104 741.546 82.1503 740.762 82.1503 739.474C82.1503 738.185 82.9104 737.401 84.0946 737.401C85.2227 737.401 86.0469 738.225 86.0469 739.474ZM87.7103 738.634V735.713H87.5583V741.634H87.7103V740.314C87.9424 741.082 88.6305 741.69 89.6626 741.69C90.9028 741.69 91.767 740.85 91.767 739.474C91.767 738.097 90.9028 737.257 89.6626 737.257C88.6305 737.257 87.9584 737.865 87.7103 738.634ZM91.607 739.474C91.607 740.762 90.8468 741.546 89.6626 741.546C88.5345 741.546 87.7103 740.722 87.7103 739.474C87.7103 738.225 88.5345 737.401 89.6626 737.401C90.8468 737.401 91.607 738.185 91.607 739.474ZM96.943 739.474C96.943 738.081 96.0389 737.257 94.8387 737.257C93.6385 737.257 92.7263 738.081 92.7263 739.474C92.7263 740.866 93.6385 741.69 94.8387 741.69C96.0389 741.69 96.943 740.866 96.943 739.474ZM92.8863 739.474C92.8863 738.041 93.8465 737.401 94.8387 737.401C95.8308 737.401 96.783 738.041 96.783 739.474C96.783 740.906 95.8308 741.546 94.8387 741.546C93.8465 741.546 92.8863 740.906 92.8863 739.474ZM101.659 737.313H101.499V739.594C101.499 740.946 100.787 741.57 99.8031 741.57C98.851 741.57 98.2189 740.986 98.2189 739.834V737.313H98.0669V739.818C98.0669 741.154 98.859 741.714 99.8031 741.714C100.611 741.714 101.299 741.306 101.499 740.458V741.634H101.659V737.313ZM103.206 740.498C103.206 741.338 103.518 741.634 104.254 741.634H104.726V741.474H104.27C103.614 741.474 103.366 741.274 103.366 740.498V737.473H104.726V737.313H103.366V736.209H103.206V737.313H102.502V737.473H103.206V740.498ZM108.23 740.498C108.23 741.338 108.542 741.634 109.278 741.634H109.75V741.474H109.294C108.638 741.474 108.39 741.274 108.39 740.498V737.473H109.75V737.313H108.39V736.209H108.23V737.313H107.526V737.473H108.23V740.498ZM110.75 741.634H110.91V739.338C110.91 737.985 111.622 737.361 112.606 737.361C113.558 737.361 114.19 737.945 114.19 739.098V741.634H114.342V739.114C114.342 737.777 113.55 737.217 112.606 737.217C111.798 737.217 111.118 737.617 110.91 738.458V735.713H110.75V741.634ZM117.545 737.401C118.505 737.401 119.465 738.009 119.385 739.402H115.624C115.624 738.025 116.561 737.401 117.545 737.401ZM119.529 740.17H119.369C119.233 741.026 118.505 741.546 117.545 741.546C116.577 741.546 115.648 740.93 115.624 739.546H119.521C119.529 739.402 119.529 739.322 119.529 739.114C119.529 738.209 118.865 737.257 117.545 737.257C116.344 737.257 115.464 738.081 115.464 739.474C115.464 740.866 116.344 741.69 117.545 741.69C118.665 741.69 119.385 741.058 119.529 740.17ZM123.169 738.93V736.161H124.434C125.642 736.161 126.074 736.681 126.074 737.553C126.074 738.386 125.642 738.93 124.434 738.93H123.169ZM126.234 737.553C126.234 736.617 125.714 736.001 124.434 736.001H123.009V741.634H123.169V739.098H124.434C125.602 739.098 126.234 738.594 126.234 737.553ZM127.397 739.066C127.397 737.785 128.253 737.393 129.029 737.393H129.101V737.217C128.133 737.217 127.565 737.609 127.397 738.362V737.313H127.237V741.634H127.397V739.066ZM133.957 739.474C133.957 738.081 133.053 737.257 131.852 737.257C130.652 737.257 129.74 738.081 129.74 739.474C129.74 740.866 130.652 741.69 131.852 741.69C133.053 741.69 133.957 740.866 133.957 739.474ZM129.9 739.474C129.9 738.041 130.86 737.401 131.852 737.401C132.845 737.401 133.797 738.041 133.797 739.474C133.797 740.906 132.845 741.546 131.852 741.546C130.86 741.546 129.9 740.906 129.9 739.474ZM134.921 739.474C134.921 740.85 135.785 741.69 137.025 741.69C138.057 741.69 138.753 741.082 138.977 740.306V741.634H139.129V735.713H138.977V738.634C138.753 737.865 138.057 737.257 137.025 737.257C135.785 737.257 134.921 738.097 134.921 739.474ZM138.977 739.474C138.977 740.722 138.153 741.546 137.025 741.546C135.841 741.546 135.081 740.762 135.081 739.474C135.081 738.185 135.841 737.401 137.025 737.401C138.153 737.401 138.977 738.225 138.977 739.474ZM144.041 737.313H143.881V739.594C143.881 740.946 143.169 741.57 142.185 741.57C141.233 741.57 140.601 740.986 140.601 739.834V737.313H140.449V739.818C140.449 741.154 141.241 741.714 142.185 741.714C142.993 741.714 143.681 741.306 143.881 740.458V741.634H144.041V737.313ZM145.203 739.474C145.203 740.866 146.084 741.69 147.284 741.69C148.404 741.69 149.124 741.058 149.268 740.17H149.108C148.972 741.026 148.244 741.546 147.284 741.546C146.292 741.546 145.364 740.906 145.364 739.474C145.364 738.041 146.292 737.401 147.284 737.401C148.244 737.401 148.972 737.921 149.108 738.778H149.268C149.124 737.889 148.404 737.257 147.284 737.257C146.084 737.257 145.203 738.081 145.203 739.474ZM150.612 740.498C150.612 741.338 150.924 741.634 151.66 741.634H152.132V741.474H151.676C151.02 741.474 150.772 741.274 150.772 740.498V737.473H152.132V737.313H150.772V736.209H150.612V737.313H149.908V737.473H150.612V740.498Z" fill="#808080"/>
<path d="M39.3893 767.52H39.5734L37.493 762.055H37.333L35.2447 767.52H35.4287L36.0208 765.968H38.8052L39.3893 767.52ZM38.7492 765.824H36.0768L37.413 762.311L38.7492 765.824ZM40.6422 764.52V761.599H40.4902V767.52H40.6422V766.2C40.8743 766.968 41.5624 767.576 42.5945 767.576C43.8347 767.576 44.6989 766.736 44.6989 765.36C44.6989 763.984 43.8347 763.143 42.5945 763.143C41.5624 763.143 40.8903 763.752 40.6422 764.52ZM44.5389 765.36C44.5389 766.648 43.7787 767.432 42.5945 767.432C41.4664 767.432 40.6422 766.608 40.6422 765.36C40.6422 764.112 41.4664 763.287 42.5945 763.287C43.7787 763.287 44.5389 764.072 44.5389 765.36ZM49.8749 765.36C49.8749 763.968 48.9708 763.143 47.7706 763.143C46.5704 763.143 45.6582 763.968 45.6582 765.36C45.6582 766.752 46.5704 767.576 47.7706 767.576C48.9708 767.576 49.8749 766.752 49.8749 765.36ZM45.8182 765.36C45.8182 763.928 46.7784 763.287 47.7706 763.287C48.7627 763.287 49.7149 763.928 49.7149 765.36C49.7149 766.792 48.7627 767.432 47.7706 767.432C46.7784 767.432 45.8182 766.792 45.8182 765.36ZM54.5913 763.199H54.4313V765.48C54.4313 766.832 53.7192 767.456 52.735 767.456C51.7829 767.456 51.1508 766.872 51.1508 765.72V763.199H50.9988V765.704C50.9988 767.04 51.7909 767.6 52.735 767.6C53.5432 767.6 54.2313 767.192 54.4313 766.344V767.52H54.5913V763.199ZM56.1377 766.384C56.1377 767.224 56.4497 767.52 57.1858 767.52H57.6579V767.36H57.2018C56.5457 767.36 56.2977 767.16 56.2977 766.384V763.359H57.6579V763.199H56.2977V762.095H56.1377V763.199H55.4335V763.359H56.1377V766.384ZM61.1619 766.384C61.1619 767.224 61.4739 767.52 62.2101 767.52H62.6821V767.36H62.2261C61.57 767.36 61.3219 767.16 61.3219 766.384V763.359H62.6821V763.199H61.3219V762.095H61.1619V763.199H60.4578V763.359H61.1619V766.384ZM63.6814 767.52H63.8415V765.224C63.8415 763.872 64.5536 763.247 65.5377 763.247C66.4899 763.247 67.122 763.832 67.122 764.984V767.52H67.274V765C67.274 763.664 66.4819 763.103 65.5377 763.103C64.7296 763.103 64.0495 763.503 63.8415 764.344V761.599H63.6814V767.52ZM70.4766 763.287C71.4367 763.287 72.3969 763.896 72.3169 765.288H68.5563C68.5563 763.912 69.4924 763.287 70.4766 763.287ZM72.4609 766.056H72.3009C72.1649 766.912 71.4367 767.432 70.4766 767.432C69.5084 767.432 68.5803 766.816 68.5563 765.432H72.4529C72.4609 765.288 72.4609 765.208 72.4609 765C72.4609 764.096 71.7968 763.143 70.4766 763.143C69.2764 763.143 68.3962 763.968 68.3962 765.36C68.3962 766.752 69.2764 767.576 70.4766 767.576C71.5968 767.576 72.3169 766.944 72.4609 766.056ZM76.1012 764.816V762.047H77.3654C78.5736 762.047 79.0057 762.567 79.0057 763.439C79.0057 764.272 78.5736 764.816 77.3654 764.816H76.1012ZM79.1657 763.439C79.1657 762.503 78.6456 761.887 77.3654 761.887H75.9412V767.52H76.1012V764.984H77.3654C78.5336 764.984 79.1657 764.48 79.1657 763.439ZM80.3285 764.952C80.3285 763.672 81.1846 763.279 81.9607 763.279H82.0327V763.103C81.0646 763.103 80.4965 763.495 80.3285 764.248V763.199H80.1684V767.52H80.3285V764.952ZM86.8887 765.36C86.8887 763.968 85.9845 763.143 84.7843 763.143C83.5841 763.143 82.672 763.968 82.672 765.36C82.672 766.752 83.5841 767.576 84.7843 767.576C85.9845 767.576 86.8887 766.752 86.8887 765.36ZM82.832 765.36C82.832 763.928 83.7922 763.287 84.7843 763.287C85.7765 763.287 86.7286 763.928 86.7286 765.36C86.7286 766.792 85.7765 767.432 84.7843 767.432C83.7922 767.432 82.832 766.792 82.832 765.36ZM87.8525 765.36C87.8525 766.736 88.7166 767.576 89.9568 767.576C90.989 767.576 91.6851 766.968 91.9091 766.192V767.52H92.0612V761.599H91.9091V764.52C91.6851 763.752 90.989 763.143 89.9568 763.143C88.7166 763.143 87.8525 763.984 87.8525 765.36ZM91.9091 765.36C91.9091 766.608 91.085 767.432 89.9568 767.432C88.7726 767.432 88.0125 766.648 88.0125 765.36C88.0125 764.072 88.7726 763.287 89.9568 763.287C91.085 763.287 91.9091 764.112 91.9091 765.36ZM96.9731 763.199H96.8131V765.48C96.8131 766.832 96.101 767.456 95.1168 767.456C94.1647 767.456 93.5326 766.872 93.5326 765.72V763.199H93.3806V765.704C93.3806 767.04 94.1727 767.6 95.1168 767.6C95.925 767.6 96.6131 767.192 96.8131 766.344V767.52H96.9731V763.199ZM98.1354 765.36C98.1354 766.752 99.0155 767.576 100.216 767.576C101.336 767.576 102.056 766.944 102.2 766.056H102.04C101.904 766.912 101.176 767.432 100.216 767.432C99.2236 767.432 98.2954 766.792 98.2954 765.36C98.2954 763.928 99.2236 763.287 100.216 763.287C101.176 763.287 101.904 763.808 102.04 764.664H102.2C102.056 763.776 101.336 763.143 100.216 763.143C99.0155 763.143 98.1354 763.968 98.1354 765.36ZM103.544 766.384C103.544 767.224 103.856 767.52 104.592 767.52H105.064V767.36H104.608C103.952 767.36 103.704 767.16 103.704 766.384V763.359H105.064V763.199H103.704V762.095H103.544V763.199H102.84V763.359H103.544V766.384ZM108.184 765.36C108.184 766.736 109.048 767.576 110.288 767.576C111.32 767.576 112.016 766.968 112.241 766.192V767.52H112.393V761.599H112.241V764.52C112.016 763.752 111.32 763.143 110.288 763.143C109.048 763.143 108.184 763.984 108.184 765.36ZM112.241 765.36C112.241 766.608 111.416 767.432 110.288 767.432C109.104 767.432 108.344 766.648 108.344 765.36C108.344 764.072 109.104 763.287 110.288 763.287C111.416 763.287 112.241 764.112 112.241 765.36ZM115.632 763.287C116.592 763.287 117.553 763.896 117.473 765.288H113.712C113.712 763.912 114.648 763.287 115.632 763.287ZM117.617 766.056H117.457C117.321 766.912 116.592 767.432 115.632 767.432C114.664 767.432 113.736 766.816 113.712 765.432H117.609C117.617 765.288 117.617 765.208 117.617 765C117.617 764.096 116.952 763.143 115.632 763.143C114.432 763.143 113.552 763.968 113.552 765.36C113.552 766.752 114.432 767.576 115.632 767.576C116.752 767.576 117.473 766.944 117.617 766.056ZM121.505 766.44C121.505 764.944 118.808 765.736 118.808 764.224C118.808 763.728 119.312 763.287 120 763.287C120.865 763.287 121.297 763.776 121.329 764.384H121.489C121.441 763.6 120.865 763.143 120 763.143C119.216 763.143 118.648 763.648 118.648 764.224C118.648 765.888 121.353 765.112 121.353 766.44C121.353 766.968 120.905 767.432 120.176 767.432C119.232 767.432 118.736 767.04 118.672 766.416H118.512C118.608 767.224 119.256 767.576 120.168 767.576C120.921 767.576 121.505 767.096 121.505 766.44ZM122.444 765.36C122.444 766.752 123.324 767.576 124.524 767.576C125.644 767.576 126.365 766.944 126.509 766.056H126.349C126.213 766.912 125.484 767.432 124.524 767.432C123.532 767.432 122.604 766.792 122.604 765.36C122.604 763.928 123.532 763.287 124.524 763.287C125.484 763.287 126.213 763.808 126.349 764.664H126.509C126.365 763.776 125.644 763.143 124.524 763.143C123.324 763.143 122.444 763.968 122.444 765.36ZM127.828 764.952C127.828 763.672 128.684 763.279 129.461 763.279H129.533V763.103C128.564 763.103 127.996 763.495 127.828 764.248V763.199H127.668V767.52H127.828V764.952ZM130.372 767.52H130.532V763.199H130.372V767.52ZM130.452 762.095C130.564 762.095 130.66 762.015 130.66 761.879C130.66 761.743 130.564 761.663 130.452 761.663C130.34 761.663 130.244 761.743 130.244 761.879C130.244 762.015 130.34 762.095 130.452 762.095ZM132.048 764.52V763.199H131.895V769.552H132.048V766.2C132.272 766.968 132.968 767.576 134 767.576C135.24 767.576 136.104 766.736 136.104 765.36C136.104 763.984 135.24 763.143 134 763.143C132.968 763.143 132.272 763.752 132.048 764.52ZM135.944 765.36C135.944 766.648 135.184 767.432 134 767.432C132.872 767.432 132.048 766.608 132.048 765.36C132.048 764.112 132.872 763.287 134 763.287C135.184 763.287 135.944 764.072 135.944 765.36ZM137.448 766.384C137.448 767.224 137.76 767.52 138.496 767.52H138.968V767.36H138.512C137.856 767.36 137.608 767.16 137.608 766.384V763.359H138.968V763.199H137.608V762.095H137.448V763.199H136.743V763.359H137.448V766.384ZM139.967 767.52H140.127V763.199H139.967V767.52ZM140.047 762.095C140.159 762.095 140.255 762.015 140.255 761.879C140.255 761.743 140.159 761.663 140.047 761.663C139.935 761.663 139.839 761.743 139.839 761.879C139.839 762.015 139.935 762.095 140.047 762.095ZM145.507 765.36C145.507 763.968 144.603 763.143 143.403 763.143C142.203 763.143 141.291 763.968 141.291 765.36C141.291 766.752 142.203 767.576 143.403 767.576C144.603 767.576 145.507 766.752 145.507 765.36ZM141.451 765.36C141.451 763.928 142.411 763.287 143.403 763.287C144.395 763.287 145.347 763.928 145.347 765.36C145.347 766.792 144.395 767.432 143.403 767.432C142.411 767.432 141.451 766.792 141.451 765.36ZM150.112 767.52H150.264V765C150.264 763.664 149.472 763.103 148.528 763.103C147.719 763.103 147.039 763.503 146.831 764.344V763.199H146.671V767.52H146.831V765.224C146.831 763.872 147.543 763.247 148.528 763.247C149.48 763.247 150.112 763.832 150.112 764.984V767.52Z" fill="#808080"/>
<path d="M373.588 753.928H28.3415C23.9275 753.928 20.3492 757.506 20.3492 761.92V804.185C20.3492 808.599 23.9275 812.177 28.3415 812.177H373.588C378.002 812.177 381.58 808.599 381.58 804.185V761.92C381.58 757.506 378.002 753.928 373.588 753.928Z" stroke="#969696" stroke-width="0.516" stroke-miterlimit="10"/>
<path d="M38.8991 724.073H40.0993L37.6089 717.112H36.2887L33.7983 724.073H34.9885L35.4886 722.653H38.399L38.8991 724.073ZM38.079 721.723H35.8086L36.9488 718.492L38.079 721.723ZM42.3223 719.382V716.672H41.1821V724.073H42.3223V723.273C42.6824 723.753 43.3325 724.163 44.2426 724.163C45.6929 724.163 46.8331 722.993 46.8331 721.293C46.8331 719.592 45.7029 718.472 44.2426 718.472C43.3725 718.472 42.6824 718.882 42.3223 719.382ZM45.6729 721.293C45.6729 722.483 44.8527 723.173 43.9926 723.173C43.1425 723.173 42.3223 722.503 42.3223 721.313C42.3223 720.133 43.1425 719.462 43.9926 719.462C44.8527 719.462 45.6729 720.103 45.6729 721.293ZM53.2114 721.313C53.2114 719.582 51.9712 718.472 50.401 718.472C48.8307 718.472 47.5905 719.582 47.5905 721.313C47.5905 723.043 48.7807 724.163 50.351 724.163C51.9312 724.163 53.2114 723.043 53.2114 721.313ZM48.7507 721.313C48.7507 720.063 49.5208 719.462 50.381 719.462C51.2311 719.462 52.0412 720.063 52.0412 721.313C52.0412 722.563 51.2011 723.173 50.351 723.173C49.4908 723.173 48.7507 722.563 48.7507 721.313ZM59.3294 718.562H58.1892V721.633C58.1892 722.643 57.6391 723.163 56.7989 723.163C55.9688 723.163 55.4187 722.643 55.4187 721.633V718.562H54.2885V721.803C54.2885 723.343 55.2687 724.153 56.5589 724.153C57.209 724.153 57.8291 723.883 58.1892 723.413V724.073H59.3294V718.562ZM61.0138 722.543C61.0138 723.663 61.6239 724.073 62.604 724.073H63.5042V723.123H62.8041C62.324 723.123 62.1639 722.953 62.1639 722.543V719.492H63.5042V718.562H62.1639V717.192H61.0138V718.562H60.3637V719.492H61.0138V722.543ZM67.3331 722.543C67.3331 723.663 67.9432 724.073 68.9234 724.073H69.8235V723.123H69.1234C68.6433 723.123 68.4833 722.953 68.4833 722.543V719.492H69.8235V718.562H68.4833V717.192H67.3331V718.562H66.683V719.492H67.3331V722.543ZM70.8744 724.073H72.0146V720.993C72.0146 719.983 72.5647 719.462 73.4048 719.462C74.2349 719.462 74.785 719.983 74.785 720.993V724.073H75.9152V720.823C75.9152 719.282 74.9551 718.472 73.7249 718.472C73.0148 718.472 72.3947 718.742 72.0146 719.202V716.672H70.8744V724.073ZM79.69 719.432C80.5401 719.432 81.2102 719.973 81.2302 720.823H78.1797C78.2997 719.953 78.9198 719.432 79.69 719.432ZM82.2704 722.433H81.0402C80.8301 722.863 80.4401 723.203 79.74 723.203C78.8998 723.203 78.2497 722.653 78.1697 721.743H82.3804C82.4104 721.553 82.4204 721.373 82.4204 721.183C82.4204 719.562 81.3102 718.472 79.74 718.472C78.1097 718.472 76.9895 719.582 76.9895 721.313C76.9895 723.043 78.1597 724.163 79.74 724.163C81.0902 724.163 81.9603 723.393 82.2704 722.433ZM87.2807 720.323V718.052H88.5409C89.4311 718.052 89.8311 718.472 89.8311 719.192C89.8311 719.892 89.4311 720.323 88.5409 720.323H87.2807ZM91.0013 719.192C91.0013 718.062 90.1912 717.122 88.5409 717.122H86.1405V724.073H87.2807V721.253H88.5409C90.3512 721.253 91.0013 720.183 91.0013 719.192ZM93.2289 721.173C93.2289 720.003 93.749 719.652 94.5892 719.652H94.8792V718.472C94.0991 718.472 93.549 718.812 93.2289 719.362V718.562H92.0887V724.073H93.2289V721.173ZM101.178 721.313C101.178 719.582 99.9379 718.472 98.3676 718.472C96.7974 718.472 95.5572 719.582 95.5572 721.313C95.5572 723.043 96.7474 724.163 98.3176 724.163C99.8979 724.163 101.178 723.043 101.178 721.313ZM96.7174 721.313C96.7174 720.063 97.4875 719.462 98.3476 719.462C99.1978 719.462 100.008 720.063 100.008 721.313C100.008 722.563 99.1678 723.173 98.3176 723.173C97.4575 723.173 96.7174 722.563 96.7174 721.313ZM101.925 721.293C101.925 722.993 103.075 724.163 104.526 724.163C105.426 724.163 106.086 723.743 106.436 723.243V724.073H107.586V716.672H106.436V719.332C106.016 718.812 105.256 718.472 104.536 718.472C103.075 718.472 101.925 719.592 101.925 721.293ZM106.436 721.313C106.436 722.503 105.626 723.173 104.766 723.173C103.915 723.173 103.095 722.483 103.095 721.293C103.095 720.103 103.915 719.462 104.766 719.462C105.626 719.462 106.436 720.133 106.436 721.313ZM114.074 718.562H112.934V721.633C112.934 722.643 112.384 723.163 111.544 723.163C110.714 723.163 110.164 722.643 110.164 721.633V718.562H109.034V721.803C109.034 723.343 110.014 724.153 111.304 724.153C111.954 724.153 112.574 723.883 112.934 723.413V724.073H114.074V718.562ZM115.199 721.313C115.199 723.043 116.319 724.163 117.899 724.163C119.249 724.163 120.13 723.413 120.44 722.333H119.209C118.999 722.903 118.579 723.203 117.899 723.203C116.979 723.203 116.369 722.523 116.369 721.313C116.369 720.113 116.979 719.432 117.899 719.432C118.579 719.432 119.019 719.772 119.209 720.303H120.44C120.13 719.142 119.249 718.472 117.899 718.472C116.319 718.472 115.199 719.592 115.199 721.313ZM121.756 722.543C121.756 723.663 122.366 724.073 123.346 724.073H124.246V723.123H123.546C123.066 723.123 122.906 722.953 122.906 722.543V719.492H124.246V718.562H122.906V717.192H121.756V718.562H121.106V719.492H121.756V722.543Z" fill="#1D9AAC"/>
</g>
</svg>
