<svg width="402" height="825" viewBox="0 0 402 825" fill="none" xmlns="http://www.w3.org/2000/svg">
<mask id="mask0_2_19077" style="mask-type:luminance" maskUnits="userSpaceOnUse" x="0" y="0" width="402" height="825">
<path d="M401.578 0H0V825H401.578V0Z" fill="white"/>
</mask>
<g mask="url(#mask0_2_19077)">
<path d="M401.578 0H0V825H401.578V0Z" fill="white"/>
<path d="M402.017 1.7168H0.292616V825H402.017V1.7168Z" fill="white"/>
<mask id="mask1_2_19077" style="mask-type:luminance" maskUnits="userSpaceOnUse" x="-1" y="1" width="404" height="931">
<path d="M402.565 1.71674H-0.255978V931.448H402.565V1.71674Z" fill="white"/>
</mask>
<g mask="url(#mask1_2_19077)">
<path d="M404.295 104.262C437.916 104.262 465.171 77.0076 465.171 43.3871C465.171 9.76667 437.916 -17.4881 404.295 -17.4881C370.675 -17.4881 343.42 9.76667 343.42 43.3871C343.42 77.0076 370.675 104.262 404.295 104.262Z" stroke="#DAE5EF" stroke-width="40" stroke-miterlimit="10"/>
<path d="M6.05495 38.2347C31.6077 38.2347 52.3224 17.52 52.3224 -8.03275C52.3224 -33.5855 31.6077 -54.3002 6.05495 -54.3002C-19.4978 -54.3002 -40.2125 -33.5855 -40.2125 -8.03275C-40.2125 17.52 -19.4978 38.2347 6.05495 38.2347Z" stroke="#F4DBEB" stroke-width="14" stroke-miterlimit="10"/>
</g>
<path d="M28.7506 63.0422H24.2085V76.9486H28.7506C33.2126 76.9486 36.134 74.3274 36.134 70.0454C36.134 65.7434 33.2126 63.0422 28.7506 63.0422ZM26.4895 75.0878V64.903H28.7506C32.0321 64.903 33.7929 66.864 33.7929 70.0454C33.7929 73.2069 32.0321 75.0878 28.7506 75.0878H26.4895ZM37.6344 71.386C37.6344 74.7876 39.9354 77.1287 42.7968 77.1287C44.6376 77.1287 45.9582 76.2483 46.6586 75.3079V76.9486H48.9596V65.9235H46.6586V67.5243C45.9782 66.6238 44.6977 65.7434 42.8368 65.7434C39.9354 65.7434 37.6344 67.9845 37.6344 71.386ZM46.6586 71.4261C46.6586 73.8072 45.0378 75.1478 43.317 75.1478C41.6162 75.1478 39.9755 73.7672 39.9755 71.386C39.9755 69.0049 41.6162 67.7244 43.317 67.7244C45.0378 67.7244 46.6586 69.065 46.6586 71.4261ZM60.1795 73.8672C60.0595 69.8854 53.8366 71.1259 53.8366 68.9049C53.8366 68.1646 54.4769 67.6643 55.6974 67.6643C56.938 67.6643 57.6783 68.3246 57.7584 69.2851H60.0394C59.9194 67.0841 58.2786 65.7434 55.7775 65.7434C53.1763 65.7434 51.5355 67.1641 51.5355 68.9249C51.5355 72.9668 57.9385 71.7262 57.9385 73.8872C57.9385 74.6476 57.2381 75.2078 55.9175 75.2078C54.6569 75.2078 53.7966 74.4675 53.7165 73.5671H51.3554C51.4555 75.568 53.3163 77.1287 55.9576 77.1287C58.5588 77.1287 60.1795 75.7281 60.1795 73.8672ZM62.6442 76.9486H64.9253V70.7858C64.9253 68.7648 66.0258 67.7244 67.7066 67.7244C69.3674 67.7244 70.4679 68.7648 70.4679 70.7858V76.9486H72.7289V70.4456C72.7289 67.3642 70.808 65.7434 68.3469 65.7434C66.9262 65.7434 65.6857 66.2837 64.9253 67.2041V62.1418H62.6442V76.9486ZM77.9196 67.5643V62.1418H75.6385V76.9486H77.9196V75.3479C78.6399 76.3083 79.9405 77.1287 81.7614 77.1287C84.6627 77.1287 86.9438 74.7876 86.9438 71.386C86.9438 67.9845 84.6827 65.7434 81.7614 65.7434C80.0206 65.7434 78.6399 66.5638 77.9196 67.5643ZM84.6227 71.386C84.6227 73.7672 82.9819 75.1478 81.2611 75.1478C79.5604 75.1478 77.9196 73.8072 77.9196 71.4261C77.9196 69.065 79.5604 67.7244 81.2611 67.7244C82.9819 67.7244 84.6227 69.0049 84.6227 71.386ZM99.7044 71.4261C99.7044 67.9645 97.2232 65.7434 94.0818 65.7434C90.9403 65.7434 88.4592 67.9645 88.4592 71.4261C88.4592 74.8877 90.8403 77.1287 93.9817 77.1287C97.1432 77.1287 99.7044 74.8877 99.7044 71.4261ZM90.7802 71.4261C90.7802 68.9249 92.321 67.7244 94.0417 67.7244C95.7425 67.7244 97.3633 68.9249 97.3633 71.4261C97.3633 73.9272 95.6825 75.1478 93.9817 75.1478C92.2609 75.1478 90.7802 73.9272 90.7802 71.4261ZM101.199 71.386C101.199 74.7876 103.5 77.1287 106.361 77.1287C108.202 77.1287 109.523 76.2483 110.223 75.3079V76.9486H112.524V65.9235H110.223V67.5243C109.543 66.6238 108.262 65.7434 106.401 65.7434C103.5 65.7434 101.199 67.9845 101.199 71.386ZM110.223 71.4261C110.223 73.8072 108.602 75.1478 106.882 75.1478C105.181 75.1478 103.54 73.7672 103.54 71.386C103.54 69.0049 105.181 67.7244 106.882 67.7244C108.602 67.7244 110.223 69.065 110.223 71.4261ZM117.801 71.1459C117.801 68.8049 118.842 68.1045 120.523 68.1045H121.103V65.7434C119.542 65.7434 118.442 66.4238 117.801 67.5243V65.9235H115.52V76.9486H117.801V71.1459ZM122.439 71.386C122.439 74.7876 124.74 77.1287 127.642 77.1287C129.443 77.1287 130.763 76.2883 131.463 75.2879V76.9486H133.765V62.1418H131.463V67.4642C130.623 66.4238 129.102 65.7434 127.662 65.7434C124.74 65.7434 122.439 67.9845 122.439 71.386ZM131.463 71.4261C131.463 73.8072 129.843 75.1478 128.122 75.1478C126.421 75.1478 124.78 73.7672 124.78 71.386C124.78 69.0049 126.421 67.7244 128.122 67.7244C129.843 67.7244 131.463 69.065 131.463 71.4261Z" fill="black"/>
<path d="M314.654 691.002H88.3622C77.2529 691.002 68.2469 700.008 68.2469 711.117C68.2469 722.226 77.2529 731.232 88.3622 731.232H314.654C325.763 731.232 334.769 722.226 334.769 711.117C334.769 700.008 325.763 691.002 314.654 691.002Z" fill="#1D9AAC"/>
<path d="M177.017 717.349H178.751L175.152 707.287H173.243L169.643 717.349H171.364L172.086 715.296H176.294L177.017 717.349ZM175.831 713.952H172.549L174.197 709.282L175.831 713.952ZM179.767 713.33C179.767 715.788 181.43 717.479 183.526 717.479C184.828 717.479 185.782 716.872 186.288 716.149V717.349H187.95V706.651H186.288V710.496C185.681 709.744 184.582 709.253 183.541 709.253C181.43 709.253 179.767 710.872 179.767 713.33ZM186.288 713.359C186.288 715.079 185.117 716.048 183.873 716.048C182.644 716.048 181.459 715.05 181.459 713.33C181.459 711.609 182.644 710.684 183.873 710.684C185.117 710.684 186.288 711.653 186.288 713.359ZM189.566 713.33C189.566 715.788 191.228 717.479 193.325 717.479C194.626 717.479 195.58 716.872 196.086 716.149V717.349H197.749V706.651H196.086V710.496C195.479 709.744 194.38 709.253 193.339 709.253C191.228 709.253 189.566 710.872 189.566 713.33ZM196.086 713.359C196.086 715.079 194.915 716.048 193.672 716.048C192.443 716.048 191.257 715.05 191.257 713.33C191.257 711.609 192.443 710.684 193.672 710.684C194.915 710.684 196.086 711.653 196.086 713.359ZM210.276 707.287V714.776L205.317 707.287H203.669V717.349H205.317V709.846L210.276 717.349H211.925V707.287H210.276ZM217.443 710.641C218.672 710.641 219.641 711.422 219.67 712.65H215.26C215.434 711.393 216.33 710.641 217.443 710.641ZM221.173 714.978H219.395C219.091 715.6 218.528 716.091 217.515 716.091C216.301 716.091 215.361 715.296 215.246 713.981H221.332C221.376 713.706 221.39 713.446 221.39 713.171C221.39 710.829 219.785 709.253 217.515 709.253C215.159 709.253 213.54 710.858 213.54 713.359C213.54 715.86 215.231 717.479 217.515 717.479C219.467 717.479 220.725 716.366 221.173 714.978ZM224.559 717.349H226.294L227.899 711.465L229.504 717.349H231.239L233.711 709.383H232.092L230.443 715.759L228.824 709.383H227.104L225.412 715.788L223.749 709.383H222.072L224.559 717.349Z" fill="#EFF3F8"/>
<path d="M27.225 85.7677C25.3762 85.7677 24.0596 87.4485 24.0596 90.5019C24.0876 93.5133 25.2921 95.1801 27.071 95.1801C29.0879 95.1801 30.2364 93.4713 30.2364 90.3758C30.2364 87.4765 29.1439 85.7677 27.225 85.7677ZM27.155 86.7201C28.4296 86.7201 29.0039 88.1908 29.0039 90.4319C29.0039 92.7569 28.4016 94.2276 27.141 94.2276C26.0205 94.2276 25.2921 92.883 25.2921 90.5159C25.2921 88.0368 26.0765 86.7201 27.155 86.7201ZM31.6608 95.5863L35.5826 85.4316H34.6302L30.7224 95.5863H31.6608ZM36.1257 94.5638C36.5739 94.8579 37.4703 95.1801 38.4928 95.1801C40.6778 95.1801 41.8124 93.9055 41.8124 92.4488C41.8124 91.1742 40.9019 90.3338 39.7814 90.1097V90.0817C40.9019 89.6755 41.4622 88.8771 41.4622 87.9387C41.4622 86.8322 40.6498 85.7677 38.857 85.7677C37.8765 85.7677 36.9521 86.1179 36.4759 86.468L36.798 87.3644C37.1902 87.0843 37.8905 86.7622 38.6189 86.7622C39.7534 86.7622 40.2156 87.4065 40.2156 88.1348C40.2156 89.2133 39.0811 89.6755 38.1847 89.6755H37.4984V90.5999H38.1847C39.3752 90.5999 40.5238 91.1462 40.5378 92.4208C40.5518 93.1771 40.0615 94.1856 38.4788 94.1856C37.6244 94.1856 36.812 93.8354 36.4619 93.6113L36.1257 94.5638ZM46.275 94.5638C46.7792 94.8999 47.7736 95.1661 48.6841 95.1661C50.9111 95.1661 51.9896 93.9055 51.9896 92.4488C51.9896 91.0622 51.1772 90.2918 49.5805 89.6755C48.2779 89.1713 47.7036 88.7371 47.7036 87.8547C47.7036 87.2104 48.1938 86.44 49.4824 86.44C50.3368 86.44 50.9671 86.7201 51.2753 86.8882L51.6114 85.8938C51.1912 85.6557 50.4909 85.4316 49.5245 85.4316C47.6896 85.4316 46.471 86.5241 46.471 87.9947C46.471 89.3254 47.4235 90.1237 48.9642 90.67C50.2388 91.1602 50.743 91.6644 50.743 92.5468C50.743 93.4993 50.0147 94.1576 48.7681 94.1576C47.9277 94.1576 47.1294 93.8775 46.5831 93.5413L46.275 94.5638ZM59.1472 91.8605C59.1613 91.7345 59.1893 91.5384 59.1893 91.2863C59.1893 90.0397 58.601 88.0928 56.388 88.0928C54.4131 88.0928 53.2085 89.7035 53.2085 91.7485C53.2085 93.7934 54.4551 95.1661 56.542 95.1661C57.6205 95.1661 58.3629 94.942 58.7971 94.7459L58.587 93.8635C58.1248 94.0595 57.5925 94.2136 56.7101 94.2136C55.4775 94.2136 54.4131 93.5273 54.385 91.8605H59.1472ZM54.399 90.9781C54.4971 90.1237 55.0433 88.9752 56.2899 88.9752C57.6766 88.9752 58.0127 90.1938 57.9987 90.9781H54.399ZM60.9958 86.6221V88.2469H59.9453V89.1853H60.9958V92.883C60.9958 93.6814 61.1218 94.2837 61.472 94.6478C61.7661 94.984 62.2283 95.1661 62.8026 95.1661C63.2788 95.1661 63.657 95.096 63.8951 94.998L63.8391 94.0736C63.685 94.1156 63.4469 94.1576 63.1248 94.1576C62.4384 94.1576 62.2003 93.6814 62.2003 92.841V89.1853H63.9651V88.2469H62.2003V86.3L60.9958 86.6221ZM73.9934 88.2469H72.7608V92.4068C72.7608 92.6309 72.7188 92.855 72.6487 93.0371C72.4246 93.5833 71.8504 94.1576 71.024 94.1576C69.9035 94.1576 69.5113 93.2892 69.5113 92.0006V88.2469H68.2787V92.2107C68.2787 94.5918 69.5533 95.1801 70.6178 95.1801C71.8223 95.1801 72.5367 94.4657 72.8588 93.9195H72.8868L72.9569 95.026H74.0494C74.0074 94.4938 73.9934 93.8775 73.9934 93.1771V88.2469ZM76.0352 97.7993H77.2538V94.1156H77.2818C77.688 94.7879 78.4724 95.1801 79.3688 95.1801C80.9655 95.1801 82.4502 93.9755 82.4502 91.5384C82.4502 89.4794 81.2176 88.0928 79.5789 88.0928C78.4724 88.0928 77.674 88.583 77.1698 89.4094H77.1417L77.0857 88.2469H75.9792C76.0072 88.8912 76.0352 89.5915 76.0352 90.4599V97.7993ZM77.2538 91.1042C77.2538 90.9361 77.2958 90.754 77.3378 90.5999C77.5759 89.6755 78.3603 89.0732 79.2007 89.0732C80.5033 89.0732 81.2176 90.2358 81.2176 91.5944C81.2176 93.1491 80.4613 94.2136 79.1587 94.2136C78.2763 94.2136 77.5339 93.6253 77.3098 92.771C77.2818 92.6169 77.2538 92.4488 77.2538 92.2667V91.1042ZM86.0814 88.2469L88.5885 94.4938C88.6446 94.6478 88.6726 94.7459 88.6726 94.8159C88.6726 94.8859 88.6306 94.984 88.5745 95.11C88.2944 95.7403 87.8742 96.2165 87.5381 96.4827C87.1739 96.7908 86.7677 96.9869 86.4596 97.085L86.7677 98.1214C87.0758 98.0654 87.6781 97.8553 88.2804 97.3231C89.1208 96.5947 89.7231 95.4042 90.6055 93.0791L92.4543 88.2469H91.1517L89.8071 92.2247C89.639 92.7149 89.499 93.2332 89.3729 93.6394H89.3449C89.2328 93.2332 89.0648 92.7009 88.9107 92.2527L87.426 88.2469H86.0814ZM96.3052 88.0928C94.4284 88.0928 92.9437 89.4234 92.9437 91.6925C92.9437 93.8354 94.3583 95.1801 96.1932 95.1801C97.832 95.1801 99.5688 94.0876 99.5688 91.5804C99.5688 89.5074 98.2521 88.0928 96.3052 88.0928ZM96.2772 89.0172C97.7339 89.0172 98.3082 90.4739 98.3082 91.6224C98.3082 93.1491 97.4258 94.2556 96.2492 94.2556C95.0447 94.2556 94.1903 93.1351 94.1903 91.6504C94.1903 90.3618 94.8206 89.0172 96.2772 89.0172ZM106.794 88.2469H105.561V92.4068C105.561 92.6309 105.519 92.855 105.449 93.0371C105.225 93.5833 104.651 94.1576 103.824 94.1576C102.704 94.1576 102.312 93.2892 102.312 92.0006V88.2469H101.079V92.2107C101.079 94.5918 102.354 95.1801 103.418 95.1801C104.623 95.1801 105.337 94.4657 105.659 93.9195H105.687L105.757 95.026H106.85C106.808 94.4938 106.794 93.8775 106.794 93.1771V88.2469ZM108.836 95.026H110.054V91.4123C110.054 91.2022 110.082 91.0061 110.11 90.8381C110.278 89.9136 110.895 89.2553 111.763 89.2553C111.931 89.2553 112.057 89.2693 112.183 89.2973V88.1348C112.071 88.1068 111.973 88.0928 111.833 88.0928C111.007 88.0928 110.264 88.6671 109.956 89.5775H109.9L109.858 88.2469H108.78C108.822 88.8771 108.836 89.5635 108.836 90.3618V95.026ZM115.91 94.7038C116.386 94.984 117.072 95.1661 117.815 95.1661C119.425 95.1661 120.35 94.3257 120.35 93.1351C120.35 92.1267 119.748 91.5384 118.571 91.0902C117.689 90.754 117.282 90.5019 117.282 89.9416C117.282 89.4374 117.689 89.0172 118.417 89.0172C119.047 89.0172 119.537 89.2413 119.804 89.4094L120.112 88.513C119.734 88.2889 119.131 88.0928 118.445 88.0928C116.988 88.0928 116.106 88.9892 116.106 90.0817C116.106 90.8941 116.68 91.5664 117.899 92.0006C118.809 92.3368 119.159 92.6589 119.159 93.2472C119.159 93.8074 118.739 94.2556 117.843 94.2556C117.226 94.2556 116.582 94.0035 116.218 93.7654L115.91 94.7038ZM122.219 86.6221V88.2469H121.169V89.1853H122.219V92.883C122.219 93.6814 122.345 94.2837 122.696 94.6478C122.99 94.984 123.452 95.1661 124.026 95.1661C124.502 95.1661 124.881 95.096 125.119 94.998L125.063 94.0736C124.909 94.1156 124.671 94.1576 124.348 94.1576C123.662 94.1576 123.424 93.6814 123.424 92.841V89.1853H125.189V88.2469H123.424V86.3L122.219 86.6221ZM129.365 88.0928C127.489 88.0928 126.004 89.4234 126.004 91.6925C126.004 93.8354 127.419 95.1801 129.253 95.1801C130.892 95.1801 132.629 94.0876 132.629 91.5804C132.629 89.5074 131.312 88.0928 129.365 88.0928ZM129.337 89.0172C130.794 89.0172 131.368 90.4739 131.368 91.6224C131.368 93.1491 130.486 94.2556 129.309 94.2556C128.105 94.2556 127.25 93.1351 127.25 91.6504C127.25 90.3618 127.881 89.0172 129.337 89.0172ZM134.181 95.026H135.4V91.4123C135.4 91.2022 135.428 91.0061 135.456 90.8381C135.624 89.9136 136.24 89.2553 137.109 89.2553C137.277 89.2553 137.403 89.2693 137.529 89.2973V88.1348C137.417 88.1068 137.319 88.0928 137.179 88.0928C136.352 88.0928 135.61 88.6671 135.302 89.5775H135.246L135.204 88.2469H134.125C134.167 88.8771 134.181 89.5635 134.181 90.3618V95.026ZM144.075 91.8605C144.089 91.7345 144.117 91.5384 144.117 91.2863C144.117 90.0397 143.529 88.0928 141.316 88.0928C139.341 88.0928 138.136 89.7035 138.136 91.7485C138.136 93.7934 139.383 95.1661 141.47 95.1661C142.549 95.1661 143.291 94.942 143.725 94.7459L143.515 93.8635C143.053 94.0595 142.521 94.2136 141.638 94.2136C140.406 94.2136 139.341 93.5273 139.313 91.8605H144.075ZM139.327 90.9781C139.425 90.1237 139.971 88.9752 141.218 88.9752C142.605 88.9752 142.941 90.1938 142.927 90.9781H139.327ZM153.486 95.026C153.402 94.5638 153.374 93.9895 153.374 93.4012V90.8661C153.374 89.5074 152.87 88.0928 150.797 88.0928C149.942 88.0928 149.13 88.3309 148.57 88.6951L148.85 89.5074C149.326 89.1993 149.984 89.0032 150.615 89.0032C152.001 89.0032 152.155 90.0117 152.155 90.5719V90.712C149.536 90.698 148.08 91.5944 148.08 93.2332C148.08 94.2136 148.78 95.1801 150.153 95.1801C151.119 95.1801 151.847 94.7038 152.225 94.1716H152.268L152.366 95.026H153.486ZM152.183 92.7429C152.183 92.869 152.155 93.0091 152.113 93.1351C151.917 93.7094 151.357 94.2696 150.475 94.2696C149.844 94.2696 149.312 93.8915 149.312 93.0931C149.312 91.7765 150.839 91.5384 152.183 91.5664V92.7429ZM155.369 95.026H156.601V90.9501C156.601 90.74 156.629 90.5299 156.685 90.3758C156.896 89.6895 157.526 89.1153 158.338 89.1153C159.501 89.1153 159.907 90.0257 159.907 91.1182V95.026H161.14V90.9781C161.14 88.653 159.683 88.0928 158.744 88.0928C157.624 88.0928 156.84 88.7231 156.503 89.3674H156.475L156.405 88.2469H155.313C155.355 88.8071 155.369 89.3814 155.369 90.0817V95.026ZM167.76 85.0814V89.1293H167.732C167.424 88.583 166.724 88.0928 165.687 88.0928C164.034 88.0928 162.634 89.4794 162.648 91.7345C162.648 93.7934 163.908 95.1801 165.547 95.1801C166.654 95.1801 167.48 94.6058 167.858 93.8495H167.886L167.942 95.026H169.049C169.007 94.5638 168.993 93.8775 168.993 93.2752V85.0814H167.76ZM167.76 92.1827C167.76 92.3788 167.746 92.5468 167.704 92.7149C167.48 93.6394 166.724 94.1856 165.897 94.1856C164.567 94.1856 163.894 93.0511 163.894 91.6784C163.894 90.1798 164.651 89.0592 165.925 89.0592C166.85 89.0592 167.522 89.7035 167.704 90.4879C167.746 90.642 167.76 90.8521 167.76 91.0061V92.1827ZM173.536 94.7038C174.012 94.984 174.699 95.1661 175.441 95.1661C177.052 95.1661 177.976 94.3257 177.976 93.1351C177.976 92.1267 177.374 91.5384 176.197 91.0902C175.315 90.754 174.909 90.5019 174.909 89.9416C174.909 89.4374 175.315 89.0172 176.043 89.0172C176.673 89.0172 177.164 89.2413 177.43 89.4094L177.738 88.513C177.36 88.2889 176.758 88.0928 176.071 88.0928C174.615 88.0928 173.732 88.9892 173.732 90.0817C173.732 90.8941 174.306 91.5664 175.525 92.0006C176.435 92.3368 176.786 92.6589 176.786 93.2472C176.786 93.8074 176.365 94.2556 175.469 94.2556C174.853 94.2556 174.208 94.0035 173.844 93.7654L173.536 94.7038ZM179.846 86.6221V88.2469H178.795V89.1853H179.846V92.883C179.846 93.6814 179.972 94.2837 180.322 94.6478C180.616 94.984 181.078 95.1661 181.653 95.1661C182.129 95.1661 182.507 95.096 182.745 94.998L182.689 94.0736C182.535 94.1156 182.297 94.1576 181.975 94.1576C181.288 94.1576 181.05 93.6814 181.05 92.841V89.1853H182.815V88.2469H181.05V86.3L179.846 86.6221ZM189.077 95.026C188.993 94.5638 188.965 93.9895 188.965 93.4012V90.8661C188.965 89.5074 188.46 88.0928 186.388 88.0928C185.533 88.0928 184.721 88.3309 184.16 88.6951L184.441 89.5074C184.917 89.1993 185.575 89.0032 186.205 89.0032C187.592 89.0032 187.746 90.0117 187.746 90.5719V90.712C185.127 90.698 183.67 91.5944 183.67 93.2332C183.67 94.2136 184.371 95.1801 185.743 95.1801C186.71 95.1801 187.438 94.7038 187.816 94.1716H187.858L187.956 95.026H189.077ZM187.774 92.7429C187.774 92.869 187.746 93.0091 187.704 93.1351C187.508 93.7094 186.948 94.2696 186.065 94.2696C185.435 94.2696 184.903 93.8915 184.903 93.0931C184.903 91.7765 186.43 91.5384 187.774 91.5664V92.7429ZM190.96 95.026H192.178V91.4123C192.178 91.2022 192.206 91.0061 192.234 90.8381C192.402 89.9136 193.018 89.2553 193.887 89.2553C194.055 89.2553 194.181 89.2693 194.307 89.2973V88.1348C194.195 88.1068 194.097 88.0928 193.957 88.0928C193.131 88.0928 192.388 88.6671 192.08 89.5775H192.024L191.982 88.2469H190.904C190.946 88.8771 190.96 89.5635 190.96 90.3618V95.026ZM196.164 86.6221V88.2469H195.113V89.1853H196.164V92.883C196.164 93.6814 196.29 94.2837 196.64 94.6478C196.934 94.984 197.396 95.1661 197.971 95.1661C198.447 95.1661 198.825 95.096 199.063 94.998L199.007 94.0736C198.853 94.1156 198.615 94.1576 198.293 94.1576C197.606 94.1576 197.368 93.6814 197.368 92.841V89.1853H199.133V88.2469H197.368V86.3L196.164 86.6221ZM203.013 94.7038C203.489 94.984 204.175 95.1661 204.917 95.1661C206.528 95.1661 207.453 94.3257 207.453 93.1351C207.453 92.1267 206.85 91.5384 205.674 91.0902C204.791 90.754 204.385 90.5019 204.385 89.9416C204.385 89.4374 204.791 89.0172 205.52 89.0172C206.15 89.0172 206.64 89.2413 206.906 89.4094L207.215 88.513C206.836 88.2889 206.234 88.0928 205.548 88.0928C204.091 88.0928 203.209 88.9892 203.209 90.0817C203.209 90.8941 203.783 91.5664 205.001 92.0006C205.912 92.3368 206.262 92.6589 206.262 93.2472C206.262 93.8074 205.842 94.2556 204.945 94.2556C204.329 94.2556 203.685 94.0035 203.321 93.7654L203.013 94.7038ZM214.491 91.8605C214.505 91.7345 214.533 91.5384 214.533 91.2863C214.533 90.0397 213.944 88.0928 211.731 88.0928C209.756 88.0928 208.552 89.7035 208.552 91.7485C208.552 93.7934 209.798 95.1661 211.885 95.1661C212.964 95.1661 213.706 94.942 214.14 94.7459L213.93 93.8635C213.468 94.0595 212.936 94.2136 212.054 94.2136C210.821 94.2136 209.756 93.5273 209.728 91.8605H214.491ZM209.742 90.9781C209.841 90.1237 210.387 88.9752 211.633 88.9752C213.02 88.9752 213.356 90.1938 213.342 90.9781H209.742ZM216.059 95.026H217.292V85.0814H216.059V95.026ZM219.369 95.026H220.602V85.0814H219.369V95.026ZM223.912 95.026V88.2469H222.679V95.026H223.912ZM223.296 85.5716C222.847 85.5716 222.525 85.9078 222.525 86.342C222.525 86.7622 222.833 87.0983 223.268 87.0983C223.758 87.0983 224.066 86.7622 224.052 86.342C224.052 85.9078 223.758 85.5716 223.296 85.5716ZM225.962 95.026H227.195V90.9501C227.195 90.74 227.223 90.5299 227.279 90.3758C227.489 89.6895 228.119 89.1153 228.931 89.1153C230.094 89.1153 230.5 90.0257 230.5 91.1182V95.026H231.733V90.9781C231.733 88.653 230.276 88.0928 229.338 88.0928C228.217 88.0928 227.433 88.7231 227.097 89.3674H227.069L226.999 88.2469H225.906C225.948 88.8071 225.962 89.3814 225.962 90.0817V95.026ZM238.494 88.2469L238.437 89.2693H238.409C238.115 88.7091 237.471 88.0928 236.294 88.0928C234.74 88.0928 233.241 89.3954 233.241 91.6925C233.241 93.5693 234.446 94.998 236.126 94.998C237.177 94.998 237.905 94.4938 238.283 93.8635H238.311V94.6198C238.311 96.3286 237.387 96.9869 236.126 96.9869C235.286 96.9869 234.586 96.7348 234.137 96.4547L233.829 97.3931C234.376 97.7573 235.272 97.9534 236.084 97.9534C236.939 97.9534 237.891 97.7573 238.55 97.141C239.208 96.5527 239.516 95.6003 239.516 94.0455V90.1097C239.516 89.2833 239.544 88.7371 239.572 88.2469H238.494ZM238.297 92.1407C238.297 92.3508 238.269 92.5889 238.199 92.799C237.933 93.5833 237.247 94.0595 236.491 94.0595C235.16 94.0595 234.488 92.953 234.488 91.6224C234.488 90.0537 235.328 89.0592 236.505 89.0592C237.401 89.0592 238.003 89.6475 238.227 90.3618C238.283 90.5299 238.297 90.712 238.297 90.9221V92.1407ZM247.395 88.0928C245.518 88.0928 244.033 89.4234 244.033 91.6925C244.033 93.8354 245.448 95.1801 247.283 95.1801C248.921 95.1801 250.658 94.0876 250.658 91.5804C250.658 89.5074 249.342 88.0928 247.395 88.0928ZM247.367 89.0172C248.823 89.0172 249.398 90.4739 249.398 91.6224C249.398 93.1491 248.515 94.2556 247.339 94.2556C246.134 94.2556 245.28 93.1351 245.28 91.6504C245.28 90.3618 245.91 89.0172 247.367 89.0172ZM252.211 95.026H253.443V90.9501C253.443 90.74 253.471 90.5299 253.527 90.3758C253.737 89.6895 254.368 89.1153 255.18 89.1153C256.342 89.1153 256.749 90.0257 256.749 91.1182V95.026H257.981V90.9781C257.981 88.653 256.525 88.0928 255.586 88.0928C254.466 88.0928 253.681 88.7231 253.345 89.3674H253.317L253.247 88.2469H252.155C252.197 88.8071 252.211 89.3814 252.211 90.0817V95.026ZM259.98 95.026H261.212V85.0814H259.98V95.026ZM264.522 95.026V88.2469H263.29V95.026H264.522ZM263.906 85.5716C263.458 85.5716 263.136 85.9078 263.136 86.342C263.136 86.7622 263.444 87.0983 263.878 87.0983C264.368 87.0983 264.677 86.7622 264.663 86.342C264.663 85.9078 264.368 85.5716 263.906 85.5716ZM266.573 95.026H267.805V90.9501C267.805 90.74 267.833 90.5299 267.889 90.3758C268.099 89.6895 268.73 89.1153 269.542 89.1153C270.705 89.1153 271.111 90.0257 271.111 91.1182V95.026H272.343V90.9781C272.343 88.653 270.887 88.0928 269.948 88.0928C268.828 88.0928 268.043 88.7231 267.707 89.3674H267.679L267.609 88.2469H266.517C266.559 88.8071 266.573 89.3814 266.573 90.0817V95.026ZM279.79 91.8605C279.804 91.7345 279.832 91.5384 279.832 91.2863C279.832 90.0397 279.244 88.0928 277.031 88.0928C275.056 88.0928 273.852 89.7035 273.852 91.7485C273.852 93.7934 275.098 95.1661 277.185 95.1661C278.264 95.1661 279.006 94.942 279.44 94.7459L279.23 93.8635C278.768 94.0595 278.236 94.2136 277.353 94.2136C276.121 94.2136 275.056 93.5273 275.028 91.8605H279.79ZM275.042 90.9781C275.14 90.1237 275.687 88.9752 276.933 88.9752C278.32 88.9752 278.656 90.1938 278.642 90.9781H275.042Z" fill="black"/>
</g>
</svg>
