<svg width="402" height="1020" viewBox="0 0 402 1020" fill="none" xmlns="http://www.w3.org/2000/svg">
<mask id="mask0_2_19233" style="mask-type:luminance" maskUnits="userSpaceOnUse" x="0" y="0" width="402" height="1020">
<path d="M401.592 0H0V1020H401.592V0Z" fill="white"/>
</mask>
<g mask="url(#mask0_2_19233)">
<path d="M401.592 0H0V1020H401.592V0Z" fill="white"/>
<path d="M402.456 0.715353H0.717155V1021.35H402.456V0.715353Z" fill="white"/>
<mask id="mask1_2_19233" style="mask-type:luminance" maskUnits="userSpaceOnUse" x="0" y="0" width="404" height="931">
<path d="M403.004 0.715445H0.16903V930.48H403.004V0.715445Z" fill="white"/>
</mask>
<g mask="url(#mask1_2_19233)">
<path d="M404.735 103.265C438.356 103.265 465.612 76.0088 465.612 42.3872C465.612 8.76555 438.356 -18.4902 404.735 -18.4902C371.113 -18.4902 343.857 8.76555 343.857 42.3872C343.857 76.0088 371.113 103.265 404.735 103.265Z" stroke="#DAE5EF" stroke-width="40" stroke-miterlimit="10"/>
<path d="M6.48019 37.2347C32.0339 37.2347 52.7493 16.5193 52.7493 -9.03439C52.7493 -34.5881 32.0339 -55.3035 6.48019 -55.3035C-19.0735 -55.3035 -39.7889 -34.5881 -39.7889 -9.03439C-39.7889 16.5193 -19.0735 37.2347 6.48019 37.2347Z" stroke="#F4DBEB" stroke-width="14" stroke-miterlimit="10"/>
</g>
<path d="M22.6151 98.4201C24.4878 98.4201 26.0058 96.9021 26.0058 95.0294C26.0058 93.1568 24.4878 91.6387 22.6151 91.6387C20.7425 91.6387 19.2244 93.1568 19.2244 95.0294C19.2244 96.9021 20.7425 98.4201 22.6151 98.4201Z" fill="#D5539E"/>
<path d="M314.665 931.147H88.3649C77.2552 931.147 68.2489 940.153 68.2489 951.262C68.2489 962.372 77.2552 971.378 88.3649 971.378H314.665C325.775 971.378 334.781 962.372 334.781 951.262C334.781 940.153 325.775 931.147 314.665 931.147Z" fill="#1D9AAC"/>
<path d="M177.023 957.495H178.758L175.158 947.432H173.249L169.649 957.495H171.37L172.093 955.442H176.3L177.023 957.495ZM175.837 954.097H172.555L174.204 949.427L175.837 954.097ZM179.774 953.475C179.774 955.933 181.437 957.625 183.533 957.625C184.834 957.625 185.788 957.018 186.294 956.295V957.495H187.957V946.796H186.294V950.642C185.687 949.89 184.588 949.398 183.547 949.398C181.437 949.398 179.774 951.018 179.774 953.475ZM186.294 953.504C186.294 955.225 185.123 956.194 183.88 956.194C182.651 956.194 181.465 955.196 181.465 953.475C181.465 951.755 182.651 950.83 183.88 950.83C185.123 950.83 186.294 951.798 186.294 953.504ZM189.573 953.475C189.573 955.933 191.235 957.625 193.332 957.625C194.633 957.625 195.587 957.018 196.093 956.295V957.495H197.756V946.796H196.093V950.642C195.486 949.89 194.387 949.398 193.346 949.398C191.235 949.398 189.573 951.018 189.573 953.475ZM196.093 953.504C196.093 955.225 194.922 956.194 193.679 956.194C192.45 956.194 191.264 955.196 191.264 953.475C191.264 951.755 192.45 950.83 193.679 950.83C194.922 950.83 196.093 951.798 196.093 953.504ZM210.284 947.432V954.921L205.325 947.432H203.677V957.495H205.325V949.991L210.284 957.495H211.932V947.432H210.284ZM217.451 950.786C218.68 950.786 219.649 951.567 219.678 952.796H215.268C215.441 951.538 216.338 950.786 217.451 950.786ZM221.181 955.124H219.403C219.099 955.745 218.535 956.237 217.523 956.237C216.309 956.237 215.369 955.442 215.253 954.126H221.34C221.384 953.851 221.398 953.591 221.398 953.316C221.398 950.974 219.793 949.398 217.523 949.398C215.167 949.398 213.547 951.003 213.547 953.504C213.547 956.006 215.239 957.625 217.523 957.625C219.475 957.625 220.733 956.512 221.181 955.124ZM224.567 957.495H226.302L227.907 951.61L229.512 957.495H231.247L233.719 949.528H232.1L230.452 955.904L228.832 949.528H227.112L225.42 955.933L223.758 949.528H222.08L224.567 957.495Z" fill="#EFF3F8"/>
<path d="M41.4536 181.045V187.697L37.0594 181.045H35.9668V189.426H37.0594V182.762L41.4536 189.426H42.5461V181.045H41.4536ZM44.0004 186.112C44.0004 188.153 45.357 189.534 47.1099 189.534C48.3225 189.534 49.1749 188.909 49.5711 188.201V189.426H50.6757V182.846H49.5711V184.047C49.1869 183.362 48.3465 182.738 47.1219 182.738C45.357 182.738 44.0004 184.059 44.0004 186.112ZM49.5711 186.124C49.5711 187.673 48.5386 188.573 47.338 188.573C46.1374 188.573 45.1169 187.661 45.1169 186.112C45.1169 184.563 46.1374 183.687 47.338 183.687C48.5386 183.687 49.5711 184.599 49.5711 186.124ZM62.0187 189.426H63.0993V185.548C63.0993 183.663 61.9347 182.726 60.4339 182.726C59.4254 182.726 58.489 183.242 58.1048 184.191C57.6726 183.206 56.7721 182.726 55.6916 182.726C54.8271 182.726 54.0467 183.098 53.6145 183.795V182.846H52.522V189.426H53.6145V185.8C53.6145 184.383 54.3709 183.675 55.4755 183.675C56.556 183.675 57.2764 184.359 57.2764 185.704V189.426H58.3569V185.8C58.3569 184.383 59.1133 183.675 60.2178 183.675C61.2984 183.675 62.0187 184.359 62.0187 185.704V189.426ZM67.6888 183.663C68.8174 183.663 69.7779 184.371 69.7659 185.656H65.6118C65.7319 184.371 66.6203 183.663 67.6888 183.663ZM70.7624 187.397H69.5858C69.3457 188.105 68.7214 188.609 67.7369 188.609C66.6203 188.609 65.6838 187.877 65.5998 186.544H70.8584C70.8824 186.316 70.8944 186.124 70.8944 185.884C70.8944 184.083 69.6458 182.738 67.7369 182.738C65.8159 182.738 64.4832 184.047 64.4832 186.124C64.4832 188.213 65.8639 189.534 67.7369 189.534C69.3697 189.534 70.4262 188.597 70.7624 187.397Z" fill="#666666"/>
<path d="M39.6679 149.563V154.745L36.2362 149.563H35.0956V156.526H36.2362V151.334L39.6679 156.526H40.8085V149.563H39.6679ZM41.9261 153.745C41.9261 155.446 43.0767 156.616 44.5074 156.616C45.4278 156.616 46.0882 156.176 46.4383 155.706V156.526H47.5889V151.013H46.4383V151.814C46.0982 151.364 45.4578 150.923 44.5274 150.923C43.0767 150.923 41.9261 152.044 41.9261 153.745ZM46.4383 153.765C46.4383 154.955 45.6279 155.626 44.7675 155.626C43.9171 155.626 43.0967 154.935 43.0967 153.745C43.0967 152.554 43.9171 151.914 44.7675 151.914C45.6279 151.914 46.4383 152.584 46.4383 153.765ZM56.9009 156.526H58.0315V153.274C58.0315 151.734 57.051 150.923 55.7603 150.923C54.9599 150.923 54.1795 151.344 53.8394 152.014C53.4592 151.293 52.7288 150.923 51.8584 150.923C51.198 150.923 50.5977 151.193 50.2276 151.644V151.013H49.087V156.526H50.2276V153.445C50.2276 152.434 50.7778 151.914 51.6183 151.914C52.4487 151.914 52.9989 152.434 52.9989 153.445V156.526H54.1295V153.445C54.1295 152.434 54.6798 151.914 55.5202 151.914C56.3506 151.914 56.9009 152.434 56.9009 153.445V156.526ZM61.804 151.884C62.6544 151.884 63.3247 152.424 63.3447 153.274H60.2932C60.4133 152.404 61.0336 151.884 61.804 151.884ZM64.3853 154.885H63.1546C62.9445 155.315 62.5543 155.656 61.854 155.656C61.0136 155.656 60.3632 155.105 60.2832 154.195H64.4953C64.5253 154.005 64.5353 153.825 64.5353 153.635C64.5353 152.014 63.4248 150.923 61.854 150.923C60.2232 150.923 59.1026 152.034 59.1026 153.765C59.1026 155.496 60.2732 156.616 61.854 156.616C63.2047 156.616 64.0751 155.846 64.3853 154.885Z" fill="#1D9AAC"/>
<path d="M366.471 165.626H37.9119C27.7945 165.626 19.5928 173.827 19.5928 183.945V183.946C19.5928 194.063 27.7945 202.265 37.9119 202.265H366.471C376.588 202.265 384.79 194.063 384.79 183.946V183.945C384.79 173.827 376.588 165.626 366.471 165.626Z" stroke="#969696" stroke-width="0.516" stroke-miterlimit="10"/>
<path d="M41.2297 254.06C41.2297 250.962 36.7154 252.307 36.7154 250.146C36.7154 249.245 37.4238 248.777 38.3242 248.801C39.3448 248.813 39.873 249.449 39.9451 250.014H41.1457C41.0136 248.741 39.9691 247.865 38.3723 247.865C36.7154 247.865 35.5989 248.801 35.5989 250.182C35.5989 253.291 40.1251 251.851 40.1251 254.108C40.1251 254.9 39.5008 255.5 38.4443 255.5C37.2797 255.5 36.7875 254.804 36.7154 254.108H35.5509C35.5749 255.488 36.7635 256.425 38.4443 256.425C40.2572 256.425 41.2297 255.248 41.2297 254.06ZM45.6349 250.578C46.7634 250.578 47.7239 251.286 47.7119 252.571H43.5578C43.6779 251.286 44.5663 250.578 45.6349 250.578ZM48.7084 254.312H47.5318C47.2917 255.02 46.6674 255.525 45.6829 255.525C44.5663 255.525 43.6299 254.792 43.5458 253.459H48.8044C48.8285 253.231 48.8405 253.039 48.8405 252.799C48.8405 250.998 47.5918 249.654 45.6829 249.654C43.7619 249.654 42.4293 250.962 42.4293 253.039C42.4293 255.128 43.81 256.449 45.6829 256.449C47.3157 256.449 48.3722 255.512 48.7084 254.312ZM50.2826 256.341H51.3751V247.456H50.2826V256.341ZM56.0346 250.578C57.1631 250.578 58.1236 251.286 58.1116 252.571H53.9575C54.0776 251.286 54.966 250.578 56.0346 250.578ZM59.1081 254.312H57.9315C57.6914 255.02 57.0671 255.525 56.0826 255.525C54.966 255.525 54.0296 254.792 53.9455 253.459H59.2042C59.2282 253.231 59.2402 253.039 59.2402 252.799C59.2402 250.998 57.9916 249.654 56.0826 249.654C54.1616 249.654 52.829 250.962 52.829 253.039C52.829 255.128 54.2097 256.449 56.0826 256.449C57.7154 256.449 58.7719 255.512 59.1081 254.312ZM60.2741 253.039C60.2741 255.128 61.6068 256.449 63.4797 256.449C65.1125 256.449 66.1811 255.537 66.5172 254.228H65.3406C65.1005 255.056 64.4522 255.525 63.4797 255.525C62.2791 255.525 61.3907 254.672 61.3907 253.039C61.3907 251.43 62.2791 250.578 63.4797 250.578C64.4522 250.578 65.1125 251.082 65.3406 251.875H66.5172C66.1811 250.494 65.1125 249.654 63.4797 249.654C61.6068 249.654 60.2741 250.974 60.2741 253.039ZM68.2151 254.54C68.2151 255.861 68.8755 256.341 70.04 256.341H71.0245V255.416H70.2201C69.5478 255.416 69.3077 255.188 69.3077 254.54V250.662H71.0245V249.762H69.3077V248.105H68.2151V249.762H67.3627V250.662H68.2151V254.54ZM80.0273 250.434C80.0273 251.37 79.4871 252.043 78.2504 252.043H76.6416V248.873H78.2504C79.4991 248.873 80.0273 249.485 80.0273 250.434ZM75.5491 247.973V256.341H76.6416V252.919H77.9623L79.9553 256.341H81.264L79.1629 252.835C80.5676 252.523 81.1559 251.502 81.1559 250.434C81.1559 249.065 80.2194 247.973 78.2504 247.973H75.5491ZM89.0966 253.039C89.0966 250.962 87.6439 249.654 85.771 249.654C83.9101 249.654 82.4453 250.962 82.4453 253.039C82.4453 255.128 83.862 256.449 85.723 256.449C87.5959 256.449 89.0966 255.128 89.0966 253.039ZM83.5619 253.039C83.5619 251.382 84.6064 250.602 85.759 250.602C86.8875 250.602 87.9801 251.382 87.9801 253.039C87.9801 254.708 86.8635 255.488 85.723 255.488C84.5824 255.488 83.5619 254.708 83.5619 253.039ZM90.5331 256.341H91.6257V247.456H90.5331V256.341ZM96.2851 250.578C97.4137 250.578 98.3742 251.286 98.3622 252.571H94.2081C94.3282 251.286 95.2166 250.578 96.2851 250.578ZM99.3587 254.312H98.1821C97.942 255.02 97.3177 255.525 96.3332 255.525C95.2166 255.525 94.2801 254.792 94.1961 253.459H99.4547C99.4787 253.231 99.4907 253.039 99.4907 252.799C99.4907 250.998 98.2421 249.654 96.3332 249.654C94.4122 249.654 93.0795 250.962 93.0795 253.039C93.0795 255.128 94.4602 256.449 96.3332 256.449C97.966 256.449 99.0225 255.512 99.3587 254.312Z" fill="#666666"/>
<path d="M39.6116 218.569C39.6116 219.259 39.2114 219.75 38.321 219.75H37.0603V217.418H38.321C39.2114 217.418 39.6116 217.869 39.6116 218.569ZM35.9198 216.488V223.441H37.0603V220.66H37.9308L39.5316 223.441H40.8923L39.1714 220.56C40.342 220.27 40.7822 219.389 40.7822 218.569C40.7822 217.439 39.9718 216.488 38.321 216.488H35.9198ZM47.4939 220.68C47.4939 218.949 46.2533 217.839 44.6825 217.839C43.1117 217.839 41.8711 218.949 41.8711 220.68C41.8711 222.411 43.0617 223.532 44.6325 223.532C46.2133 223.532 47.4939 222.411 47.4939 220.68ZM43.0317 220.68C43.0317 219.429 43.8021 218.829 44.6625 218.829C45.5129 218.829 46.3233 219.429 46.3233 220.68C46.3233 221.931 45.4829 222.541 44.6325 222.541C43.7721 222.541 43.0317 221.931 43.0317 220.68ZM48.6214 223.441H49.762V216.038H48.6214V223.441ZM53.5806 218.799C54.431 218.799 55.1014 219.339 55.1214 220.19H52.0699C52.1899 219.319 52.8102 218.799 53.5806 218.799ZM56.1619 221.801H54.9313C54.7212 222.231 54.331 222.571 53.6306 222.571C52.7902 222.571 52.1399 222.021 52.0599 221.11H56.272C56.302 220.92 56.312 220.74 56.312 220.55C56.312 218.929 55.2014 217.839 53.6306 217.839C51.9998 217.839 50.8793 218.949 50.8793 220.68C50.8793 222.411 52.0499 223.532 53.6306 223.532C54.9813 223.532 55.8518 222.761 56.1619 221.801Z" fill="#1D9AAC"/>
<path d="M366.229 232.541H37.6696C27.5522 232.541 19.3505 240.743 19.3505 250.86V250.861C19.3505 260.979 27.5522 269.18 37.6696 269.18H366.229C376.346 269.18 384.548 260.979 384.548 250.861V250.86C384.548 240.743 376.346 232.541 366.229 232.541Z" stroke="#969696" stroke-width="0.516" stroke-miterlimit="10"/>
<path d="M39.0456 456.588C40.1742 456.588 41.1347 457.296 41.1227 458.581H36.9686C37.0887 457.296 37.9771 456.588 39.0456 456.588ZM42.1192 460.322H40.9426C40.7025 461.03 40.0782 461.534 39.0937 461.534C37.9771 461.534 37.0406 460.802 36.9566 459.469H42.2152C42.2392 459.241 42.2512 459.049 42.2512 458.809C42.2512 457.008 41.0026 455.663 39.0937 455.663C37.1727 455.663 35.84 456.972 35.84 459.049C35.84 461.138 37.2207 462.459 39.0937 462.459C40.7265 462.459 41.783 461.522 42.1192 460.322ZM43.2852 459.037C43.2852 461.078 44.6418 462.459 46.4067 462.459C47.6073 462.459 48.4597 461.822 48.8559 461.114V462.495C48.8559 463.899 47.9795 464.644 46.8149 464.644C45.7344 464.644 44.954 464.104 44.7139 463.311H43.6333C43.8494 464.716 45.0861 465.592 46.8149 465.592C48.7479 465.592 49.9605 464.308 49.9605 462.495V455.771H48.8559V456.972C48.4717 456.264 47.6073 455.663 46.4067 455.663C44.6418 455.663 43.2852 456.984 43.2852 459.037ZM48.8559 459.049C48.8559 460.598 47.8234 461.498 46.6228 461.498C45.4222 461.498 44.4017 460.586 44.4017 459.037C44.4017 457.488 45.4222 456.612 46.6228 456.612C47.8234 456.612 48.8559 457.524 48.8559 459.049ZM52.8753 461.678C52.8753 461.258 52.5512 460.934 52.155 460.934C51.7347 460.934 51.4106 461.258 51.4106 461.678C51.4106 462.099 51.7347 462.423 52.155 462.423C52.5512 462.423 52.8753 462.099 52.8753 461.678ZM58.1167 454.703C58.5249 454.703 58.849 454.379 58.849 453.959C58.849 453.538 58.5249 453.214 58.1167 453.214C57.7085 453.214 57.3843 453.538 57.3843 453.959C57.3843 454.379 57.7085 454.703 58.1167 454.703ZM57.5644 455.771V463.755C57.5644 464.332 57.3363 464.548 56.736 464.548H56.2798V465.472H56.9161C58.0326 465.472 58.657 464.968 58.657 463.779V455.771H57.5644ZM66.7496 459.049C66.7496 456.972 65.2968 455.663 63.4239 455.663C61.563 455.663 60.0982 456.972 60.0982 459.049C60.0982 461.138 61.5149 462.459 63.3759 462.459C65.2488 462.459 66.7496 461.138 66.7496 459.049ZM61.2148 459.049C61.2148 457.392 62.2593 456.612 63.4119 456.612C64.5405 456.612 65.633 457.392 65.633 459.049C65.633 460.718 64.5164 461.498 63.3759 461.498C62.2353 461.498 61.2148 460.718 61.2148 459.049ZM68.1861 462.351H69.2786V458.713C69.2786 457.296 70.047 456.6 71.1635 456.6C72.2681 456.6 73.0005 457.284 73.0005 458.629V462.351H74.081V458.473C74.081 456.588 72.9164 455.651 71.4517 455.651C70.5272 455.651 69.7108 456.024 69.2786 456.72V453.466H68.1861V462.351ZM80.6801 462.351H81.7606V458.473C81.7606 456.588 80.596 455.651 79.0713 455.651C78.1828 455.651 77.3904 456.024 76.9582 456.708V455.771H75.8657V462.351H76.9582V458.713C76.9582 457.296 77.7266 456.6 78.8432 456.6C79.9477 456.6 80.6801 457.284 80.6801 458.629V462.351ZM83.1371 459.037C83.1371 461.078 84.4938 462.459 86.2586 462.459C87.4592 462.459 88.3117 461.846 88.7079 461.114V462.351H89.8124V453.466H88.7079V456.948C88.2516 456.192 87.3032 455.663 86.2706 455.663C84.4938 455.663 83.1371 456.984 83.1371 459.037ZM88.7079 459.049C88.7079 460.598 87.6753 461.498 86.4747 461.498C85.2741 461.498 84.2536 460.586 84.2536 459.037C84.2536 457.488 85.2741 456.612 86.4747 456.612C87.6753 456.612 88.7079 457.524 88.7079 459.049ZM91.2505 459.037C91.2505 461.078 92.6072 462.459 94.36 462.459C95.5727 462.459 96.4251 461.834 96.8213 461.126V462.351H97.9258V455.771H96.8213V456.972C96.4371 456.288 95.5967 455.663 94.3721 455.663C92.6072 455.663 91.2505 456.984 91.2505 459.037ZM96.8213 459.049C96.8213 460.598 95.7888 461.498 94.5882 461.498C93.3876 461.498 92.3671 460.586 92.3671 459.037C92.3671 457.488 93.3876 456.612 94.5882 456.612C95.7888 456.612 96.8213 457.524 96.8213 459.049ZM98.9917 455.771L101.573 462.351H102.846L105.427 455.771H104.262L102.221 461.342L100.168 455.771H98.9917ZM109.299 456.588C110.428 456.588 111.388 457.296 111.376 458.581H107.222C107.342 457.296 108.231 456.588 109.299 456.588ZM112.373 460.322H111.196C110.956 461.03 110.332 461.534 109.347 461.534C108.231 461.534 107.294 460.802 107.21 459.469H112.469C112.493 459.241 112.505 459.049 112.505 458.809C112.505 457.008 111.256 455.663 109.347 455.663C107.427 455.663 106.094 456.972 106.094 459.049C106.094 461.138 107.475 462.459 109.347 462.459C110.98 462.459 112.037 461.522 112.373 460.322ZM121.703 462.435C123.372 462.435 124.308 460.514 124.308 458.665C124.308 456.288 122.664 454.655 119.95 454.655C116.42 454.655 113.887 457.332 113.887 460.754C113.887 463.191 115.604 464.74 118.197 464.74C119.026 464.74 119.83 464.596 120.55 464.296L120.406 463.551C119.794 463.839 119.074 463.96 118.413 463.96C116.156 463.96 114.788 462.795 114.8 460.658C114.8 457.716 116.913 455.423 119.818 455.423C122.111 455.423 123.42 456.636 123.42 458.725C123.42 459.986 122.904 461.69 121.871 461.69C121.259 461.69 121.163 461.234 121.271 460.55L121.871 457.08H120.923L120.791 457.824C120.526 457.248 120.01 456.96 119.254 456.96C117.501 456.96 116.3 458.581 116.3 460.37C116.3 461.618 117.021 462.435 118.257 462.435C119.098 462.435 119.914 462.015 120.406 461.318C120.466 461.991 120.887 462.435 121.703 462.435ZM120.55 459.385C120.478 460.622 119.638 461.582 118.581 461.582C117.741 461.582 117.321 461.018 117.321 460.202C117.321 459.013 118.053 457.8 119.254 457.8C120.19 457.8 120.622 458.509 120.55 459.385ZM125.697 459.037C125.697 461.078 127.054 462.459 128.819 462.459C130.02 462.459 130.872 461.822 131.268 461.114V462.495C131.268 463.899 130.392 464.644 129.227 464.644C128.147 464.644 127.366 464.104 127.126 463.311H126.046C126.262 464.716 127.498 465.592 129.227 465.592C131.16 465.592 132.373 464.308 132.373 462.495V455.771H131.268V456.972C130.884 456.264 130.02 455.663 128.819 455.663C127.054 455.663 125.697 456.984 125.697 459.037ZM131.268 459.049C131.268 460.598 130.236 461.498 129.035 461.498C127.834 461.498 126.814 460.586 126.814 459.037C126.814 457.488 127.834 456.612 129.035 456.612C130.236 456.612 131.268 457.524 131.268 459.049ZM143.716 462.351H144.796V458.473C144.796 456.588 143.632 455.651 142.131 455.651C141.122 455.651 140.186 456.168 139.802 457.116C139.37 456.132 138.469 455.651 137.389 455.651C136.524 455.651 135.744 456.024 135.312 456.72V455.771H134.219V462.351H135.312V458.725C135.312 457.308 136.068 456.6 137.172 456.6C138.253 456.6 138.973 457.284 138.973 458.629V462.351H140.054V458.725C140.054 457.308 140.81 456.6 141.915 456.6C142.995 456.6 143.716 457.284 143.716 458.629V462.351ZM146.18 459.037C146.18 461.078 147.537 462.459 149.29 462.459C150.502 462.459 151.355 461.834 151.751 461.126V462.351H152.856V455.771H151.751V456.972C151.367 456.288 150.526 455.663 149.302 455.663C147.537 455.663 146.18 456.984 146.18 459.037ZM151.751 459.049C151.751 460.598 150.719 461.498 149.518 461.498C148.317 461.498 147.297 460.586 147.297 459.037C147.297 457.488 148.317 456.612 149.518 456.612C150.719 456.612 151.751 457.524 151.751 459.049ZM154.702 462.351H155.794V455.771H154.702V462.351ZM155.266 454.703C155.662 454.703 155.987 454.379 155.987 453.959C155.987 453.538 155.662 453.214 155.266 453.214C154.846 453.214 154.522 453.538 154.522 453.959C154.522 454.379 154.846 454.703 155.266 454.703ZM157.656 462.351H158.749V453.466H157.656V462.351ZM161.68 461.678C161.68 461.258 161.355 460.934 160.959 460.934C160.539 460.934 160.215 461.258 160.215 461.678C160.215 462.099 160.539 462.423 160.959 462.423C161.355 462.423 161.68 462.099 161.68 461.678ZM162.724 459.049C162.724 461.138 164.056 462.459 165.929 462.459C167.562 462.459 168.631 461.546 168.967 460.238H167.79C167.55 461.066 166.902 461.534 165.929 461.534C164.729 461.534 163.84 460.682 163.84 459.049C163.84 457.44 164.729 456.588 165.929 456.588C166.902 456.588 167.562 457.092 167.79 457.884H168.967C168.631 456.504 167.562 455.663 165.929 455.663C164.056 455.663 162.724 456.984 162.724 459.049ZM176.668 459.049C176.668 456.972 175.215 455.663 173.342 455.663C171.481 455.663 170.016 456.972 170.016 459.049C170.016 461.138 171.433 462.459 173.294 462.459C175.167 462.459 176.668 461.138 176.668 459.049ZM171.133 459.049C171.133 457.392 172.177 456.612 173.33 456.612C174.459 456.612 175.551 457.392 175.551 459.049C175.551 460.718 174.435 461.498 173.294 461.498C172.153 461.498 171.133 460.718 171.133 459.049ZM187.601 462.351H188.681V458.473C188.681 456.588 187.517 455.651 186.016 455.651C185.008 455.651 184.071 456.168 183.687 457.116C183.255 456.132 182.354 455.651 181.274 455.651C180.409 455.651 179.629 456.024 179.197 456.72V455.771H178.104V462.351H179.197V458.725C179.197 457.308 179.953 456.6 181.058 456.6C182.138 456.6 182.859 457.284 182.859 458.629V462.351H183.939V458.725C183.939 457.308 184.695 456.6 185.8 456.6C186.881 456.6 187.601 457.284 187.601 458.629V462.351Z" fill="#666666"/>
<path d="M39.2185 422.487H35.3765V429.45H39.2185V428.52H36.5171V426.389H38.9183V425.458H36.5171V423.417H39.2185V422.487ZM48.4372 429.45H49.5678V426.199C49.5678 424.658 48.5873 423.847 47.2966 423.847C46.4962 423.847 45.7158 424.268 45.3757 424.938C44.9955 424.218 44.2651 423.847 43.3947 423.847C42.7344 423.847 42.1341 424.118 41.7639 424.568V423.938H40.6233V429.45H41.7639V426.369C41.7639 425.358 42.3141 424.838 43.1546 424.838C43.985 424.838 44.5353 425.358 44.5353 426.369V429.45H45.6658V426.369C45.6658 425.358 46.2161 424.838 47.0565 424.838C47.8869 424.838 48.4372 425.358 48.4372 426.369V429.45ZM50.6389 426.669C50.6389 428.37 51.7895 429.54 53.2202 429.54C54.1407 429.54 54.801 429.1 55.1512 428.63V429.45H56.3017V423.938H55.1512V424.738C54.811 424.288 54.1707 423.847 53.2402 423.847C51.7895 423.847 50.6389 424.968 50.6389 426.669ZM55.1512 426.689C55.1512 427.88 54.3408 428.55 53.4803 428.55C52.6299 428.55 51.8095 427.859 51.8095 426.669C51.8095 425.478 52.6299 424.838 53.4803 424.838C54.3408 424.838 55.1512 425.508 55.1512 426.689ZM57.7998 429.45H58.9404V423.938H57.7998V429.45ZM58.3801 423.207C58.7803 423.207 59.1005 422.887 59.1005 422.477C59.1005 422.067 58.7803 421.746 58.3801 421.746C57.9699 421.746 57.6498 422.067 57.6498 422.477C57.6498 422.887 57.9699 423.207 58.3801 423.207ZM60.4379 429.45H61.5784V422.047H60.4379V429.45ZM70.3672 429.45H71.5678L69.0766 422.487H67.7559L65.2647 429.45H66.4553L66.9555 428.03H69.867L70.3672 429.45ZM69.5468 427.099H67.2757L68.4162 423.867L69.5468 427.099ZM72.2708 426.669C72.2708 428.37 73.4214 429.54 74.8721 429.54C75.7726 429.54 76.4329 429.12 76.7831 428.62V429.45H77.9336V422.047H76.7831V424.708C76.3629 424.188 75.6025 423.847 74.8821 423.847C73.4214 423.847 72.2708 424.968 72.2708 426.669ZM76.7831 426.689C76.7831 427.88 75.9727 428.55 75.1122 428.55C74.2618 428.55 73.4414 427.859 73.4414 426.669C73.4414 425.478 74.2618 424.838 75.1122 424.838C75.9727 424.838 76.7831 425.508 76.7831 426.689ZM79.0515 426.669C79.0515 428.37 80.2021 429.54 81.6528 429.54C82.5533 429.54 83.2136 429.12 83.5638 428.62V429.45H84.7144V422.047H83.5638V424.708C83.1436 424.188 82.3832 423.847 81.6628 423.847C80.2021 423.847 79.0515 424.968 79.0515 426.669ZM83.5638 426.689C83.5638 427.88 82.7534 428.55 81.893 428.55C81.0425 428.55 80.2221 427.859 80.2221 426.669C80.2221 425.478 81.0425 424.838 81.893 424.838C82.7534 424.838 83.5638 425.508 83.5638 426.689ZM87.353 426.549C87.353 425.378 87.8733 425.028 88.7137 425.028H89.0038V423.847C88.2235 423.847 87.6732 424.188 87.353 424.738V423.938H86.2125V429.45H87.353V426.549ZM92.3734 424.808C93.2238 424.808 93.8942 425.348 93.9142 426.199H90.8627C90.9827 425.328 91.603 424.808 92.3734 424.808ZM94.9547 427.809H93.7241C93.514 428.24 93.1238 428.58 92.4234 428.58C91.583 428.58 90.9327 428.03 90.8527 427.119H95.0648C95.0948 426.929 95.1048 426.749 95.1048 426.559C95.1048 424.938 93.9942 423.847 92.4234 423.847C90.7926 423.847 89.6721 424.958 89.6721 426.689C89.6721 428.42 90.8427 429.54 92.4234 429.54C93.7741 429.54 94.6446 428.77 94.9547 427.809ZM100.339 427.91C100.279 425.919 97.1677 426.539 97.1677 425.428C97.1677 425.058 97.4878 424.808 98.0981 424.808C98.7185 424.808 99.0886 425.138 99.1287 425.618H100.269C100.209 424.518 99.3888 423.847 98.1382 423.847C96.8375 423.847 96.0171 424.558 96.0171 425.438C96.0171 427.459 99.2187 426.839 99.2187 427.92C99.2187 428.3 98.8685 428.58 98.2082 428.58C97.5779 428.58 97.1477 428.21 97.1077 427.759H95.9271C95.9771 428.76 96.9076 429.54 98.2282 429.54C99.5289 429.54 100.339 428.84 100.339 427.91ZM105.684 427.91C105.624 425.919 102.512 426.539 102.512 425.428C102.512 425.058 102.832 424.808 103.443 424.808C104.063 424.808 104.433 425.138 104.473 425.618H105.614C105.554 424.518 104.733 423.847 103.483 423.847C102.182 423.847 101.362 424.558 101.362 425.438C101.362 427.459 104.563 426.839 104.563 427.92C104.563 428.3 104.213 428.58 103.553 428.58C102.922 428.58 102.492 428.21 102.452 427.759H101.272C101.322 428.76 102.252 429.54 103.573 429.54C104.873 429.54 105.684 428.84 105.684 427.91Z" fill="#1D9AAC"/>
<path d="M365.486 438.55H36.9266C26.8092 438.55 18.6074 446.752 18.6074 456.869V456.87C18.6074 466.987 26.8092 475.189 36.9266 475.189H365.486C375.603 475.189 383.805 466.987 383.805 456.87V456.869C383.805 446.752 375.603 438.55 365.486 438.55Z" stroke="#969696" stroke-width="0.516" stroke-miterlimit="10"/>
<path d="M41.4056 530.164C41.4056 527.066 36.8913 528.411 36.8913 526.25C36.8913 525.349 37.5997 524.881 38.5001 524.905C39.5206 524.917 40.0489 525.553 40.1209 526.118H41.3215C41.1895 524.845 40.1449 523.968 38.5481 523.968C36.8913 523.968 35.7748 524.905 35.7748 526.286C35.7748 529.395 40.301 527.954 40.301 530.212C40.301 531.004 39.6767 531.604 38.6202 531.604C37.4556 531.604 36.9633 530.908 36.8913 530.212H35.7267C35.7507 531.592 36.9393 532.529 38.6202 532.529C40.4331 532.529 41.4056 531.352 41.4056 530.164ZM45.8107 526.682C46.9393 526.682 47.8998 527.39 47.8878 528.675H43.7337C43.8538 527.39 44.7422 526.682 45.8107 526.682ZM48.8843 530.416H47.7077C47.4676 531.124 46.8432 531.628 45.8588 531.628C44.7422 531.628 43.8057 530.896 43.7217 529.563H48.9803C49.0043 529.335 49.0163 529.143 49.0163 528.903C49.0163 527.102 47.7677 525.757 45.8588 525.757C43.9378 525.757 42.6051 527.066 42.6051 529.143C42.6051 531.232 43.9858 532.553 45.8588 532.553C47.4916 532.553 48.5481 531.616 48.8843 530.416ZM50.4585 532.445H51.551V523.56H50.4585V532.445ZM56.2105 526.682C57.339 526.682 58.2995 527.39 58.2875 528.675H54.1334C54.2535 527.39 55.1419 526.682 56.2105 526.682ZM59.284 530.416H58.1074C57.8673 531.124 57.243 531.628 56.2585 531.628C55.1419 531.628 54.2055 530.896 54.1214 529.563H59.38C59.404 529.335 59.4161 529.143 59.4161 528.903C59.4161 527.102 58.1674 525.757 56.2585 525.757C54.3375 525.757 53.0049 527.066 53.0049 529.143C53.0049 531.232 54.3855 532.553 56.2585 532.553C57.8913 532.553 58.9478 531.616 59.284 530.416ZM60.45 529.143C60.45 531.232 61.7826 532.553 63.6556 532.553C65.2884 532.553 66.3569 531.64 66.6931 530.332H65.5165C65.2764 531.16 64.6281 531.628 63.6556 531.628C62.455 531.628 61.5665 530.776 61.5665 529.143C61.5665 527.534 62.455 526.682 63.6556 526.682C64.6281 526.682 65.2884 527.186 65.5165 527.978H66.6931C66.3569 526.598 65.2884 525.757 63.6556 525.757C61.7826 525.757 60.45 527.078 60.45 529.143ZM68.391 530.644C68.391 531.964 69.0513 532.445 70.2159 532.445H71.2004V531.52H70.396C69.7237 531.52 69.4835 531.292 69.4835 530.644V526.766H71.2004V525.865H69.4835V524.209H68.391V525.865H67.5386V526.766H68.391V530.644ZM75.3168 528.255C75.3168 530.764 77.1537 532.517 79.4949 532.517C81.3078 532.517 82.7485 531.616 83.3728 530.007H82.0641C81.6079 531.004 80.7195 531.568 79.4949 531.568C77.742 531.568 76.4333 530.296 76.4333 528.255C76.4333 526.202 77.742 524.929 79.4949 524.929C80.7195 524.929 81.6079 525.493 82.0641 526.502H83.3728C82.7485 524.881 81.3078 523.968 79.4949 523.968C77.1537 523.968 75.3168 525.745 75.3168 528.255ZM91.2422 529.143C91.2422 527.066 89.7895 525.757 87.9166 525.757C86.0557 525.757 84.5909 527.066 84.5909 529.143C84.5909 531.232 86.0076 532.553 87.8686 532.553C89.7415 532.553 91.2422 531.232 91.2422 529.143ZM85.7075 529.143C85.7075 527.486 86.752 526.706 87.9046 526.706C89.0331 526.706 90.1257 527.486 90.1257 529.143C90.1257 530.812 89.0091 531.592 87.8686 531.592C86.728 531.592 85.7075 530.812 85.7075 529.143ZM98.5137 525.865H97.4211V529.479C97.4211 530.896 96.6647 531.592 95.5362 531.592C94.4316 531.592 93.6993 530.908 93.6993 529.575V525.865H92.6187V529.719C92.6187 531.604 93.8073 532.541 95.3201 532.541C96.1965 532.541 97.0009 532.157 97.4211 531.472V532.445H98.5137V525.865ZM105.173 532.445H106.253V528.567C106.253 526.682 105.089 525.745 103.564 525.745C102.676 525.745 101.883 526.118 101.451 526.802V525.865H100.358V532.445H101.451V528.807C101.451 527.39 102.219 526.694 103.336 526.694C104.44 526.694 105.173 527.378 105.173 528.723V532.445ZM108.278 530.644C108.278 531.964 108.938 532.445 110.103 532.445H111.087V531.52H110.283C109.611 531.52 109.371 531.292 109.371 530.644V526.766H111.087V525.865H109.371V524.209H108.278V525.865H107.426V526.766H108.278V530.644ZM113.504 528.867C113.504 527.342 114.296 526.874 115.341 526.874H115.629V525.745C114.584 525.745 113.876 526.202 113.504 526.934V525.865H112.411V532.445H113.504V528.867ZM119.387 531.196L117.322 525.865H116.11L118.763 532.373L117.466 535.542H118.595L122.557 525.865H121.428L119.387 531.196Z" fill="#666666"/>
<path d="M34.7154 496.053C34.7154 498.144 36.3062 499.604 38.2672 499.604C39.7179 499.604 40.9686 498.884 41.4988 497.523H40.1281C39.758 498.264 39.0976 498.614 38.2672 498.614C36.8865 498.614 35.886 497.623 35.886 496.053C35.886 494.482 36.8865 493.501 38.2672 493.501C39.0976 493.501 39.758 493.851 40.1281 494.592H41.4988C40.9686 493.231 39.7179 492.501 38.2672 492.501C36.3062 492.501 34.7154 493.972 34.7154 496.053ZM48.0865 496.783C48.0865 495.052 46.8459 493.941 45.2751 493.941C43.7043 493.941 42.4637 495.052 42.4637 496.783C42.4637 498.514 43.6543 499.634 45.2251 499.634C46.8059 499.634 48.0865 498.514 48.0865 496.783ZM43.6243 496.783C43.6243 495.532 44.3947 494.932 45.2551 494.932C46.1055 494.932 46.9159 495.532 46.9159 496.783C46.9159 498.034 46.0755 498.644 45.2251 498.644C44.3646 498.644 43.6243 498.034 43.6243 496.783ZM54.2065 494.032H53.0659V497.103C53.0659 498.114 52.5157 498.634 51.6752 498.634C50.8448 498.634 50.2945 498.114 50.2945 497.103V494.032H49.164V497.273C49.164 498.814 50.1445 499.624 51.4351 499.624C52.0854 499.624 52.7058 499.354 53.0659 498.884V499.544H54.2065V494.032ZM59.6233 499.544H60.7539V496.293C60.7539 494.752 59.7834 493.941 58.4928 493.941C57.8325 493.941 57.2221 494.212 56.852 494.662V494.032H55.7114V499.544H56.852V496.463C56.852 495.452 57.4022 494.932 58.2427 494.932C59.0731 494.932 59.6233 495.452 59.6233 496.463V499.544ZM62.3889 498.014C62.3889 499.134 62.9992 499.544 63.9797 499.544H64.8801V498.594H64.1798C63.6995 498.594 63.5394 498.424 63.5394 498.014V494.962H64.8801V494.032H63.5394V492.661H62.3889V494.032H61.7385V494.962H62.3889V498.014ZM67.0719 496.643C67.0719 495.472 67.5922 495.122 68.4326 495.122H68.7227V493.941C67.9423 493.941 67.3921 494.282 67.0719 494.832V494.032H65.9313V499.544H67.0719V496.643ZM71.9422 498.234L70.3915 494.032H69.1208L71.2919 499.454L70.1713 502.136H71.3519L74.7336 494.032H73.553L71.9422 498.234Z" fill="#1D9AAC"/>
<path d="M366.471 508.644H37.9119C27.7945 508.644 19.5928 516.846 19.5928 526.963V526.964C19.5928 537.081 27.7945 545.283 37.9119 545.283H366.471C376.588 545.283 384.79 537.081 384.79 526.964V526.963C384.79 516.846 376.588 508.644 366.471 508.644Z" stroke="#969696" stroke-width="0.516" stroke-miterlimit="10"/>
<path d="M41.4056 599.374C41.4056 596.277 36.8913 597.621 36.8913 595.46C36.8913 594.56 37.5997 594.091 38.5001 594.115C39.5206 594.127 40.0489 594.764 40.1209 595.328H41.3215C41.1895 594.055 40.1449 593.179 38.5481 593.179C36.8913 593.179 35.7748 594.115 35.7748 595.496C35.7748 598.606 40.301 597.165 40.301 599.422C40.301 600.214 39.6767 600.815 38.6202 600.815C37.4556 600.815 36.9633 600.118 36.8913 599.422H35.7267C35.7507 600.803 36.9393 601.739 38.6202 601.739C40.4331 601.739 41.4056 600.563 41.4056 599.374ZM45.8107 595.892C46.9393 595.892 47.8998 596.601 47.8878 597.885H43.7337C43.8538 596.601 44.7422 595.892 45.8107 595.892ZM48.8843 599.626H47.7077C47.4676 600.335 46.8432 600.839 45.8588 600.839C44.7422 600.839 43.8057 600.106 43.7217 598.774H48.9803C49.0043 598.546 49.0163 598.354 49.0163 598.113C49.0163 596.313 47.7677 594.968 45.8588 594.968C43.9378 594.968 42.6051 596.277 42.6051 598.354C42.6051 600.443 43.9858 601.763 45.8588 601.763C47.4916 601.763 48.5481 600.827 48.8843 599.626ZM50.4585 601.655H51.551V592.771H50.4585V601.655ZM56.2105 595.892C57.339 595.892 58.2995 596.601 58.2875 597.885H54.1334C54.2535 596.601 55.1419 595.892 56.2105 595.892ZM59.284 599.626H58.1074C57.8673 600.335 57.243 600.839 56.2585 600.839C55.1419 600.839 54.2055 600.106 54.1214 598.774H59.38C59.404 598.546 59.4161 598.354 59.4161 598.113C59.4161 596.313 58.1674 594.968 56.2585 594.968C54.3375 594.968 53.0049 596.277 53.0049 598.354C53.0049 600.443 54.3855 601.763 56.2585 601.763C57.8913 601.763 58.9478 600.827 59.284 599.626ZM60.45 598.354C60.45 600.443 61.7826 601.763 63.6556 601.763C65.2884 601.763 66.3569 600.851 66.6931 599.542H65.5165C65.2764 600.371 64.6281 600.839 63.6556 600.839C62.455 600.839 61.5665 599.986 61.5665 598.354C61.5665 596.745 62.455 595.892 63.6556 595.892C64.6281 595.892 65.2884 596.397 65.5165 597.189H66.6931C66.3569 595.808 65.2884 594.968 63.6556 594.968C61.7826 594.968 60.45 596.289 60.45 598.354ZM68.391 599.854C68.391 601.175 69.0513 601.655 70.2159 601.655H71.2004V600.731H70.396C69.7237 600.731 69.4835 600.503 69.4835 599.854V595.976H71.2004V595.076H69.4835V593.419H68.391V595.076H67.5386V595.976H68.391V599.854ZM81.1637 599.374C81.1637 596.277 76.6494 597.621 76.6494 595.46C76.6494 594.56 77.3578 594.091 78.2582 594.115C79.2787 594.127 79.807 594.764 79.879 595.328H81.0796C80.9476 594.055 79.9031 593.179 78.3063 593.179C76.6494 593.179 75.5329 594.115 75.5329 595.496C75.5329 598.606 80.0591 597.165 80.0591 599.422C80.0591 600.214 79.4348 600.815 78.3783 600.815C77.2137 600.815 76.7215 600.118 76.6494 599.422H75.4848C75.5089 600.803 76.6975 601.739 78.3783 601.739C80.1912 601.739 81.1637 600.563 81.1637 599.374ZM83.0116 599.854C83.0116 601.175 83.6719 601.655 84.8365 601.655H85.821V600.731H85.0166C84.3442 600.731 84.1041 600.503 84.1041 599.854V595.976H85.821V595.076H84.1041V593.419H83.0116V595.076H82.1591V595.976H83.0116V599.854ZM86.7365 598.342C86.7365 600.383 88.0932 601.763 89.8461 601.763C91.0587 601.763 91.9111 601.139 92.3073 600.431V601.655H93.4119V595.076H92.3073V596.277C91.9231 595.592 91.0827 594.968 89.8581 594.968C88.0932 594.968 86.7365 596.289 86.7365 598.342ZM92.3073 598.354C92.3073 599.902 91.2748 600.803 90.0742 600.803C88.8736 600.803 87.8531 599.89 87.8531 598.342C87.8531 596.793 88.8736 595.916 90.0742 595.916C91.2748 595.916 92.3073 596.829 92.3073 598.354ZM95.4983 599.854C95.4983 601.175 96.1586 601.655 97.3232 601.655H98.3077V600.731H97.5033C96.8309 600.731 96.5908 600.503 96.5908 599.854V595.976H98.3077V595.076H96.5908V593.419H95.4983V595.076H94.6458V595.976H95.4983V599.854ZM102.429 595.892C103.557 595.892 104.518 596.601 104.506 597.885H100.352C100.472 596.601 101.36 595.892 102.429 595.892ZM105.502 599.626H104.326C104.086 600.335 103.461 600.839 102.477 600.839C101.36 600.839 100.424 600.106 100.34 598.774H105.598C105.622 598.546 105.634 598.354 105.634 598.113C105.634 596.313 104.386 594.968 102.477 594.968C100.556 594.968 99.2232 596.277 99.2232 598.354C99.2232 600.443 100.604 601.763 102.477 601.763C104.11 601.763 105.166 600.827 105.502 599.626Z" fill="#666666"/>
<path d="M40.7885 566.785C40.7885 564.244 37.1066 565.224 37.1066 563.653C37.1066 562.983 37.6169 562.663 38.2772 562.683C38.9976 562.703 39.4078 563.133 39.4478 563.603H40.7084C40.6084 562.413 39.6679 561.712 38.3373 561.712C36.9165 561.712 35.9461 562.473 35.9461 563.693C35.9461 566.255 39.6379 565.164 39.6379 566.845C39.6379 567.435 39.1877 567.865 38.3873 567.865C37.5969 567.865 37.1967 567.405 37.1467 566.835H35.9261C35.9261 568.065 36.9966 568.826 38.3873 568.826C39.9381 568.826 40.7885 567.825 40.7885 566.785ZM42.3144 567.225C42.3144 568.346 42.9247 568.756 43.9052 568.756H44.8056V567.805H44.1053C43.625 567.805 43.465 567.635 43.465 567.225V564.174H44.8056V563.243H43.465V561.872H42.3144V563.243H41.6641V564.174H42.3144V567.225ZM45.4767 565.974C45.4767 567.675 46.6273 568.846 48.058 568.846C48.9784 568.846 49.6388 568.406 49.9889 567.935V568.756H51.1395V563.243H49.9889V564.043C49.6488 563.593 49.0084 563.153 48.078 563.153C46.6273 563.153 45.4767 564.274 45.4767 565.974ZM49.9889 565.994C49.9889 567.185 49.1785 567.855 48.3181 567.855C47.4677 567.855 46.6473 567.165 46.6473 565.974C46.6473 564.784 47.4677 564.143 48.3181 564.143C49.1785 564.143 49.9889 564.814 49.9889 565.994ZM52.8177 567.225C52.8177 568.346 53.428 568.756 54.4085 568.756H55.3089V567.805H54.6086C54.1283 567.805 53.9683 567.635 53.9683 567.225V564.174H55.3089V563.243H53.9683V561.872H52.8177V563.243H52.1674V564.174H52.8177V567.225ZM58.6813 564.113C59.5317 564.113 60.2021 564.654 60.2221 565.504H57.1706C57.2906 564.634 57.9109 564.113 58.6813 564.113ZM61.2626 567.115H60.032C59.8219 567.545 59.4317 567.885 58.7313 567.885C57.8909 567.885 57.2406 567.335 57.1606 566.425H61.3727C61.4027 566.235 61.4127 566.054 61.4127 565.864C61.4127 564.244 60.3021 563.153 58.7313 563.153C57.1005 563.153 55.98 564.264 55.98 565.994C55.98 567.725 57.1505 568.846 58.7313 568.846C60.082 568.846 60.9524 568.075 61.2626 567.115Z" fill="#1D9AAC"/>
<path d="M366.471 577.855H37.9119C27.7945 577.855 19.5928 586.057 19.5928 596.175V596.176C19.5928 606.293 27.7945 614.495 37.9119 614.495H366.471C376.588 614.495 384.79 606.293 384.79 596.176V596.175C384.79 586.057 376.588 577.855 366.471 577.855Z" stroke="#969696" stroke-width="0.516" stroke-miterlimit="10"/>
<path d="M35.2577 815.046C35.2577 817.137 36.8485 818.598 38.8095 818.598C40.2602 818.598 41.5108 817.877 42.0411 816.516H40.6704C40.3002 817.257 39.6399 817.607 38.8095 817.607C37.4288 817.607 36.4283 816.617 36.4283 815.046C36.4283 813.475 37.4288 812.494 38.8095 812.494C39.6399 812.494 40.3002 812.845 40.6704 813.585H42.0411C41.5108 812.224 40.2602 811.494 38.8095 811.494C36.8485 811.494 35.2577 812.965 35.2577 815.046ZM42.9959 815.756C42.9959 817.457 44.1465 818.628 45.5772 818.628C46.4977 818.628 47.158 818.187 47.5082 817.717V818.537H48.6588V813.025H47.5082V813.825C47.168 813.375 46.5277 812.935 45.5972 812.935C44.1465 812.935 42.9959 814.055 42.9959 815.756ZM47.5082 815.776C47.5082 816.967 46.6978 817.637 45.8374 817.637C44.9869 817.637 44.1665 816.947 44.1665 815.756C44.1665 814.565 44.9869 813.925 45.8374 813.925C46.6978 813.925 47.5082 814.596 47.5082 815.776ZM50.337 817.007C50.337 818.127 50.9473 818.537 51.9277 818.537H52.8282V817.587H52.1278C51.6476 817.587 51.4875 817.417 51.4875 817.007V813.955H52.8282V813.025H51.4875V811.654H50.337V813.025H49.6866V813.955H50.337V817.007ZM56.2006 813.895C57.051 813.895 57.7213 814.435 57.7414 815.286H54.6898C54.8099 814.415 55.4302 813.895 56.2006 813.895ZM58.7819 816.897H57.5513C57.3412 817.327 56.951 817.667 56.2506 817.667C55.4102 817.667 54.7599 817.117 54.6798 816.206H58.8919C58.9219 816.016 58.9319 815.836 58.9319 815.646C58.9319 814.025 57.8214 812.935 56.2506 812.935C54.6198 812.935 53.4992 814.045 53.4992 815.776C53.4992 817.507 54.6698 818.628 56.2506 818.628C57.6013 818.628 58.4717 817.857 58.7819 816.897ZM59.6742 815.756C59.6742 817.457 60.8248 818.628 62.2755 818.628C63.1759 818.628 63.8363 818.177 64.1864 817.707V818.628C64.1864 819.728 63.5261 820.268 62.6457 820.268C61.8553 820.268 61.245 819.878 61.0749 819.308H59.9443C60.0844 820.528 61.1749 821.259 62.6457 821.259C64.3665 821.259 65.337 820.128 65.337 818.628V813.025H64.1864V813.825C63.8463 813.355 63.1759 812.935 62.2755 812.935C60.8248 812.935 59.6742 814.055 59.6742 815.756ZM64.1864 815.776C64.1864 816.967 63.376 817.637 62.5156 817.637C61.6652 817.637 60.8448 816.947 60.8448 815.756C60.8448 814.565 61.6652 813.925 62.5156 813.925C63.376 813.925 64.1864 814.596 64.1864 815.776ZM72.0877 815.776C72.0877 814.045 70.8471 812.935 69.2763 812.935C67.7055 812.935 66.4649 814.045 66.4649 815.776C66.4649 817.507 67.6555 818.628 69.2263 818.628C70.8071 818.628 72.0877 817.507 72.0877 815.776ZM67.6255 815.776C67.6255 814.525 68.3959 813.925 69.2563 813.925C70.1067 813.925 70.9171 814.525 70.9171 815.776C70.9171 817.027 70.0767 817.637 69.2263 817.637C68.3659 817.637 67.6255 817.027 67.6255 815.776ZM74.3558 815.636C74.3558 814.465 74.8761 814.115 75.7165 814.115H76.0066V812.935C75.2262 812.935 74.676 813.275 74.3558 813.825V813.025H73.2152V818.537H74.3558V815.636ZM79.2261 817.227L77.6754 813.025H76.4047L78.5758 818.447L77.4553 821.129H78.6358L82.0175 813.025H80.8369L79.2261 817.227Z" fill="#808080"/>
<path d="M34.5601 783.146C34.5601 785.237 36.1509 786.698 38.1119 786.698C39.5626 786.698 40.8132 785.977 41.3435 784.617H39.9728C39.6026 785.357 38.9423 785.707 38.1119 785.707C36.7312 785.707 35.7307 784.717 35.7307 783.146C35.7307 781.575 36.7312 780.595 38.1119 780.595C38.9423 780.595 39.6026 780.945 39.9728 781.685H41.3435C40.8132 780.324 39.5626 779.594 38.1119 779.594C36.1509 779.594 34.5601 781.065 34.5601 783.146ZM42.2983 783.856C42.2983 785.557 43.4489 786.728 44.8796 786.728C45.8001 786.728 46.4604 786.287 46.8106 785.817V786.638H47.9612V781.125H46.8106V781.925C46.4704 781.475 45.8301 781.035 44.8996 781.035C43.4489 781.035 42.2983 782.155 42.2983 783.856ZM46.8106 783.876C46.8106 785.067 46.0002 785.737 45.1398 785.737C44.2893 785.737 43.4689 785.047 43.4689 783.856C43.4689 782.666 44.2893 782.025 45.1398 782.025C46.0002 782.025 46.8106 782.696 46.8106 783.876ZM49.6393 785.107C49.6393 786.227 50.2496 786.638 51.2301 786.638H52.1306V785.687H51.4302C50.95 785.687 50.7899 785.517 50.7899 785.107V782.055H52.1306V781.125H50.7899V779.754H49.6393V781.125H48.989V782.055H49.6393V785.107ZM55.503 781.995C56.3534 781.995 57.0237 782.535 57.0437 783.386H53.9922C54.1123 782.515 54.7326 781.995 55.503 781.995ZM58.0843 784.997H56.8536C56.6435 785.427 56.2533 785.767 55.553 785.767C54.7126 785.767 54.0623 785.217 53.9822 784.306H58.1943C58.2243 784.116 58.2343 783.936 58.2343 783.746C58.2343 782.125 57.1238 781.035 55.553 781.035C53.9222 781.035 52.8016 782.145 52.8016 783.876C52.8016 785.607 53.9722 786.728 55.553 786.728C56.9037 786.728 57.7741 785.957 58.0843 784.997ZM58.9766 783.856C58.9766 785.557 60.1272 786.728 61.5779 786.728C62.4783 786.728 63.1387 786.277 63.4888 785.807V786.728C63.4888 787.828 62.8285 788.368 61.9481 788.368C61.1577 788.368 60.5474 787.978 60.3773 787.408H59.2467C59.3868 788.629 60.4773 789.359 61.9481 789.359C63.6689 789.359 64.6394 788.228 64.6394 786.728V781.125H63.4888V781.925C63.1487 781.455 62.4783 781.035 61.5779 781.035C60.1272 781.035 58.9766 782.155 58.9766 783.856ZM63.4888 783.876C63.4888 785.067 62.6784 785.737 61.818 785.737C60.9676 785.737 60.1472 785.047 60.1472 783.856C60.1472 782.666 60.9676 782.025 61.818 782.025C62.6784 782.025 63.4888 782.696 63.4888 783.876ZM71.3901 783.876C71.3901 782.145 70.1495 781.035 68.5787 781.035C67.0079 781.035 65.7673 782.145 65.7673 783.876C65.7673 785.607 66.9579 786.728 68.5287 786.728C70.1095 786.728 71.3901 785.607 71.3901 783.876ZM66.9279 783.876C66.9279 782.626 67.6983 782.025 68.5587 782.025C69.4091 782.025 70.2195 782.626 70.2195 783.876C70.2195 785.127 69.3791 785.737 68.5287 785.737C67.6683 785.737 66.9279 785.127 66.9279 783.876ZM73.6582 783.736C73.6582 782.565 74.1785 782.215 75.0189 782.215H75.309V781.035C74.5286 781.035 73.9784 781.375 73.6582 781.925V781.125H72.5176V786.638H73.6582V783.736ZM78.5285 785.327L76.9777 781.125H75.7071L77.8782 786.547L76.7576 789.229H77.9382L81.3199 781.125H80.1393L78.5285 785.327Z" fill="#1D9AAC"/>
<path d="M366.258 794.737H37.6989C27.5815 794.737 19.3798 802.938 19.3798 813.056V813.057C19.3798 823.174 27.5815 831.376 37.6989 831.376H366.258C376.375 831.376 384.577 823.174 384.577 813.057V813.056C384.577 802.938 376.375 794.737 366.258 794.737Z" stroke="#969696" stroke-width="0.516" stroke-miterlimit="10"/>
<path d="M41.4056 885.467C41.4056 882.369 36.8913 883.714 36.8913 881.553C36.8913 880.652 37.5997 880.184 38.5001 880.208C39.5206 880.22 40.0489 880.857 40.1209 881.421H41.3215C41.1895 880.148 40.1449 879.272 38.5481 879.272C36.8913 879.272 35.7748 880.208 35.7748 881.589C35.7748 884.698 40.301 883.258 40.301 885.515C40.301 886.307 39.6767 886.908 38.6202 886.908C37.4556 886.908 36.9633 886.211 36.8913 885.515H35.7267C35.7507 886.896 36.9393 887.832 38.6202 887.832C40.4331 887.832 41.4056 886.655 41.4056 885.467ZM48.8482 881.169H47.7557V884.782C47.7557 886.199 46.9993 886.896 45.8708 886.896C44.7662 886.896 44.0338 886.211 44.0338 884.879V881.169H42.9533V885.023C42.9533 886.908 44.1419 887.844 45.6547 887.844C46.5311 887.844 47.3355 887.46 47.7557 886.775V887.748H48.8482V881.169ZM51.7855 882.393V878.864H50.6929V887.748H51.7855V886.535C52.1937 887.256 53.0461 887.856 54.2467 887.856C56.0116 887.856 57.3683 886.475 57.3683 884.434C57.3683 882.381 56.0236 881.061 54.2467 881.061C53.0821 881.061 52.2057 881.661 51.7855 882.393ZM56.2517 884.434C56.2517 885.983 55.2312 886.896 54.0186 886.896C52.83 886.896 51.7855 885.995 51.7855 884.446C51.7855 882.922 52.83 882.009 54.0186 882.009C55.2312 882.009 56.2517 882.886 56.2517 884.434ZM61.599 883.558C61.599 886.067 63.4359 887.82 65.7771 887.82C67.59 887.82 69.0307 886.92 69.655 885.311H68.3464C67.8901 886.307 67.0017 886.872 65.7771 886.872C64.0242 886.872 62.7155 885.599 62.7155 883.558C62.7155 881.505 64.0242 880.232 65.7771 880.232C67.0017 880.232 67.8901 880.797 68.3464 881.805H69.655C69.0307 880.184 67.59 879.272 65.7771 879.272C63.4359 879.272 61.599 881.049 61.599 883.558ZM70.8731 884.434C70.8731 886.475 72.2298 887.856 73.9827 887.856C75.1953 887.856 76.0477 887.232 76.4439 886.523V887.748H77.5485V881.169H76.4439V882.369C76.0597 881.685 75.2193 881.061 73.9947 881.061C72.2298 881.061 70.8731 882.381 70.8731 884.434ZM76.4439 884.446C76.4439 885.995 75.4114 886.896 74.2108 886.896C73.0102 886.896 71.9897 885.983 71.9897 884.434C71.9897 882.886 73.0102 882.009 74.2108 882.009C75.4114 882.009 76.4439 882.922 76.4439 884.446ZM79.6349 885.947C79.6349 887.268 80.2952 887.748 81.4598 887.748H82.4443V886.824H81.6399C80.9676 886.824 80.7274 886.595 80.7274 885.947V882.069H82.4443V881.169H80.7274V879.512H79.6349V881.169H78.7825V882.069H79.6349V885.947ZM86.5654 881.985C87.694 881.985 88.6545 882.693 88.6425 883.978H84.4884C84.6085 882.693 85.4969 881.985 86.5654 881.985ZM89.639 885.719H88.4624C88.2223 886.427 87.598 886.932 86.6135 886.932C85.4969 886.932 84.5604 886.199 84.4764 884.867H89.735C89.759 884.638 89.771 884.446 89.771 884.206C89.771 882.405 88.5224 881.061 86.6135 881.061C84.6925 881.061 83.3598 882.369 83.3598 884.446C83.3598 886.535 84.7405 887.856 86.6135 887.856C88.2463 887.856 89.3028 886.92 89.639 885.719ZM90.805 884.434C90.805 886.475 92.1616 887.856 93.9265 887.856C95.1271 887.856 95.9795 887.22 96.3757 886.511V887.892C96.3757 889.297 95.4993 890.041 94.3347 890.041C93.2542 890.041 92.4738 889.501 92.2337 888.708H91.1531C91.3692 890.113 92.6059 890.99 94.3347 890.99C96.2677 890.99 97.4803 889.705 97.4803 887.892V881.169H96.3757V882.369C95.9916 881.661 95.1271 881.061 93.9265 881.061C92.1616 881.061 90.805 882.381 90.805 884.434ZM96.3757 884.446C96.3757 885.995 95.3432 886.896 94.1426 886.896C92.942 886.896 91.9215 885.983 91.9215 884.434C91.9215 882.886 92.942 882.009 94.1426 882.009C95.3432 882.009 96.3757 882.922 96.3757 884.446ZM105.57 884.446C105.57 882.369 104.117 881.061 102.244 881.061C100.383 881.061 98.9184 882.369 98.9184 884.446C98.9184 886.535 100.335 887.856 102.196 887.856C104.069 887.856 105.57 886.535 105.57 884.446ZM100.035 884.446C100.035 882.789 101.079 882.009 102.232 882.009C103.361 882.009 104.453 882.789 104.453 884.446C104.453 886.115 103.337 886.896 102.196 886.896C101.055 886.896 100.035 886.115 100.035 884.446ZM108.099 884.17C108.099 882.645 108.891 882.177 109.936 882.177H110.224V881.049C109.179 881.049 108.471 881.505 108.099 882.237V881.169H107.006V887.748H108.099V884.17ZM113.982 886.499L111.917 881.169H110.705L113.358 887.676L112.061 890.846H113.19L117.152 881.169H116.023L113.982 886.499Z" fill="#666666"/>
<path d="M39.788 852.878C39.788 850.336 36.1061 851.317 36.1061 849.746C36.1061 849.076 36.6164 848.756 37.2767 848.776C37.9971 848.796 38.4073 849.226 38.4473 849.696H39.7079C39.6079 848.505 38.6674 847.805 37.3368 847.805C35.916 847.805 34.9456 848.565 34.9456 849.786C34.9456 852.347 38.6374 851.257 38.6374 852.938C38.6374 853.528 38.1872 853.958 37.3868 853.958C36.5964 853.958 36.1962 853.498 36.1462 852.928H34.9256C34.9256 854.158 35.9961 854.919 37.3868 854.919C38.9376 854.919 39.788 853.918 39.788 852.878ZM46.1263 849.336H44.9857V852.407C44.9857 853.418 44.4355 853.938 43.595 853.938C42.7646 853.938 42.2143 853.418 42.2143 852.407V849.336H41.0838V852.577C41.0838 854.118 42.0643 854.929 43.3549 854.929C44.0052 854.929 44.6255 854.658 44.9857 854.188V854.849H46.1263V849.336ZM48.7718 850.156V847.445H47.6312V854.849H48.7718V854.048C49.1319 854.528 49.7823 854.939 50.6927 854.939C52.1434 854.939 53.284 853.768 53.284 852.067C53.284 850.366 52.1534 849.246 50.6927 849.246C49.8223 849.246 49.1319 849.656 48.7718 850.156ZM52.1234 852.067C52.1234 853.258 51.303 853.948 50.4426 853.948C49.5922 853.948 48.7718 853.278 48.7718 852.087C48.7718 850.907 49.5922 850.236 50.4426 850.236C51.303 850.236 52.1234 850.877 52.1234 852.067ZM56.6307 851.357C56.6307 853.448 58.2215 854.909 60.1825 854.909C61.6332 854.909 62.8838 854.188 63.4141 852.828H62.0434C61.6732 853.568 61.0129 853.918 60.1825 853.918C58.8018 853.918 57.8013 852.928 57.8013 851.357C57.8013 849.786 58.8018 848.806 60.1825 848.806C61.0129 848.806 61.6732 849.156 62.0434 849.896H63.4141C62.8838 848.535 61.6332 847.805 60.1825 847.805C58.2215 847.805 56.6307 849.276 56.6307 851.357ZM64.3689 852.067C64.3689 853.768 65.5195 854.939 66.9502 854.939C67.8707 854.939 68.531 854.498 68.8812 854.028V854.849H70.0317V849.336H68.8812V850.136C68.541 849.686 67.9007 849.246 66.9702 849.246C65.5195 849.246 64.3689 850.366 64.3689 852.067ZM68.8812 852.087C68.8812 853.278 68.0708 853.948 67.2103 853.948C66.3599 853.948 65.5395 853.258 65.5395 852.067C65.5395 850.877 66.3599 850.236 67.2103 850.236C68.0708 850.236 68.8812 850.907 68.8812 852.087ZM71.7099 853.318C71.7099 854.438 72.3202 854.849 73.3007 854.849H74.2012V853.898H73.5008C73.0206 853.898 72.8605 853.728 72.8605 853.318V850.266H74.2012V849.336H72.8605V847.965H71.7099V849.336H71.0596V850.266H71.7099V853.318ZM77.5736 850.206C78.424 850.206 79.0943 850.747 79.1143 851.597H76.0628C76.1829 850.727 76.8032 850.206 77.5736 850.206ZM80.1548 853.208H78.9242C78.7141 853.638 78.3239 853.978 77.6236 853.978C76.7832 853.978 76.1328 853.428 76.0528 852.517H80.2649C80.2949 852.327 80.3049 852.147 80.3049 851.957C80.3049 850.336 79.1944 849.246 77.6236 849.246C75.9928 849.246 74.8722 850.356 74.8722 852.087C74.8722 853.818 76.0428 854.939 77.6236 854.939C78.9743 854.939 79.8447 854.168 80.1548 853.208ZM81.0472 852.067C81.0472 853.768 82.1977 854.939 83.6485 854.939C84.5489 854.939 85.2092 854.488 85.5594 854.018V854.939C85.5594 856.039 84.8991 856.579 84.0186 856.579C83.2282 856.579 82.6179 856.189 82.4479 855.619H81.3173C81.4574 856.84 82.5479 857.57 84.0186 857.57C85.7395 857.57 86.71 856.439 86.71 854.939V849.336H85.5594V850.136C85.2192 849.666 84.5489 849.246 83.6485 849.246C82.1977 849.246 81.0472 850.366 81.0472 852.067ZM85.5594 852.087C85.5594 853.278 84.749 853.948 83.8886 853.948C83.0382 853.948 82.2177 853.258 82.2177 852.067C82.2177 850.877 83.0382 850.236 83.8886 850.236C84.749 850.236 85.5594 850.907 85.5594 852.087ZM93.4607 852.087C93.4607 850.356 92.2201 849.246 90.6493 849.246C89.0785 849.246 87.8379 850.356 87.8379 852.087C87.8379 853.818 89.0285 854.939 90.5993 854.939C92.1801 854.939 93.4607 853.818 93.4607 852.087ZM88.9985 852.087C88.9985 850.837 89.7689 850.236 90.6293 850.236C91.4797 850.236 92.2901 850.837 92.2901 852.087C92.2901 853.338 91.4497 853.948 90.5993 853.948C89.7388 853.948 88.9985 853.338 88.9985 852.087ZM95.7288 851.947C95.7288 850.777 96.249 850.426 97.0895 850.426H97.3796V849.246C96.5992 849.246 96.0489 849.586 95.7288 850.136V849.336H94.5882V854.849H95.7288V851.947ZM100.599 853.538L99.0483 849.336H97.7777L99.9488 854.759L98.8282 857.44H100.009L103.39 849.336H102.21L100.599 853.538Z" fill="#1D9AAC"/>
<path d="M366.471 863.948H37.9119C27.7945 863.948 19.5928 872.15 19.5928 882.267V882.268C19.5928 892.386 27.7945 900.587 37.9119 900.587H366.471C376.588 900.587 384.79 892.386 384.79 882.268V882.267C384.79 872.15 376.588 863.948 366.471 863.948Z" stroke="#969696" stroke-width="0.516" stroke-miterlimit="10"/>
<path d="M38.7642 317.853C39.8928 317.853 40.8533 318.561 40.8413 319.846H36.6872C36.8073 318.561 37.6957 317.853 38.7642 317.853ZM41.8378 321.586H40.6612C40.4211 322.295 39.7968 322.799 38.8123 322.799C37.6957 322.799 36.7592 322.067 36.6752 320.734H41.9338C41.9578 320.506 41.9698 320.314 41.9698 320.074C41.9698 318.273 40.7212 316.928 38.8123 316.928C36.8913 316.928 35.5586 318.237 35.5586 320.314C35.5586 322.403 36.9393 323.724 38.8123 323.724C40.4451 323.724 41.5016 322.787 41.8378 321.586ZM43.0038 320.302C43.0038 322.343 44.3604 323.724 46.1253 323.724C47.3259 323.724 48.1783 323.087 48.5745 322.379V323.76C48.5745 325.164 47.6981 325.909 46.5335 325.909C45.453 325.909 44.6726 325.368 44.4325 324.576H43.3519C43.568 325.981 44.8047 326.857 46.5335 326.857C48.4665 326.857 49.6791 325.572 49.6791 323.76V317.036H48.5745V318.237C48.1904 317.528 47.3259 316.928 46.1253 316.928C44.3604 316.928 43.0038 318.249 43.0038 320.302ZM48.5745 320.314C48.5745 321.863 47.542 322.763 46.3414 322.763C45.1408 322.763 44.1203 321.851 44.1203 320.302C44.1203 318.753 45.1408 317.877 46.3414 317.877C47.542 317.877 48.5745 318.789 48.5745 320.314ZM52.5939 322.943C52.5939 322.523 52.2698 322.199 51.8736 322.199C51.4534 322.199 51.1292 322.523 51.1292 322.943C51.1292 323.363 51.4534 323.688 51.8736 323.688C52.2698 323.688 52.5939 323.363 52.5939 322.943ZM56.7187 314.959V315.896H61.353L57.9674 323.615H59.0719L62.4096 315.788V314.959H56.7187ZM65.2058 319.101C64.2333 319.389 63.5969 320.182 63.5969 321.274C63.5969 322.847 64.8336 323.856 66.6585 323.856C68.4954 323.856 69.744 322.847 69.744 321.274C69.744 320.194 69.1077 319.401 68.1232 319.101C68.9756 318.765 69.5159 318.045 69.5159 317.108C69.5159 315.848 68.5434 314.803 66.6585 314.803C64.7735 314.803 63.8131 315.836 63.8131 317.108C63.8131 318.081 64.3173 318.753 65.2058 319.101ZM66.6585 318.741C65.6019 318.741 64.8696 318.153 64.8696 317.252C64.8696 316.232 65.5899 315.716 66.6585 315.716C67.751 315.716 68.4594 316.244 68.4594 317.24C68.4594 318.141 67.727 318.741 66.6585 318.741ZM66.6585 319.581C67.799 319.581 68.6635 320.122 68.6635 321.238C68.6635 322.247 67.8951 322.943 66.6585 322.943C65.4219 322.943 64.6415 322.259 64.6415 321.238C64.6415 320.086 65.5419 319.581 66.6585 319.581ZM71.5913 321.286C71.7113 322.559 72.5517 323.627 74.2806 323.627C76.5617 323.627 77.2221 322.007 77.2221 319.113C77.2221 316.424 76.5377 314.767 74.1845 314.767C72.3116 314.767 71.3271 315.968 71.3271 317.625C71.3271 319.461 72.5157 320.458 74.1125 320.458C75.049 320.458 75.9134 320.038 76.2616 319.305C76.2976 321.851 75.6133 322.715 74.3406 322.715C73.3321 322.715 72.7558 322.187 72.5998 321.286H71.5913ZM74.2926 319.533C72.996 319.533 72.3716 318.717 72.3716 317.6C72.3716 316.448 73.08 315.68 74.2086 315.68C75.4572 315.68 76.1295 316.508 76.1295 317.685C76.1295 318.849 75.3371 319.533 74.2926 319.533ZM82.9355 323.615H84.016V321.683H85.2166V320.734H84.016V315.019H82.7074L78.4933 320.854V321.683H82.9355V323.615ZM79.7539 320.734L82.9835 316.16V320.734H79.7539ZM86.6202 314.923V319.822H87.6527C87.9409 319.137 88.5772 318.681 89.4536 318.681C90.7143 318.681 91.3506 319.401 91.3506 320.638C91.3506 321.827 90.7623 322.715 89.4416 322.715C88.4211 322.715 87.7128 322.175 87.5087 321.262H86.4401C86.6562 322.667 87.7008 323.64 89.4296 323.64C91.4586 323.64 92.3951 322.295 92.3951 320.614C92.3951 319.269 91.7228 317.745 89.6097 317.745C88.7573 317.745 87.9889 318.129 87.6287 318.621V315.884H91.8428V314.923H86.6202ZM99.6939 317C99.5498 315.788 98.7094 314.755 97.0526 314.755C94.8555 314.755 93.979 316.436 93.979 319.161C93.979 321.791 94.5914 323.64 97.1606 323.64C99.0576 323.64 99.994 322.343 99.994 320.758C99.994 318.933 98.9015 317.865 97.2807 317.865C96.2482 317.865 95.2997 318.345 94.9275 319.197C94.9155 316.616 95.6599 315.668 97.0406 315.668C98.0251 315.668 98.5173 316.16 98.6854 317H99.6939ZM97.0526 318.789C98.3012 318.789 98.9375 319.569 98.9375 320.794C98.9375 321.971 98.2292 322.727 97.1006 322.727C95.7319 322.727 95.0596 321.827 95.0596 320.674C95.0596 319.377 96.0561 318.789 97.0526 318.789ZM102.332 323.615H103.437V314.935H101.18V315.932H102.332V323.615ZM105.29 317.12H106.358C106.466 316.28 107.079 315.704 108.099 315.704C109.144 315.704 109.696 316.28 109.696 317.108C109.696 318.117 108.915 318.561 107.463 318.573H107.175V319.485H107.451C109.011 319.485 109.864 319.954 109.864 321.178C109.864 322.067 109.312 322.751 108.147 322.751C106.994 322.751 106.322 322.043 106.214 321.118H105.158C105.29 322.799 106.514 323.676 108.159 323.676C109.972 323.676 110.908 322.619 110.908 321.274C110.908 320.026 110.224 319.281 109.216 319.041V318.981C110.128 318.777 110.752 317.997 110.752 317C110.752 315.752 109.828 314.767 108.135 314.767C106.526 314.767 105.398 315.632 105.29 317.12ZM113.248 323.615H114.353V314.935H112.095V315.932H113.248V323.615Z" fill="#666666"/>
<path d="M35.0956 290.715H36.2362V285.953L38.3673 290.715H39.1577L41.2787 285.953V290.715H42.4193V283.762H41.1987L38.7675 289.214L36.3263 283.762H35.0956V290.715ZM49.171 287.954C49.171 286.223 47.9304 285.112 46.3596 285.112C44.7888 285.112 43.5482 286.223 43.5482 287.954C43.5482 289.685 44.7388 290.805 46.3096 290.805C47.8904 290.805 49.171 289.685 49.171 287.954ZM44.7088 287.954C44.7088 286.703 45.4792 286.103 46.3396 286.103C47.19 286.103 48.0004 286.703 48.0004 287.954C48.0004 289.204 47.16 289.815 46.3096 289.815C45.4492 289.815 44.7088 289.204 44.7088 287.954ZM51.4391 286.023V283.311H50.2985V290.715H51.4391V289.915C51.7993 290.395 52.4496 290.805 53.3601 290.805C54.8108 290.805 55.9514 289.635 55.9514 287.934C55.9514 286.233 54.8208 285.112 53.3601 285.112C52.4896 285.112 51.7993 285.522 51.4391 286.023ZM54.7908 287.934C54.7908 289.124 53.9704 289.815 53.1099 289.815C52.2595 289.815 51.4391 289.144 51.4391 287.954C51.4391 286.773 52.2595 286.103 53.1099 286.103C53.9704 286.103 54.7908 286.743 54.7908 287.934ZM57.0793 290.715H58.2198V285.202H57.0793V290.715ZM57.6596 284.472C58.0598 284.472 58.3799 284.152 58.3799 283.742C58.3799 283.331 58.0598 283.011 57.6596 283.011C57.2493 283.011 56.9292 283.331 56.9292 283.742C56.9292 284.152 57.2493 284.472 57.6596 284.472ZM59.7173 290.715H60.8579V283.311H59.7173V290.715ZM64.6765 286.073C65.5269 286.073 66.1973 286.613 66.2173 287.463H63.1657C63.2858 286.593 63.9061 286.073 64.6765 286.073ZM67.2578 289.074H66.0272C65.8171 289.504 65.4269 289.845 64.7265 289.845C63.8861 289.845 63.2358 289.294 63.1557 288.384H67.3678C67.3979 288.194 67.4079 288.014 67.4079 287.824C67.4079 286.203 66.2973 285.112 64.7265 285.112C63.0957 285.112 61.9751 286.223 61.9751 287.954C61.9751 289.685 63.1457 290.805 64.7265 290.805C66.0772 290.805 66.9476 290.035 67.2578 289.074ZM75.7015 283.752V288.934L72.2698 283.752H71.1292V290.715H72.2698V285.522L75.7015 290.715H76.8421V283.752H75.7015ZM83.3324 285.202H82.1918V288.274C82.1918 289.284 81.6415 289.805 80.8011 289.805C79.9707 289.805 79.4204 289.284 79.4204 288.274V285.202H78.2898V288.444C78.2898 289.985 79.2703 290.795 80.561 290.795C81.2113 290.795 81.8316 290.525 82.1918 290.055V290.715H83.3324V285.202ZM92.6512 290.715H93.7817V287.463C93.7817 285.923 92.8012 285.112 91.5106 285.112C90.7102 285.112 89.9298 285.532 89.5896 286.203C89.2094 285.482 88.4791 285.112 87.6086 285.112C86.9483 285.112 86.348 285.382 85.9778 285.833V285.202H84.8373V290.715H85.9778V287.634C85.9778 286.623 86.5281 286.103 87.3685 286.103C88.1989 286.103 88.7492 286.623 88.7492 287.634V290.715H89.8798V287.634C89.8798 286.623 90.43 286.103 91.2705 286.103C92.1009 286.103 92.6512 286.623 92.6512 287.634V290.715ZM96.3736 286.023V283.311H95.2331V290.715H96.3736V289.915C96.7338 290.395 97.3841 290.805 98.2946 290.805C99.7453 290.805 100.886 289.635 100.886 287.934C100.886 286.233 99.7553 285.112 98.2946 285.112C97.4242 285.112 96.7338 285.522 96.3736 286.023ZM99.7253 287.934C99.7253 289.124 98.9049 289.815 98.0445 289.815C97.194 289.815 96.3736 289.144 96.3736 287.954C96.3736 286.773 97.194 286.103 98.0445 286.103C98.9049 286.103 99.7253 286.743 99.7253 287.934ZM104.335 286.073C105.185 286.073 105.856 286.613 105.876 287.463H102.824C102.944 286.593 103.565 286.073 104.335 286.073ZM106.916 289.074H105.686C105.476 289.504 105.085 289.845 104.385 289.845C103.545 289.845 102.894 289.294 102.814 288.384H107.026C107.056 288.194 107.066 288.014 107.066 287.824C107.066 286.203 105.956 285.112 104.385 285.112C102.754 285.112 101.634 286.223 101.634 287.954C101.634 289.685 102.804 290.805 104.385 290.805C105.736 290.805 106.606 290.035 106.916 289.074ZM109.329 287.814C109.329 286.643 109.85 286.293 110.69 286.293H110.98V285.112C110.2 285.112 109.649 285.452 109.329 286.003V285.202H108.189V290.715H109.329V287.814Z" fill="#1D9AAC"/>
<path d="M366.471 299.815H37.9119C27.7945 299.815 19.5928 308.016 19.5928 318.134V318.135C19.5928 328.252 27.7945 336.454 37.9119 336.454H366.471C376.588 336.454 384.79 328.252 384.79 318.135V318.134C384.79 308.016 376.588 299.815 366.471 299.815Z" stroke="#969696" stroke-width="0.516" stroke-miterlimit="10"/>
<path d="M38.7642 385.297C39.8928 385.297 40.8533 386.006 40.8413 387.29H36.6872C36.8073 386.006 37.6957 385.297 38.7642 385.297ZM41.8378 389.031H40.6612C40.4211 389.739 39.7968 390.244 38.8123 390.244C37.6957 390.244 36.7592 389.511 36.6752 388.179H41.9338C41.9578 387.951 41.9698 387.758 41.9698 387.518C41.9698 385.717 40.7212 384.373 38.8123 384.373C36.8913 384.373 35.5586 385.681 35.5586 387.758C35.5586 389.848 36.9393 391.168 38.8123 391.168C40.4451 391.168 41.5016 390.232 41.8378 389.031ZM43.0038 387.746C43.0038 389.787 44.3604 391.168 46.1253 391.168C47.3259 391.168 48.1783 390.532 48.5745 389.824V391.204C48.5745 392.609 47.6981 393.353 46.5335 393.353C45.453 393.353 44.6726 392.813 44.4325 392.021H43.3519C43.568 393.425 44.8047 394.302 46.5335 394.302C48.4665 394.302 49.6791 393.017 49.6791 391.204V384.481H48.5745V385.681C48.1904 384.973 47.3259 384.373 46.1253 384.373C44.3604 384.373 43.0038 385.693 43.0038 387.746ZM48.5745 387.758C48.5745 389.307 47.542 390.208 46.3414 390.208C45.1408 390.208 44.1203 389.295 44.1203 387.746C44.1203 386.198 45.1408 385.321 46.3414 385.321C47.542 385.321 48.5745 386.234 48.5745 387.758ZM52.5939 390.388C52.5939 389.968 52.2698 389.643 51.8736 389.643C51.4534 389.643 51.1292 389.968 51.1292 390.388C51.1292 390.808 51.4534 391.132 51.8736 391.132C52.2698 391.132 52.5939 390.808 52.5939 390.388ZM56.9348 390.964H62.7097V390.052H58.5797C60.1284 388.791 62.4576 386.954 62.4576 384.793C62.4576 383.184 61.4011 382.224 59.7683 382.224C58.2075 382.224 57.0429 383.184 56.9709 385.033H58.0274C58.0754 383.941 58.6517 383.16 59.7803 383.16C60.9569 383.16 61.3771 383.881 61.3771 384.841C61.3771 386.618 59.216 388.347 56.9348 390.184V390.964ZM64.2849 382.368V387.266H65.3174C65.6055 386.582 66.2418 386.126 67.1183 386.126C68.3789 386.126 69.0152 386.846 69.0152 388.083C69.0152 389.271 68.4269 390.16 67.1063 390.16C66.0858 390.16 65.3774 389.619 65.1733 388.707H64.1048C64.3209 390.112 65.3654 391.084 67.0943 391.084C69.1233 391.084 70.0597 389.739 70.0597 388.059C70.0597 386.714 69.3874 385.189 67.2743 385.189C66.4219 385.189 65.6535 385.573 65.2934 386.066V383.328H69.5075V382.368H64.2849ZM72.376 391.06H73.4806V382.38H71.2235V383.376H72.376V391.06ZM84.1769 388.779C84.1769 385.681 79.6627 387.026 79.6627 384.865C79.6627 383.965 80.371 383.496 81.2715 383.52C82.292 383.532 82.8202 384.169 82.8923 384.733H84.0929C83.9608 383.46 82.9163 382.584 81.3195 382.584C79.6627 382.584 78.5461 383.52 78.5461 384.901C78.5461 388.011 83.0724 386.57 83.0724 388.827C83.0724 389.619 82.448 390.22 81.3915 390.22C80.2269 390.22 79.7347 389.523 79.6627 388.827H78.4981C78.5221 390.208 79.7107 391.144 81.3915 391.144C83.2044 391.144 84.1769 389.968 84.1769 388.779ZM86.0248 389.259C86.0248 390.58 86.6851 391.06 87.8497 391.06H88.8342V390.136H88.0298C87.3575 390.136 87.1173 389.908 87.1173 389.259V385.381H88.8342V384.481H87.1173V382.824H86.0248V384.481H85.1724V385.381H86.0248V389.259ZM91.2505 387.482C91.2505 385.958 92.0429 385.489 93.0874 385.489H93.3756V384.361C92.331 384.361 91.6227 384.817 91.2505 385.549V384.481H90.158V391.06H91.2505V387.482ZM97.4341 385.297C98.5627 385.297 99.5232 386.006 99.5112 387.29H95.3571C95.4772 386.006 96.3656 385.297 97.4341 385.297ZM100.508 389.031H99.3311C99.091 389.739 98.4667 390.244 97.4822 390.244C96.3656 390.244 95.4291 389.511 95.3451 388.179H100.604C100.628 387.951 100.64 387.758 100.64 387.518C100.64 385.717 99.3911 384.373 97.4822 384.373C95.5612 384.373 94.2285 385.681 94.2285 387.758C94.2285 389.848 95.6092 391.168 97.4822 391.168C99.115 391.168 100.172 390.232 100.508 389.031ZM104.879 385.297C106.008 385.297 106.968 386.006 106.956 387.29H102.802C102.922 386.006 103.811 385.297 104.879 385.297ZM107.953 389.031H106.776C106.536 389.739 105.912 390.244 104.927 390.244C103.811 390.244 102.874 389.511 102.79 388.179H108.049C108.073 387.951 108.085 387.758 108.085 387.518C108.085 385.717 106.836 384.373 104.927 384.373C103.006 384.373 101.674 385.681 101.674 387.758C101.674 389.848 103.054 391.168 104.927 391.168C106.56 391.168 107.617 390.232 107.953 389.031ZM109.767 389.259C109.767 390.58 110.427 391.06 111.592 391.06H112.577V390.136H111.772C111.1 390.136 110.86 389.908 110.86 389.259V385.381H112.577V384.481H110.86V382.824H109.767V384.481H108.915V385.381H109.767V389.259ZM117.101 382.692V391.06H121.123V390.172H118.194V382.692H117.101ZM121.875 387.746C121.875 389.787 123.232 391.168 124.985 391.168C126.197 391.168 127.05 390.544 127.446 389.836V391.06H128.55V384.481H127.446V385.681C127.062 384.997 126.221 384.373 124.997 384.373C123.232 384.373 121.875 385.693 121.875 387.746ZM127.446 387.758C127.446 389.307 126.413 390.208 125.213 390.208C124.012 390.208 122.992 389.295 122.992 387.746C122.992 386.198 124.012 385.321 125.213 385.321C126.413 385.321 127.446 386.234 127.446 387.758ZM135.211 391.06H136.292V387.182C136.292 385.297 135.127 384.361 133.602 384.361C132.714 384.361 131.922 384.733 131.489 385.417V384.481H130.397V391.06H131.489V387.422C131.489 386.006 132.258 385.309 133.374 385.309C134.479 385.309 135.211 385.994 135.211 387.338V391.06ZM140.874 385.297C142.002 385.297 142.963 386.006 142.951 387.29H138.797C138.917 386.006 139.805 385.297 140.874 385.297ZM143.947 389.031H142.771C142.531 389.739 141.906 390.244 140.922 390.244C139.805 390.244 138.869 389.511 138.785 388.179H144.043C144.067 387.951 144.079 387.758 144.079 387.518C144.079 385.717 142.831 384.373 140.922 384.373C139.001 384.373 137.668 385.681 137.668 387.758C137.668 389.848 139.049 391.168 140.922 391.168C142.555 391.168 143.611 390.232 143.947 389.031Z" fill="#666666"/>
<path d="M39.788 358.161H40.9886L38.4973 351.197H37.1767L34.6854 358.161H35.876L36.3763 356.74H39.2877L39.788 358.161ZM38.9676 355.81H36.6964L37.837 352.578L38.9676 355.81ZM41.6916 355.379C41.6916 357.08 42.8422 358.251 44.2929 358.251C45.1933 358.251 45.8537 357.831 46.2038 357.33V358.161H47.3544V350.757H46.2038V353.418C45.7836 352.898 45.0232 352.558 44.3029 352.558C42.8422 352.558 41.6916 353.678 41.6916 355.379ZM46.2038 355.399C46.2038 356.59 45.3934 357.26 44.533 357.26C43.6826 357.26 42.8622 356.57 42.8622 355.379C42.8622 354.189 43.6826 353.548 44.533 353.548C45.3934 353.548 46.2038 354.219 46.2038 355.399ZM48.4723 355.379C48.4723 357.08 49.6229 358.251 51.0736 358.251C51.9741 358.251 52.6344 357.831 52.9846 357.33V358.161H54.1351V350.757H52.9846V353.418C52.5644 352.898 51.804 352.558 51.0836 352.558C49.6229 352.558 48.4723 353.678 48.4723 355.379ZM52.9846 355.399C52.9846 356.59 52.1742 357.26 51.3137 357.26C50.4633 357.26 49.6429 356.57 49.6429 355.379C49.6429 354.189 50.4633 353.548 51.3137 353.548C52.1742 353.548 52.9846 354.219 52.9846 355.399ZM56.7738 355.259C56.7738 354.089 57.2941 353.739 58.1345 353.739H58.4246V352.558C57.6442 352.558 57.094 352.898 56.7738 353.448V352.648H55.6332V358.161H56.7738V355.259ZM61.7942 353.518C62.6446 353.518 63.315 354.059 63.335 354.909H60.2834C60.4035 354.039 61.0238 353.518 61.7942 353.518ZM64.3755 356.52H63.1449C62.9348 356.95 62.5446 357.29 61.8442 357.29C61.0038 357.29 60.3535 356.74 60.2734 355.83H64.4855C64.5156 355.639 64.5256 355.459 64.5256 355.269C64.5256 353.648 63.415 352.558 61.8442 352.558C60.2134 352.558 59.0928 353.668 59.0928 355.399C59.0928 357.13 60.2634 358.251 61.8442 358.251C63.1949 358.251 64.0653 357.48 64.3755 356.52ZM69.76 356.62C69.7 354.629 66.5885 355.249 66.5885 354.139C66.5885 353.769 66.9086 353.518 67.5189 353.518C68.1392 353.518 68.5094 353.849 68.5494 354.329H69.69C69.63 353.228 68.8096 352.558 67.5589 352.558C66.2583 352.558 65.4379 353.268 65.4379 354.149C65.4379 356.17 68.6395 355.549 68.6395 356.63C68.6395 357.01 68.2893 357.29 67.629 357.29C66.9987 357.29 66.5685 356.92 66.5284 356.47H65.3478C65.3979 357.47 66.3283 358.251 67.649 358.251C68.9496 358.251 69.76 357.55 69.76 356.62ZM75.1045 356.62C75.0445 354.629 71.9329 355.249 71.9329 354.139C71.9329 353.769 72.2531 353.518 72.8634 353.518C73.4837 353.518 73.8539 353.849 73.8939 354.329H75.0345C74.9744 353.228 74.154 352.558 72.9034 352.558C71.6028 352.558 70.7824 353.268 70.7824 354.149C70.7824 356.17 73.9839 355.549 73.9839 356.63C73.9839 357.01 73.6338 357.29 72.9734 357.29C72.3431 357.29 71.9129 356.92 71.8729 356.47H70.6923C70.7423 357.47 71.6728 358.251 72.9935 358.251C74.2941 358.251 75.1045 357.55 75.1045 356.62Z" fill="#1D9AAC"/>
<path d="M366.471 367.26H37.9119C27.7945 367.26 19.5928 375.462 19.5928 385.579V385.58C19.5928 395.698 27.7945 403.9 37.9119 403.9H366.471C376.588 403.9 384.79 395.698 384.79 385.58V385.579C384.79 375.462 376.588 367.26 366.471 367.26Z" stroke="#969696" stroke-width="0.516" stroke-miterlimit="10"/>
<path d="M40.4051 673.389C40.4051 670.291 35.8908 671.636 35.8908 669.475C35.8908 668.575 36.5992 668.106 37.4996 668.13C38.5201 668.142 39.0484 668.779 39.1204 669.343H40.321C40.189 668.07 39.1444 667.194 37.5476 667.194C35.8908 667.194 34.7743 668.13 34.7743 669.511C34.7743 672.621 39.3005 671.18 39.3005 673.437C39.3005 674.229 38.6762 674.83 37.6197 674.83C36.4551 674.83 35.9628 674.133 35.8908 673.437H34.7262C34.7502 674.818 35.9388 675.754 37.6197 675.754C39.4326 675.754 40.4051 674.578 40.4051 673.389ZM44.8102 669.907C45.9388 669.907 46.8993 670.616 46.8873 671.9H42.7332C42.8533 670.616 43.7417 669.907 44.8102 669.907ZM47.8838 673.641H46.7072C46.4671 674.35 45.8427 674.854 44.8583 674.854C43.7417 674.854 42.8052 674.121 42.7212 672.789H47.9798C48.0038 672.561 48.0158 672.369 48.0158 672.128C48.0158 670.327 46.7672 668.983 44.8583 668.983C42.9373 668.983 41.6046 670.291 41.6046 672.369C41.6046 674.458 42.9853 675.778 44.8583 675.778C46.4911 675.778 47.5476 674.842 47.8838 673.641ZM49.458 675.67H50.5505V666.786H49.458V675.67ZM55.21 669.907C56.3385 669.907 57.299 670.616 57.287 671.9H53.1329C53.253 670.616 54.1414 669.907 55.21 669.907ZM58.2835 673.641H57.1069C56.8668 674.35 56.2425 674.854 55.258 674.854C54.1414 674.854 53.205 674.121 53.1209 672.789H58.3795C58.4035 672.561 58.4156 672.369 58.4156 672.128C58.4156 670.327 57.1669 668.983 55.258 668.983C53.337 668.983 52.0044 670.291 52.0044 672.369C52.0044 674.458 53.385 675.778 55.258 675.778C56.8908 675.778 57.9473 674.842 58.2835 673.641ZM59.4495 672.369C59.4495 674.458 60.7821 675.778 62.6551 675.778C64.2879 675.778 65.3564 674.866 65.6926 673.557H64.516C64.2759 674.386 63.6276 674.854 62.6551 674.854C61.4545 674.854 60.566 674.001 60.566 672.369C60.566 670.76 61.4545 669.907 62.6551 669.907C63.6276 669.907 64.2879 670.412 64.516 671.204H65.6926C65.3564 669.823 64.2879 668.983 62.6551 668.983C60.7821 668.983 59.4495 670.303 59.4495 672.369ZM67.3905 673.869C67.3905 675.19 68.0508 675.67 69.2154 675.67H70.1999V674.746H69.3955C68.7232 674.746 68.483 674.518 68.483 673.869V669.991H70.1999V669.091H68.483V667.434H67.3905V669.091H66.5381V669.991H67.3905V673.869ZM74.3163 671.48C74.3163 673.989 76.1532 675.742 78.4944 675.742C80.3073 675.742 81.748 674.842 82.3723 673.233H81.0636C80.6074 674.229 79.719 674.794 78.4944 674.794C76.7415 674.794 75.4328 673.521 75.4328 671.48C75.4328 669.427 76.7415 668.154 78.4944 668.154C79.719 668.154 80.6074 668.719 81.0636 669.727H82.3723C81.748 668.106 80.3073 667.194 78.4944 667.194C76.1532 667.194 74.3163 668.971 74.3163 671.48ZM83.9986 675.67H85.0912V669.091H83.9986V675.67ZM84.5629 668.022C84.9591 668.022 85.2833 667.698 85.2833 667.278C85.2833 666.858 84.9591 666.534 84.5629 666.534C84.1427 666.534 83.8185 666.858 83.8185 667.278C83.8185 667.698 84.1427 668.022 84.5629 668.022ZM87.1933 673.869C87.1933 675.19 87.8537 675.67 89.0183 675.67H90.0028V674.746H89.1983C88.526 674.746 88.2859 674.518 88.2859 673.869V669.991H90.0028V669.091H88.2859V667.434H87.1933V669.091H86.3409V669.991H87.1933V673.869ZM93.8238 674.422L91.7587 669.091H90.5461L93.1994 675.598L91.9028 678.768H93.0314L96.9933 669.091H95.8648L93.8238 674.422Z" fill="#666666"/>
<path d="M34.7154 639.278C34.7154 641.369 36.3062 642.83 38.2672 642.83C39.7179 642.83 40.9686 642.109 41.4988 640.749H40.1281C39.758 641.489 39.0976 641.839 38.2672 641.839C36.8865 641.839 35.886 640.849 35.886 639.278C35.886 637.707 36.8865 636.727 38.2672 636.727C39.0976 636.727 39.758 637.077 40.1281 637.817H41.4988C40.9686 636.457 39.7179 635.726 38.2672 635.726C36.3062 635.726 34.7154 637.197 34.7154 639.278ZM42.8339 642.77H43.9744V637.257H42.8339V642.77ZM43.4142 636.527C43.8144 636.527 44.1345 636.206 44.1345 635.796C44.1345 635.386 43.8144 635.066 43.4142 635.066C43.004 635.066 42.6838 635.386 42.6838 635.796C42.6838 636.206 43.004 636.527 43.4142 636.527ZM45.652 641.239C45.652 642.36 46.2623 642.77 47.2428 642.77H48.1432V641.819H47.4429C46.9627 641.819 46.8026 641.649 46.8026 641.239V638.187H48.1432V637.257H46.8026V635.886H45.652V637.257H45.0017V638.187H45.652V641.239ZM51.3656 641.459L49.8148 637.257H48.5441L50.7152 642.68L49.5947 645.361H50.7753L54.1569 637.257H52.9764L51.3656 641.459Z" fill="#1D9AAC"/>
<path d="M366.471 651.869H37.9119C27.7945 651.869 19.5928 660.071 19.5928 670.188V670.189C19.5928 680.307 27.7945 688.509 37.9119 688.509H366.471C376.588 688.509 384.79 680.307 384.79 670.189V670.188C384.79 660.071 376.588 651.869 366.471 651.869Z" stroke="#969696" stroke-width="0.516" stroke-miterlimit="10"/>
<path d="M38.7642 742.296C39.8928 742.296 40.8533 743.005 40.8413 744.289H36.6872C36.8073 743.005 37.6957 742.296 38.7642 742.296ZM41.8378 746.03H40.6612C40.4211 746.739 39.7968 747.243 38.8123 747.243C37.6957 747.243 36.7592 746.51 36.6752 745.178H41.9338C41.9578 744.95 41.9698 744.758 41.9698 744.517C41.9698 742.717 40.7212 741.372 38.8123 741.372C36.8913 741.372 35.5586 742.681 35.5586 744.758C35.5586 746.847 36.9393 748.167 38.8123 748.167C40.4451 748.167 41.5016 747.231 41.8378 746.03ZM43.0038 744.746C43.0038 746.787 44.3604 748.167 46.1253 748.167C47.3259 748.167 48.1783 747.531 48.5745 746.823V748.203C48.5745 749.608 47.6981 750.352 46.5335 750.352C45.453 750.352 44.6726 749.812 44.4325 749.02H43.3519C43.568 750.424 44.8047 751.301 46.5335 751.301C48.4665 751.301 49.6791 750.016 49.6791 748.203V741.48H48.5745V742.681C48.1904 741.972 47.3259 741.372 46.1253 741.372C44.3604 741.372 43.0038 742.693 43.0038 744.746ZM48.5745 744.758C48.5745 746.306 47.542 747.207 46.3414 747.207C45.1408 747.207 44.1203 746.294 44.1203 744.746C44.1203 743.197 45.1408 742.32 46.3414 742.32C47.542 742.32 48.5745 743.233 48.5745 744.758ZM52.5939 747.387C52.5939 746.967 52.2698 746.643 51.8736 746.643C51.4534 746.643 51.1292 746.967 51.1292 747.387C51.1292 747.807 51.4534 748.131 51.8736 748.131C52.2698 748.131 52.5939 747.807 52.5939 747.387ZM56.7187 739.403V740.339H61.353L57.9674 748.059H59.0719L62.4096 740.231V739.403H56.7187ZM63.9331 739.367V744.265H64.9656C65.2538 743.581 65.8901 743.125 66.7665 743.125C68.0272 743.125 68.6635 743.845 68.6635 745.082C68.6635 746.27 68.0752 747.159 66.7545 747.159C65.734 747.159 65.0257 746.619 64.8216 745.706H63.753C63.9691 747.111 65.0137 748.083 66.7425 748.083C68.7715 748.083 69.708 746.739 69.708 745.058C69.708 743.713 69.0357 742.188 66.9226 742.188C66.0702 742.188 65.3018 742.573 64.9416 743.065V740.327H69.1557V739.367H63.9331ZM75.338 748.059H76.4185V746.126H77.6191V745.178H76.4185V739.463H75.1099L70.8957 745.298V746.126H75.338V748.059ZM72.1564 745.178L75.386 740.604V745.178H72.1564ZM84.5574 741.444C84.4134 740.231 83.5729 739.199 81.9161 739.199C79.719 739.199 78.8426 740.88 78.8426 743.605C78.8426 746.234 79.4549 748.083 82.0242 748.083C83.9211 748.083 84.8576 746.787 84.8576 745.202C84.8576 743.377 83.765 742.308 82.1442 742.308C81.1117 742.308 80.1632 742.789 79.7911 743.641C79.7791 741.06 80.5234 740.111 81.9041 740.111C82.8886 740.111 83.3809 740.604 83.5489 741.444H84.5574ZM81.9161 743.233C83.1647 743.233 83.8011 744.013 83.8011 745.238C83.8011 746.414 83.0927 747.171 81.9641 747.171C80.5955 747.171 79.9231 746.27 79.9231 745.118C79.9231 743.821 80.9196 743.233 81.9161 743.233ZM92.1784 741.444C92.0344 740.231 91.1939 739.199 89.5371 739.199C87.34 739.199 86.4636 740.88 86.4636 743.605C86.4636 746.234 87.0759 748.083 89.6452 748.083C91.5421 748.083 92.4786 746.787 92.4786 745.202C92.4786 743.377 91.386 742.308 89.7652 742.308C88.7327 742.308 87.7842 742.789 87.4121 743.641C87.4 741.06 88.1444 740.111 89.5251 740.111C90.5096 740.111 91.0018 740.604 91.1699 741.444H92.1784ZM89.5371 743.233C90.7857 743.233 91.4221 744.013 91.4221 745.238C91.4221 746.414 90.7137 747.171 89.5851 747.171C88.2165 747.171 87.5441 746.27 87.5441 745.118C87.5441 743.821 88.5406 743.233 89.5371 743.233Z" fill="#666666"/>
<path d="M35.2357 713.408V711.137H36.4963C37.3868 711.137 37.787 711.557 37.787 712.277C37.787 712.978 37.3868 713.408 36.4963 713.408H35.2357ZM38.9576 712.277C38.9576 711.147 38.1472 710.206 36.4963 710.206H34.0951V717.16H35.2357V714.338H36.4963C38.3072 714.338 38.9576 713.268 38.9576 712.277ZM45.298 714.398C45.298 712.668 44.0574 711.557 42.4866 711.557C40.9158 711.557 39.6752 712.668 39.6752 714.398C39.6752 716.129 40.8658 717.25 42.4366 717.25C44.0174 717.25 45.298 716.129 45.298 714.398ZM40.8358 714.398C40.8358 713.148 41.6062 712.548 42.4666 712.548C43.317 712.548 44.1274 713.148 44.1274 714.398C44.1274 715.649 43.287 716.259 42.4366 716.259C41.5761 716.259 40.8358 715.649 40.8358 714.398ZM50.5376 715.619C50.4775 713.628 47.366 714.248 47.366 713.138C47.366 712.768 47.6861 712.518 48.2964 712.518C48.9168 712.518 49.2869 712.848 49.327 713.328H50.4675C50.4075 712.227 49.5871 711.557 48.3365 711.557C47.0358 711.557 46.2154 712.267 46.2154 713.148C46.2154 715.169 49.417 714.549 49.417 715.629C49.417 716.009 49.0668 716.289 48.4065 716.289C47.7762 716.289 47.346 715.919 47.3059 715.469H46.1254C46.1754 716.47 47.1058 717.25 48.4265 717.25C49.7272 717.25 50.5376 716.55 50.5376 715.619ZM51.9501 715.629C51.9501 716.75 52.5604 717.16 53.5409 717.16H54.4413V716.209H53.741C53.2607 716.209 53.1006 716.039 53.1006 715.629V712.578H54.4413V711.647H53.1006V710.276H51.9501V711.647H51.2997V712.578H51.9501V715.629ZM55.1123 714.378C55.1123 716.079 56.2629 717.25 57.6936 717.25C58.6141 717.25 59.2744 716.81 59.6246 716.339V717.16H60.7752V711.647H59.6246V712.448C59.2844 711.997 58.6441 711.557 57.7136 711.557C56.2629 711.557 55.1123 712.678 55.1123 714.378ZM59.6246 714.398C59.6246 715.589 58.8142 716.259 57.9538 716.259C57.1033 716.259 56.2829 715.569 56.2829 714.378C56.2829 713.188 57.1033 712.548 57.9538 712.548C58.8142 712.548 59.6246 713.218 59.6246 714.398ZM62.2733 717.16H63.4138V709.756H62.2733V717.16ZM67.1301 713.668C67.1301 715.759 68.7209 717.22 70.6818 717.22C72.1326 717.22 73.3832 716.5 73.9134 715.139H72.5428C72.1726 715.879 71.5122 716.229 70.6818 716.229C69.3011 716.229 68.3006 715.239 68.3006 713.668C68.3006 712.097 69.3011 711.117 70.6818 711.117C71.5122 711.117 72.1726 711.467 72.5428 712.207H73.9134C73.3832 710.847 72.1326 710.116 70.6818 710.116C68.7209 710.116 67.1301 711.587 67.1301 713.668ZM80.5011 714.398C80.5011 712.668 79.2605 711.557 77.6897 711.557C76.1189 711.557 74.8783 712.668 74.8783 714.398C74.8783 716.129 76.0689 717.25 77.6397 717.25C79.2205 717.25 80.5011 716.129 80.5011 714.398ZM76.0389 714.398C76.0389 713.148 76.8093 712.548 77.6697 712.548C78.5201 712.548 79.3305 713.148 79.3305 714.398C79.3305 715.649 78.4901 716.259 77.6397 716.259C76.7792 716.259 76.0389 715.649 76.0389 714.398ZM81.2484 714.378C81.2484 716.079 82.399 717.25 83.8497 717.25C84.7502 717.25 85.4105 716.83 85.7607 716.329V717.16H86.9113V709.756H85.7607V712.417C85.3405 711.897 84.5801 711.557 83.8597 711.557C82.399 711.557 81.2484 712.678 81.2484 714.378ZM85.7607 714.398C85.7607 715.589 84.9503 716.259 84.0899 716.259C83.2394 716.259 82.419 715.569 82.419 714.378C82.419 713.188 83.2394 712.548 84.0899 712.548C84.9503 712.548 85.7607 713.218 85.7607 714.398ZM90.7305 712.518C91.5809 712.518 92.2513 713.058 92.2713 713.908H89.2198C89.3398 713.038 89.9601 712.518 90.7305 712.518ZM93.3118 715.519H92.0812C91.8711 715.949 91.4809 716.289 90.7805 716.289C89.9401 716.289 89.2898 715.739 89.2097 714.829H93.4219C93.4519 714.639 93.4619 714.459 93.4619 714.268C93.4619 712.648 92.3513 711.557 90.7805 711.557C89.1497 711.557 88.0292 712.668 88.0292 714.398C88.0292 716.129 89.1997 717.25 90.7805 717.25C92.1312 717.25 93.0016 716.48 93.3118 715.519Z" fill="#1D9AAC"/>
<path d="M366.471 724.258H37.9119C27.7945 724.258 19.5928 732.46 19.5928 742.578V742.579C19.5928 752.696 27.7945 760.898 37.9119 760.898H366.471C376.588 760.898 384.79 752.696 384.79 742.579V742.578C384.79 732.46 376.588 724.258 366.471 724.258Z" stroke="#969696" stroke-width="0.516" stroke-miterlimit="10"/>
<path d="M29.4719 72.0079C29.4719 66.9254 22.1082 68.8864 22.1082 65.7448C22.1082 64.4041 23.1287 63.7638 24.4493 63.8038C25.8901 63.8438 26.7105 64.7043 26.7905 65.6447H29.3118C29.1117 63.2636 27.2307 61.8629 24.5694 61.8629C21.728 61.8629 19.787 63.3836 19.787 65.8248C19.787 70.9474 27.1707 68.7663 27.1707 72.128C27.1707 73.3086 26.2703 74.169 24.6695 74.169C23.0887 74.169 22.2883 73.2485 22.1882 72.108H19.747C19.747 74.5692 21.8881 76.09 24.6695 76.09C27.771 76.09 29.4719 74.089 29.4719 72.0079ZM32.5237 72.8884C32.5237 75.1295 33.7443 75.9499 35.7053 75.9499H37.5062V74.0489H36.1055C35.145 74.0489 34.8248 73.7088 34.8248 72.8884V66.7853H37.5062V64.9244H34.8248V62.183H32.5237V64.9244H31.223V66.7853H32.5237V72.8884ZM38.8483 70.3871C38.8483 73.7888 41.1494 76.13 44.0108 76.13C45.8517 76.13 47.1724 75.2495 47.8728 74.3091V75.9499H50.1739V64.9244H47.8728V66.5252C47.1924 65.6247 45.9118 64.7443 44.0508 64.7443C41.1494 64.7443 38.8483 66.9854 38.8483 70.3871ZM47.8728 70.4271C47.8728 72.8083 46.2519 74.149 44.5311 74.149C42.8302 74.149 41.1894 72.7683 41.1894 70.3871C41.1894 68.0059 42.8302 66.7253 44.5311 66.7253C46.2519 66.7253 47.8728 68.066 47.8728 70.4271ZM53.4502 75.9499H55.7514V66.7853H57.7924V64.9244H55.7514V64.144C55.7514 62.8834 56.2316 62.4031 57.6323 62.4031V60.5022C54.7509 60.5022 53.4502 61.6027 53.4502 64.144V64.9244H52.1496V66.7853H53.4502V75.9499ZM60.0942 75.9499H62.3953V66.7853H64.4363V64.9244H62.3953V64.144C62.3953 62.8834 62.8756 62.4031 64.2763 62.4031V60.5022C61.3948 60.5022 60.0942 61.6027 60.0942 64.144V64.9244H58.7935V66.7853H60.0942V75.9499Z" fill="#1E619B"/>
<path d="M37.3866 95.6077L38.115 98.0309H40.4121L37.4846 88.5902H34.6833L31.7978 98.0309H34.0109L34.6833 95.6077H37.3866ZM34.9914 94.0109L35.5517 92.0079C35.7058 91.4616 35.8458 90.7473 35.9859 90.187H36.0139C36.154 90.7473 36.3221 91.4476 36.4902 92.0079L37.0784 94.0109H34.9914ZM45.925 88.0859V91.7978H45.8969C45.5888 91.3216 44.9305 91.0274 44.09 91.0274C42.4512 91.0274 41.0085 92.3581 41.0225 94.6692C41.0225 96.7983 42.3252 98.185 43.95 98.185C44.8324 98.185 45.6588 97.7928 46.093 97.0224H46.1211L46.2191 98.0309H48.11C48.082 97.5687 48.054 96.7563 48.054 95.9859V88.0859H45.925ZM45.925 94.9774C45.925 95.1595 45.9109 95.3136 45.8689 95.4676C45.7429 96.0699 45.2526 96.4901 44.6363 96.4901C43.7539 96.4901 43.1796 95.7618 43.1796 94.5992C43.1796 93.5207 43.6838 92.6522 44.6503 92.6522C45.3086 92.6522 45.7709 93.1285 45.8969 93.7028C45.9109 93.8148 45.925 93.9689 45.925 94.0809V94.9774ZM54.269 88.0859V91.7978H54.2409C53.9328 91.3216 53.2745 91.0274 52.434 91.0274C50.7952 91.0274 49.3525 92.3581 49.3665 94.6692C49.3665 96.7983 50.6692 98.185 52.294 98.185C53.1764 98.185 54.0028 97.7928 54.437 97.0224H54.4651L54.5631 98.0309H56.4541C56.426 97.5687 56.398 96.7563 56.398 95.9859V88.0859H54.269ZM54.269 94.9774C54.269 95.1595 54.255 95.3136 54.2129 95.4676C54.0869 96.0699 53.5966 96.4901 52.9803 96.4901C52.0979 96.4901 51.5236 95.7618 51.5236 94.5992C51.5236 93.5207 52.0278 92.6522 52.9943 92.6522C53.6527 92.6522 54.1149 93.1285 54.2409 93.7028C54.255 93.8148 54.269 93.9689 54.269 94.0809V94.9774ZM62.9652 98.0309V95.1875C62.9652 93.6467 62.9372 92.3161 62.8812 91.0694L62.9232 91.0554C63.3854 92.162 64.0017 93.3806 64.562 94.3891L66.579 98.0309H68.8201V88.5902H66.8592V91.3496C66.8592 92.7643 66.9012 94.0389 67.0413 95.2855H66.9992C66.579 94.221 66.0187 93.0444 65.4585 92.0499L63.4975 88.5902H61.0042V98.0309H62.9652ZM76.615 95.2855C76.643 95.1315 76.6851 94.8093 76.6851 94.4451C76.6851 92.7503 75.8447 91.0274 73.6315 91.0274C71.2504 91.0274 70.1718 92.9464 70.1718 94.6832C70.1718 96.8263 71.5025 98.171 73.8276 98.171C74.7521 98.171 75.6065 98.0309 76.3069 97.7508L76.0267 96.3081C75.4525 96.4901 74.8642 96.5882 74.1358 96.5882C73.1413 96.5882 72.2729 96.168 72.2028 95.2855H76.615ZM72.1888 93.8288C72.2449 93.2545 72.609 92.4421 73.5055 92.4421C74.486 92.4421 74.7101 93.3106 74.7101 93.8288H72.1888ZM77.1818 91.1815L79.1708 98.0309H81.1738L81.8601 95.6217C82.0422 94.9774 82.1823 94.3471 82.3083 93.4926H82.3363C82.4764 94.3331 82.6025 94.9494 82.7706 95.6217L83.4149 98.0309H85.4179L87.5189 91.1815H85.4319L84.8436 93.8988C84.6895 94.6832 84.5494 95.4536 84.4514 96.238H84.4234C84.2833 95.4536 84.1012 94.6832 83.9191 93.9129L83.2328 91.1815H81.552L80.8236 93.9969C80.6555 94.6692 80.4594 95.4536 80.3193 96.238H80.2913C80.1793 95.4536 80.0392 94.6972 79.8991 93.9829L79.3529 91.1815H77.1818ZM91.0478 97.5967C91.5801 97.8908 92.6446 98.171 93.7232 98.171C96.3144 98.171 97.5331 96.8263 97.5331 95.2435C97.5331 93.9129 96.7487 93.0444 95.0818 92.4281C93.8632 91.9659 93.331 91.6998 93.331 91.0975C93.331 90.6072 93.7792 90.187 94.7036 90.187C95.6281 90.187 96.3004 90.4531 96.6786 90.6352L97.1549 88.9124C96.5946 88.6602 95.8102 88.4361 94.7457 88.4361C92.5185 88.4361 91.1739 89.6687 91.1739 91.2795C91.1739 92.6522 92.1964 93.5207 93.7652 94.0669C94.8997 94.4731 95.348 94.8093 95.348 95.3976C95.348 96.0139 94.8297 96.4201 93.8492 96.4201C92.9388 96.4201 92.0563 96.126 91.482 95.8318L91.0478 97.5967ZM99.132 89.6968V91.1815H98.2216V92.7503H99.132V95.5517C99.132 96.5182 99.3281 97.1765 99.7203 97.5827C100.056 97.9329 100.631 98.171 101.317 98.171C101.919 98.171 102.424 98.1009 102.704 97.9889L102.69 96.3781C102.536 96.4061 102.326 96.4341 102.059 96.4341C101.415 96.4341 101.219 96.0559 101.219 95.2295V92.7503H102.746V91.1815H101.219V89.2205L99.132 89.6968ZM109.794 98.0309C109.724 97.6527 109.696 97.0224 109.696 96.3641V93.9829C109.696 92.3721 108.968 91.0274 106.684 91.0274C105.438 91.0274 104.499 91.3636 104.023 91.6297L104.415 93.0024C104.864 92.7223 105.606 92.4841 106.306 92.4841C107.357 92.4841 107.553 93.0024 107.553 93.3666V93.4646C105.13 93.4506 103.533 94.3051 103.533 96.0839C103.533 97.1765 104.359 98.185 105.746 98.185C106.558 98.185 107.259 97.8908 107.707 97.3446H107.749L107.875 98.0309H109.794ZM107.623 95.5377C107.623 95.6637 107.609 95.7898 107.581 95.9018C107.441 96.3361 107.007 96.6862 106.474 96.6862C105.998 96.6862 105.634 96.4201 105.634 95.8738C105.634 95.0474 106.502 94.7813 107.623 94.7953V95.5377ZM118.077 98.0309V92.7503H119.435V91.1815H118.063V90.8313C118.063 90.159 118.357 89.6127 119.057 89.6127C119.351 89.6127 119.561 89.6547 119.757 89.7108L119.841 88.0719C119.547 87.9879 119.169 87.9319 118.707 87.9319C118.077 87.9319 117.348 88.114 116.816 88.6182C116.2 89.1785 115.948 90.0889 115.948 90.9154V91.1815H113.748V90.9294C113.748 90.243 113.945 89.7248 114.575 89.7248C114.771 89.7248 114.953 89.7668 115.121 89.8228L115.415 88.254C115.205 88.17 114.855 88.0859 114.505 88.0859C113.538 88.0859 112.866 88.3801 112.404 88.8423C111.829 89.4166 111.619 90.229 111.619 91.0414V91.1815H110.723V92.7503H111.619V98.0309H113.762V92.7503H115.948V98.0309H118.077Z" fill="#D5539E"/>
<path d="M23.9729 126.81V122.79L27.1385 117.37H25.7518L24.3931 119.975C24.0289 120.689 23.7068 121.306 23.4406 121.922H23.4126C23.1185 121.264 22.8383 120.689 22.4742 119.975L21.1435 117.37H19.7568L22.7403 122.804V126.81H23.9729ZM29.9797 119.877C28.1028 119.877 26.618 121.207 26.618 123.477C26.618 125.62 28.0327 126.964 29.8677 126.964C31.5065 126.964 33.2433 125.872 33.2433 123.365C33.2433 121.292 31.9267 119.877 29.9797 119.877ZM29.9517 120.801C31.4084 120.801 31.9827 122.258 31.9827 123.407C31.9827 124.933 31.1003 126.04 29.9237 126.04C28.7191 126.04 27.8647 124.919 27.8647 123.435C27.8647 122.146 28.495 120.801 29.9517 120.801ZM40.4685 120.031H39.2359V124.191C39.2359 124.415 39.1939 124.639 39.1239 124.821C38.8998 125.368 38.3255 125.942 37.4991 125.942C36.3785 125.942 35.9863 125.073 35.9863 123.785V120.031H34.7537V123.995C34.7537 126.376 36.0283 126.964 37.0929 126.964C38.2975 126.964 39.0118 126.25 39.334 125.704H39.362L39.432 126.81H40.5246C40.4825 126.278 40.4685 125.662 40.4685 124.961V120.031ZM42.5105 126.81H43.7291V123.196C43.7291 122.986 43.7571 122.79 43.7851 122.622C43.9532 121.698 44.5695 121.039 45.438 121.039C45.606 121.039 45.7321 121.053 45.8582 121.081V119.919C45.7461 119.891 45.6481 119.877 45.508 119.877C44.6816 119.877 43.9392 120.451 43.6311 121.362H43.575L43.533 120.031H42.4545C42.4965 120.661 42.5105 121.348 42.5105 122.146V126.81ZM49.6269 126.348C50.1312 126.684 51.1257 126.95 52.0361 126.95C54.2632 126.95 55.3418 125.69 55.3418 124.233C55.3418 122.846 54.5294 122.076 52.9326 121.46C51.6299 120.955 51.0556 120.521 51.0556 119.639C51.0556 118.994 51.5459 118.224 52.8345 118.224C53.689 118.224 54.3193 118.504 54.6274 118.672L54.9636 117.678C54.5434 117.44 53.843 117.215 52.8765 117.215C51.0416 117.215 49.823 118.308 49.823 119.779C49.823 121.109 50.7755 121.908 52.3163 122.454C53.5909 122.944 54.0952 123.449 54.0952 124.331C54.0952 125.284 53.3668 125.942 52.1202 125.942C51.2797 125.942 50.4814 125.662 49.9351 125.326L49.6269 126.348ZM57.208 118.406V120.031H56.1575V120.969H57.208V124.667C57.208 125.466 57.3341 126.068 57.6842 126.432C57.9784 126.768 58.4406 126.95 59.0149 126.95C59.4911 126.95 59.8693 126.88 60.1074 126.782L60.0514 125.858C59.8973 125.9 59.6592 125.942 59.3371 125.942C58.6507 125.942 58.4126 125.466 58.4126 124.625V120.969H60.1775V120.031H58.4126V118.084L57.208 118.406ZM64.3543 119.877C62.4774 119.877 60.9926 121.207 60.9926 123.477C60.9926 125.62 62.4073 126.964 64.2422 126.964C65.8811 126.964 67.6179 125.872 67.6179 123.365C67.6179 121.292 66.3013 119.877 64.3543 119.877ZM64.3263 120.801C65.783 120.801 66.3573 122.258 66.3573 123.407C66.3573 124.933 65.4748 126.04 64.2983 126.04C63.0937 126.04 62.2392 124.919 62.2392 123.435C62.2392 122.146 62.8695 120.801 64.3263 120.801ZM69.1703 126.81H70.3889V123.196C70.3889 122.986 70.4169 122.79 70.4449 122.622C70.613 121.698 71.2293 121.039 72.0977 121.039C72.2658 121.039 72.3919 121.053 72.518 121.081V119.919C72.4059 119.891 72.3079 119.877 72.1678 119.877C71.3414 119.877 70.599 120.451 70.2908 121.362H70.2348L70.1928 120.031H69.1143C69.1563 120.661 69.1703 121.348 69.1703 122.146V126.81ZM79.0646 123.645C79.0786 123.519 79.1066 123.323 79.1066 123.07C79.1066 121.824 78.5183 119.877 76.3052 119.877C74.3302 119.877 73.1256 121.488 73.1256 123.533C73.1256 125.578 74.3722 126.95 76.4593 126.95C77.5378 126.95 78.2802 126.726 78.7144 126.53L78.5043 125.648C78.0421 125.844 77.5098 125.998 76.6274 125.998C75.3948 125.998 74.3302 125.312 74.3022 123.645H79.0646ZM74.3162 122.762C74.4143 121.908 74.9605 120.759 76.2072 120.759C77.5938 120.759 77.93 121.978 77.916 122.762H74.3162ZM83.6433 126.782C84.0495 126.838 84.6939 126.894 85.5343 126.894C87.075 126.894 88.1396 126.614 88.7979 126.012C89.2741 125.55 89.5963 124.933 89.5963 124.121C89.5963 122.72 88.5458 121.978 87.6493 121.754V121.726C88.6438 121.362 89.2461 120.563 89.2461 119.653C89.2461 118.91 88.952 118.35 88.4617 117.986C87.8734 117.51 87.0891 117.3 85.8704 117.3C85.016 117.3 84.1756 117.384 83.6433 117.496V126.782ZM84.8619 118.322C85.058 118.28 85.3802 118.238 85.9405 118.238C87.1731 118.238 88.0135 118.672 88.0135 119.779C88.0135 120.689 87.2571 121.362 85.9685 121.362H84.8619V118.322ZM84.8619 122.286H85.8704C87.2011 122.286 88.3077 122.818 88.3077 124.107C88.3077 125.48 87.1451 125.942 85.8845 125.942C85.4502 125.942 85.1001 125.928 84.8619 125.886V122.286ZM96.0674 126.81C95.9834 126.348 95.9554 125.774 95.9554 125.185V122.65C95.9554 121.292 95.4511 119.877 93.3781 119.877C92.5237 119.877 91.7113 120.115 91.151 120.479L91.4311 121.292C91.9073 120.983 92.5657 120.787 93.196 120.787C94.5827 120.787 94.7368 121.796 94.7368 122.356V122.496C92.1175 122.482 90.6607 123.379 90.6607 125.017C90.6607 125.998 91.3611 126.964 92.7338 126.964C93.7002 126.964 94.4286 126.488 94.8068 125.956H94.8488L94.9469 126.81H96.0674ZM94.7648 124.527C94.7648 124.653 94.7368 124.793 94.6947 124.919C94.4986 125.494 93.9384 126.054 93.0559 126.054C92.4256 126.054 91.8933 125.676 91.8933 124.877C91.8933 123.561 93.4201 123.323 94.7648 123.351V124.527ZM97.474 126.488C97.9503 126.768 98.6366 126.95 99.379 126.95C100.99 126.95 101.914 126.11 101.914 124.919C101.914 123.911 101.312 123.323 100.135 122.874C99.2529 122.538 98.8467 122.286 98.8467 121.726C98.8467 121.221 99.2529 120.801 99.9813 120.801C100.612 120.801 101.102 121.025 101.368 121.193L101.676 120.297C101.298 120.073 100.696 119.877 100.009 119.877C98.5526 119.877 97.6701 120.773 97.6701 121.866C97.6701 122.678 98.2444 123.351 99.463 123.785C100.373 124.121 100.724 124.443 100.724 125.031C100.724 125.592 100.303 126.04 99.407 126.04C98.7907 126.04 98.1464 125.788 97.7822 125.55L97.474 126.488ZM104.736 126.81V120.031H103.504V126.81H104.736ZM104.12 117.356C103.672 117.356 103.35 117.692 103.35 118.126C103.35 118.546 103.658 118.882 104.092 118.882C104.582 118.882 104.891 118.546 104.877 118.126C104.877 117.692 104.582 117.356 104.12 117.356ZM111.409 125.634C111.059 125.788 110.597 125.97 109.896 125.97C108.552 125.97 107.543 125.003 107.543 123.435C107.543 122.02 108.384 120.871 109.938 120.871C110.611 120.871 111.073 121.025 111.367 121.193L111.647 120.241C111.311 120.073 110.667 119.891 109.938 119.891C107.725 119.891 106.296 121.404 106.296 123.491C106.296 125.564 107.627 126.95 109.672 126.95C110.583 126.95 111.297 126.726 111.619 126.558L111.409 125.634ZM116.076 117.37V126.81H117.294V117.37H116.076ZM119.522 126.81H120.754V122.734C120.754 122.524 120.782 122.314 120.838 122.16C121.048 121.474 121.679 120.899 122.491 120.899C123.654 120.899 124.06 121.81 124.06 122.902V126.81H125.292V122.762C125.292 120.437 123.836 119.877 122.897 119.877C121.777 119.877 120.992 120.507 120.656 121.151H120.628L120.558 120.031H119.466C119.508 120.591 119.522 121.165 119.522 121.866V126.81ZM128.636 126.81V120.969H130.275V120.031H128.636V119.667C128.636 118.63 128.902 117.706 129.952 117.706C130.303 117.706 130.555 117.776 130.737 117.86L130.905 116.907C130.667 116.809 130.289 116.711 129.854 116.711C129.28 116.711 128.664 116.893 128.202 117.342C127.627 117.888 127.417 118.756 127.417 119.709V120.031H126.465V120.969H127.417V126.81H128.636ZM134.075 119.877C132.198 119.877 130.713 121.207 130.713 123.477C130.713 125.62 132.128 126.964 133.963 126.964C135.601 126.964 137.338 125.872 137.338 123.365C137.338 121.292 136.022 119.877 134.075 119.877ZM134.047 120.801C135.503 120.801 136.078 122.258 136.078 123.407C136.078 124.933 135.195 126.04 134.019 126.04C132.814 126.04 131.96 124.919 131.96 123.435C131.96 122.146 132.59 120.801 134.047 120.801ZM138.891 126.81H140.109V123.196C140.109 122.986 140.137 122.79 140.165 122.622C140.333 121.698 140.95 121.039 141.818 121.039C141.986 121.039 142.112 121.053 142.238 121.081V119.919C142.126 119.891 142.028 119.877 141.888 119.877C141.062 119.877 140.319 120.451 140.011 121.362H139.955L139.913 120.031H138.835C138.877 120.661 138.891 121.348 138.891 122.146V126.81ZM143.528 126.81H144.732V122.72C144.732 122.51 144.76 122.3 144.83 122.118C145.026 121.502 145.587 120.885 146.357 120.885C147.296 120.885 147.772 121.67 147.772 122.748V126.81H148.976V122.622C148.976 122.398 149.018 122.174 149.074 122.006C149.285 121.404 149.831 120.885 150.531 120.885C151.526 120.885 152.002 121.67 152.002 122.972V126.81H153.207V122.818C153.207 120.465 151.876 119.877 150.979 119.877C150.335 119.877 149.887 120.045 149.481 120.353C149.201 120.563 148.934 120.857 148.724 121.236H148.696C148.402 120.437 147.702 119.877 146.777 119.877C145.657 119.877 145.026 120.479 144.648 121.123H144.606L144.55 120.031H143.472C143.514 120.591 143.528 121.165 143.528 121.866V126.81ZM160.084 126.81C160 126.348 159.972 125.774 159.972 125.185V122.65C159.972 121.292 159.467 119.877 157.394 119.877C156.54 119.877 155.728 120.115 155.167 120.479L155.447 121.292C155.924 120.983 156.582 120.787 157.212 120.787C158.599 120.787 158.753 121.796 158.753 122.356V122.496C156.134 122.482 154.677 123.379 154.677 125.017C154.677 125.998 155.377 126.964 156.75 126.964C157.717 126.964 158.445 126.488 158.823 125.956H158.865L158.963 126.81H160.084ZM158.781 124.527C158.781 124.653 158.753 124.793 158.711 124.919C158.515 125.494 157.955 126.054 157.072 126.054C156.442 126.054 155.91 125.676 155.91 124.877C155.91 123.561 157.436 123.323 158.781 123.351V124.527ZM162.192 118.406V120.031H161.141V120.969H162.192V124.667C162.192 125.466 162.318 126.068 162.668 126.432C162.962 126.768 163.425 126.95 163.999 126.95C164.475 126.95 164.853 126.88 165.091 126.782L165.035 125.858C164.881 125.9 164.643 125.942 164.321 125.942C163.635 125.942 163.397 125.466 163.397 124.625V120.969H165.161V120.031H163.397V118.084L162.192 118.406ZM167.782 126.81V120.031H166.549V126.81H167.782ZM167.165 117.356C166.717 117.356 166.395 117.692 166.395 118.126C166.395 118.546 166.703 118.882 167.137 118.882C167.627 118.882 167.936 118.546 167.922 118.126C167.922 117.692 167.627 117.356 167.165 117.356ZM172.703 119.877C170.826 119.877 169.342 121.207 169.342 123.477C169.342 125.62 170.756 126.964 172.591 126.964C174.23 126.964 175.967 125.872 175.967 123.365C175.967 121.292 174.65 119.877 172.703 119.877ZM172.675 120.801C174.132 120.801 174.706 122.258 174.706 123.407C174.706 124.933 173.824 126.04 172.647 126.04C171.443 126.04 170.588 124.919 170.588 123.435C170.588 122.146 171.219 120.801 172.675 120.801ZM177.519 126.81H178.752V122.734C178.752 122.524 178.78 122.314 178.836 122.16C179.046 121.474 179.676 120.899 180.489 120.899C181.651 120.899 182.058 121.81 182.058 122.902V126.81H183.29V122.762C183.29 120.437 181.833 119.877 180.895 119.877C179.774 119.877 178.99 120.507 178.654 121.151H178.626L178.556 120.031H177.463C177.505 120.591 177.519 121.165 177.519 121.866V126.81Z" fill="black"/>
</g>
</svg>
