<svg width="16" height="15" viewBox="0 0 16 15" fill="none" xmlns="http://www.w3.org/2000/svg">
<line x1="0.5" y1="-0.5" x2="15.5" y2="-0.5" transform="matrix(-1 0 0 1 16 7.84753)" stroke="black" stroke-linecap="round"/>
<circle r="2.28571" transform="matrix(-1 0 0 1 10.5905 7.46662)" fill="white"/>
<path d="M7.92375 7.46672C7.92375 8.93947 9.11765 10.1334 10.5904 10.1334C12.0632 10.1334 13.2571 8.93947 13.2571 7.46672C13.2571 5.99396 12.0632 4.80005 10.5904 4.80005C9.11765 4.80005 7.92375 5.99396 7.92375 7.46672ZM12.3919 7.46672C12.3919 8.46168 11.5854 9.26825 10.5904 9.26825C9.59545 9.26825 8.78888 8.46168 8.78888 7.46672C8.78888 6.47175 9.59545 5.66518 10.5904 5.66518C11.5854 5.66518 12.3919 6.47175 12.3919 7.46672Z" fill="black"/>
<line x1="0.5" y1="2.54749" x2="15.5" y2="2.54749" stroke="black" stroke-linecap="round"/>
<circle cx="3.80964" cy="2.66657" r="2.28571" fill="white"/>
<path d="M6.47616 2.66667C6.47616 4.13943 5.28225 5.33333 3.80949 5.33333C2.33673 5.33333 1.14282 4.13943 1.14282 2.66667C1.14282 1.19391 2.33673 0 3.80949 0C5.28225 0 6.47616 1.19391 6.47616 2.66667ZM2.00795 2.66667C2.00795 3.66163 2.81453 4.4682 3.80949 4.4682C4.80445 4.4682 5.61102 3.66163 5.61102 2.66667C5.61102 1.67171 4.80445 0.865131 3.80949 0.865131C2.81453 0.865131 2.00795 1.67171 2.00795 2.66667Z" fill="black"/>
<line x1="0.5" y1="12.1476" x2="15.5" y2="12.1476" stroke="black" stroke-linecap="round"/>
<circle cx="3.80964" cy="12.2664" r="2.28571" fill="white"/>
<path d="M6.47616 12.2665C6.47616 13.7393 5.28225 14.9332 3.80949 14.9332C2.33673 14.9332 1.14282 13.7393 1.14282 12.2665C1.14282 10.7938 2.33673 9.59985 3.80949 9.59985C5.28225 9.59985 6.47616 10.7938 6.47616 12.2665ZM2.00795 12.2665C2.00795 13.2615 2.81453 14.0681 3.80949 14.0681C4.80445 14.0681 5.61102 13.2615 5.61102 12.2665C5.61102 11.2716 4.80445 10.465 3.80949 10.465C2.81453 10.465 2.00795 11.2716 2.00795 12.2665Z" fill="black"/>
</svg>
