<svg width="24" height="24" viewBox="0 0 24 24" fill="none" xmlns="http://www.w3.org/2000/svg">
<path d="M12.0004 22.7604C10.9104 22.7604 9.83039 22.4404 8.98039 21.8104L4.68039 18.6004C3.54039 17.7504 2.65039 15.9704 2.65039 14.5604V7.12043C2.65039 5.58043 3.78039 3.94043 5.23039 3.40043L10.2204 1.53043C11.2104 1.16043 12.7704 1.16043 13.7604 1.53043L18.7504 3.40043C20.2004 3.94043 21.3304 5.58043 21.3304 7.12043V14.5504C21.3304 15.9704 20.4404 17.7404 19.3004 18.5904L15.0004 21.8004C14.1704 22.4404 13.0904 22.7604 12.0004 22.7604ZM10.7504 2.94043L5.76039 4.81043C4.91039 5.13043 4.16039 6.21043 4.16039 7.13043V14.5604C4.16039 15.5104 4.83039 16.8404 5.58039 17.4004L9.88039 20.6104C11.0304 21.4704 12.9704 21.4704 14.1304 20.6104L18.4304 17.4004C19.1904 16.8304 19.8504 15.5104 19.8504 14.5604V7.12043C19.8504 6.21043 19.1004 5.13043 18.2504 4.80043L13.2604 2.93043C12.5804 2.69043 11.4204 2.69043 10.7504 2.94043Z" fill="#101010"/>
<path d="M10.6602 14.2301C10.4702 14.2301 10.2802 14.1601 10.1302 14.0101L8.52023 12.4001C8.23023 12.1101 8.23023 11.6301 8.52023 11.3401C8.81023 11.0501 9.29023 11.0501 9.58023 11.3401L10.6602 12.4201L14.4302 8.65012C14.7202 8.36012 15.2002 8.36012 15.4902 8.65012C15.7802 8.94012 15.7802 9.42012 15.4902 9.71012L11.1902 14.0101C11.0402 14.1601 10.8502 14.2301 10.6602 14.2301Z" fill="#101010"/>
</svg>
